<svg width="445" height="481" viewBox="0 0 445 481" fill="none" xmlns="http://www.w3.org/2000/svg">
    <path d="M352.92 -4.40159e-05L357.465 1.47159L358.953 1.40001L361.288 4.46935L362.464 4.1145L362.361 6.10799L360.221 7.10571L356.778 7.86795L356.301 8.28856L353.311 8.13414L351.501 5.63616L348.69 5.07538L348.647 4.18258L350.337 2.11274L352.92 -4.40159e-05ZM443.251 54.8135L444.411 60.3256L444.502 62.2103L444.195 64.1142L443.648 65.1348L442.477 65.5889L439.59 65.5288L435.617 63.5326L433.037 61.5688L432.238 61.5077L431.955 61.8196L432.651 63.8742L432.529 65.4708L432.213 67.1763L431.793 68.7873L431.161 70.1103L429.655 71.8729L427.038 73.2914L419.822 76.2236L419.279 77.3434L417.242 84.6001L416.695 85.6207L415.845 86.5565L413.318 87.7717L412.051 86.2418L410.945 83.9088L411.029 81.5186L413.785 76.8123L416.405 73.4052L417.146 72.2758L418.576 68.926L415.006 60.8453L409.232 58.6374L402.598 55.0789L400.117 53.1102L396.242 49.0213L393.477 45.2767L391.091 45.292L388.56 46.4081L384.66 50.0756L382.365 51.9757L381.099 52.5337L380.806 52.6473L377.882 51.7937L374.698 51.748L372.133 52.1696L371.165 52.7133L367.866 58.5394L365.519 61.4362L364.179 62.4949L363.263 64.1298L362.598 66.8463L361.157 76.1623L359.935 79.701L359.738 81.7985L360.341 88.1328L360.211 91.619L358.662 94.5769L357.534 95.9237L355.961 96.2976L353.912 97.0922L352.207 98.8645L351.027 101.208L349.882 106.334L347.592 108.333L345.287 107.947L343.51 106.143L339.971 104.922L337.349 104.153L334.277 102.312L331.627 100.948L329.232 100.765L327.934 102.717L326.928 104.555L322.933 106.238L320.709 107.538L317.747 107.979L316.494 106.747L312.092 106.163L306.886 105.419L305.398 105.491L304.792 103.233L303.25 100.126L299.313 94.7474L297.73 92.835L294.728 88.3063L291.225 83.7023L290.725 83.627L288.532 83.5336L285.368 83.8847L283.337 85.0761L282.114 86.5269L281.969 87.6276L283.463 91.831L283.119 92.9413L282.548 93.4659L279.614 92.4139L276.047 92.6849L275.217 94.0174L273.039 94.2216L266.813 95.0182L269.758 98.3565L270.717 99.7023L271.016 101.776L270.701 105.569L269.57 108.905L268.206 111.556L265.354 114.278L269.942 116.642L267.034 120.262L265.707 121.618L264.011 121.501L260.978 120.454L253.697 117.921L250.272 116.992L247.182 116.842L245.595 116.919L239.028 114.749L237.753 115.108L235.524 116.309L235.341 118.704L235.726 124.651L236.244 129.2L235.475 131.822L234.668 133.651L232.318 138.536L226.308 135.544L222.235 133.553L219.794 136.554L213.599 142.121L210.817 152.496L210.633 152.803L208.773 155.478L206.351 156.787L204.495 157.473L203.546 160.502L206.331 164.643L207.73 166.863L209.097 170.476L209.008 172.767L208.778 174.17L206.138 177.18L200.653 185.1L195.579 193.298L193.506 195.685L194.818 202.283L193.128 204.353L189.563 206.712L187.721 207.695L185.761 208.287L179.554 209.48L180.985 216.471L181.529 219.527L181.615 221.312L181.106 223.126L180.475 226.537L179.866 238.697L179.035 240.029L178.003 243.36L174.407 251.288L171.476 256.5L167.266 264.06L171.046 266.165L174.5 267.689L175.318 270.235L176.02 274.476L176.059 277.358L174.893 279.999L173.987 281.832L173.336 282.759L168.531 282.095L162.329 281.3L160.742 281.376L157.208 282.341L154.016 284.185L152.397 285.655L151.929 286.274L149.9 289.553L146.303 295.394L144.339 297.974L145.097 301.318L141.94 308.032L144.536 314.469L144.645 314.663L145.959 317.185L144.751 318.933L144.298 319.85L144.639 322.816L145.094 326.075L144.892 328.073L144.898 330.261L148.535 339.73L148.645 342.011L148.518 343.509L147.812 349.509L146.9 357.407L149.282 359.381L152.575 361.708L154.408 362.614L157.225 365.362L159.447 368.138L159.24 370.037L158.745 372.149L157.924 373.68L157.225 375.702L156.9 377.209L156.522 377.625L152.961 377.995L151.105 378.681L150.141 379.324L150.597 382.583L153.07 388.529L155.061 392.709L155.79 395.458L155.333 398.363L154.809 399.88L154.905 401.864L154.595 405.756L153.301 407.807L151.616 409.976L149.708 411.659L148.14 412.132L146.761 412.397L145.907 413.233L145.128 415.657L144.454 418.175L142.018 421.275L142.17 422.361L143.334 425.885L144.422 429.909L143.81 433.717L143.306 437.718L142.24 440.354L140.597 441.328L139.382 440.89L137.822 437.385L137.68 436.497L137.33 435.42L133.408 434.515L132.714 434.549L131.197 434.025L130.295 433.87L128.49 433.559L126.85 430.456L125.134 427.854L124.883 426.773L124.744 421.808L124.143 419.649L123.825 417.179L122.928 419.211L123.671 422.257L122.444 423.609L120.885 424.28L121.07 426.061L121.779 426.325L121.969 428.205L121.706 431.002L118.927 437.3L118.365 438.023L118.006 438.836L116.39 438.317L114.388 440.103L112.419 440.496L111.634 438.645L108.732 436.2L107.447 436.361L108.7 437.593L109.971 439.222L109.329 440.347L108.768 441.07L107.695 441.519L103.832 443.892L105.288 445.214L104.174 446.859L102.795 447.124L102.139 447.951L101.889 448.957L97.8609 452.034L91.4734 459.799L88.1017 462.049L85.826 464.346L83.738 464.347L81.1504 466.36L74.4813 468.272L69.984 467.792L66.8384 468.54L65.0901 467.332L64.8485 466.448L64.924 465.948L65.193 465.338L64.5881 465.168L63.3931 465.126L62.9257 465.745L62.8932 467.139L62.3173 467.564L59.8982 466.885L59.2698 466.22L59.9918 464.694L61.4177 463.332L61.1058 463.049L60.77 462.27L60.0709 462.204L57.9972 462.503L56.3013 462.385L50.603 459.677L49.2373 458.151L44.6493 455.787L42.5366 453.204L41.3021 450.281L41.2726 447.598L41.6624 443.304L42.5029 442.17L46.5423 443.467L50.7286 445.751L51.3191 445.623L52.5133 443.577L54.9168 441.871L54.2032 441.507L50.6188 443.469L49.1824 442.544L46.999 440.561L46.9465 439.47L47.886 438.331L48.1168 436.928L47.554 435.563L47.6617 433.669L49.1535 431.609L51.538 429.505L53.2329 427.535L54.961 426.259L54.7436 425.871L52.6988 426.765L50.7769 428.15L48.501 430.447L45.7055 432.272L43.6556 433.066L42.6923 433.709L41.1291 434.282L39.6612 436.838L37.9281 438.015L34.7586 438.267L33.9784 436.514L34.5609 430.024L35.4001 426.802L36.2824 424.472L37.8505 423.999L38.9597 422.256L39.9517 422.208L40.7835 422.963L43.9912 423.505L45.4782 421.346L47.5469 420.948L51.2162 418.683L51.0978 418.291L48.6418 418.907L47.1586 419.077L45.0001 419.678L43.7907 419.339L43.1191 417.78L43.9405 416.249L47.2453 412.611L48.3641 411.065L48.9916 409.643L48.8448 408.656L49.3444 406.643L52.6493 403.004L55.3505 401.284L56.31 402.629L55.7218 406.933L55.8077 408.719L57.6894 402.364L58.6098 400.829L59.6483 399.685L62.2934 398.862L63.0391 397.831L59.8791 398.282L52.3555 401.03L49.2862 403.365L48.4745 405.094L46.4115 407.679L45.3968 409.319L45.0153 411.724L43.7877 413.075L42.1253 413.652L39.8876 416.743L39.0101 419.171L36.7202 421.17L35.3038 422.73L34.8317 423.25L34.1048 424.677L33.4153 424.809L32.7818 424.044L32.5969 422.264L32.6521 419.278L33.6429 417.142L34.0387 415.035L33.2489 413.085L33.6876 411.871L34.6796 411.823L36.5931 412.328L38.5723 412.133L41.6702 410.393L41.1313 409.524L39.7376 409.492L37.1634 409.715L34.9095 408.332L33.0798 405.437L32.0908 401.408L32.5295 400.194L38.5783 395.727L40.1742 393.761L39.1727 393.611L36.9015 396.007L33.5957 397.558L31.4171 395.674L30.2258 393.643L29.4158 389.208L29.5044 386.917L29.0588 383.856L30.4991 382.793L32.1102 383.212L33.707 383.334L37.2636 382.865L45.1087 380.598L50.2204 381.446L52.2986 381.247L55.3968 379.507L58.1645 379.175L60.305 380.265L61.4631 381.601L61.6528 383.481L62.7021 384.624L63.3773 384.194L62.8097 382.73L62.6009 380.453L70.8093 377.473L71.7536 376.433L68.4609 376.194L67.3544 373.861L68.9683 370.204L68.746 369.717L66.9521 371.693L66.188 374.414L66.6851 376.478L66.3359 377.489L64.6735 378.066L60.8144 378.451L58.2915 377.677L55.9861 377.291L55.1591 376.635L55.3851 375.133L54.9739 374.854L54.0487 376.291L53.3842 379.007L51.6272 379.688L46.6196 378.935L39.4068 379.878L36.2001 381.425L34.1075 381.326L30.4218 379.118L28.9425 377.3L28.2604 373.455L28.3776 371.759L31.1218 370.931L32.5104 370.864L33.7571 369.909L32.5382 369.371L30.7943 368.262L29.5888 365.934L27.8643 365.221L26.6776 363.29L26.232 360.229L26.4295 358.132L27.2887 357.394L29.4951 357.785L35.2293 357.112L40.7901 359.032L44.5179 360.046L51.929 359.092L56.203 356.998L55.3855 356.54L50.6764 357.86L46.3119 358.07L38.4694 356.26L35.2618 355.718L31.9035 356.178L30.0845 355.57L28.8882 353.44L29.4814 349.235L31.0258 348.266L31.9709 349.314L33.067 349.361L34.0769 347.622L35.0211 346.583L35.705 344.263L38.68 342.032L39.9598 341.771L41.797 340.689L43.0016 340.929L43.843 341.883L44.8731 342.629L46.9513 342.429L53.0206 340.447L53.6911 339.918L54.8146 338.472L50.9747 339.253L47.7488 340.402L45.6799 340.8L45.3202 339.525L46.0614 338.396L47.1944 337.148L47.6942 335.135L48.9409 334.181L50.3296 334.114L53.2864 333.574L55.3458 332.978L58.9311 333.103L64.326 333.639L67.8886 335.357L69.1687 335.097L70.5335 334.534L71.0953 333.811L68.3787 333.146L68.1278 332.065L68.3873 331.257L72.6755 329.46L77.522 328.928L76.6663 327.677L66.242 330.067L63.4026 328.911L61.2201 329.016L59.8648 329.777L55.8406 330.866L55.1177 330.304L55.8063 328.084L58.0151 324.398L58.1708 323.496L59.2189 322.55L65.4674 320.162L68.4231 317.534L69.7977 317.17L71.1959 317.301L73.2648 316.903L77.2661 317.407L79.1994 320.396L80.9336 321.307L86.2732 324.828L86.0224 323.747L81.3103 318.803L79.5618 317.595L78.1483 315.078L78.4305 312.678L79.8421 311.019L84.9574 309.878L85.8073 308.942L85.83 307.351L84.9839 306.297L83.104 306.487L81.4834 305.869L81.0008 304.103L81.5388 302.884L84.4097 300.558L85.9633 299.788L88.7027 298.86L93.6444 300.313L94.0843 301.187L92.8004 303.436L92.9569 304.621L94.152 304.663L96.7578 300.959L100.008 300.305L101.358 299.445L102.921 298.872L105.36 302.036L106.405 303.08L107.118 303.443L107.942 306.088L108.641 306.154L109.566 304.717L111.318 303.937L113.774 303.322L117.974 303.816L119.835 303.229L120.732 303.285L119.72 300.848L119.092 300.182L119.879 297.957L120.729 297.022L123.529 295.296L126.274 294.468L127.988 292.894L130.301 291.391L129.852 290.319L129.096 289.063L127.504 289.04L126.875 288.374L128.783 286.691L131.375 284.777L130.846 284.107L128.824 283.408L127.265 284.08L125.051 285.578L122.477 287.89L123.403 288.541L124.784 290.364L123.018 292.934L113.512 299.954L108.941 302.063L106.744 301.87L106.162 300.109L105.108 298.867L103.888 296.241L102.108 296.426L101.144 297.069L100.605 296.2L101.26 293.285L102.738 290.927L105.231 289.018L106.42 286.872L107.449 283.442L111.065 280.087L116.135 271.789L120.475 268.995L121.928 266.142L124.445 264.728L126.622 262.436L128.398 262.152L131.477 260.015L133.148 257.548L131.953 257.506L129.251 259.227L127.693 259.899L127.668 257.315L128.338 254.697L130.505 252.207L141.276 244.63L142.424 245.767L143.814 247.788L147.163 247.13L150.742 242.981L153.508 238.473L151.958 239.343L150.358 241.21L147.104 243.852L145.537 244.325L144.629 244.07L144.052 242.408L142.838 241.969L141.766 242.418L140.618 241.281L140.281 238.413L141.46 233.982L142.412 231.053L143.498 228.813L147.859 222.34L148.689 218.919L150.686 217.033L153.483 217.296L154.253 216.762L153.151 214.528L150.089 212.886L149.838 211.805L159.714 208.347L164.48 208.217L165.797 206.662L168.329 205.546L170.227 203.665L169.197 202.919L164.417 204.839L161.479 205.776L160.091 205.843L159.028 206.491L155.169 206.875L153.928 199.677L154.332 195.68L155.825 195.708L155.941 191.924L157.518 189.561L159.776 188.955L160.918 187.906L162.509 185.841L165.31 186.204L168.168 185.668L167.431 184.809L163.902 183.786L162.909 181.745L164.042 180.498L165.387 179.538L166.568 179.283L168.753 175.101L170.061 173.348L171.663 173.569L173.759 171.678L175.97 172.169L177.996 170.878L180.834 169.946L191.434 169.138L191.651 167.437L189.449 167.146L181.594 167.126L177.526 167.321L175.859 167.799L175.235 167.233L175.287 166.236L176.698 164.577L177.307 162.758L179.979 158.354L183.312 155.311L185.924 155.881L188.836 158.525L190.834 158.727L191.77 159.577L193.439 163.275L194.138 163.34L193.669 159.784L195.41 156.717L194.876 155.948L192.052 157.177L189.817 156.191L187.927 154.094L187.335 152.134L188.331 150.098L189.275 149.058L188.523 147.901L184.312 151.285L181.27 152.128L180.06 151.788L180.616 148.878L180.11 146.616L184.004 140.761L185.359 140L187.665 140.386L189.824 141.873L191.596 141.49L193.437 140.506L193.068 139.032L188.873 138.638L187.72 137.401L188.055 136.092L190.77 134.669L193.433 132.154L196.574 131.307L199.067 129.398L199.582 129.771L200.013 130.446L201.23 137.148L203.774 142.494L204.676 142.65L203.559 138.031L204.291 136.703L205.334 135.658L205.574 134.454L204.365 134.114L203.292 132.476L201.645 127.186L202.075 125.773L205.011 122.749L208.847 121.868L213.009 123.656L214.398 123.589L216.755 122.979L220.642 121.102L222.994 120.392L224.184 120.335L224.443 119.527L223.329 119.083L222.908 118.606L222.001 118.352L218.373 119.421L208.142 119.615L207.102 118.671L206.823 116.994L207.799 114.561L208.927 113.214L212.682 110.647L216.734 110.154L220.795 105.683L222.328 102.428L222.983 97.425L225.366 93.2339L231.803 90.6374L232.053 89.6311L231.259 87.5813L231.176 83.8071L232.747 79.2573L233.861 77.6129L234.447 77.3859L235.907 78.807L237.741 81.801L240.506 83.4577L244.091 83.5835L245.04 82.643L242.177 80.9911L239.984 78.8098L239.676 76.5377L240.611 75.2997L242.103 75.3273L243.974 74.939L245.683 73.266L245.928 72.1605L245.956 70.6678L246.38 69.1559L248.882 65.3568L256.901 62.5848L257.544 63.5481L257.486 70.6102L256.813 75.2162L256.97 78.4898L258.4 75.1399L260.044 65.9135L261.426 61.5717L263.093 59.0058L264.353 58.3486L265.581 56.9971L267.229 56.1224L267.773 57.0905L268.379 59.3481L267.872 67.4261L268.091 69.9012L267.261 73.3217L263.75 80.9475L263.996 81.93L264.87 81.4902L266.301 80.2283L270.723 72.9562L274.933 73.6486L275.003 73.0486L273.514 71.0323L271.832 69.1247L271.216 66.6686L271.095 60.0129L272.256 57.2725L275.841 57.3983L278.005 56.8966L279.054 58.0392L281.231 57.835L282.485 52.9028L285.442 52.3628L288.174 55.4131L291.453 57.4427L294.081 60.3985L294.737 59.5716L293.005 52.4962L291.388 49.8894L288.048 48.6581L284.419 45.5516L283.454 44.1066L283.6 43.0059L286.628 41.866L290.653 42.8655L294.09 39.9162L295.12 40.662L297.831 39.1397L299.608 40.9433L300.671 40.2956L301.142 37.6879L305.43 35.8908L308.279 37.2451L309.839 38.6615L310.676 41.604L312.044 47.3049L314.374 50.275L315.835 51.6962L317.441 52.0167L318.158 50.3913L316.58 48.5781L316.097 46.8117L316.581 42.4136L317.294 40.6891L321.641 33.9178L325.343 30.2598L327.709 29.8477L331.404 21.9146L332.528 20.4686L333.605 20.1185L333.216 18.2481L330.877 17.1675L330.664 14.7915L333.501 11.7716L336.838 6.73915L338.61 6.35568L339.768 7.69197L343.345 9.7073L345.646 12.0823L347.295 13.2955L348.273 12.9502L348.976 11.0272L349.925 10.0867L352.131 10.4777L353.478 11.606L354.48 11.7567L355.406 12.4082L355.681 13.9858L353.882 15.862L350.833 20.6817L347.911 26.0919L346.954 28.9219L346.206 36.1166L343.945 40.799L343.9 43.9828L344.963 45.4231L347.684 44.0991L350.95 39.6666L351.624 35.0605L359.558 22.2505L363.291 15.1111L367.577 9.13812L370.099 7.82367L371.476 11.6351L370.722 16.6427L368.891 19.9125L370.351 21.3336L370.235 25.1174L369.839 27.2244L369.647 29.4211L369.738 31.3058L371.102 30.743L376.273 26.6166L377.457 22.2844L378.593 19.048L379.055 16.2419L381.014 13.5625L384.982 13.3716L385.133 12.3701L380.199 9.02807L379.523 7.37033L381.005 5.11164L385.165 0.6362L387.47 1.02244L388.907 1.9476L394.396 2.37954L398.705 5.15504L398.731 9.82686L397.934 11.8538L397.098 13.0871L391.913 16.9158L391.106 18.7443L392.821 19.2584L396.307 17.301L397.276 18.8453L396.276 22.8704L396.364 28.8318L396.135 32.3228L396.287 35.4971L396.864 37.1596L398.033 30.4418L398.447 28.7316L400.406 26.0522L400.952 20.8558L402.739 14.6054L404.849 10.9245L406.19 9.86572L410.659 9.75022L412.61 11.0483L414.44 13.9431L415.786 15.0714L419.816 16.1701L421.282 17.6905L421.627 18.6681L422.628 18.8188L425.197 16.4084L426.963 15.9257L430.012 19.3584L429.541 21.9662L429.777 22.7503L433.24 22.3848L436.164 23.2384L441.878 28.3326L442.592 30.7839L442.438 33.7742L434.66 37.4294L431.439 40.766L425.942 42.2235L406.895 41.0518L407.401 43.3143L420.833 47.6395L421.694 48.9901L421.44 51.9851L421.555 54.3658L421.829 55.9434L422.893 57.3837L424.513 58.0017L427.768 57.4474L429.393 58.1646L430.427 56.9218L430.633 52.9348L431.582 51.9943L433.524 53.0941L434.523 57.3214L435.038 57.6942L435.782 54.5762L437.578 54.6887L439.547 54.2957L443.251 54.8135ZM318.104 16.1911L317.873 17.5942L317.345 19.0116L316.023 20.4672L312.322 26.2131L310.084 27.2156L309.432 28.1418L308.563 28.6807L305.648 28.0255L304.907 29.1548L304.152 29.9866L302.083 30.3844L300.883 30.2433L297.608 28.3129L295.614 26.122L294.531 24.285L297.408 24.1466L298.376 23.6029L300.379 23.9042L301.474 21.863L303.964 21.9421L308.658 20.3243L310.482 21.032L314.23 16.278L315.525 16.3152L317.347 14.935L318.104 16.1911ZM328.251 26.6399L325.162 28.5782L323.305 27.1761L322.435 25.6272L322.169 22.16L322.466 20.0578L323.901 18.895L324.932 19.6409L325.262 20.321L326.982 20.9342L329.071 23.0211L328.251 26.6399ZM321.544 27.758L321.942 29.8268L322.122 31.5084L320.649 33.9655L317.231 37.3116L317.472 38.1948L316.32 39.0456L314.464 39.7315L313.443 39.184L313.414 36.501L313.078 35.7217L311.742 36.8797L310.187 35.5625L310.12 34.1737L310.459 32.9643L311.758 31.0127L313.977 29.6134L315.489 30.0378L320.215 24.9385L320.759 25.9066L321.544 27.758ZM258.551 45.2052L259.468 45.6582L260.247 45.3224L260.96 45.6858L262.459 47.9006L263.99 48.7217L264.141 49.8082L262.805 50.9661L261.034 51.3496L259.13 51.0435L258.468 49.6834L257.758 47.3312L256.062 45.1261L255.768 43.1517L257.142 42.7873L258.551 45.2052ZM250.429 52.0586L252.027 54.2685L253.307 54.0081L253.661 53.0963L254.535 52.6565L256.377 53.761L256.18 55.8584L253.824 58.5569L252.215 62.3131L249.977 63.3156L248.866 62.9713L246.888 65.2538L245.406 67.5125L243.853 70.3712L243.826 71.8639L243.581 72.9694L237.483 74.3564L235.235 75.1606L232.811 74.3823L231.629 72.5501L231.978 71.539L234.34 71.0277L234.358 69.3365L234.901 68.2168L235.666 67.5834L236.156 65.3724L237.119 64.7295L238.928 65.1396L240.043 63.4952L240.723 63.1642L241.578 64.4156L241.889 62.611L241.411 60.9437L241.557 59.843L243.7 56.8565L244.587 54.6264L245.909 53.1709L247.307 53.3024L247.604 51.2002L247.107 49.1362L247.14 47.7427L248.168 44.3127L249.452 44.1515L250.191 47.0987L250.429 52.0586ZM275.578 49.8546L274.733 50.8895L273.363 51.3531L272.64 50.7913L271.53 50.447L270.349 50.7026L269.271 48.9648L269.299 47.4721L270.488 45.3269L273.109 44.0077L275.315 44.3987L275.939 44.9652L275.578 49.8546ZM428.144 54.9436L425.027 56.2867L424.583 55.3138L425.201 53.6932L425.837 50.3816L427.131 50.4188L428.478 51.5471L429.542 52.9873L428.144 54.9436ZM222.418 73.2914L224.517 75.5768L225.376 74.8394L227.147 74.4559L228.475 75.1875L229.638 76.6229L230.932 76.6601L231.821 78.6058L232.342 81.1659L231.54 83.0936L230.293 84.0484L230.006 86.349L230.65 89.4003L227.727 90.6346L224.378 91.2929L223.017 89.8669L220.467 92.6741L217.994 97.0684L216.728 97.6264L216.567 96.3417L214.54 95.5443L212.055 95.5644L212.107 94.5677L212.57 93.8494L214.704 92.7525L214.996 90.551L214.413 86.7014L214.719 84.7976L214.756 83.5033L216.074 81.9485L220.67 82.4233L221.194 80.9068L220.754 80.0331L218.297 78.5604L218.641 77.4502L220.28 76.3771L221.862 76.2016L222.282 74.5905L222.348 73.8914L222.418 73.2914ZM195.575 116.74L195.788 117.028L197.883 113.049L200.306 111.74L200.437 110.341L201.367 109.004L201.168 106.926L201.583 105.215L202.849 104.657L203.614 104.024L204.492 103.684L206.146 104.996L207.115 106.54L208.373 109.96L208.04 113.356L205.188 116.078L202.864 117.383L200.627 120.474L199.551 122.912L198.483 123.46L197.78 123.295L197.156 122.729L195.965 122.786L194.677 124.936L190.691 126.818L189.08 126.398L188.88 124.32L187.898 124.566L186.529 127.118L185.08 127.983L184.102 128.328L182.273 127.521L177.519 132.025L172.895 133.043L171.383 132.619L171.259 130.039L174.072 126.524L176.443 124.123L184.798 122.13L189.721 114.933L190.648 107.332L191.705 104.498L191.033 102.939L189.63 102.708L189.417 100.332L189.982 97.6205L192.583 93.8166L193.995 92.1578L196.265 87.6739L197.408 86.6247L198.796 86.5579L200.242 87.6814L200.158 90.0717L198.38 94.4326L195.575 98.1469L196.096 100.707L197.387 102.733L197.856 106.29L198.123 109.757L196.065 114.529L195.575 116.74ZM185.615 101.907L187.993 105.869L189.099 108.202L188.52 112.704L186.547 115.086L183.293 115.64L181.002 115.552L179.56 114.527L179.305 113.346L178.492 112.988L176.386 114.68L174.908 114.95L172.966 113.85L172.379 111.989L174.348 109.508L175.249 107.576L177.54 107.665L178.164 108.231L179.472 108.566L180.156 106.246L179.882 104.669L180.424 103.549L183.24 104.209L183.035 99.9433L184.112 99.5931L184.518 99.7725L185.354 100.627L185.615 101.907ZM164.891 129.948L165.916 130.595L168.486 130.272L168.996 130.546L168.652 131.656L167.618 132.899L165.276 133.807L164.275 135.744L163.51 136.378L161.526 136.473L160.355 136.927L158.943 138.586L157.696 137.453L157.441 138.36L157.314 139.858L156.639 140.288L154.684 140.978L154.016 137.431L154.846 136.099L155.465 134.478L156.546 134.227L157.543 134.279L159.166 130.82L161.598 129.709L163.181 129.533L164.891 129.948ZM150.642 145.846L148.263 148.048L148.979 144.335L150.087 140.503L151.768 138.235L152.703 139.085L152.392 140.89L152.478 142.675L152.125 143.587L150.642 145.846ZM144.785 214.235L143.307 214.505L143.528 212.903L144.647 211.358L145.095 210.342L145.236 209.143L146.284 208.197L147.929 209.311L148.024 211.295L147.316 213.119L144.785 214.235ZM146.516 219.222L145.231 219.384L145.16 217.896L145.892 216.568L147.039 215.618L148.617 215.343L150.298 215.163L150.827 215.833L149.883 216.873L146.516 219.222ZM138.056 229.373L137.017 230.517L134.92 230.319L134.679 229.436L135.183 227.523L136.435 226.667L138.031 226.789L138.566 227.559L138.056 229.373ZM127.124 256.347L126.279 257.382L124.356 256.679L120.616 257.455L119.085 256.634L120.189 254.791L123.57 252.739L125.46 252.748L127.459 255.038L127.124 256.347ZM83.3223 298.622L81.4422 298.812L80.2185 298.175L82.8252 296.558L87.0239 294.964L87.3776 294.052L87.8689 293.929L88.6159 294.987L88.7866 296.47L88.324 297.188L83.3223 298.622ZM77.7866 309.626L76.1993 309.703L74.2908 309.298L73.048 308.264L72.8067 307.38L74.9317 306.085L77.1799 305.281L78.2339 306.523L78.4332 308.601L77.7866 309.626ZM29.0865 382.363L27.6177 382.832L26.413 382.591L26.6713 379.696L27.2428 379.171L28.1259 378.93L29.1942 380.469L29.0865 382.363ZM32.2769 405.277L32.5429 408.744L31.0407 408.518L30.2843 407.262L30.043 406.379L30.0466 404.39L29.649 402.321L30.0973 401.305L30.6875 401.177L31.7702 403.015L32.2769 405.277Z" fill="#C7CDEB" fill-opacity="0.6"/>
    <rect x="110.559" y="260.946" width="40.8707" height="40.8707" rx="9.88807" transform="rotate(8.38503 110.559 260.946)" fill="#78469A"/>
    <path fill-rule="evenodd" clip-rule="evenodd" d="M138.821 294.095L138.521 296.133L114.065 292.528L114.365 290.49L138.821 294.095ZM132.917 275.69C133.064 275.835 133.162 276.039 133.124 276.294C133.087 276.543 132.97 276.647 132.743 276.771L129.85 278.197L140.354 279.745C140.688 279.795 140.942 280.068 140.968 280.404L141.628 289.054C141.642 289.31 141.549 289.561 141.372 289.747L139.379 291.793C139.218 291.958 138.987 292.036 138.758 292.002L126.031 290.127L123.661 289.778L115.03 288.505C114.801 288.471 114.602 288.33 114.496 288.125L113.177 285.591C113.061 285.362 113.045 285.095 113.133 284.854L116.259 276.761C116.381 276.447 116.704 276.259 117.038 276.309L127.484 277.848L131.299 275.981L128.262 272.549L130.227 272.838L132.917 275.69ZM117.38 279.34C117.046 279.291 116.721 279.479 116.602 279.797L115.552 282.558C115.474 282.764 115.491 282.993 115.601 283.18C115.712 283.37 115.904 283.497 116.12 283.529L118.26 283.845C118.654 283.903 119.021 283.631 119.079 283.235L119.5 280.381C119.558 279.987 119.285 279.621 118.891 279.563L117.38 279.34ZM136.031 282.089C135.635 282.031 135.269 282.303 135.211 282.697L134.79 285.553C134.732 285.947 135.004 286.313 135.4 286.371L138.967 286.897C139.181 286.928 139.401 286.861 139.561 286.712C139.723 286.565 139.806 286.35 139.791 286.131L139.582 283.184C139.557 282.845 139.304 282.572 138.967 282.522L136.031 282.089ZM121.742 279.983C121.348 279.925 120.982 280.197 120.924 280.591L120.503 283.445C120.445 283.839 120.717 284.206 121.111 284.264L125.392 284.895C125.784 284.953 126.153 284.68 126.211 284.286L126.631 281.432C126.69 281.038 126.415 280.672 126.023 280.614L121.742 279.983ZM128.897 281.038C128.503 280.98 128.136 281.251 128.078 281.645L127.657 284.499C127.599 284.894 127.872 285.26 128.266 285.319L132.547 285.95C132.939 286.007 133.307 285.735 133.365 285.341L133.786 282.487C133.844 282.093 133.57 281.727 133.178 281.669L128.897 281.038Z" fill="white"/>
    <rect x="78.5195" y="344.41" width="40.8707" height="40.8707" rx="9.88807" transform="rotate(-21.2265 78.5195 344.41)" fill="#C5044E"/>
    <path fill-rule="evenodd" clip-rule="evenodd" d="M100.429 364.01C101.489 363.599 102.684 364.126 103.094 365.183C103.506 366.244 102.98 367.438 101.921 367.85C100.861 368.261 99.6658 367.735 99.2539 366.675C98.8433 365.618 99.37 364.421 100.429 364.01ZM113.774 358.827C114.833 358.415 116.029 358.943 116.44 360C116.852 361.06 116.324 362.255 115.265 362.667C114.206 363.078 113.011 362.552 112.599 361.492C112.188 360.434 112.714 359.239 113.774 358.827ZM114.153 345.862C114.484 345.733 114.856 345.869 115.039 346.177L119.587 353.905C119.607 353.941 119.626 353.977 119.64 354.015L120.377 355.912C120.524 356.29 120.341 356.717 119.971 356.861L117.193 357.94C116.204 356.736 114.559 356.311 113.027 356.906C111.496 357.501 110.57 358.925 110.653 360.48L103.848 363.123C102.859 361.919 101.214 361.495 99.6833 362.089C98.152 362.684 97.2245 364.108 97.3074 365.664L94.3362 366.818C94.0052 366.946 93.6258 366.696 93.493 366.354L89.8198 356.897C89.5521 356.208 89.9559 355.26 90.6297 354.998L114.153 345.862ZM92.2855 357.519C91.9159 357.663 91.7332 358.088 91.8807 358.467L92.9484 361.216C93.096 361.596 93.5176 361.786 93.8872 361.643L95.2335 361.12C95.6029 360.976 95.782 360.553 95.6348 360.173L94.567 357.424C94.4195 357.044 94.0014 356.853 93.6319 356.996L92.2855 357.519ZM96.3182 355.953C95.9468 356.097 95.7658 356.521 95.9133 356.901L96.9811 359.65C97.1287 360.03 97.5485 360.221 97.9199 360.076L103.297 357.988C103.668 357.844 103.851 357.418 103.704 357.039L102.636 354.29C102.489 353.91 102.067 353.72 101.695 353.864L96.3182 355.953ZM104.384 352.82C104.012 352.964 103.83 353.389 103.978 353.769L105.046 356.518C105.193 356.897 105.614 357.088 105.985 356.944L111.361 354.856C111.731 354.712 111.915 354.287 111.767 353.907L110.699 351.158C110.552 350.778 110.129 350.588 109.76 350.732L104.384 352.82ZM112.448 349.688C112.079 349.832 111.896 350.256 112.043 350.636L113.111 353.385C113.258 353.765 113.68 353.955 114.05 353.811L116.491 352.863C116.684 352.788 116.837 352.632 116.905 352.433C116.976 352.234 116.959 352.015 116.857 351.828L115.433 349.217C115.258 348.891 114.875 348.745 114.535 348.877L112.448 349.688Z" fill="white"/>
    <rect x="216.879" y="54.752" width="40.8707" height="40.8707" rx="9.88807" transform="rotate(-4.36957 216.879 54.752)" fill="#0C6693"/>
    <path fill-rule="evenodd" clip-rule="evenodd" d="M250.772 79.4036C251.07 79.3809 251.366 79.3824 251.654 79.4018L251.813 81.4817C251.526 81.4472 251.228 81.4354 250.929 81.4582C249.743 81.5488 249.229 81.8705 248.578 82.2773C247.829 82.7461 246.982 83.2768 245.291 83.4061C243.6 83.5353 242.68 83.1396 241.87 82.7899C241.165 82.4868 240.608 82.2469 239.425 82.3372C238.242 82.4276 237.727 82.7494 237.077 83.1562C236.33 83.6249 235.48 84.1551 233.789 84.285C233.17 84.3325 232.609 84.2808 232.53 84.2734C232.269 84.2488 232.024 84.2153 231.804 84.1653C231.294 84.0494 230.927 83.8969 230.876 83.8778C230.631 83.7884 230.586 83.7625 230.369 83.6688C229.664 83.3656 229.106 83.1257 227.923 83.2161C227.633 83.2383 227.383 83.2745 227.161 83.3223L227.003 81.2551C227.237 81.2147 227.49 81.1826 227.766 81.1616C229.457 81.0323 230.375 81.4291 231.185 81.7788C231.467 81.9002 231.732 82.0062 232.017 82.0874C232.292 82.1661 232.495 82.19 232.692 82.219C232.96 82.2586 233.264 82.2595 233.632 82.2314C234.817 82.1408 235.332 81.819 235.983 81.4122C236.73 80.9436 237.577 80.4118 239.268 80.2826C240.959 80.1535 241.877 80.5503 242.687 80.9C243.392 81.2031 243.949 81.443 245.135 81.3525C246.319 81.2619 246.834 80.94 247.484 80.5334C248.233 80.0645 249.081 79.5328 250.772 79.4036ZM242.829 62.9336C243.604 62.8745 244.323 63.2865 244.596 63.9455L246.375 68.2414L246.376 68.2412C247.104 68.1856 247.74 68.731 247.796 69.4589L248.149 74.0841C248.177 74.4478 247.904 74.7649 247.54 74.7927L246.879 74.8432L246.946 75.7235C247.008 76.5256 246.407 77.2259 245.604 77.2873C244.802 77.3486 244.102 76.7476 244.041 75.9455L243.973 75.0652L233.938 75.832L234.005 76.7123C234.067 77.5144 233.466 78.2148 232.664 78.2761C231.862 78.3372 231.162 77.7363 231.101 76.9342L231.034 76.054L230.371 76.1046C230.008 76.1323 229.691 75.8603 229.663 75.4966L229.31 70.8715C229.254 70.1436 229.798 69.508 230.526 69.4524L230.529 69.4521L231.639 64.9335C231.81 64.2413 232.457 63.7261 233.232 63.6669L242.829 62.9336ZM231.686 70.6919C231.1 70.7394 230.664 71.2472 230.711 71.8339C230.753 72.4129 231.261 72.8494 231.847 72.8048C232.428 72.7605 232.866 72.2516 232.823 71.6725C232.777 71.0857 232.266 70.6501 231.686 70.6919ZM245.419 69.6425C244.833 69.6898 244.396 70.1978 244.444 70.7846C244.485 71.3637 244.994 71.8002 245.58 71.7554C246.161 71.7109 246.599 71.2021 246.557 70.6231C246.51 70.0364 246 69.6008 245.419 69.6425ZM233.651 65.0295C233.348 65.0527 233.095 65.2592 233.033 65.5342L232.199 69.2354C232.189 69.2808 232.229 69.3222 232.279 69.3184L244.624 68.3751C244.674 68.3713 244.707 68.3242 244.69 68.281L243.304 64.7494C243.201 64.4869 242.919 64.3214 242.616 64.3446L233.651 65.0295Z" fill="white"/>
    <rect y="374.603" width="40.8707" height="40.8707" rx="9.88807" transform="rotate(-21.615 0 374.603)" fill="#0C6693"/>
    <path fill-rule="evenodd" clip-rule="evenodd" d="M35.777 389.643C37.0078 389.156 37.8834 389.113 38.6251 389.162L38.3762 391.211C37.858 391.189 37.3248 391.245 36.5357 391.558C35.4304 391.996 35.0345 392.456 34.5335 393.037C33.9591 393.706 33.3074 394.464 31.7309 395.089C30.1543 395.714 29.1596 395.608 28.2827 395.514C27.5197 395.433 26.9166 395.369 25.8117 395.807C24.7064 396.245 24.3105 396.705 23.8095 397.286C23.2332 397.956 22.5814 398.714 21.0051 399.339C18.9913 400.137 16.7891 399.708 16.6959 399.688L16.395 399.65L16.5718 397.598L17.0301 397.657C17.1207 397.673 18.8112 397.993 20.2464 397.424C21.3512 396.986 21.7468 396.526 22.2476 395.945C22.824 395.275 23.4764 394.517 25.053 393.892C26.6295 393.268 27.6253 393.373 28.5021 393.467C29.2654 393.547 29.8688 393.611 30.9722 393.174C32.0753 392.737 32.4709 392.277 32.9716 391.696C33.5461 391.027 34.2004 390.268 35.777 389.643ZM28.1351 375.187C28.4474 374.842 28.8022 374.948 29.0837 375.248L30.3618 376.57C30.3899 376.604 30.4355 376.615 30.4754 376.6L31.5386 376.179C31.8249 376.065 32.1531 376.152 32.3534 376.393L36.175 380.963C36.2052 380.999 36.255 381.012 36.2986 380.994L39.0395 379.908C39.4028 379.764 39.7878 380.062 39.7405 380.45L38.9038 387.347C37.9835 387.233 36.6963 387.065 34.9742 387.747C32.2931 388.809 32.8491 390.214 30.1678 391.276C27.4874 392.338 26.9308 390.934 24.2493 391.997C21.5682 393.059 22.1245 394.463 19.4438 395.526C18.262 395.994 17.4927 395.983 16.7724 395.915L17.3239 388.945C17.346 388.672 17.5222 388.434 17.7776 388.333L19.0559 387.826C19.0968 387.81 19.1232 387.769 19.1208 387.725L19.5365 382.632C19.5592 382.355 19.737 382.115 19.9952 382.013L23.4003 380.663L26.4889 379.439C26.5292 379.423 26.5679 379.377 26.5373 379.301L26.1862 378.415C26.0568 378.088 26.1192 377.717 26.348 377.458L28.1351 375.187ZM29.4214 381.061C29.2081 381.145 29.1031 381.386 29.1876 381.6L29.7934 383.129C29.8779 383.342 30.1197 383.446 30.333 383.361L34.0334 381.892C34.2423 381.809 34.39 381.61 34.1632 381.334L33.202 379.987C33.0633 379.793 32.8092 379.718 32.5873 379.806L29.4214 381.061ZM20.8891 384.441C20.7039 384.515 20.576 384.687 20.56 384.886L20.4214 386.668C20.3615 387.092 20.6488 387.195 20.8871 387.101L24.575 385.64C24.7866 385.556 24.8901 385.316 24.8063 385.105L24.1994 383.573C24.1156 383.361 23.8761 383.258 23.6645 383.342L20.8891 384.441ZM25.2116 382.729C24.9963 382.814 24.8914 383.058 24.9768 383.273L25.5779 384.79C25.6632 385.006 25.9066 385.112 26.122 385.027L28.7894 383.97C29.0048 383.884 29.1105 383.64 29.0251 383.425L28.424 381.907C28.3386 381.692 28.0944 381.586 27.8789 381.672L25.2116 382.729Z" fill="white"/>
    <rect x="94.5234" y="404.094" width="40.8707" height="40.8707" rx="9.88807" transform="rotate(-21.615 94.5234 404.094)" fill="#BF5826"/>
    <path fill-rule="evenodd" clip-rule="evenodd" d="M115.733 402.158C123.127 399.229 131.524 402.861 134.453 410.252C137.381 417.643 133.751 426.041 126.357 428.971C118.966 431.9 110.568 428.267 107.64 420.876C104.712 413.485 108.342 405.087 115.733 402.158ZM116.492 404.074C110.157 406.584 107.045 413.781 109.556 420.117C112.066 426.453 119.263 429.566 125.598 427.055C131.935 424.545 135.048 417.347 132.537 411.011C130.026 404.675 122.829 401.563 116.492 404.074ZM125.399 409.776L120.772 411.609L125.199 422.782L122.964 423.667L118.537 412.495L113.917 414.325L113.033 412.092L124.514 407.543L125.399 409.776Z" fill="white"/>
    <rect x="337.895" y="12.7363" width="40.8707" height="40.8707" rx="9.88807" transform="rotate(8.38503 337.895 12.7363)" fill="#A4BF4D"/>
    <path fill-rule="evenodd" clip-rule="evenodd" d="M347.26 40.603C348.384 40.7688 349.162 41.8179 348.997 42.9399C348.831 44.0653 347.783 44.8436 346.659 44.6781C345.535 44.5124 344.755 43.4646 344.921 42.3391C345.086 41.217 346.135 40.4373 347.26 40.603ZM361.422 42.6905C362.546 42.8562 363.326 43.9055 363.16 45.0276C362.994 46.1531 361.946 46.9313 360.821 46.7656C359.697 46.5997 358.918 45.5521 359.084 44.4268C359.25 43.3049 360.298 42.5251 361.422 42.6905ZM368.158 31.6061C368.509 31.658 368.765 31.9599 368.773 32.3186L368.908 41.2838C368.908 41.3246 368.906 41.3659 368.9 41.406L368.603 43.4194C368.544 43.8206 368.174 44.1014 367.782 44.0435L364.833 43.6089C364.568 42.0736 363.348 40.8915 361.722 40.652C360.097 40.4126 358.588 41.1923 357.892 42.5857L350.67 41.5212C350.405 39.9861 349.185 38.8041 347.56 38.5644C345.935 38.3249 344.425 39.1045 343.728 40.498L340.575 40.0332C340.224 39.9813 340.017 39.5766 340.071 39.2137L341.55 29.1766C341.658 28.4453 342.477 27.8207 343.193 27.9262L368.158 31.6061ZM343.387 30.9358C342.994 30.8781 342.626 31.1572 342.566 31.5602L342.136 34.4779C342.077 34.8807 342.349 35.2545 342.742 35.3124L344.17 35.523C344.563 35.5806 344.928 35.3008 344.987 34.8981L345.417 31.9804C345.477 31.5775 345.208 31.2045 344.816 31.1465L343.387 30.9358ZM347.667 31.5667C347.272 31.5086 346.905 31.788 346.846 32.191L346.416 35.1087C346.357 35.5116 346.627 35.8851 347.021 35.9432L352.728 36.7844C353.122 36.8422 353.491 36.5631 353.551 36.1604L353.981 33.2427C354.04 32.8398 353.767 32.4662 353.373 32.4079L347.667 31.5667ZM356.226 32.8284C355.832 32.7703 355.464 33.0496 355.405 33.4526L354.975 36.3703C354.916 36.7732 355.187 37.1469 355.581 37.205L361.287 38.046C361.679 38.1038 362.049 37.8247 362.109 37.4218L362.539 34.5041C362.598 34.1011 362.325 33.7273 361.932 33.6695L356.226 32.8284ZM364.785 34.09C364.393 34.0324 364.024 34.3115 363.965 34.7143L363.535 37.632C363.475 38.0348 363.748 38.4085 364.14 38.4666L366.731 38.8485C366.936 38.8787 367.146 38.818 367.303 38.6791C367.464 38.5407 367.557 38.3423 367.561 38.1288L367.613 35.1554C367.622 34.7859 367.361 34.4697 367.001 34.4166L364.785 34.09Z" fill="white"/>
    <rect x="46.2383" y="435.238" width="40.8707" height="40.8707" rx="9.88807" transform="rotate(6.07714 46.2383 435.238)" fill="#00367F"/>
    <path fill-rule="evenodd" clip-rule="evenodd" d="M75.8133 467.224L75.5953 469.272L48.9655 466.437L49.1836 464.389L75.8133 467.224ZM62.266 445.893L65.0688 448.633C65.2218 448.773 65.3263 448.972 65.299 449.229C65.2723 449.479 65.1607 449.587 64.9383 449.72L62.0932 451.261L69.3432 452.033C69.8344 452.085 70.6344 452.37 71.3178 452.931C73.4057 454.651 77.2263 458.144 77.804 458.857C77.8694 458.942 77.9238 459.012 77.9736 459.073C77.996 459.099 78.0169 459.128 78.0375 459.155C78.1093 459.246 78.1648 459.323 78.2001 459.399C78.4723 459.853 78.6131 460.389 78.5528 460.956C78.4454 461.966 77.4634 463.217 76.293 464.656C76.0372 464.97 75.6393 465.133 75.2362 465.09L49.4017 462.34L50.7103 450.049L59.7277 451.009L63.4634 448.99L60.2909 445.682L62.266 445.893ZM69.2359 454.987C68.942 454.956 68.6614 455.117 68.5386 455.384C68.4157 455.652 68.4785 455.969 68.6946 456.17L70.4952 457.752C70.6815 457.924 70.9163 457.928 71.0631 457.943L72.4275 458.089C72.7213 458.12 72.9907 458.074 73.1136 457.806C73.2363 457.538 73.1605 457.336 72.9444 457.135L70.9953 455.315C70.8847 455.213 70.7462 455.148 70.5993 455.132L69.2359 454.987Z" fill="white"/>
    <rect x="162.488" y="133.304" width="40.8707" height="40.8707" rx="9.88807" transform="rotate(8.38503 162.488 133.304)" fill="#800664"/>
    <path fill-rule="evenodd" clip-rule="evenodd" d="M190.75 166.453L190.45 168.491L165.995 164.886L166.295 162.849L190.75 166.453ZM173.982 147.978C174.502 148.023 174.587 148.081 175.108 148.402L182.424 152.825L190.514 151.877C190.699 151.857 191.018 151.895 191.317 152.045C192.228 152.504 193.883 153.449 194.156 153.663C194.187 153.689 194.213 153.709 194.236 153.727C194.248 153.736 194.255 153.745 194.265 153.754C194.301 153.781 194.327 153.804 194.347 153.829C194.484 153.973 194.581 154.16 194.606 154.375C194.635 154.632 194.068 155.916 193.681 156.693C193.613 156.829 193.48 156.922 193.328 156.94L171.848 159.46C171.694 159.477 171.543 159.416 171.446 159.3C171.16 158.957 166.149 152.381 166.149 152.381C165.902 152.03 165.818 151.977 165.832 151.859C165.841 151.771 165.909 151.698 166.041 151.682L166.212 151.661C166.406 151.639 166.519 151.654 166.856 151.848L170.951 154.166L176.01 153.574L172.143 148.475C171.891 148.156 171.989 147.879 172.342 147.893L173.982 147.978ZM190.707 152.831L190.133 152.897C190.011 152.912 189.911 153.005 189.885 153.127C189.859 153.247 189.915 153.371 190.023 153.434L190.908 153.915C190.999 153.97 191.096 153.948 191.158 153.941L191.733 153.873C191.855 153.861 191.961 153.817 191.988 153.695C192.014 153.573 191.963 153.498 191.855 153.435L190.885 152.868C190.831 152.837 190.769 152.824 190.707 152.831Z" fill="white"/>
</svg>
