<?xml version="1.0" encoding="utf-8"?>
<!-- Generator: Adobe Illustrator 24.0.1, SVG Export Plug-In . SVG Version: 6.00 Build 0)  -->
<svg version="1.1" id="Layer_1" xmlns="http://www.w3.org/2000/svg" xmlns:xlink="http://www.w3.org/1999/xlink" x="0px" y="0px"
	 width="464px" height="286px" viewBox="0 0 464 286" enable-background="new 0 0 464 286" xml:space="preserve">
<path fill-rule="evenodd" clip-rule="evenodd" fill="#FFFFFF" d="M2,0h460c1.1045837,0,2,0.8954304,2,2v282
	c0,1.1045837-0.8954163,2-2,2H2c-1.1045696,0-2-0.8954163-2-2V2C0,0.8954304,0.8954304,0,2,0z"/>
<path fill-rule="evenodd" clip-rule="evenodd" fill="#F8F8F8" d="M14,12h437c1.1045837,0,2,0.8954306,2,2v76
	c0,1.1045685-0.8954163,2-2,2H14c-1.1045694,0-2-0.8954315-2-2V14C12,12.8954306,12.8954306,12,14,12z"/>
<path fill-rule="evenodd" clip-rule="evenodd" fill="#F8F8F8" d="M14,104h437c1.1045837,0,2,0.8954315,2,2v75
	c0,1.1045685-0.8954163,2-2,2H14c-1.1045694,0-2-0.8954315-2-2v-75C12,104.8954315,12.8954306,104,14,104z"/>
<path fill-rule="evenodd" clip-rule="evenodd" fill="#F8F8F8" d="M14,195h437c1.1045837,0,2,0.8954315,2,2v75
	c0,1.1045837-0.8954163,2-2,2H14c-1.1045694,0-2-0.8954163-2-2v-75C12,195.8954315,12.8954306,195,14,195z"/>
<path fill-rule="evenodd" clip-rule="evenodd" fill="#00367F" d="M67.2128983,57.5929985
	c-0.0449982,0.1360016-0.1729965,0.1710014-0.3170013,0.1710014H66.230896c-0.0719986,0-0.185997,0.0110016-0.284996-0.0629997
	l-0.9499969-0.670002c-0.1150055-0.0859985-0.1610031-0.2360001-0.1160049-0.3719978
	c0.0460052-0.1349983,0.1730042-0.2270012,0.3160019-0.2270012h0.6660004c0.0719986,0,0.1419983,0.0240021,0.2009964,0.0670013
	l1.0340042,0.7789993C67.2108994,57.3639984,67.2579041,57.4570007,67.2128983,57.5929985 M69,62.0003014v1H56v-1H69z
	 M61.3638992,52.4000015l1.4939995,1.178997c0.0810013,0.0590019,0.1420021,0.1500015,0.1420021,0.2750015
	c0,0.1230011-0.0480003,0.1800003-0.1490021,0.2560005l0,0L61.5569,55h3.5390015
	c0.2399979,0,0.6399994,0.0960007,0.9990005,0.3320007c1.0970001,0.7229996,3.1209946,2.2140007,3.435997,2.5279999
	c0.0360031,0.0369987,0.0660019,0.0670013,0.0930023,0.0950012c0.012001,0.0109978,0.0240021,0.0239983,0.034996,0.0359993
	c0.0390015,0.0399971,0.0699997,0.0739975,0.0910034,0.1089973c0.1549988,0.2060013,0.25,0.4570007,0.25,0.7340012
	c0,0.493-0.4090042,1.1469994-0.9000015,1.9020004c-0.1080017,0.1650009-0.2910004,0.2649994-0.4889984,0.2649994l0,0H55.9999008V55
	h4.4020004l1.6999969-1.1669998l-1.7019997-1.4329987H61.3638992z"/>
<path fill-rule="evenodd" clip-rule="evenodd" fill="#78469A" d="M68.8330002,149.4020081
	c-0.0670013,0.0829926-0.1669998,0.1309967-0.2720032,0.1309967h-1.4020004h-0.348999
	c-0.1940002,0-0.3509979-0.1560059-0.3509979-0.3500061v-1.401001c0-0.1929932,0.1569977-0.3499908,0.3509979-0.3499908h0.348999
	h0.9260025h0.1660004c0.1650009,0,0.3059998,0.1139984,0.3420029,0.2749939l0.3089981,1.3999939
	C68.9250031,149.2109985,68.9000015,149.3200073,68.8330002,149.4020081L68.8330002,149.4020081z M65.7600021,149.1820068
	c0,0.1940002-0.1570053,0.3499908-0.3499985,0.3499908h-2.1000023c-0.1940002,0-0.3510017-0.1559906-0.3510017-0.3499908v-1.4000092
	c0-0.1929932,0.1570015-0.3499908,0.3510017-0.3499908h2.1000023c0.1929932,0,0.3499985,0.1569977,0.3499985,0.3499908V149.1820068z
	 M62.25,149.1820068c0,0.1940002-0.1580009,0.3499908-0.3509979,0.3499908h-2.1000023
	c-0.1940002,0-0.3499985-0.1559906-0.3499985-0.3499908v-1.4000092c0-0.1929932,0.1559982-0.3499908,0.3499985-0.3499908h2.1000023
	c0.192997,0,0.3509979,0.1569977,0.3509979,0.3499908V149.1820068z M58.75,149.1820068
	c0,0.1949921-0.1570015,0.3509979-0.3499985,0.3509979h-0.3650017h-0.0009995h-0.6840019
	c-0.105999,0-0.2069969-0.0480042-0.2729988-0.1309967c-0.0670013-0.0820007-0.0919991-0.1910095-0.0690002-0.2950134
	l0.3090019-1.3999939c0.0349998-0.1609955,0.1779976-0.2749939,0.3419991-0.2749939h0.5279999h0.2130013
	c0.192997,0,0.3499985,0.1569977,0.3499985,0.3499908V149.1820068z M69,153.0003052v1H57v-1H69z M63.368,143.3999939
	l1.4939995,1.1790009c0.0810013,0.0600128,0.1419983,0.151001,0.1419983,0.276001
	c0,0.1220093-0.048996,0.1800079-0.1499939,0.2550049l0,0L63.5660019,146h5.1549988
	c0.163002,0,0.3050003,0.1130066,0.3409958,0.272995l0,0l0.9290009,4.1080017
	c0.0250015,0.1220093-0.0019989,0.2490082-0.0739975,0.3509979l0,0l-0.8120041,1.1230011
	C69.0390015,151.9450073,68.9339981,152,68.8209991,152l0,0H57.1790009c-0.112999,0-0.2180023-0.0549927-0.2840004-0.1450043l0,0
	l-0.8120003-1.1230011c-0.0719986-0.1019897-0.098999-0.2289886-0.0740013-0.3509979l0,0l0.9290009-4.1080017
	C56.973999,146.1130066,57.1160011,146,57.2789993,146l0,0h5.1269989l1.6989975-1.1660004l-1.7009964-1.4340057H63.368z"/>
<path fill-rule="evenodd" clip-rule="evenodd" fill="#C5044E" d="M56.6562004,238.7894897
	c0-0.197998,0.1580009-0.3580017,0.3499985-0.3580017h0.7010002c0.1930008,0,0.3479996,0.1600037,0.3479996,0.3580017v1.4320068
	c0,0.196991-0.1549988,0.3579865-0.3479996,0.3579865h-0.7010002c-0.1919975,0-0.3499985-0.1609955-0.3499985-0.3579865V238.7894897
	z M58.7561989,238.7894897c0-0.197998,0.1570015-0.3580017,0.3500023-0.3580017h2.7999992
	c0.1930008,0,0.3509979,0.1600037,0.3509979,0.3580017v1.4320068c0,0.196991-0.1579971,0.3579865-0.3509979,0.3579865h-2.7999992
	c-0.1930008,0-0.3500023-0.1609955-0.3500023-0.3579865V238.7894897z M62.9561996,238.7894897
	c0-0.197998,0.1570015-0.3580017,0.3499985-0.3580017h2.8000031c0.1930008,0,0.3499985,0.1600037,0.3499985,0.3580017v1.4320068
	c0,0.196991-0.1569977,0.3579865-0.3499985,0.3579865h-2.8000031c-0.192997,0-0.3499985-0.1609955-0.3499985-0.3579865V238.7894897z
	 M67.1562042,238.7894897c0-0.197998,0.1579971-0.3580017,0.3499985-0.3580017h1.086998
	c0.177002,0,0.3249969,0.1329956,0.3460007,0.3119965l0.185997,1.4309998
	c0.0130005,0.1030121-0.0179977,0.2050018-0.0849991,0.2830048c-0.0660019,0.0780029-0.1620026,0.121994-0.262001,0.121994
	h-1.2719955c-0.1920013,0-0.3499985-0.1609955-0.3499985-0.3579865V238.7894897z M59.5503006,242.7997894
	c0.5519981,0,1,0.4490051,1,1c0,0.552002-0.4480019,1-1,1c-0.552002,0-1-0.447998-1-1
	C58.5503006,243.2487946,58.9982986,242.7997894,59.5503006,242.7997894z M66.5,242.7997894c0.552002,0,1,0.4490051,1,1
	c0,0.552002-0.447998,1-1,1s-1-0.447998-1-1C65.5,243.2487946,65.947998,242.7997894,66.5,242.7997894z M68.9502029,236.9994965
	c0.1719971,0,0.3159943,0.1269989,0.3460007,0.298996l0,0l0.6989975,4.29599
	c0.0029984,0.0200043,0.0049973,0.0390015,0.0049973,0.0590057l0,0v0.9880066c0,0.196991-0.1569977,0.3580017-0.3499985,0.3580017
	l0,0h-1.4469986c-0.2360001-0.7180023-0.9059982-1.2000122-1.7030029-1.2000122
	c-0.7979965,0-1.4680023,0.4820099-1.7029953,1.2000122l0,0h-3.5440025
	c-0.2360001-0.7180023-0.9050026-1.2000122-1.7029991-1.2000122c-0.7970009,0-1.4670029,0.4820099-1.7030029,1.2000122l0,0
	h-1.5469971c-0.1720009,0-0.3000031-0.1790009-0.3000031-0.3580017l0,0v-4.9250031
	c0-0.3590088,0.3490028-0.7169952,0.7000008-0.7169952l0,0H68.9502029z"/>
<path fill-rule="evenodd" clip-rule="evenodd" fill="#00367F" d="M138.2129059,57.5929985
	c-0.0449982,0.1360016-0.1730042,0.1710014-0.3170013,0.1710014h-0.6650085c-0.071991,0-0.1859894,0.0110016-0.2850037-0.0629997
	l-0.9499969-0.670002c-0.1149902-0.0859985-0.1609955-0.2360001-0.1159973-0.3719978
	c0.0460052-0.1349983,0.1730042-0.2270012,0.3159943-0.2270012h0.6660156c0.071991,0,0.1419983,0.0240021,0.2009888,0.0670013
	l1.0339966,0.7789993C138.210907,57.3639984,138.2579041,57.4570007,138.2129059,57.5929985 M140,62.0003014v1h-13v-1H140z
	 M132.3639069,52.4000015l1.493988,1.178997c0.0810089,0.0590019,0.1419983,0.1500015,0.1419983,0.2750015
	c0,0.1230011-0.0479889,0.1800003-0.1489868,0.2560005l0,0L132.5569,55h3.5390015
	c0.2400055,0,0.6399994,0.0960007,0.9989929,0.3320007c1.0970001,0.7229996,3.1210022,2.2140007,3.4360046,2.5279999
	c0.0359955,0.0369987,0.0659943,0.0670013,0.0930023,0.0950012c0.0119934,0.0109978,0.0240021,0.0239983,0.0350037,0.0359993
	c0.0390015,0.0399971,0.0699921,0.0739975,0.0909882,0.1089973c0.155014,0.2060013,0.25,0.4570007,0.25,0.7340012
	c0,0.493-0.4089966,1.1469994-0.8999939,1.9020004c-0.1080017,0.1650009-0.2910004,0.2649994-0.4889984,0.2649994l0,0h-12.6110001
	V55h4.4020004l1.6999969-1.1669998l-1.7019958-1.4329987H132.3639069z"/>
<path fill-rule="evenodd" clip-rule="evenodd" fill="#78469A" d="M139.8330078,149.4020081
	c-0.0670013,0.0829926-0.1670074,0.1309967-0.2720032,0.1309967h-1.4020081h-0.348999
	c-0.1940002,0-0.3509979-0.1560059-0.3509979-0.3500061v-1.401001c0-0.1929932,0.1569977-0.3499908,0.3509979-0.3499908h0.348999
	h0.9260101h0.1660004c0.1649933,0,0.3059998,0.1139984,0.3419952,0.2749939l0.3090057,1.3999939
	C139.9250031,149.2109985,139.8999939,149.3200073,139.8330078,149.4020081L139.8330078,149.4020081z M136.7599945,149.1820068
	c0,0.1940002-0.1569977,0.3499908-0.3499908,0.3499908h-2.1000061c-0.1940002,0-0.3509979-0.1559906-0.3509979-0.3499908v-1.4000092
	c0-0.1929932,0.1569977-0.3499908,0.3509979-0.3499908h2.1000061c0.1929932,0,0.3499908,0.1569977,0.3499908,0.3499908V149.1820068z
	 M133.25,149.1820068c0,0.1940002-0.1580048,0.3499908-0.3509979,0.3499908h-2.1000061
	c-0.1940002,0-0.3499908-0.1559906-0.3499908-0.3499908v-1.4000092c0-0.1929932,0.1559906-0.3499908,0.3499908-0.3499908h2.1000061
	c0.1929932,0,0.3509979,0.1569977,0.3509979,0.3499908V149.1820068z M129.75,149.1820068
	c0,0.1949921-0.1569977,0.3509979-0.3500061,0.3509979h-0.3649902h-0.0010071h-0.6839905
	c-0.1060028,0-0.2070007-0.0480042-0.2730103-0.1309967c-0.0670013-0.0820007-0.0919952-0.1910095-0.0690002-0.2950134
	l0.3090057-1.3999939c0.0350037-0.1609955,0.1779938-0.2749939,0.3419952-0.2749939h0.5279999h0.2129974
	c0.1930084,0,0.3500061,0.1569977,0.3500061,0.3499908V149.1820068z M140,153.0003052v1h-12v-1H140z M134.3679962,143.3999939
	l1.4940033,1.1790009c0.0809937,0.0600128,0.1419983,0.151001,0.1419983,0.276001
	c0,0.1220093-0.048996,0.1800079-0.1499939,0.2550049l0,0L134.5659943,146h5.1549988
	c0.1630096,0,0.3050079,0.1130066,0.3410034,0.272995l0,0l0.9290009,4.1080017
	c0.0250092,0.1220093-0.0019989,0.2490082-0.0740051,0.3509979l0,0l-0.8119965,1.1230011
	C140.0390015,151.9450073,139.9340057,152,139.8209991,152l0,0h-11.6419983c-0.1130066,0-0.2180023-0.0549927-0.2840042-0.1450043
	l0,0l-0.8119965-1.1230011c-0.0719986-0.1019897-0.098999-0.2289886-0.0739975-0.3509979l0,0l0.9290009-4.1080017
	C127.973999,146.1130066,128.1159973,146,128.279007,146l0,0h5.1269989l1.6989899-1.1660004l-1.7009888-1.4340057H134.3679962z"/>
<path fill-rule="evenodd" clip-rule="evenodd" fill="#C5044E" d="M127.6561966,238.7894897
	c0-0.197998,0.1580048-0.3580017,0.3499985-0.3580017h0.701004c0.1930084,0,0.3480072,0.1600037,0.3480072,0.3580017v1.4320068
	c0,0.196991-0.1549988,0.3579865-0.3480072,0.3579865h-0.701004c-0.1919937,0-0.3499985-0.1609955-0.3499985-0.3579865V238.7894897z
	 M129.7561951,238.7894897c0-0.197998,0.1569977-0.3580017,0.3500061-0.3580017h2.8000031
	c0.1929932,0,0.3509979,0.1600037,0.3509979,0.3580017v1.4320068c0,0.196991-0.1580048,0.3579865-0.3509979,0.3579865h-2.8000031
	c-0.1930084,0-0.3500061-0.1609955-0.3500061-0.3579865V238.7894897z M133.9562073,238.7894897
	c0-0.197998,0.1569977-0.3580017,0.3499908-0.3580017h2.8000031c0.1929932,0,0.3500061,0.1600037,0.3500061,0.3580017v1.4320068
	c0,0.196991-0.1570129,0.3579865-0.3500061,0.3579865h-2.8000031c-0.1929932,0-0.3499908-0.1609955-0.3499908-0.3579865V238.7894897
	z M138.1562042,238.7894897c0-0.197998,0.1579895-0.3580017,0.3499908-0.3580017h1.0870056
	c0.177002,0,0.3249969,0.1329956,0.345993,0.3119965l0.1860046,1.4309998
	c0.0130005,0.1030121-0.0180054,0.2050018-0.0849915,0.2830048c-0.0660095,0.0780029-0.1620026,0.121994-0.2620087,0.121994
	h-1.2720032c-0.1920013,0-0.3499908-0.1609955-0.3499908-0.3579865V238.7894897z M130.550293,242.7997894
	c0.552002,0,1,0.4490051,1,1c0,0.552002-0.447998,1-1,1c-0.5519867,0-1-0.447998-1-1
	C129.550293,243.2487946,129.9983063,242.7997894,130.550293,242.7997894z M137.5,242.7997894c0.552002,0,1,0.4490051,1,1
	c0,0.552002-0.447998,1-1,1s-1-0.447998-1-1C136.5,243.2487946,136.947998,242.7997894,137.5,242.7997894z M139.9501953,236.9994965
	c0.1719971,0,0.3160095,0.1269989,0.3460083,0.298996l0,0l0.6989899,4.29599
	c0.003006,0.0200043,0.0050049,0.0390015,0.0050049,0.0590057l0,0v0.9880066c0,0.196991-0.1569977,0.3580017-0.3499908,0.3580017
	l0,0h-1.4470062c-0.2360077-0.7180023-0.9060059-1.2000122-1.7030029-1.2000122
	c-0.7980042,0-1.4680023,0.4820099-1.7030029,1.2000122l0,0h-3.5439911
	c-0.2360077-0.7180023-0.9049988-1.2000122-1.7030029-1.2000122c-0.7969971,0-1.4669952,0.4820099-1.7030029,1.2000122l0,0
	h-1.5469971c-0.1720047,0-0.3000031-0.1790009-0.3000031-0.3580017l0,0v-4.9250031
	c0-0.3590088,0.348999-0.7169952,0.7000046-0.7169952l0,0H139.9501953z"/>
<path fill-rule="evenodd" clip-rule="evenodd" fill="#00367F" d="M236.2129059,57.5929985
	c-0.0449982,0.1360016-0.1730042,0.1710014-0.3170013,0.1710014h-0.6650085c-0.071991,0-0.1859894,0.0110016-0.2850037-0.0629997
	l-0.9499969-0.670002c-0.1149902-0.0859985-0.1609955-0.2360001-0.1159973-0.3719978
	c0.0460052-0.1349983,0.1730042-0.2270012,0.3159943-0.2270012h0.6660156c0.071991,0,0.1419983,0.0240021,0.2009888,0.0670013
	l1.0339966,0.7789993C236.210907,57.3639984,236.2579041,57.4570007,236.2129059,57.5929985 M238,62.0003014v1h-13v-1H238z
	 M230.3639069,52.4000015l1.493988,1.178997c0.0810089,0.0590019,0.1419983,0.1500015,0.1419983,0.2750015
	c0,0.1230011-0.0479889,0.1800003-0.1489868,0.2560005l0,0L230.5569,55h3.5390015
	c0.2400055,0,0.6399994,0.0960007,0.9989929,0.3320007c1.0970001,0.7229996,3.1210022,2.2140007,3.4360046,2.5279999
	c0.0359955,0.0369987,0.0659943,0.0670013,0.0930023,0.0950012c0.0119934,0.0109978,0.0240021,0.0239983,0.0350037,0.0359993
	c0.0390015,0.0399971,0.0699921,0.0739975,0.0909882,0.1089973c0.155014,0.2060013,0.25,0.4570007,0.25,0.7340012
	c0,0.493-0.4089966,1.1469994-0.8999939,1.9020004c-0.1080017,0.1650009-0.2910004,0.2649994-0.4889984,0.2649994l0,0h-12.6110077
	V55h4.4020081l1.6999969-1.1669998l-1.7019958-1.4329987H230.3639069z"/>
<path fill-rule="evenodd" clip-rule="evenodd" fill="#78469A" d="M237.8330078,149.4020081
	c-0.0670013,0.0829926-0.1670074,0.1309967-0.2720032,0.1309967h-1.4020081h-0.348999
	c-0.1940002,0-0.3509979-0.1560059-0.3509979-0.3500061v-1.401001c0-0.1929932,0.1569977-0.3499908,0.3509979-0.3499908h0.348999
	h0.9260101h0.1660004c0.1649933,0,0.3059998,0.1139984,0.3419952,0.2749939l0.3090057,1.3999939
	C237.9250031,149.2109985,237.8999939,149.3200073,237.8330078,149.4020081L237.8330078,149.4020081z M234.7599945,149.1820068
	c0,0.1940002-0.1569977,0.3499908-0.3499908,0.3499908h-2.1000061c-0.1940002,0-0.3509979-0.1559906-0.3509979-0.3499908v-1.4000092
	c0-0.1929932,0.1569977-0.3499908,0.3509979-0.3499908h2.1000061c0.1929932,0,0.3499908,0.1569977,0.3499908,0.3499908V149.1820068z
	 M231.25,149.1820068c0,0.1940002-0.1580048,0.3499908-0.3509979,0.3499908h-2.1000061
	c-0.1940002,0-0.3499908-0.1559906-0.3499908-0.3499908v-1.4000092c0-0.1929932,0.1559906-0.3499908,0.3499908-0.3499908h2.1000061
	c0.1929932,0,0.3509979,0.1569977,0.3509979,0.3499908V149.1820068z M227.75,149.1820068
	c0,0.1949921-0.1569977,0.3509979-0.3500061,0.3509979h-0.3649902h-0.0010071h-0.6839905
	c-0.1060028,0-0.2070007-0.0480042-0.2730103-0.1309967c-0.0670013-0.0820007-0.0919952-0.1910095-0.0690002-0.2950134
	l0.3090057-1.3999939c0.0350037-0.1609955,0.1779938-0.2749939,0.3419952-0.2749939h0.5279999h0.2129974
	c0.1930084,0,0.3500061,0.1569977,0.3500061,0.3499908V149.1820068z M238,153.0003052v1h-12v-1H238z M232.3679962,143.3999939
	l1.4940033,1.1790009c0.0809937,0.0600128,0.1419983,0.151001,0.1419983,0.276001
	c0,0.1220093-0.048996,0.1800079-0.1499939,0.2550049l0,0L232.5659943,146h5.1549988
	c0.1630096,0,0.3050079,0.1130066,0.3410034,0.272995l0,0l0.9290009,4.1080017
	c0.0250092,0.1220093-0.0019989,0.2490082-0.0740051,0.3509979l0,0l-0.8119965,1.1230011
	C238.0390015,151.9450073,237.9340057,152,237.8209991,152l0,0h-11.6419983c-0.1130066,0-0.2180023-0.0549927-0.2839966-0.1450043
	l0,0l-0.8120117-1.1230011c-0.071991-0.1019897-0.098999-0.2289886-0.0739899-0.3509979l0,0l0.9290009-4.1080017
	C225.973999,146.1130066,226.1159973,146,226.279007,146l0,0h5.1269989l1.6989899-1.1660004l-1.7009888-1.4340057H232.3679962z"/>
<path fill-rule="evenodd" clip-rule="evenodd" fill="#C5044E" d="M225.6562042,238.7894897
	c0-0.197998,0.1579895-0.3580017,0.3499908-0.3580017h0.701004c0.1930084,0,0.3480072,0.1600037,0.3480072,0.3580017v1.4320068
	c0,0.196991-0.1549988,0.3579865-0.3480072,0.3579865h-0.701004c-0.1920013,0-0.3499908-0.1609955-0.3499908-0.3579865V238.7894897z
	 M227.7561951,238.7894897c0-0.197998,0.1569977-0.3580017,0.3500061-0.3580017h2.8000031
	c0.1929932,0,0.3509979,0.1600037,0.3509979,0.3580017v1.4320068c0,0.196991-0.1580048,0.3579865-0.3509979,0.3579865h-2.8000031
	c-0.1930084,0-0.3500061-0.1609955-0.3500061-0.3579865V238.7894897z M231.9562073,238.7894897
	c0-0.197998,0.1569977-0.3580017,0.3499908-0.3580017h2.8000031c0.1929932,0,0.3500061,0.1600037,0.3500061,0.3580017v1.4320068
	c0,0.196991-0.1570129,0.3579865-0.3500061,0.3579865h-2.8000031c-0.1929932,0-0.3499908-0.1609955-0.3499908-0.3579865V238.7894897
	z M236.1562042,238.7894897c0-0.197998,0.1579895-0.3580017,0.3499908-0.3580017h1.0870056
	c0.177002,0,0.3249969,0.1329956,0.345993,0.3119965l0.1860046,1.4309998
	c0.0130005,0.1030121-0.0180054,0.2050018-0.0849915,0.2830048c-0.0660095,0.0780029-0.1620026,0.121994-0.2620087,0.121994
	h-1.2720032c-0.1920013,0-0.3499908-0.1609955-0.3499908-0.3579865V238.7894897z M228.550293,242.7997894
	c0.552002,0,1,0.4490051,1,1c0,0.552002-0.447998,1-1,1c-0.5519867,0-1-0.447998-1-1
	C227.550293,243.2487946,227.9983063,242.7997894,228.550293,242.7997894z M235.5,242.7997894c0.552002,0,1,0.4490051,1,1
	c0,0.552002-0.447998,1-1,1s-1-0.447998-1-1C234.5,243.2487946,234.947998,242.7997894,235.5,242.7997894z M237.9501953,236.9994965
	c0.1719971,0,0.3160095,0.1269989,0.3460083,0.298996l0,0l0.6989899,4.29599
	c0.003006,0.0200043,0.0050049,0.0390015,0.0050049,0.0590057l0,0v0.9880066c0,0.196991-0.1569977,0.3580017-0.3499908,0.3580017
	l0,0h-1.4470062c-0.2360077-0.7180023-0.9060059-1.2000122-1.7030029-1.2000122
	c-0.7980042,0-1.4680023,0.4820099-1.7030029,1.2000122l0,0h-3.5439911
	c-0.2360077-0.7180023-0.9049988-1.2000122-1.7030029-1.2000122c-0.7969971,0-1.4669952,0.4820099-1.7030029,1.2000122l0,0
	h-1.5469971c-0.1719971,0-0.3000031-0.1790009-0.3000031-0.3580017l0,0v-4.9250031
	c0-0.3590088,0.348999-0.7169952,0.6999969-0.7169952l0,0H237.9501953z"/>
<path fill-rule="evenodd" clip-rule="evenodd" fill="#00367F" d="M340.2128906,57.5929985
	c-0.0449829,0.1360016-0.1730042,0.1710014-0.3169861,0.1710014h-0.6650085c-0.071991,0-0.1860046,0.0110016-0.2850037-0.0629997
	l-0.9499817-0.670002c-0.1150208-0.0859985-0.1610107-0.2360001-0.1159973-0.3719978
	c0.04599-0.1349983,0.1729736-0.2270012,0.315979-0.2270012h0.6660156c0.071991,0,0.1419983,0.0240021,0.2009888,0.0670013
	l1.0339966,0.7789993C340.210907,57.3639984,340.2579041,57.4570007,340.2128906,57.5929985 M342,62.0003014v1h-13v-1H342z
	 M334.3638916,52.4000015l1.4940186,1.178997c0.0809937,0.0590019,0.1419983,0.1500015,0.1419983,0.2750015
	c0,0.1230011-0.0480042,0.1800003-0.1490173,0.2560005l0,0L334.5568848,55h3.5390015
	c0.2400208,0,0.6400146,0.0960007,0.9990234,0.3320007c1.0969849,0.7229996,3.1210022,2.2140007,3.4360046,2.5279999
	c0.0359802,0.0369987,0.065979,0.0670013,0.0929871,0.0950012c0.0119934,0.0109978,0.0239868,0.0239983,0.0350037,0.0359993
	c0.0390015,0.0399971,0.0700073,0.0739975,0.0910034,0.1089973c0.1549988,0.2060013,0.25,0.4570007,0.25,0.7340012
	c0,0.493-0.4089966,1.1469994-0.8999939,1.9020004c-0.1080017,0.1650009-0.2910156,0.2649994-0.4890137,0.2649994l0,0h-12.6109924
	V55h4.4019775l1.7000122-1.1669998l-1.7019958-1.4329987H334.3638916z"/>
<path fill-rule="evenodd" clip-rule="evenodd" fill="#78469A" d="M341.8330078,149.4020081
	c-0.0670166,0.0829926-0.1669922,0.1309967-0.2720032,0.1309967h-1.4020081h-0.348999
	c-0.1940002,0-0.3510132-0.1560059-0.3510132-0.3500061v-1.401001c0-0.1929932,0.1570129-0.3499908,0.3510132-0.3499908h0.348999
	h0.9259949h0.1660156c0.1650085,0,0.3059998,0.1139984,0.34198,0.2749939l0.309021,1.3999939
	C341.9249878,149.2109985,341.8999939,149.3200073,341.8330078,149.4020081L341.8330078,149.4020081z M338.7600098,149.1820068
	c0,0.1940002-0.1570129,0.3499908-0.3500061,0.3499908h-2.1000061c-0.1940002,0-0.3509827-0.1559906-0.3509827-0.3499908v-1.4000092
	c0-0.1929932,0.1569824-0.3499908,0.3509827-0.3499908h2.1000061c0.1929932,0,0.3500061,0.1569977,0.3500061,0.3499908V149.1820068z
	 M335.25,149.1820068c0,0.1940002-0.1579895,0.3499908-0.3510132,0.3499908h-2.0999756
	c-0.1940002,0-0.3500061-0.1559906-0.3500061-0.3499908v-1.4000092c0-0.1929932,0.1560059-0.3499908,0.3500061-0.3499908h2.0999756
	c0.1930237,0,0.3510132,0.1569977,0.3510132,0.3499908V149.1820068z M331.75,149.1820068
	c0,0.1949921-0.1570129,0.3509979-0.3500061,0.3509979h-0.3649902h-0.0010071h-0.6839905
	c-0.1060181,0-0.2070007-0.0480042-0.2730103-0.1309967c-0.0669861-0.0820007-0.0920105-0.1910095-0.0690002-0.2950134
	l0.3089905-1.3999939c0.0350037-0.1609955,0.178009-0.2749939,0.3420105-0.2749939h0.5280151h0.2129822
	c0.1929932,0,0.3500061,0.1569977,0.3500061,0.3499908V149.1820068z M342,153.0003052v1h-12v-1H342z M336.3680115,143.3999939
	l1.493988,1.1790009c0.0809937,0.0600128,0.1419983,0.151001,0.1419983,0.276001
	c0,0.1220093-0.0490112,0.1800079-0.1499939,0.2550049l0,0L336.5660095,146h5.1549988
	c0.1629944,0,0.3049927,0.1130066,0.3410034,0.272995l0,0l0.9289856,4.1080017
	c0.0249939,0.1220093-0.0019836,0.2490082-0.0740051,0.3509979l0,0l-0.8119812,1.1230011
	C342.0390015,151.9450073,341.9339905,152,341.8210144,152l0,0h-11.6420288c-0.1129761,0-0.2179871-0.0549927-0.2839966-0.1450043
	l0,0l-0.8119812-1.1230011c-0.0720215-0.1019897-0.098999-0.2289886-0.0740051-0.3509979l0,0l0.9289856-4.1080017
	C329.973999,146.1130066,330.1159973,146,330.2789917,146l0,0h5.1270142l1.6990051-1.1660004l-1.7010193-1.4340057H336.3680115z"/>
<path fill-rule="evenodd" clip-rule="evenodd" fill="#C5044E" d="M329.656189,238.7894897
	c0-0.197998,0.15802-0.3580017,0.3500061-0.3580017h0.7010193c0.1929932,0,0.3479919,0.1600037,0.3479919,0.3580017v1.4320068
	c0,0.196991-0.1549988,0.3579865-0.3479919,0.3579865h-0.7010193c-0.1919861,0-0.3500061-0.1609955-0.3500061-0.3579865V238.7894897
	z M331.7561951,238.7894897c0-0.197998,0.1570129-0.3580017,0.3500061-0.3580017h2.7999878
	c0.1930237,0,0.3510132,0.1600037,0.3510132,0.3580017v1.4320068c0,0.196991-0.1579895,0.3579865-0.3510132,0.3579865h-2.7999878
	c-0.1929932,0-0.3500061-0.1609955-0.3500061-0.3579865V238.7894897z M335.9562073,238.7894897
	c0-0.197998,0.1569824-0.3580017,0.3500061-0.3580017h2.7999878c0.1929932,0,0.3500061,0.1600037,0.3500061,0.3580017v1.4320068
	c0,0.196991-0.1570129,0.3579865-0.3500061,0.3579865h-2.7999878c-0.1930237,0-0.3500061-0.1609955-0.3500061-0.3579865V238.7894897
	z M340.156189,238.7894897c0-0.197998,0.15802-0.3580017,0.3500061-0.3580017h1.0870056
	c0.177002,0,0.3250122,0.1329956,0.3460083,0.3119965l0.1860046,1.4309998
	c0.0130005,0.1030121-0.0180054,0.2050018-0.085022,0.2830048c-0.065979,0.0780029-0.1619873,0.121994-0.2619934,0.121994
	h-1.2720032c-0.1919861,0-0.3500061-0.1609955-0.3500061-0.3579865V238.7894897z M332.550293,242.7997894
	c0.552002,0,1,0.4490051,1,1c0,0.552002-0.447998,1-1,1s-1-0.447998-1-1
	C331.550293,243.2487946,331.998291,242.7997894,332.550293,242.7997894z M339.5,242.7997894c0.552002,0,1,0.4490051,1,1
	c0,0.552002-0.447998,1-1,1s-1-0.447998-1-1C338.5,243.2487946,338.947998,242.7997894,339.5,242.7997894z M341.9501953,236.9994965
	c0.1719971,0,0.3160095,0.1269989,0.3460083,0.298996l0,0l0.6990051,4.29599
	c0.0029907,0.0200043,0.0050049,0.0390015,0.0050049,0.0590057l0,0v0.9880066c0,0.196991-0.1570129,0.3580017-0.3500061,0.3580017
	l0,0h-1.4470215c-0.2359924-0.7180023-0.9059753-1.2000122-1.7029724-1.2000122
	c-0.7980042,0-1.4680176,0.4820099-1.7030029,1.2000122l0,0h-3.5440063
	c-0.2359924-0.7180023-0.9049988-1.2000122-1.7030029-1.2000122c-0.7969971,0-1.4670105,0.4820099-1.7030029,1.2000122l0,0
	h-1.5469971c-0.1719971,0-0.2999878-0.1790009-0.2999878-0.3580017l0,0v-4.9250031
	c0-0.3590088,0.348999-0.7169952,0.6999817-0.7169952l0,0H341.9501953z"/>
<path fill-rule="evenodd" clip-rule="evenodd" fill="#00367F" d="M392.2128906,57.5929985
	c-0.0449829,0.1360016-0.1730042,0.1710014-0.3169861,0.1710014h-0.6650085c-0.071991,0-0.1860046,0.0110016-0.2850037-0.0629997
	l-0.9499817-0.670002c-0.1150208-0.0859985-0.1610107-0.2360001-0.1159973-0.3719978
	c0.04599-0.1349983,0.1729736-0.2270012,0.315979-0.2270012h0.6660156c0.071991,0,0.1419983,0.0240021,0.2009888,0.0670013
	l1.0339966,0.7789993C392.210907,57.3639984,392.2579041,57.4570007,392.2128906,57.5929985 M394,62.0003014v1h-13v-1H394z
	 M386.3638916,52.4000015l1.4940186,1.178997c0.0809937,0.0590019,0.1419983,0.1500015,0.1419983,0.2750015
	c0,0.1230011-0.0480042,0.1800003-0.1490173,0.2560005l0,0L386.5568848,55h3.5390015
	c0.2400208,0,0.6400146,0.0960007,0.9990234,0.3320007c1.0969849,0.7229996,3.1210022,2.2140007,3.4360046,2.5279999
	c0.0359802,0.0369987,0.065979,0.0670013,0.0929871,0.0950012c0.0119934,0.0109978,0.0239868,0.0239983,0.0350037,0.0359993
	c0.0390015,0.0399971,0.0700073,0.0739975,0.0910034,0.1089973c0.1549988,0.2060013,0.25,0.4570007,0.25,0.7340012
	c0,0.493-0.4089966,1.1469994-0.8999939,1.9020004c-0.1080017,0.1650009-0.2910156,0.2649994-0.4890137,0.2649994l0,0h-12.6109924
	V55h4.4019775l1.7000122-1.1669998l-1.7019958-1.4329987H386.3638916z"/>
<path fill-rule="evenodd" clip-rule="evenodd" fill="#78469A" d="M393.8330078,149.4020081
	c-0.0670166,0.0829926-0.1669922,0.1309967-0.2720032,0.1309967h-1.4020081h-0.348999
	c-0.1940002,0-0.3510132-0.1560059-0.3510132-0.3500061v-1.401001c0-0.1929932,0.1570129-0.3499908,0.3510132-0.3499908h0.348999
	h0.9259949h0.1660156c0.1650085,0,0.3059998,0.1139984,0.34198,0.2749939l0.309021,1.3999939
	C393.9249878,149.2109985,393.8999939,149.3200073,393.8330078,149.4020081L393.8330078,149.4020081z M390.7600098,149.1820068
	c0,0.1940002-0.1570129,0.3499908-0.3500061,0.3499908h-2.1000061c-0.1940002,0-0.3509827-0.1559906-0.3509827-0.3499908v-1.4000092
	c0-0.1929932,0.1569824-0.3499908,0.3509827-0.3499908h2.1000061c0.1929932,0,0.3500061,0.1569977,0.3500061,0.3499908V149.1820068z
	 M387.25,149.1820068c0,0.1940002-0.1579895,0.3499908-0.3510132,0.3499908h-2.0999756
	c-0.1940002,0-0.3500061-0.1559906-0.3500061-0.3499908v-1.4000092c0-0.1929932,0.1560059-0.3499908,0.3500061-0.3499908h2.0999756
	c0.1930237,0,0.3510132,0.1569977,0.3510132,0.3499908V149.1820068z M383.75,149.1820068
	c0,0.1949921-0.1570129,0.3509979-0.3500061,0.3509979h-0.3649902h-0.0010071h-0.6839905
	c-0.1060181,0-0.2070007-0.0480042-0.2730103-0.1309967c-0.0669861-0.0820007-0.0920105-0.1910095-0.0690002-0.2950134
	l0.3089905-1.3999939c0.0350037-0.1609955,0.178009-0.2749939,0.3420105-0.2749939h0.5280151h0.2129822
	c0.1929932,0,0.3500061,0.1569977,0.3500061,0.3499908V149.1820068z M394,153.0003052v1h-12v-1H394z M388.3680115,143.3999939
	l1.493988,1.1790009c0.0809937,0.0600128,0.1419983,0.151001,0.1419983,0.276001
	c0,0.1220093-0.0490112,0.1800079-0.1499939,0.2550049l0,0L388.5660095,146h5.1549988
	c0.1629944,0,0.3049927,0.1130066,0.3410034,0.272995l0,0l0.9289856,4.1080017
	c0.0249939,0.1220093-0.0019836,0.2490082-0.0740051,0.3509979l0,0l-0.8119812,1.1230011
	C394.0390015,151.9450073,393.9339905,152,393.8210144,152l0,0h-11.6420288c-0.1129761,0-0.2179871-0.0549927-0.2839966-0.1450043
	l0,0l-0.8119812-1.1230011c-0.0720215-0.1019897-0.098999-0.2289886-0.0740051-0.3509979l0,0l0.9289856-4.1080017
	C381.973999,146.1130066,382.1159973,146,382.2789917,146l0,0h5.1270142l1.6990051-1.1660004l-1.7010193-1.4340057H388.3680115z"/>
<path fill-rule="evenodd" clip-rule="evenodd" fill="#C5044E" d="M381.656189,238.7894897
	c0-0.197998,0.15802-0.3580017,0.3500061-0.3580017h0.7010193c0.1929932,0,0.3479919,0.1600037,0.3479919,0.3580017v1.4320068
	c0,0.196991-0.1549988,0.3579865-0.3479919,0.3579865h-0.7010193c-0.1919861,0-0.3500061-0.1609955-0.3500061-0.3579865V238.7894897
	z M383.7561951,238.7894897c0-0.197998,0.1570129-0.3580017,0.3500061-0.3580017h2.7999878
	c0.1930237,0,0.3510132,0.1600037,0.3510132,0.3580017v1.4320068c0,0.196991-0.1579895,0.3579865-0.3510132,0.3579865h-2.7999878
	c-0.1929932,0-0.3500061-0.1609955-0.3500061-0.3579865V238.7894897z M387.9562073,238.7894897
	c0-0.197998,0.1569824-0.3580017,0.3500061-0.3580017h2.7999878c0.1929932,0,0.3500061,0.1600037,0.3500061,0.3580017v1.4320068
	c0,0.196991-0.1570129,0.3579865-0.3500061,0.3579865h-2.7999878c-0.1930237,0-0.3500061-0.1609955-0.3500061-0.3579865V238.7894897
	z M392.156189,238.7894897c0-0.197998,0.15802-0.3580017,0.3500061-0.3580017h1.0870056
	c0.177002,0,0.3250122,0.1329956,0.3460083,0.3119965l0.1860046,1.4309998
	c0.0130005,0.1030121-0.0180054,0.2050018-0.085022,0.2830048c-0.065979,0.0780029-0.1619873,0.121994-0.2619934,0.121994
	h-1.2720032c-0.1919861,0-0.3500061-0.1609955-0.3500061-0.3579865V238.7894897z M384.550293,242.7997894
	c0.552002,0,1,0.4490051,1,1c0,0.552002-0.447998,1-1,1s-1-0.447998-1-1
	C383.550293,243.2487946,383.998291,242.7997894,384.550293,242.7997894z M391.5,242.7997894c0.552002,0,1,0.4490051,1,1
	c0,0.552002-0.447998,1-1,1s-1-0.447998-1-1C390.5,243.2487946,390.947998,242.7997894,391.5,242.7997894z M393.9501953,236.9994965
	c0.1719971,0,0.3160095,0.1269989,0.3460083,0.298996l0,0l0.6990051,4.29599
	c0.0029907,0.0200043,0.0050049,0.0390015,0.0050049,0.0590057l0,0v0.9880066c0,0.196991-0.1570129,0.3580017-0.3500061,0.3580017
	l0,0h-1.4470215c-0.2359924-0.7180023-0.9059753-1.2000122-1.7029724-1.2000122
	c-0.7980042,0-1.4680176,0.4820099-1.7030029,1.2000122l0,0h-3.5440063
	c-0.2359924-0.7180023-0.9049988-1.2000122-1.7030029-1.2000122c-0.7969971,0-1.4670105,0.4820099-1.7030029,1.2000122l0,0
	h-1.5469971c-0.1719971,0-0.2999878-0.1790009-0.2999878-0.3580017l0,0v-4.9250031
	c0-0.3590088,0.348999-0.7169952,0.6999817-0.7169952l0,0H393.9501953z"/>
<path fill-rule="evenodd" clip-rule="evenodd" fill="#00367F" d="M28.5,74h408c0.2761536,0,0.5,0.2238541,0.5,0.5v1
	c0,0.2761459-0.2238464,0.5-0.5,0.5h-408c-0.2761421,0-0.5-0.2238541-0.5-0.5v-1C28,74.2238541,28.2238579,74,28.5,74z"/>
<path fill-rule="evenodd" clip-rule="evenodd" fill="#78469A" d="M28.5,165h408c0.2761536,0,0.5,0.2238617,0.5,0.5v1
	c0,0.2761383-0.2238464,0.5-0.5,0.5h-408c-0.2761421,0-0.5-0.2238617-0.5-0.5v-1C28,165.2238617,28.2238579,165,28.5,165z"/>
<g enable-background="new    ">
	<path d="M52.9716797,33.5087891h3.4897461c1.9672852,0,3.0825195,0.9716797,3.0825195,2.5664062
		c0,1.3671875-0.9355469,2.1826172-1.8828125,2.4228516L59.987793,42h-1.9189453l-2.0512695-3.25h-1.4628906V42h-1.5830078
		V33.5087891z M56.1977539,34.8515625h-1.6552734v2.6630859h1.6914062c1.1391602,0,1.7148438-0.515625,1.7148438-1.3798828
		C57.9487305,35.2236328,57.2890625,34.8515625,56.1977539,34.8515625z"/>
	<path d="M65.0644531,42h-1.5947266v-6.6679688L61.8984375,36.53125l-0.8393555-1.0800781l2.5668945-1.9423828h1.4384766V42z"/>
	<path d="M74.3759766,37.7421875c0,2.3388672-0.828125,4.4853516-3.1191406,4.4853516
		c-2.3027344,0-3.1298828-2.1464844-3.1298828-4.4853516c0-2.3261719,0.8271484-4.4492188,3.1298828-4.4492188
		C73.5478516,33.2929688,74.3759766,35.4160156,74.3759766,37.7421875z M69.7578125,37.7421875
		c0,1.3193359,0.2636719,3.1181641,1.4990234,3.1181641c1.2119141,0,1.4873047-1.7988281,1.4873047-3.1181641
		c0-1.2949219-0.2753906-3.1064453-1.4873047-3.1064453C70.0214844,34.6357422,69.7578125,36.4472656,69.7578125,37.7421875z"/>
</g>
<g enable-background="new    ">
	<path d="M60.9892578,133H59.394043v-6.6679688l-1.5708008,1.1992188l-0.8398438-1.0800781l2.5664062-1.9423828h1.4394531V133z"/>
	<path d="M70.0117188,125.8037109L66.7016602,133h-1.8227539l3.4541016-7.1240234h-4.065918v-1.3671875h5.7446289V125.8037109z"/>
</g>
<g enable-background="new    ">
	<path d="M229.9892578,133h-1.5952148v-6.6679688l-1.5708008,1.1992188l-0.8398438-1.0800781l2.5664062-1.9423828h1.4394531V133z"/>
	<path d="M239.0117188,125.8037109L235.7011719,133h-1.8222656l3.4541016-7.1240234h-4.0654297v-1.3671875h5.7441406V125.8037109z"
		/>
</g>
<g enable-background="new    ">
	<path d="M385.9892578,133h-1.5947266v-6.6679688l-1.5712891,1.1992188l-0.8398438-1.0800781l2.5664062-1.9423828h1.4394531V133z"/>
	<path d="M395.0117188,125.8037109L391.7011719,133h-1.8222656l3.4541016-7.1240234h-4.0654297v-1.3671875h5.7441406V125.8037109z"
		/>
</g>
<g enable-background="new    ">
	<path d="M62.6083984,224h-5.8769531v-1.3916016l3.3823242-3.1894531c0.4555664-0.4326172,0.8154297-0.9238281,0.8154297-1.5351562
		c0-0.7558594-0.5517578-1.2480469-1.2832031-1.2480469c-0.7675781,0-1.2954102,0.5644531-1.4033203,1.3671875H56.671875
		c0.1674805-1.7744141,1.4990234-2.7099609,3.0341797-2.7099609c1.4873047,0,2.878418,0.8154297,2.878418,2.4941406
		c0,1.1640625-0.6835938,1.9072266-1.4394531,2.6025391l-2.3867188,2.2314453h3.8500977V224z"/>
	<path d="M70.2998047,219.7421875c0,2.3388672-0.8271484,4.4853516-3.1181641,4.4853516
		c-2.3027344,0-3.1303711-2.1464844-3.1303711-4.4853516c0-2.3261719,0.8276367-4.4492188,3.1303711-4.4492188
		C69.4726562,215.2929688,70.2998047,217.4160156,70.2998047,219.7421875z M65.6826172,219.7421875
		c0,1.3193359,0.2636719,3.1181641,1.4990234,3.1181641c1.2109375,0,1.4873047-1.7988281,1.4873047-3.1181641
		c0-1.2949219-0.2763672-3.1064453-1.4873047-3.1064453C65.9462891,216.6357422,65.6826172,218.4472656,65.6826172,219.7421875z"/>
</g>
<g enable-background="new    ">
	<path d="M133.6083984,224h-5.8769531v-1.3916016l3.3823242-3.1894531c0.4555664-0.4326172,0.8154297-0.9238281,0.8154297-1.5351562
		c0-0.7558594-0.5517578-1.2480469-1.2832031-1.2480469c-0.7675781,0-1.2954102,0.5644531-1.4033203,1.3671875h-1.5708008
		c0.1674805-1.7744141,1.4990234-2.7099609,3.0341797-2.7099609c1.4873047,0,2.878418,0.8154297,2.878418,2.4941406
		c0,1.1640625-0.6835938,1.9072266-1.4394531,2.6025391l-2.3867188,2.2314453h3.8500977V224z"/>
	<path d="M141.2998047,219.7421875c0,2.3388672-0.8271484,4.4853516-3.1181641,4.4853516
		c-2.3027344,0-3.1303711-2.1464844-3.1303711-4.4853516c0-2.3261719,0.8276367-4.4492188,3.1303711-4.4492188
		C140.4726562,215.2929688,141.2998047,217.4160156,141.2998047,219.7421875z M136.6826172,219.7421875
		c0,1.3193359,0.2636719,3.1181641,1.4990234,3.1181641c1.2109375,0,1.4873047-1.7988281,1.4873047-3.1181641
		c0-1.2949219-0.2763672-3.1064453-1.4873047-3.1064453C136.9462891,216.6357422,136.6826172,218.4472656,136.6826172,219.7421875z"
		/>
</g>
<g enable-background="new    ">
	<path d="M231.6083984,224h-5.8769531v-1.3916016l3.3823242-3.1894531c0.4555664-0.4326172,0.8154297-0.9238281,0.8154297-1.5351562
		c0-0.7558594-0.5517578-1.2480469-1.2832031-1.2480469c-0.7675781,0-1.2954102,0.5644531-1.4033203,1.3671875h-1.5708008
		c0.1674805-1.7744141,1.4990234-2.7099609,3.0341797-2.7099609c1.4873047,0,2.878418,0.8154297,2.878418,2.4941406
		c0,1.1640625-0.6835938,1.9072266-1.4394531,2.6025391l-2.3867188,2.2314453h3.8500977V224z"/>
	<path d="M239.2998047,219.7421875c0,2.3388672-0.8271484,4.4853516-3.1181641,4.4853516
		c-2.3027344,0-3.1308594-2.1464844-3.1308594-4.4853516c0-2.3261719,0.828125-4.4492188,3.1308594-4.4492188
		C238.4726562,215.2929688,239.2998047,217.4160156,239.2998047,219.7421875z M234.6826172,219.7421875
		c0,1.3193359,0.2636719,3.1181641,1.4990234,3.1181641c1.2109375,0,1.4873047-1.7988281,1.4873047-3.1181641
		c0-1.2949219-0.2763672-3.1064453-1.4873047-3.1064453C234.9462891,216.6357422,234.6826172,218.4472656,234.6826172,219.7421875z"
		/>
</g>
<g enable-background="new    ">
	<path d="M335.6083984,224h-5.8769531v-1.3916016l3.3818359-3.1894531c0.4560547-0.4326172,0.8164062-0.9238281,0.8164062-1.5351562
		c0-0.7558594-0.5527344-1.2480469-1.2832031-1.2480469c-0.7675781,0-1.2958984,0.5644531-1.4042969,1.3671875h-1.5703125
		c0.1679688-1.7744141,1.4990234-2.7099609,3.0341797-2.7099609c1.4873047,0,2.8779297,0.8154297,2.8779297,2.4941406
		c0,1.1640625-0.6835938,1.9072266-1.4394531,2.6025391l-2.3867188,2.2314453h3.8505859V224z"/>
	<path d="M343.2998047,219.7421875c0,2.3388672-0.8271484,4.4853516-3.1181641,4.4853516
		c-2.3027344,0-3.1308594-2.1464844-3.1308594-4.4853516c0-2.3261719,0.828125-4.4492188,3.1308594-4.4492188
		C342.4726562,215.2929688,343.2998047,217.4160156,343.2998047,219.7421875z M338.6826172,219.7421875
		c0,1.3193359,0.2636719,3.1181641,1.4990234,3.1181641c1.2109375,0,1.4873047-1.7988281,1.4873047-3.1181641
		c0-1.2949219-0.2763672-3.1064453-1.4873047-3.1064453C338.9462891,216.6357422,338.6826172,218.4472656,338.6826172,219.7421875z"
		/>
</g>
<g enable-background="new    ">
	<path d="M387.6083984,224h-5.8769531v-1.3916016l3.3818359-3.1894531c0.4560547-0.4326172,0.8164062-0.9238281,0.8164062-1.5351562
		c0-0.7558594-0.5527344-1.2480469-1.2832031-1.2480469c-0.7675781,0-1.2958984,0.5644531-1.4042969,1.3671875h-1.5703125
		c0.1679688-1.7744141,1.4990234-2.7099609,3.0341797-2.7099609c1.4873047,0,2.8779297,0.8154297,2.8779297,2.4941406
		c0,1.1640625-0.6835938,1.9072266-1.4394531,2.6025391l-2.3867188,2.2314453h3.8505859V224z"/>
	<path d="M395.2998047,219.7421875c0,2.3388672-0.8271484,4.4853516-3.1181641,4.4853516
		c-2.3027344,0-3.1308594-2.1464844-3.1308594-4.4853516c0-2.3261719,0.828125-4.4492188,3.1308594-4.4492188
		C394.4726562,215.2929688,395.2998047,217.4160156,395.2998047,219.7421875z M390.6826172,219.7421875
		c0,1.3193359,0.2636719,3.1181641,1.4990234,3.1181641c1.2109375,0,1.4873047-1.7988281,1.4873047-3.1181641
		c0-1.2949219-0.2763672-3.1064453-1.4873047-3.1064453C390.9462891,216.6357422,390.6826172,218.4472656,390.6826172,219.7421875z"
		/>
</g>
<g enable-background="new    ">
	<path d="M325.9716797,33.5087891h3.4892578c1.9677734,0,3.0830078,0.9716797,3.0830078,2.5664062
		c0,1.3671875-0.9355469,2.1826172-1.8828125,2.4228516L332.9882812,42h-1.9199219l-2.0507812-3.25h-1.4628906V42h-1.5830078
		V33.5087891z M329.1972656,34.8515625h-1.6542969v2.6630859h1.6914062c1.1386719,0,1.7148438-0.515625,1.7148438-1.3798828
		C330.9492188,35.2236328,330.2890625,34.8515625,329.1972656,34.8515625z"/>
	<path d="M338.0644531,42h-1.5947266v-6.6679688l-1.5712891,1.1992188l-0.8398438-1.0800781l2.5673828-1.9423828h1.4384766V42z"/>
	<path d="M347.3759766,37.7421875c0,2.3388672-0.828125,4.4853516-3.1191406,4.4853516
		c-2.3027344,0-3.1298828-2.1464844-3.1298828-4.4853516c0-2.3261719,0.8271484-4.4492188,3.1298828-4.4492188
		C346.5478516,33.2929688,347.3759766,35.4160156,347.3759766,37.7421875z M342.7578125,37.7421875
		c0,1.3193359,0.2636719,3.1181641,1.4990234,3.1181641c1.2119141,0,1.4873047-1.7988281,1.4873047-3.1181641
		c0-1.2949219-0.2753906-3.1064453-1.4873047-3.1064453C343.0214844,34.6357422,342.7578125,36.4472656,342.7578125,37.7421875z"/>
</g>
<g enable-background="new    ">
	<path d="M129.5786133,40.5966797h3.5498047V42h-5.1567383v-8.4912109h1.6069336V40.5966797z"/>
	<path d="M139.8476562,42h-5.8764648v-1.3916016l3.3823242-3.1894531c0.4555664-0.4326172,0.8154297-0.9238281,0.8154297-1.5351562
		c0-0.7558594-0.5517578-1.2480469-1.2832031-1.2480469c-0.7675781,0-1.2954102,0.5644531-1.4033203,1.3671875h-1.5712891
		c0.1679688-1.7744141,1.4995117-2.7099609,3.034668-2.7099609c1.4873047,0,2.878418,0.8154297,2.878418,2.4941406
		c0,1.1640625-0.6835938,1.9072266-1.4394531,2.6025391l-2.3867188,2.2314453h3.8496094V42z"/>
</g>
<g enable-background="new    ">
	<path d="M131.9892578,133h-1.5952148v-6.6679688l-1.5708008,1.1992188l-0.8398438-1.0800781l2.5664062-1.9423828h1.4394531V133z"/>
	<path d="M141.1923828,130.6494141c0,1.6787109-1.4277344,2.578125-3.0107422,2.578125
		c-1.6069336,0-3.0224609-0.8867188-3.0224609-2.5664062c0-1.0791016,0.6958008-1.8466797,1.559082-2.1103516v-0.0361328
		c-0.7436523-0.2636719-1.2949219-0.9472656-1.2949219-1.859375c0-1.4990234,1.2832031-2.3623047,2.7583008-2.3623047
		c1.4628906,0,2.7460938,0.8398438,2.7460938,2.3388672c0,0.9111328-0.5273438,1.6308594-1.2949219,1.8828125v0.0234375
		C140.5205078,128.7900391,141.1923828,129.59375,141.1923828,130.6494141z M138.1816406,131.9570312
		c0.8398438,0,1.4267578-0.5761719,1.4267578-1.3916016c0-0.7792969-0.5869141-1.3789062-1.4267578-1.3789062
		c-0.8515625,0-1.4394531,0.5869141-1.4394531,1.3789062C136.7421875,131.3808594,137.3178711,131.9570312,138.1816406,131.9570312z
		 M138.1816406,127.9384766c0.6835938,0,1.2109375-0.5390625,1.2109375-1.1992188
		c0-0.6835938-0.5395508-1.1992188-1.2109375-1.1992188c-0.7075195,0-1.2231445,0.515625-1.2231445,1.1992188
		C136.9584961,127.3994141,137.4741211,127.9384766,138.1816406,127.9384766z"/>
</g>
<g enable-background="new    ">
	<path d="M333.9892578,133h-1.5947266v-6.6679688l-1.5712891,1.1992188l-0.8398438-1.0800781l2.5664062-1.9423828h1.4394531V133z"/>
	<path d="M343.1923828,130.6494141c0,1.6787109-1.4277344,2.578125-3.0107422,2.578125
		c-1.6074219,0-3.0224609-0.8867188-3.0224609-2.5664062c0-1.0791016,0.6962891-1.8466797,1.5595703-2.1103516v-0.0361328
		c-0.7441406-0.2636719-1.2949219-0.9472656-1.2949219-1.859375c0-1.4990234,1.2832031-2.3623047,2.7578125-2.3623047
		c1.4628906,0,2.7460938,0.8398438,2.7460938,2.3388672c0,0.9111328-0.5273438,1.6308594-1.2949219,1.8828125v0.0234375
		C342.5205078,128.7900391,343.1923828,129.59375,343.1923828,130.6494141z M340.1816406,131.9570312
		c0.8398438,0,1.4267578-0.5761719,1.4267578-1.3916016c0-0.7792969-0.5869141-1.3789062-1.4267578-1.3789062
		c-0.8515625,0-1.4394531,0.5869141-1.4394531,1.3789062C338.7421875,131.3808594,339.3183594,131.9570312,340.1816406,131.9570312z
		 M340.1816406,127.9384766c0.6835938,0,1.2109375-0.5390625,1.2109375-1.1992188
		c0-0.6835938-0.5390625-1.1992188-1.2109375-1.1992188c-0.7070312,0-1.2226562,0.515625-1.2226562,1.1992188
		C338.9589844,127.3994141,339.4746094,127.9384766,340.1816406,127.9384766z"/>
</g>
<g enable-background="new    ">
	<path d="M383.578125,40.5966797h3.5507812V42h-5.1572266v-8.4912109h1.6064453V40.5966797z"/>
	<path d="M393.8476562,42h-5.8769531v-1.3916016l3.3828125-3.1894531c0.4550781-0.4326172,0.8154297-0.9238281,0.8154297-1.5351562
		c0-0.7558594-0.5517578-1.2480469-1.2832031-1.2480469c-0.7675781,0-1.2958984,0.5644531-1.4033203,1.3671875h-1.5712891
		c0.1679688-1.7744141,1.4990234-2.7099609,3.0341797-2.7099609c1.4882812,0,2.8789062,0.8154297,2.8789062,2.4941406
		c0,1.1640625-0.6835938,1.9072266-1.4394531,2.6025391l-2.3867188,2.2314453h3.8496094V42z"/>
</g>
<g enable-background="new    ">
	<path d="M223.5786133,40.5966797h3.5498047V42h-5.1567383v-8.4912109h1.6069336V40.5966797z"/>
	<path d="M232.2285156,42h-1.5947266v-6.6679688L229.0625,36.53125l-0.8393555-1.0800781l2.5668945-1.9423828h1.4384766V42z"/>
	<path d="M241.2998047,42h-5.8769531v-1.3916016l3.3818359-3.1894531c0.4560547-0.4326172,0.8164062-0.9238281,0.8164062-1.5351562
		c0-0.7558594-0.5517578-1.2480469-1.2832031-1.2480469c-0.7675781,0-1.2958984,0.5644531-1.4033203,1.3671875h-1.5712891
		c0.1679688-1.7744141,1.4990234-2.7099609,3.0341797-2.7099609c1.4873047,0,2.8779297,0.8154297,2.8779297,2.4941406
		c0,1.1640625-0.6835938,1.9072266-1.4384766,2.6025391l-2.3867188,2.2314453h3.8496094V42z"/>
</g>
<g transform="translate(28 256)">
	<path fill-rule="evenodd" clip-rule="evenodd" fill="#C5044E" d="M0.5,0h15C15.7761421,0,16,0.2238576,16,0.5v1
		C16,1.7761424,15.7761421,2,15.5,2h-15C0.2238576,2,0,1.7761424,0,1.5v-1C0,0.2238576,0.2238576,0,0.5,0z"/>
	<path fill-rule="evenodd" clip-rule="evenodd" fill="#C5044E" d="M62.5,0h15C77.7761459,0,78,0.2238576,78,0.5v1
		C78,1.7761424,77.7761459,2,77.5,2h-15C62.2238579,2,62,1.7761424,62,1.5v-1C62,0.2238576,62.2238579,0,62.5,0z"/>
	<path fill-rule="evenodd" clip-rule="evenodd" fill="#C5044E" d="M124.5,0h15c0.2761383,0,0.5,0.2238576,0.5,0.5v1
		c0,0.2761424-0.2238617,0.5-0.5,0.5h-15c-0.2761459,0-0.5-0.2238576-0.5-0.5v-1C124,0.2238576,124.2238541,0,124.5,0z"/>
	<path fill-rule="evenodd" clip-rule="evenodd" fill="#C5044E" d="M186.5,0h15c0.2761383,0,0.5,0.2238576,0.5,0.5v1
		c0,0.2761424-0.2238617,0.5-0.5,0.5h-15c-0.2761383,0-0.5-0.2238576-0.5-0.5v-1C186,0.2238576,186.2238617,0,186.5,0z"/>
	<path fill-rule="evenodd" clip-rule="evenodd" fill="#C5044E" d="M248.5,0h15c0.2761536,0,0.5,0.2238576,0.5,0.5v1
		c0,0.2761424-0.2238464,0.5-0.5,0.5h-15c-0.2761383,0-0.5-0.2238576-0.5-0.5v-1C248,0.2238576,248.2238617,0,248.5,0z"/>
	<path fill-rule="evenodd" clip-rule="evenodd" fill="#C5044E" d="M331.5,0h15c0.2761536,0,0.5,0.2238576,0.5,0.5v1
		c0,0.2761424-0.2238464,0.5-0.5,0.5h-15c-0.2761536,0-0.5-0.2238576-0.5-0.5v-1C331,0.2238576,331.2238464,0,331.5,0z"/>
	<path fill-rule="evenodd" clip-rule="evenodd" fill="#C5044E" d="M21.5,0h15C36.7761421,0,37,0.2238576,37,0.5v1
		C37,1.7761424,36.7761421,2,36.5,2h-15C21.2238579,2,21,1.7761424,21,1.5v-1C21,0.2238576,21.2238579,0,21.5,0z"/>
	<path fill-rule="evenodd" clip-rule="evenodd" fill="#C5044E" d="M83.5,0h15C98.7761459,0,99,0.2238576,99,0.5v1
		C99,1.7761424,98.7761459,2,98.5,2h-15C83.2238541,2,83,1.7761424,83,1.5v-1C83,0.2238576,83.2238541,0,83.5,0z"/>
	<path fill-rule="evenodd" clip-rule="evenodd" fill="#C5044E" d="M145.5,0h15c0.2761383,0,0.5,0.2238576,0.5,0.5v1
		c0,0.2761424-0.2238617,0.5-0.5,0.5h-15c-0.2761383,0-0.5-0.2238576-0.5-0.5v-1C145,0.2238576,145.2238617,0,145.5,0z"/>
	<path fill-rule="evenodd" clip-rule="evenodd" fill="#C5044E" d="M207.5,0h15c0.2761383,0,0.5,0.2238576,0.5,0.5v1
		c0,0.2761424-0.2238617,0.5-0.5,0.5h-15c-0.2761383,0-0.5-0.2238576-0.5-0.5v-1C207,0.2238576,207.2238617,0,207.5,0z"/>
	<path fill-rule="evenodd" clip-rule="evenodd" fill="#C5044E" d="M269.5,0h15c0.2761536,0,0.5,0.2238576,0.5,0.5v1
		c0,0.2761424-0.2238464,0.5-0.5,0.5h-15c-0.2761536,0-0.5-0.2238576-0.5-0.5v-1C269,0.2238576,269.2238464,0,269.5,0z"/>
	<path fill-rule="evenodd" clip-rule="evenodd" fill="#C5044E" d="M352.5,0h15c0.2761536,0,0.5,0.2238576,0.5,0.5v1
		c0,0.2761424-0.2238464,0.5-0.5,0.5h-15c-0.2761536,0-0.5-0.2238576-0.5-0.5v-1C352,0.2238576,352.2238464,0,352.5,0z"/>
	<path fill-rule="evenodd" clip-rule="evenodd" fill="#C5044E" d="M41.5,0h15C56.7761421,0,57,0.2238576,57,0.5v1
		C57,1.7761424,56.7761421,2,56.5,2h-15C41.2238579,2,41,1.7761424,41,1.5v-1C41,0.2238576,41.2238579,0,41.5,0z"/>
	<path fill-rule="evenodd" clip-rule="evenodd" fill="#C5044E" d="M103.5,0h15c0.2761459,0,0.5,0.2238576,0.5,0.5v1
		c0,0.2761424-0.2238541,0.5-0.5,0.5h-15c-0.2761459,0-0.5-0.2238576-0.5-0.5v-1C103,0.2238576,103.2238541,0,103.5,0z"/>
	<path fill-rule="evenodd" clip-rule="evenodd" fill="#C5044E" d="M165.5,0h15c0.2761383,0,0.5,0.2238576,0.5,0.5v1
		c0,0.2761424-0.2238617,0.5-0.5,0.5h-15c-0.2761383,0-0.5-0.2238576-0.5-0.5v-1C165,0.2238576,165.2238617,0,165.5,0z"/>
	<path fill-rule="evenodd" clip-rule="evenodd" fill="#C5044E" d="M228.5,0h15c0.2761383,0,0.5,0.2238576,0.5,0.5v1
		c0,0.2761424-0.2238617,0.5-0.5,0.5h-15c-0.2761383,0-0.5-0.2238576-0.5-0.5v-1C228,0.2238576,228.2238617,0,228.5,0z"/>
	<path fill-rule="evenodd" clip-rule="evenodd" fill="#C5044E" d="M310.5,0h15c0.2761536,0,0.5,0.2238576,0.5,0.5v1
		c0,0.2761424-0.2238464,0.5-0.5,0.5h-15c-0.2761536,0-0.5-0.2238576-0.5-0.5v-1C310,0.2238576,310.2238464,0,310.5,0z"/>
	<path fill-rule="evenodd" clip-rule="evenodd" fill="#C5044E" d="M290.5,0h15c0.2761536,0,0.5,0.2238576,0.5,0.5v1
		c0,0.2761424-0.2238464,0.5-0.5,0.5h-15c-0.2761536,0-0.5-0.2238576-0.5-0.5v-1C290,0.2238576,290.2238464,0,290.5,0z"/>
	<path fill-rule="evenodd" clip-rule="evenodd" fill="#C5044E" d="M372.5,0h15c0.2761536,0,0.5,0.2238576,0.5,0.5v1
		c0,0.2761424-0.2238464,0.5-0.5,0.5h-15c-0.2761536,0-0.5-0.2238576-0.5-0.5v-1C372,0.2238576,372.2238464,0,372.5,0z"/>
	<path fill-rule="evenodd" clip-rule="evenodd" fill="#C5044E" d="M393.5,0h15c0.2761536,0,0.5,0.2238576,0.5,0.5v1
		c0,0.2761424-0.2238464,0.5-0.5,0.5h-15c-0.2761536,0-0.5-0.2238576-0.5-0.5v-1C393,0.2238576,393.2238464,0,393.5,0z"/>
</g>
</svg>
