<?xml version="1.0" encoding="utf-8"?>
<!-- Generator: Adobe Illustrator 23.0.1, SVG Export Plug-In . SVG Version: 6.00 Build 0)  -->
<svg version="1.1" id="bicycle" xmlns="http://www.w3.org/2000/svg" xmlns:xlink="http://www.w3.org/1999/xlink" x="0px" y="0px"
	 width="16px" height="16px" viewBox="0 0 16 16" enable-background="new 0 0 16 16" xml:space="preserve">
<path fill-rule="evenodd" clip-rule="evenodd" fill="#181C56" d="M10.5100679,3.9692383
	c-0.0556641-0.1904297-0.2333984-0.3237305-0.4316406-0.3237305H7.9378028v0.7001953h1.9501948l0.0107422,0.0356445
	l0.6245117,2.1192017L5.9947486,7.0042725L5.6375098,6.375h0.3139648c0.2070312,0,0.375-0.168457,0.375-0.375
	s-0.1679688-0.375-0.375-0.375H4.3518653C4.144834,5.625,3.9768651,5.793457,3.9768651,6s0.167969,0.375,0.3750002,0.375h0.4813232
	l0.522522,0.9204102l-1.9711916,3.8021851c-0.0874634,0.170166-0.0205078,0.381897,0.1505737,0.4703369
	c0.1711426,0.0884399,0.3809204,0.0205078,0.4693606-0.1495972l1.7617188-3.3997803l1.5046387,2.6503906l0.6083984-0.3447266
	L6.3707862,7.6668091l3.7080073-0.4121094l-2.0787959,3.2247925l0.5888667,0.3789062l2.2085571-3.4274292l1.142334,3.8766479
	c0.0546875,0.1835938,0.2451172,0.2939453,0.4335938,0.2363281c0.0888672-0.0263672,0.1630859-0.0859375,0.2080078-0.1679688
	s0.0546875-0.1767578,0.0283203-0.2666016L10.5100679,3.9692383z"/>
<path fill="#181C56" d="M7.9768653,10.6493626c0.1929927,0,0.3499751,0.1570101,0.3499751,0.3500004
	s-0.1569824,0.3500004-0.3499751,0.3500004c-0.1929932,0-0.3499756-0.1570101-0.3499756-0.3500004
	S7.7838721,10.6493626,7.9768653,10.6493626 M7.9768653,9.9993629c-0.5523071,0-1,0.4477196-1,1c0,0.55229,0.4476929,1,1,1
	s0.9999995-0.44771,0.9999995-1C8.9768648,10.4470825,8.5291719,9.9993629,7.9768653,9.9993629L7.9768653,9.9993629z"/>
<path fill="#181C56" d="M12.3268404,9.4500008c1.0476685,0,1.9000244,0.8523397,1.9000244,1.8999996
	S13.3745089,13.25,12.3268404,13.25s-1.8999634-0.8523397-1.8999634-1.8999996S11.2791719,9.4500008,12.3268404,9.4500008
	 M12.3268404,8.7000008c-1.463501,0-2.6499634,1.1864395-2.6499634,2.6499996C9.676877,12.81355,10.8633394,14,12.3268404,14
	c1.463562,0,2.6500244-1.18645,2.6500244-2.6499996C14.9768648,9.8864403,13.7904024,8.7000008,12.3268404,8.7000008
	L12.3268404,8.7000008z"/>
<path fill="#181C56" d="M3.6268408,9.4500008c1.0476682,0,1.9000242,0.8523397,1.9000242,1.8999996S4.674509,13.25,3.6268408,13.25
	s-1.8999635-0.8523397-1.8999635-1.8999996S2.5791724,9.4500008,3.6268408,9.4500008 M3.6268408,8.7000008
	c-1.463501,0-2.6499634,1.1864395-2.6499634,2.6499996C0.9768773,12.81355,2.1633399,14,3.6268408,14
	c1.4635618,0,2.6500242-1.18645,2.6500242-2.6499996C6.276865,9.8864403,5.0904026,8.7000008,3.6268408,8.7000008
	L3.6268408,8.7000008z"/>
</svg>
