<svg width="16" height="16" viewBox="0 0 16 16" fill="none" xmlns="http://www.w3.org/2000/svg">
    <path fill-rule="evenodd" clip-rule="evenodd" d="M13.2954 1.80311L9.3782 2.78715C9.40606 2.50419 9.34936 2.21927 9.19011 1.98065L13.0936 1L13.2954 1.80311ZM8.16826 1.92409C8.57637 1.92409 8.90845 2.25591 8.90845 2.66372C8.90845 3.07264 8.57637 3.40446 8.16826 3.40446C7.76015 3.40446 7.42807 3.07264 7.42807 2.66372C7.42807 2.25591 7.76015 1.92409 8.16826 1.92409ZM13.1793 7.9352C13.1348 7.73846 12.9599 7.59871 12.7581 7.59871H3.57845C3.37666 7.59871 3.20174 7.73846 3.15724 7.9352L2.01139 13.0027C1.98044 13.1533 2.0132 13.31 2.10182 13.4356L3.10416 14.8212C3.18533 14.9335 3.31537 14.9999 3.45383 15H12.8827C13.0212 14.9999 13.1512 14.9335 13.2324 14.8212L14.2347 13.4356C14.3233 13.31 14.3561 13.1533 14.3251 13.0027L13.1793 7.9352ZM5.49014 11.5023C5.49014 11.742 5.29685 11.9353 5.05824 11.9353H4.60797H4.60692H3.76255C3.63191 11.9353 3.50775 11.8759 3.42567 11.7733C3.3436 11.6718 3.31341 11.538 3.34149 11.4095L3.72264 9.68192C3.76579 9.48321 3.94183 9.34286 4.1437 9.34286H4.79478H5.05824C5.29685 9.34286 5.49014 9.53615 5.49014 9.77476V11.5023ZM9.98418 11.5029C9.98418 11.7415 9.78984 11.9348 9.55228 11.9348H6.96097C6.72236 11.9348 6.52907 11.7415 6.52907 11.5029V9.77529C6.52907 9.53667 6.72236 9.34339 6.96097 9.34339H9.55228C9.78984 9.34339 9.98418 9.53667 9.98418 9.77529V11.5029ZM12.9109 11.7739C12.8288 11.8764 12.7046 11.9358 12.574 11.9358H11.7296H11.7286H11.2783C11.0397 11.9358 10.8464 11.7425 10.8464 11.5029V9.77529C10.8464 9.53667 11.0397 9.34339 11.2783 9.34339H11.5417H12.1928C12.3947 9.34339 12.5707 9.48374 12.6139 9.68245L12.995 11.41C13.0231 11.5385 12.9929 11.6724 12.9109 11.7739ZM6.95874 2.54116L3.04117 3.52535L3.24296 4.32846L7.1466 3.3478C6.98743 3.10926 6.93081 2.82434 6.95874 2.54116ZM8.58233 3.81403V5.53785H10.0122V6.36596H6.32436V5.53785H7.75423V3.81403C7.88494 3.86124 8.02153 3.89783 8.16828 3.89783C8.31503 3.89783 8.45162 3.86124 8.58233 3.81403Z" fill="#642E88" />
</svg>