<?xml version="1.0" encoding="utf-8"?>
<!-- Generator: Adobe Illustrator 23.0.1, SVG Export Plug-In . SVG Version: 6.00 Build 0)  -->
<svg version="1.1" id="car" xmlns="http://www.w3.org/2000/svg" xmlns:xlink="http://www.w3.org/1999/xlink" x="0px" y="0px"
	 width="16px" height="16px" viewBox="0 0 16 16" enable-background="new 0 0 16 16" xml:space="preserve">
<path fill-rule="evenodd" clip-rule="evenodd" fill="#181C56" d="M14.0018311,7.2000122H14L12.9078979,3.862915
	C12.7403564,3.3509521,12.2229614,3,11.6358643,3H4.3677979C3.781189,3,3.2640991,3.3504028,3.0961304,3.8618164L2,7.2000122
	H1.9981689C1.4468994,7.2000122,1,7.6468506,1,8.1981201v3.5029907c0,0.2755127,0.2233276,0.4989014,0.4989014,0.4989014H2
	v0.6665649c0,0.6074829,0.4924927,1.0999756,1.0999756,1.0999756c0.6075439,0,1.1000366-0.4924927,1.1000366-1.0999756v-0.6665649
	h7.5999756v0.6665649c0,0.6074829,0.4924927,1.0999756,1.1000366,1.0999756C13.5075073,13.9665527,14,13.4740601,14,12.8665771
	v-0.6665649h0.5010986C14.7766724,12.2000122,15,11.9766235,15,11.7011108V8.1981201
	C15,7.6468506,14.5531006,7.2000122,14.0018311,7.2000122z M3.2702637,7.1331787L4.1107788,4.394104
	c0.0625-0.2034912,0.2645264-0.3441162,0.4945679-0.3441162h6.7890015c0.2299805,0,0.4320068,0.140564,0.4945068,0.3441162
	l0.8408203,2.7390747c0.0102539,0.0335693-0.0171509,0.0668335-0.0549927,0.0668335H3.3251953
	C3.2874146,7.2000122,3.2600098,7.166748,3.2702637,7.1331787z M2.7999878,8.2000122
	c0.4398193,0.0019531,0.7990112,0.359375,0.7999878,0.8040161C3.598999,9.4425049,3.2398071,9.7999878,2.7999878,9.7999878
	C2.3562622,9.7999878,1.9980469,9.4425049,2,9.0040283C1.9980469,8.5593872,2.3562622,8.2019653,2.7999878,8.2000122z
	 M13.2000122,9.7999878c-0.4437256,0-0.8019409-0.3574829-0.7999878-0.7959595
	c-0.0019531-0.4446411,0.3562622-0.802063,0.7999878-0.8040161C13.6397705,8.2019653,13.9990234,8.5593872,14,9.0040283
	C13.9990234,9.4425049,13.6397705,9.7999878,13.2000122,9.7999878z"/>
</svg>
