<?xml version="1.0" encoding="utf-8"?>
<!-- Generator: Adobe Illustrator 23.0.1, SVG Export Plug-In . SVG Version: 6.00 Build 0)  -->
<svg version="1.1" id="car_ferry" xmlns="http://www.w3.org/2000/svg" xmlns:xlink="http://www.w3.org/1999/xlink" x="0px" y="0px"
	 width="16px" height="16px" viewBox="0 0 16 16" enable-background="new 0 0 16 16" xml:space="preserve">
<path fill-rule="evenodd" clip-rule="evenodd" fill="#0C6693" d="M11.8583279,5.7000079H11.857151l-0.7020664-2.1452768
	C11.0473795,3.2256122,10.7147684,3,10.3373489,3H5.6650205C5.2879148,3,4.9555001,3.2252591,4.8475204,3.5540249
	l-0.7046556,2.145983H4.1416879c-0.3543878,0-0.6416802,0.2872534-0.6416802,0.6416407v2.2519231
	c0,0.1771145,0.1435678,0.3207216,0.3207223,0.3207216h0.3221347v0.4285059c0,0.3905249,0.3166027,0.7071276,0.7071276,0.7071276
	c0.390564,0,0.7071662-0.3166027,0.7071662-0.7071276V8.9142933h4.8856983v0.4285059
	c0,0.3905249,0.3166027,0.7071276,0.7071667,0.7071276c0.3905249,0,0.7071276-0.3166027,0.7071276-0.7071276V8.9142933h0.322134
	c0.1771545,0,0.3207226-0.1436071,0.3207226-0.3207216V6.3416486C12.5000076,5.9872613,12.2127151,5.7000079,11.8583279,5.7000079z
	 M4.9594631,5.6570435L5.499794,3.8962097C5.5399728,3.765394,5.669847,3.6749921,5.8177304,3.6749921h4.3643584
	c0.1478443,0,0.2777185,0.0903625,0.3178968,0.2212176l0.5405273,1.7608337
	c0.0065918,0.0215802-0.0110254,0.0429645-0.0353518,0.0429645h-6.010385
	C4.9704885,5.7000079,4.9528713,5.6786237,4.9594631,5.6570435z M4.6571426,6.342865
	c0.2827411,0.0012555,0.5136504,0.2310266,0.5142779,0.5168676C5.1707931,7.1416101,4.9398837,7.3714209,4.6571426,7.3714209
	c-0.2852521,0-0.5155334-0.2298107-0.5142779-0.5116882C4.1416092,6.5738916,4.3718905,6.3441205,4.6571426,6.342865z
	 M11.3428726,7.3714209c-0.2852516,0-0.5155334-0.2298107-0.5142775-0.5116882
	c-0.001256-0.285841,0.2290258-0.5156121,0.5142775-0.5168676c0.2827015,0.0012555,0.5136499,0.2310266,0.5142784,0.5168676
	C11.8565226,7.1416101,11.6255741,7.3714209,11.3428726,7.3714209z"/>
<path fill="#0C6693" d="M1.9999927,12.2888069c0.1090285-0.0149593,0.2313515-0.023181,0.3726426-0.023181
	c0.5761719,0,0.8369141,0.1367188,1.1669922,0.3095703c0.1015625,0.0534058,0.1223738,0.0676603,0.2379744,0.1200285
	c0.0238037,0.0111084,0.1961534,0.0982676,0.4386613,0.1732454c0.1045513,0.0323248,0.2216187,0.0579224,0.34729,0.0795288
	c0.0377197,0.0064697,0.307601,0.052124,0.6088867,0.052002c0.8232422-0.0003338,1.2539062-0.2255859,1.6328125-0.4248047
	c0.3300781-0.1728516,0.5908203-0.3095703,1.1669922-0.3095703s0.8369136,0.1367188,1.1669917,0.3095703
	c0.3789062,0.1992188,0.8095703,0.4248047,1.6328125,0.4248047s1.2529297-0.2255859,1.6328125-0.4248047
	c0.3300781-0.1728516,0.5908203-0.3095703,1.1679688-0.3095703c0.145586,0,0.2895164,0.0168533,0.4272194,0.0441809
	l-0.0000038-1.0124264c-0.1390696-0.0200987-0.2822247-0.0317545-0.4272156-0.0317545
	c-0.8232422,0-1.2529297,0.2255859-1.6328125,0.4248047c-0.3300781,0.1728516-0.5908203,0.3095703-1.1679688,0.3095703
	s-0.8378906-0.1367188-1.1679688-0.3095703C9.225174,11.4912119,8.7954865,11.265626,7.9722447,11.265626
	s-1.2529297,0.2255859-1.6318359,0.4248047c-0.3300781,0.1728516-0.5908203,0.3095703-1.1679688,0.3095703
	c-0.1793213,0-0.3262796-0.0116053-0.4547119-0.0407104c-0.0939822-0.0212984-0.1913061-0.0402155-0.3219604-0.088501
	c-0.1350465-0.0499096-0.2591553-0.111145-0.3912964-0.1803589c-0.3789062-0.1992188-0.8085938-0.4248047-1.6318359-0.4248047
	c-0.1341839,0-0.2579122,0.0059929-0.372669,0.0168886L1.9999927,12.2888069z"/>
</svg>
