<?xml version="1.0" encoding="utf-8"?>
<!-- Generator: Adobe Illustrator 23.0.1, SVG Export Plug-In . SVG Version: 6.00 Build 0)  -->
<svg version="1.1" id="ferry" xmlns="http://www.w3.org/2000/svg" xmlns:xlink="http://www.w3.org/1999/xlink" x="0px" y="0px"
	 width="16px" height="16px" viewBox="0 0 16 16" enable-background="new 0 0 16 16" xml:space="preserve">
<path fill="#0C6693" d="M8.7366228,13c-0.8232427,0-1.2529302-0.2255859-1.6318364-0.4248047
	c-0.3300781-0.1728516-0.5908203-0.3095703-1.1679688-0.3095703s-0.8378906,0.1367188-1.1679688,0.3095703
	C4.3889661,12.7744141,3.9592786,13,3.1360364,13c-1.0517578,0-1.96875-0.5878906-2.0068359-0.6132812l-0.1288743-0.0710459
	l0.4462763-0.8937674l0.1962699,0.1083679C1.6799817,11.5527344,2.3860364,12,3.1360364,12
	c0.5771484,0,0.8378906-0.1367188,1.1679688-0.3095703c0.3798828-0.1992188,0.8095703-0.4248047,1.6328125-0.4248047
	s1.2539062,0.2255859,1.6328125,0.4248047C7.8997083,11.8632812,8.1604509,12,8.7366228,12s0.8369141-0.1367188,1.1669922-0.3095703
	c0.3789062-0.1992188,0.8095703-0.4248047,1.6328125-0.4248047c0.642683,0,1.0455141,0.1374836,1.3715782,0.2921114
	l-0.4786806,0.8804369c-0.2299261-0.1028204-0.4807262-0.1725483-0.8928976-0.1725483
	c-0.5771484,0-0.8378906,0.1367188-1.1679688,0.3095703C9.9895525,12.7744141,9.559865,13,8.7366228,13z"/>
<path fill="#0C6693" d="M14.7496338,7.4558105h-0.6616211h-0.2305908h-0.5390625
	c-0.0228271,0-0.0430298-0.0145874-0.0502319-0.0361938L12.361084,4.6737671
	c-0.0472412-0.1446533-0.1799927-0.2422485-0.3295898-0.2422485h-0.5549927
	c-0.020813-0.0002441-0.0394897-0.0136719-0.0461426-0.0339355l-0.340271-0.8250122
	c-0.0733643-0.185791-0.2145386-0.2974243-0.4172974-0.1975098L9.4602661,4.0807495
	C9.3106079,4.1569214,9.2161255,4.3128052,9.2161255,4.4833374L9.2159424,4.9463501
	c0.0001831,0.0400391-0.0254517,0.0535278-0.0465088,0.0535278L7.5570068,4.999939L5.7786865,5
	c-0.1348877,0-0.2580566,0.0765991-0.317749,0.1975098L4.3624268,7.4216309
	C4.3555908,7.4420166,4.3364868,7.4558105,4.3150024,7.4558105H3.9864502H3.7508545H3.647644
	c-0.1333618,0-0.255127,0.0757446-0.3140259,0.1953125l-1.4955444,3.046814C2.151001,10.8574219,2.4960938,11,3.1132812,11
	c1.3999634,0,1.3999634-0.7334595,2.7999878-0.7334595C7.3134766,10.2665405,7.3134766,11,8.7132568,11
	c1.4000244,0,1.4000244-0.7334595,2.7999878-0.7334595c0.899231,0,1.4499512,0.3059692,1.8450317,0.5216675l1.6109009-2.9627686
	C15.0599365,7.6588135,14.9393311,7.4558105,14.7496338,7.4558105z M7.3970947,7.2557983
	c0,0.1104736-0.0895386,0.2000122-0.2000122,0.2000122H5.2716064c-0.1245117,0-0.2358398-0.0980225-0.1328735-0.2788086
	L5.5200195,6.397583c0.0427856-0.086792,0.1311646-0.1417847,0.2279053-0.1417847h1.4491577
	c0.1104736,0,0.2000122,0.0895386,0.2000122,0.2000122V7.2557983z M9.6012573,7.2520142
	c0,0.1125488-0.0912476,0.2037964-0.2037964,0.2037964H8.0050049c-0.1125488,0-0.2037354-0.0912476-0.2037354-0.2037964V6.4595947
	c0-0.1125488,0.0911865-0.2037964,0.2037354-0.2037964h1.3924561c0.1125488,0,0.2037964,0.0912476,0.2037964,0.2037964V7.2520142z
	 M12.1358643,7.4558105l-1.9329224,0.0016479c-0.1113892,0.000061-0.2017212-0.090271-0.2017212-0.2016602V6.4574585
	c0-0.1113892,0.090271-0.2016602,0.2016602-0.2016602h1.6533203c0.1159058,0,0.2168579,0.0790405,0.2446899,0.1915283
	l0.1930542,0.7798462C12.3471069,7.3922119,12.2449951,7.4558105,12.1358643,7.4558105z"/>
</svg>
