<?xml version="1.0" encoding="utf-8"?>
<!-- Generator: Adobe Illustrator 23.0.1, SVG Export Plug-In . SVG Version: 6.00 Build 0)  -->
<svg version="1.1" id="funicular" xmlns="http://www.w3.org/2000/svg" xmlns:xlink="http://www.w3.org/1999/xlink" x="0px" y="0px"
	 width="16px" height="16px" viewBox="0 0 16 16" enable-background="new 0 0 16 16" xml:space="preserve">
<path fill-rule="evenodd" clip-rule="evenodd" fill="#78469A" d="M14.0619507,5.2728577
	c-0.0360718-0.1594849-0.1778564-0.2727661-0.3414307-0.2727661H8.9487305H6.6929326H2.2794805
	c-0.1635742,0-0.3053589,0.1132812-0.3414307,0.2727661l-0.928833,4.1077271
	C0.9841313,9.502655,1.0106816,9.6296692,1.08252,9.7315369l0.8125,1.1231689
	c0.0657959,0.0910034,0.1712036,0.1448364,0.2834473,0.1448975l4.2353516,0.0003662v0.0001221l0.6726074-0.000061
	l0.4901733,0.000061v-0.000061l6.2448726-0.0004272c0.1123047-0.000061,0.2177124-0.053894,0.2835083-0.1448975l0.812439-1.1231689
	c0.0718994-0.1018677,0.0984497-0.2288818,0.0733643-0.3509521L14.0619507,5.2728577z M3.7500005,8.1822205
	c0,0.1942749-0.1566772,0.3509521-0.3500977,0.3509521H3.0349126H3.0340581H2.3496099
	c-0.105896,0-0.206543-0.0481567-0.2730713-0.1312866C2.0100102,8.3196106,1.9855351,8.2110901,2.0083013,8.1069641
	l0.30896-1.4003906c0.0349731-0.1610718,0.1776733-0.2748413,0.3413086-0.2748413h0.527771h0.213562
	c0.1934204,0,0.3500977,0.1566772,0.3500977,0.3500977V8.1822205z M7.2496343,8.1822205
	c0,0.1934204-0.1575317,0.3500977-0.3500977,0.3500977H4.7990117c-0.1934204,0-0.3500977-0.1566772-0.3500977-0.3500977V6.7818298
	c0-0.1934204,0.1566772-0.3500977,0.3500977-0.3500977h2.1005249c0.1925659,0,0.3500977,0.1566772,0.3500977,0.3500977V8.1822205z
	 M10.7602539,8.1822205c0,0.1934204-0.1575317,0.3500977-0.3500977,0.3500977H8.3096313
	c-0.1934204,0-0.3500972-0.1566772-0.3500972-0.3500977V6.7818298c0-0.1934204,0.1566768-0.3500977,0.3500972-0.3500977h2.1005249
	c0.1925659,0,0.3500977,0.1566772,0.3500977,0.3500977V8.1822205z M13.8328247,8.401886
	c-0.0665283,0.0831299-0.1671753,0.1312866-0.2722168,0.1312866h-1.4012451h-0.3492432
	c-0.1942749,0-0.3509521-0.1566772-0.3509521-0.3500977V6.7818298c0-0.1934204,0.1566772-0.3500977,0.3509521-0.3500977h0.3492432
	h0.9259644h0.1654663c0.1654053,0,0.3063354,0.1137695,0.3421631,0.2748413l0.30896,1.4003906
	C13.9246826,8.2110901,13.9002075,8.3196106,13.8328247,8.401886z"/>
<rect x="2.0000005" y="12.0000916" fill-rule="evenodd" clip-rule="evenodd" fill="#78469A" width="12" height="1"/>
</svg>
