<?xml version="1.0" encoding="utf-8"?>
<!-- Generator: Adobe Illustrator 23.0.1, SVG Export Plug-In . SVG Version: 6.00 Build 0)  -->
<svg version="1.1" id="helicopter" xmlns="http://www.w3.org/2000/svg" xmlns:xlink="http://www.w3.org/1999/xlink" x="0px" y="0px"
	 width="16px" height="16px" viewBox="0 0 16 16" enable-background="new 0 0 16 16" xml:space="preserve">
<path fill-rule="evenodd" clip-rule="evenodd" fill="#800664" d="M15,4.6712646V4H4v0.6712646h5.1696777v1.1262817H8.6500244
	C8.2910156,5.7975464,8,6.088562,8,6.4475098v0.5548706H2.5576172L2.2427979,6.138916C2.2127686,6.0552368,2.1339111,6,2.0439453,6
	H1.2114868C1.0946655,6,1,6.0946655,1,6.2114258l0.008667,1.9064331C1.0102539,8.220459,1.0844116,8.3064575,1.1854248,8.3237915
	L8,9.4749756v0.875C8,10.7089844,8.2910156,11,8.6500244,11h4.6999512C13.7089844,11,14,10.7089844,14,10.3499756V9.1981201
	c0-1.8748169-1.5256958-3.4005737-3.4005127-3.4005737H9.8409424V4.6712646H15z M10.3619385,6.9125366V6.8156128
	c0.0180054-0.1046143,0.1114502-0.1887207,0.2212524-0.1887207h0.5257568c0.8910522,0,1.6311646,0.6586914,1.7606812,1.5146484
	c0.0128784,0.0831299,0.0093384,0.1282349-0.0128784,0.1699829c-0.0294189,0.0518799-0.0837402,0.0855103-0.210144,0.0854492
	c-0.1947021-0.000061-0.8875732-0.0015869-2.0634155,0.000061c-0.1226196,0-0.2212524-0.0985718-0.2212524-0.2203369V6.9125366z"/>
<rect x="9" y="11.9991455" fill-rule="evenodd" clip-rule="evenodd" fill="#800664" width="4" height="1"/>
</svg>
