<?xml version="1.0" encoding="utf-8"?>
<!-- Generator: Adobe Illustrator 23.0.1, SVG Export Plug-In . SVG Version: 6.00 Build 0)  -->
<svg version="1.1" id="subway" xmlns="http://www.w3.org/2000/svg" xmlns:xlink="http://www.w3.org/1999/xlink" x="0px" y="0px"
	 width="16px" height="16px" viewBox="0 0 16 16" enable-background="new 0 0 16 16" xml:space="preserve">
<polygon fill-rule="evenodd" clip-rule="evenodd" fill="#BF5826" points="5.0040736,5 5.0040736,6.1663184 7.4164491,6.1663184 
	7.4164491,12 8.5835505,12 8.5835505,6.1663184 10.9991369,6.1663184 10.9991369,5 "/>
<path fill="#BF5826" d="M7.9994302,2C11.3081598,2,14,4.6915898,14,8s-2.6918402,6-6.0005698,6C4.69133,14,2,11.3084097,2,8
	S4.69133,2,7.9994302,2 M7.9994302,1C4.1398902,1,1,4.14078,1,8s3.1398902,7,6.9994302,7C11.8601103,15,15,11.8592196,15,8
	S11.8601103,1,7.9994302,1L7.9994302,1z"/>
</svg>
