<?xml version="1.0" encoding="utf-8"?>
<!-- Generator: Adobe Illustrator 23.0.1, SVG Export Plug-In . SVG Version: 6.00 Build 0)  -->
<svg version="1.1" id="scooter" xmlns="http://www.w3.org/2000/svg" xmlns:xlink="http://www.w3.org/1999/xlink" x="0px" y="0px"
	 width="16px" height="16px" viewBox="0 0 16 16" enable-background="new 0 0 16 16" xml:space="preserve">
<path fill-rule="evenodd" clip-rule="evenodd" fill="#181C56" d="M12.5,11c-0.0187378,0-0.0361328,0.0048218-0.0547485,0.0054932
	l-2.223938-7.6806641C10.1655884,3.1323853,9.9893799,3,9.7890625,3H7.5v0.7999878h1.9509277
	c0.0444946,0,0.0836792,0.0294189,0.0960083,0.0721436l1.5291748,5.28125
	c0.0093384,0.0322266,0.0018921,0.0670166-0.0198975,0.0925903l-2.3967285,2.8187866
	c-0.019043,0.0223389-0.046875,0.0352173-0.0761719,0.0352173H4.939209C4.7633057,11.4671021,4.1889648,11,3.5,11
	C2.6715698,11,2,11.6715698,2,12.5S2.6715698,14,3.5,14c0.6889648,0,1.2633057-0.4671021,1.439209-1.1000366h3.8519287
	c0.132019,0,0.2573242-0.0579834,0.3428345-0.1585083l2.2238159-2.6151733l0.3239746,1.1187744
	C11.2719116,11.5128174,11,11.973938,11,12.5c0,0.8284302,0.6715698,1.5,1.5,1.5s1.5-0.6715698,1.5-1.5S13.3284302,11,12.5,11z
	 M3.5,13.2000122c-0.3859863,0-0.7000122-0.3140259-0.7000122-0.7000122S3.1140137,11.7999878,3.5,11.7999878
	S4.2000122,12.1140137,4.2000122,12.5S3.8859863,13.2000122,3.5,13.2000122z M12.5,13.2000122
	c-0.3859863,0-0.7000122-0.3140259-0.7000122-0.7000122S12.1140137,11.7999878,12.5,11.7999878
	S13.2000122,12.1140137,13.2000122,12.5S12.8859863,13.2000122,12.5,13.2000122z"/>
</svg>
