<?xml version="1.0" encoding="utf-8"?>
<!-- Generator: Adobe Illustrator 23.0.1, SVG Export Plug-In . SVG Version: 6.00 Build 0)  -->
<svg version="1.1" id="plane" xmlns="http://www.w3.org/2000/svg" xmlns:xlink="http://www.w3.org/1999/xlink" x="0px" y="0px"
	 width="16px" height="16px" viewBox="0 0 16 16" enable-background="new 0 0 16 16" xml:space="preserve">
<path fill-rule="evenodd" clip-rule="evenodd" fill="#800664" d="M14.833374,5.6821361
	c-0.0113525-0.010498-0.0253296-0.0201416-0.0446167-0.0306396c-0.005249-0.003479-0.0096436-0.006958-0.0157471-0.010498
	c-0.0122681-0.007019-0.0262451-0.0148926-0.0429077-0.0253906c-0.1461792-0.0831299-1.0083008-0.420105-1.4782715-0.5758667
	c-0.1540527-0.0507812-0.3098755-0.0463867-0.3973999-0.0236816L9.0366211,6.0436473L5.210022,4.4375682
	C4.9369507,4.3202586,4.892334,4.298408,4.6393433,4.3132396L3.84552,4.388557
	C3.6748657,4.4069285,3.6477051,4.5469432,3.7912598,4.6826243l2.2178955,2.1749878L3.62146,7.5000682L1.4910889,6.6764598
	C1.3151855,6.607307,1.2600098,6.6081614,1.1681519,6.6326976L1.0875854,6.6545482
	C1.0254517,6.6711497,0.9983521,6.7114329,1.000061,6.7543406c0.00177,0.0577393,0.0455322,0.0770264,0.1890869,0.2284546
	c0,0,2.8743286,2.8051763,3.0336304,2.9478154c0.0551147,0.0490112,0.1312866,0.0673828,0.2039185,0.0481567L14.5646973,7.247993
	c0.0717773-0.0192871,0.1286621-0.0735474,0.1514282-0.1435547c0.1312866-0.4008789,0.312439-1.0581665,0.2800903-1.1789551
	C14.9690552,5.8239207,14.9095459,5.7416453,14.833374,5.6821361z M13.5812988,5.8880076l-0.2714233,0.0732422
	c-0.0292969,0.0078125-0.0742188,0.0253906-0.1220703,0.0058594l-0.4589233-0.1689453
	c-0.0566406-0.0224609-0.0917969-0.078125-0.0878906-0.1376953c0.0039062-0.0605469,0.0449219-0.1122437,0.1025391-0.1278687
	l0.2714844-0.0722656c0.0292969-0.0078125,0.0595093-0.0058594,0.0878296,0.0048828l0.5057983,0.2040405
	c0.0566406,0.0224609,0.0859375,0.0546875,0.0820312,0.1152344S13.638916,5.8733592,13.5812988,5.8880076z"/>
<rect x="2" y="11.9991455" fill-rule="evenodd" clip-rule="evenodd" fill="#800664" width="12" height="1"/>
</svg>
