<?xml version="1.0" encoding="utf-8"?>
<!-- Generator: Adobe Illustrator 23.0.1, SVG Export Plug-In . SVG Version: 6.00 Build 0)  -->
<svg version="1.1" id="taxi" xmlns="http://www.w3.org/2000/svg" xmlns:xlink="http://www.w3.org/1999/xlink" x="0px" y="0px"
	 width="16px" height="16px" viewBox="0 0 16 16" enable-background="new 0 0 16 16" xml:space="preserve">
<path fill-rule="evenodd" clip-rule="evenodd" fill="#181C56" d="M13.9979248,7.2334595h-0.0018311l-1.0921021-3.3370972
	c-0.1675415-0.5119629-0.6849365-0.862915-1.2720337-0.862915H9.4996338V2.53125
	c0-0.2749634-0.2229004-0.4978027-0.4978027-0.4978027H6.9974365c-0.2749634,0-0.4978027,0.2228394-0.4978027,0.4978027v0.5021973
	H4.3638916c-0.5866089,0-1.1036987,0.3504028-1.2716675,0.8618164L1.9960938,7.2334595H1.9942627
	c-0.5512695,0-0.9981689,0.4468384-0.9981689,0.9981079v3.5029907c0,0.2755127,0.2233276,0.4989014,0.4989014,0.4989014h0.5010986
	v0.6665649C1.9960938,13.5075073,2.4885864,14,3.0960693,14c0.6075439,0,1.1000366-0.4924927,1.1000366-1.0999756v-0.6665649
	h7.5999756v0.6665649C11.7960815,13.5075073,12.2885742,14,12.8961182,14c0.6074829,0,1.0999756-0.4924927,1.0999756-1.0999756
	v-0.6665649h0.5010986c0.2755737,0,0.4989014-0.2233887,0.4989014-0.4989014V8.2315674
	C14.9960938,7.6802979,14.5491943,7.2334595,13.9979248,7.2334595z M3.2663574,7.166626l0.8405151-2.7390747
	c0.0625-0.2034912,0.2645264-0.3441162,0.4945679-0.3441162h6.7890015c0.2299805,0,0.4320068,0.140564,0.4945068,0.3441162
	L12.725769,7.166626c0.0102539,0.0335693-0.0171509,0.0668335-0.0549927,0.0668335H3.3212891
	C3.2835083,7.2334595,3.2561035,7.2001953,3.2663574,7.166626z M2.7960815,8.2334595
	c0.4398193,0.0019531,0.7990112,0.359375,0.7999878,0.8040161C3.5950928,9.4759521,3.2359009,9.8334351,2.7960815,9.8334351
	c-0.4437256,0-0.8019409-0.3574829-0.7999878-0.7959595C1.9941406,8.5928345,2.352356,8.2354126,2.7960815,8.2334595z
	 M13.196106,9.8334351c-0.4437256,0-0.8019409-0.3574829-0.7999878-0.7959595
	c-0.0019531-0.4446411,0.3562622-0.802063,0.7999878-0.8040161c0.4397583,0.0019531,0.7990112,0.359375,0.7999878,0.8040161
	C13.9951172,9.4759521,13.6358643,9.8334351,13.196106,9.8334351z"/>
</svg>
