<?xml version="1.0" encoding="utf-8"?>
<!-- Generator: Adobe Illustrator 23.0.1, SVG Export Plug-In . SVG Version: 6.00 Build 0)  -->
<svg version="1.1" id="train" xmlns="http://www.w3.org/2000/svg" xmlns:xlink="http://www.w3.org/1999/xlink" x="0px" y="0px"
	 width="16px" height="16px" viewBox="0 0 16 16" enable-background="new 0 0 16 16" xml:space="preserve">
<rect x="1" y="11.9995728" fill-rule="evenodd" clip-rule="evenodd" fill="#00367F" width="13" height="1"/>
<path fill="#00367F" d="M14.7497559,8.0994263c-0.0209961-0.0348511-0.0516357-0.0687866-0.0910034-0.1088867
	c-0.0113525-0.012146-0.0227661-0.0252075-0.0349731-0.0365601c-0.0271606-0.0269775-0.0568848-0.0574951-0.0927734-0.0949097
	c-0.3150024-0.3143921-2.3393555-1.8048096-3.43573-2.5276489c-0.3587646-0.2360229-0.7594604-0.3318481-0.9992065-0.3318481
	H6.555603l0.0012817-0.0004272L7.8509521,4.109314C7.9514771,4.0336304,8,3.9760132,8,3.8535767
	c0-0.1252441-0.0609131-0.2161255-0.1420288-0.2755737l-1.4937134-1.178894H5.4000244l1.7015991,1.4334717l-1.699707,1.1665649
	l0.0012817,0.0004272H1v6h12.6115723c0.1968384,0,0.3807983-0.098999,0.4881592-0.2639771
	C14.5907593,9.980835,15,9.326416,15,8.8336182C15,8.5566406,14.9046021,8.3049927,14.7497559,8.0994263z M12.2128906,7.5923462
	c-0.0455322,0.1356201-0.1732788,0.1715088-0.3167725,0.1715088h-0.6658936c-0.0717163,0-0.1854858,0.010498-0.2843628-0.0630493
	L9.9956055,7.0297241C9.8809814,6.9439697,9.8345947,6.7943115,9.880127,6.6586914
	c0.0454712-0.1356201,0.1723633-0.227478,0.3158569-0.227478h0.6658936c0.0717163,0,0.1417236,0.0236206,0.2003784,0.0673828
	l1.0342407,0.7787476C12.2111206,7.3630981,12.2583618,7.4567261,12.2128906,7.5923462z"/>
</svg>
