<?xml version="1.0" encoding="utf-8"?>
<!-- Generator: Adobe Illustrator 23.0.1, SVG Export Plug-In . SVG Version: 6.00 Build 0)  -->
<svg version="1.1" id="tram" xmlns="http://www.w3.org/2000/svg" xmlns:xlink="http://www.w3.org/1999/xlink" x="0px" y="0px"
	 width="16px" height="16px" viewBox="0 0 16 16" enable-background="new 0 0 16 16" xml:space="preserve">
<path fill-rule="evenodd" clip-rule="evenodd" fill="#642E88" d="M14.0619507,5.2719116
	c-0.0360718-0.1594849-0.1778564-0.2727661-0.3414307-0.2727661H8.5660925L9.8547363,4.109314
	c0.1005249-0.0756836,0.1490479-0.1333008,0.1490479-0.2557373c0-0.1252441-0.0609131-0.2161255-0.1420288-0.2755737
	L8.368042,2.3991089H7.4037476l1.7016602,1.4334717l-1.699707,1.1665649H2.27948
	c-0.1635742,0-0.3053589,0.1132812-0.3414307,0.2727661l-0.928833,4.1077271
	C0.9841309,9.501709,1.0106812,9.6287231,1.0825195,9.7305908l0.8125,1.1231689
	c0.0657959,0.0910034,0.1712036,0.1448364,0.2834473,0.1448975l4.2353516,0.0003662v0.0001221l0.6726074-0.000061
	l0.4901733,0.000061v-0.000061l6.244873-0.0004272c0.1123047-0.000061,0.2177124-0.053894,0.2835083-0.1448975l0.812439-1.1231689
	c0.0718994-0.1018677,0.0984497-0.2288818,0.0733643-0.3509521L14.0619507,5.2719116z M3.75,8.1812744
	c0,0.1942749-0.1566772,0.3509521-0.3500977,0.3509521H3.0349121H3.0340576H2.3496094
	c-0.105896,0-0.206543-0.0481567-0.2730713-0.1312866C2.0100098,8.3186646,1.9855347,8.210144,2.0083008,8.1060181
	l0.30896-1.4003906c0.0349731-0.1610718,0.1776733-0.2748413,0.3413086-0.2748413h0.527771h0.213562
	C3.5933228,6.4307861,3.75,6.5874634,3.75,6.7808838V8.1812744z M7.2496338,8.1812744
	c0,0.1934204-0.1575317,0.3500977-0.3500977,0.3500977H4.7990112c-0.1934204,0-0.3500977-0.1566772-0.3500977-0.3500977V6.7808838
	c0-0.1934204,0.1566772-0.3500977,0.3500977-0.3500977h2.1005249c0.1925659,0,0.3500977,0.1566772,0.3500977,0.3500977V8.1812744z
	 M10.7602539,8.1812744c0,0.1934204-0.1575317,0.3500977-0.3500977,0.3500977H8.3096313
	c-0.1934204,0-0.3500977-0.1566772-0.3500977-0.3500977V6.7808838c0-0.1934204,0.1566772-0.3500977,0.3500977-0.3500977h2.1005249
	c0.1925659,0,0.3500977,0.1566772,0.3500977,0.3500977V8.1812744z M13.8328247,8.4009399
	c-0.0665283,0.0831299-0.1671753,0.1312866-0.2722168,0.1312866h-1.4012451h-0.3492432
	c-0.1942749,0-0.3509521-0.1566772-0.3509521-0.3500977V6.7808838c0-0.1934204,0.1566772-0.3500977,0.3509521-0.3500977h0.3492432
	h0.9259644h0.1654663c0.1654053,0,0.3063354,0.1137695,0.3421631,0.2748413l0.30896,1.4003906
	C13.9246826,8.210144,13.9002075,8.3186646,13.8328247,8.4009399z"/>
<rect x="2" y="11.9991455" fill-rule="evenodd" clip-rule="evenodd" fill="#642E88" width="12" height="1"/>
</svg>
