<?xml version="1.0" encoding="utf-8"?>
<!-- Generator: Adobe Illustrator 23.0.1, SVG Export Plug-In . SVG Version: 6.00 Build 0)  -->
<svg version="1.1" id="walking" xmlns="http://www.w3.org/2000/svg" xmlns:xlink="http://www.w3.org/1999/xlink" x="0px" y="0px"
	 width="16px" height="16px" viewBox="0 0 16 16" enable-background="new 0 0 16 16" xml:space="preserve">
<g>
	<path fill-rule="evenodd" clip-rule="evenodd" fill="#181C56" d="M8.6634693,3.5
		c-0.6911101,0-1.2499995-0.5596175-1.2499995-1.2495313S7.9723592,1,8.6634693,1c0.6901731,0,1.25,0.560555,1.25,1.2504687
		S9.3536425,3.5,8.6634693,3.5z"/>
	<path fill-rule="evenodd" clip-rule="evenodd" fill="#181C56" d="M5.920763,11.3909302
		c-0.0134382,0.0281067-0.0348501,0.0728903-0.0482883,0.100997L4.1280994,14.041687
		c-0.197876,0.2658691-0.1428223,0.6417847,0.1230469,0.8395996s0.6417236,0.1427002,0.8395996-0.1231689l1.9057007-2.2975464
		c0.0586219-0.1037798,0.1158504-0.2050934,0.1744723-0.3088732l0.518765-1.4857435l-1.2045288-1.152771L5.920763,11.3909302z"/>
	<path fill-rule="evenodd" clip-rule="evenodd" fill="#181C56" d="M12.7910633,7.7894897L10.765111,6.5461721
		c-0.0258265-0.0158496-0.0477705-0.0372896-0.0642157-0.0627408L9.7200708,4.7809229
		c-0.1464119-0.2265935-0.3781652-0.3844175-0.642642-0.4376392L7.6368794,4.0525298
		C7.3575301,3.9963152,7.0674663,4.0619435,6.8395233,4.232935l-1.7981434,1.348877
		C4.9208608,5.6722198,4.8223271,5.7886906,4.7531395,5.9225245L3.6708241,8.0161133
		C3.5450306,8.2160645,3.6051502,8.4802246,3.8051624,8.6060791c0.2000122,0.1257935,0.4641113,0.0656738,0.5899658-0.1343384
		l1.2930737-1.9960122c0.0160427-0.0247636,0.0374331-0.0456147,0.0625978-0.0610199l1.0879321-0.6659904L6.5301991,7.2822266
		C6.4506702,7.6774902,6.4767323,8.086731,6.6057606,8.468689c0.1082764,0.3203125,0.2860107,0.6127319,0.5205078,0.8563232
		l2.2757406,2.2877035c0.0151844,0.0234737,0.0298758,0.0461836,0.0450602,0.0696573l1.1149902,2.9128418
		c0.1060791,0.3140259,0.4465942,0.4825439,0.760498,0.3764648s0.4824829-0.4465332,0.3764038-0.7605591l-0.8052721-2.8745174
		c-0.0519543-0.1071701-0.1026735-0.2117929-0.1546278-0.318964l-1.8543701-2.545166
		c-0.0571823-0.0784836-0.0788288-0.17735-0.0596752-0.2725477l0.3737011-1.8573351l0.6874847,0.8713613
		c0.0933266,0.1182866,0.2121744,0.2139559,0.3476677,0.2798595l2.1193275,1.0308471
		c0.2029419,0.1209106,0.4655762,0.0543213,0.5864868-0.1486816S12.9940052,7.9104004,12.7910633,7.7894897z"/>
</g>
</svg>
