<svg width="344" height="212" viewBox="0 0 344 212" fill="none" xmlns="http://www.w3.org/2000/svg">
<rect y="6.10352e-05" width="344" height="212" rx="2" fill="#E9E9E9"/>
<rect x="8" y="8.00006" width="104" height="196" rx="2" fill="white"/>
<rect x="16" y="44.0001" width="18" height="8" rx="1" fill="#E9E9E9"/>
<rect x="16" y="96.0001" width="18" height="8" rx="1" fill="#E9E9E9"/>
<rect x="16" y="148" width="18" height="8" rx="1" fill="#E9E9E9"/>
<rect x="39" y="44.0001" width="18" height="8" rx="1" fill="#E9E9E9"/>
<rect x="39" y="96.0001" width="18" height="8" rx="1" fill="#E9E9E9"/>
<rect x="39" y="148" width="18" height="8" rx="1" fill="#E9E9E9"/>
<rect x="62" y="44.0001" width="18" height="8" rx="1" fill="#E9E9E9"/>
<rect x="62" y="96.0001" width="18" height="8" rx="1" fill="#E9E9E9"/>
<rect x="62" y="148" width="18" height="8" rx="1" fill="#E9E9E9"/>
<rect x="85" y="44.0001" width="18" height="8" rx="1" fill="#E9E9E9"/>
<rect x="85" y="96.0001" width="18" height="8" rx="1" fill="#E9E9E9"/>
<rect x="85" y="148" width="18" height="8" rx="1" fill="#E9E9E9"/>
<rect x="120" y="140" width="104" height="64" rx="2" fill="white"/>
<rect x="128" y="176" width="18" height="8" rx="1" fill="#E9E9E9"/>
<rect x="151" y="176" width="18" height="8" rx="1" fill="#E9E9E9"/>
<rect x="174" y="176" width="18" height="8" rx="1" fill="#E9E9E9"/>
<rect x="197" y="176" width="18" height="8" rx="1" fill="white" fill-opacity="0.11"/>
<path d="M158.228 157.504H153.356L153.212 161.572L153.992 161.944C154.388 161.848 154.808 161.776 155.156 161.776C156.116 161.776 157.028 162.244 157.028 163.348C157.028 164.284 156.344 164.884 155.492 164.884C154.796 164.884 154.184 164.428 153.98 163.756H152.372C152.78 165.496 154.1 166.228 155.516 166.228C157.196 166.228 158.624 165.172 158.624 163.252C158.624 161.548 157.34 160.564 155.672 160.564C155.372 160.564 154.988 160.612 154.7 160.696L154.76 158.872H158.228V157.504ZM165.273 157.504H163.341L159.825 162.82V164.2H163.785V166H165.273V164.2H166.473V162.892H165.273V157.504ZM163.785 162.892H161.385L163.761 159.16H163.785V162.892ZM170.878 166H173.986C175.798 166 177.454 165.388 177.454 163.576C177.454 162.412 176.662 161.692 175.642 161.536V161.512C176.494 161.26 177.07 160.612 177.07 159.676C177.07 157.972 175.558 157.504 174.25 157.504H170.878V166ZM172.438 158.812H173.926C174.886 158.812 175.51 159.124 175.51 159.892C175.51 160.684 174.874 161.032 174.082 161.032H172.438V158.812ZM172.438 162.208H174.118C175.174 162.208 175.834 162.568 175.834 163.432C175.834 164.392 174.934 164.68 174.058 164.68H172.438V162.208ZM178.927 163.456C178.927 165.112 179.611 166.132 181.291 166.132C182.107 166.132 182.791 165.604 183.067 165.16H183.103V166H184.603V160.252H183.055V163.156C183.055 164.08 182.611 164.884 181.711 164.884C180.787 164.884 180.463 164.188 180.463 163.324V160.252H178.927V163.456ZM191.132 161.044C190.508 160.432 189.44 160.096 188.456 160.096C187.148 160.096 185.96 160.72 185.96 161.956C185.96 164.044 189.764 163.24 189.764 164.38C189.764 164.836 189.2 165.028 188.648 165.028C188.012 165.028 187.28 164.728 186.704 164.188L185.768 165.112C186.2 165.484 187.232 166.18 188.66 166.18C189.98 166.18 191.24 165.592 191.24 164.284C191.24 163.096 190.136 162.736 188.864 162.532C188.036 162.4 187.448 162.28 187.448 161.86C187.448 161.44 188.012 161.272 188.528 161.272C189.116 161.272 189.884 161.584 190.256 161.944L191.132 161.044ZM197.308 161.044C196.684 160.432 195.616 160.096 194.632 160.096C193.324 160.096 192.136 160.72 192.136 161.956C192.136 164.044 195.94 163.24 195.94 164.38C195.94 164.836 195.376 165.028 194.824 165.028C194.188 165.028 193.456 164.728 192.88 164.188L191.944 165.112C192.376 165.484 193.408 166.18 194.836 166.18C196.156 166.18 197.416 165.592 197.416 164.284C197.416 163.096 196.312 162.736 195.04 162.532C194.212 162.4 193.624 162.28 193.624 161.86C193.624 161.44 194.188 161.272 194.704 161.272C195.292 161.272 196.06 161.584 196.432 161.944L197.308 161.044ZM204.216 163.516C204.228 163.336 204.24 163.156 204.24 162.952C204.24 161.5 203.22 160.096 201.468 160.096C199.728 160.096 198.396 161.44 198.396 163.252C198.396 165.064 199.788 166.18 201.42 166.18C202.62 166.18 203.664 165.58 204.144 164.884L203.112 164.212C202.848 164.524 202.32 164.992 201.528 164.992C200.64 164.992 199.968 164.464 199.86 163.516H204.216ZM201.42 161.212C202.236 161.212 202.872 161.824 202.872 162.592H199.86C199.992 161.812 200.568 161.212 201.42 161.212ZM211.418 162.772C211.418 161.356 210.818 160.096 209.15 160.096C208.214 160.096 207.482 160.612 207.206 161.128H207.158V160.252H205.658V166H207.194V163.096C207.194 162.076 207.794 161.344 208.67 161.344C209.546 161.344 209.882 162.064 209.882 162.904V166H211.418V162.772Z" fill="#202020"/>
<path fill-rule="evenodd" clip-rule="evenodd" d="M129.656 160.79C129.656 160.592 129.814 160.432 130.006 160.432H130.707C130.9 160.432 131.055 160.592 131.055 160.79V162.222C131.055 162.419 130.9 162.58 130.707 162.58H130.006C129.814 162.58 129.656 162.419 129.656 162.222V160.79ZM131.756 160.79C131.756 160.592 131.913 160.432 132.106 160.432H134.906C135.099 160.432 135.257 160.592 135.257 160.79V162.222C135.257 162.419 135.099 162.58 134.906 162.58H132.106C131.913 162.58 131.756 162.419 131.756 162.222V160.79ZM135.956 160.79C135.956 160.592 136.113 160.432 136.306 160.432H139.106C139.299 160.432 139.456 160.592 139.456 160.79V162.222C139.456 162.419 139.299 162.58 139.106 162.58H136.306C136.113 162.58 135.956 162.419 135.956 162.222V160.79ZM140.156 160.79C140.156 160.592 140.314 160.432 140.506 160.432H141.593C141.77 160.432 141.918 160.565 141.939 160.744L142.125 162.175C142.138 162.278 142.107 162.38 142.04 162.458C141.974 162.536 141.878 162.58 141.778 162.58H140.506C140.314 162.58 140.156 162.419 140.156 162.222V160.79ZM142.995 163.595L142.296 159.299C142.266 159.127 142.122 159 141.95 159H129.7C129.349 159 129 159.358 129 159.717V163.571V163.814V164.642C129 164.821 129.128 165 129.3 165H130.847C131.083 164.282 131.753 163.8 132.55 163.8C133.348 163.8 134.017 164.282 134.253 165H137.797C138.032 164.282 138.702 163.8 139.5 163.8C140.297 163.8 140.967 164.282 141.203 165H142.65C142.843 165 143 164.839 143 164.642V163.814V163.654C143 163.634 142.998 163.615 142.995 163.595ZM131.55 165.8C131.55 165.249 131.998 164.8 132.55 164.8C133.102 164.8 133.55 165.249 133.55 165.8C133.55 166.352 133.102 166.8 132.55 166.8C131.998 166.8 131.55 166.352 131.55 165.8ZM139.5 164.8C138.948 164.8 138.5 165.249 138.5 165.8C138.5 166.352 138.948 166.8 139.5 166.8C140.052 166.8 140.5 166.352 140.5 165.8C140.5 165.249 140.052 164.8 139.5 164.8Z" fill="#C5044E"/>
<rect x="120" y="8.00006" width="104" height="124" rx="2" fill="white"/>
<rect x="128" y="44" width="18" height="8" rx="1" fill="#E9E9E9"/>
<rect x="128" y="96" width="18" height="8" rx="1" fill="#E9E9E9"/>
<rect x="151" y="44" width="18" height="8" rx="1" fill="#E9E9E9"/>
<rect x="151" y="96" width="18" height="8" rx="1" fill="#E9E9E9"/>
<rect x="174" y="44" width="18" height="8" rx="1" fill="#E9E9E9"/>
<rect x="174" y="96" width="18" height="8" rx="1" fill="#E9E9E9"/>
<rect x="197" y="44" width="18" height="8" rx="1" fill="#E9E9E9"/>
<rect x="197" y="96" width="18" height="8" rx="1" fill="#E9E9E9"/>
<path d="M152.972 34.0001H156.08C157.892 34.0001 159.548 33.3881 159.548 31.5761C159.548 30.4121 158.756 29.6921 157.736 29.5361V29.5121C158.588 29.2601 159.164 28.6121 159.164 27.6761C159.164 25.9721 157.652 25.5041 156.344 25.5041H152.972V34.0001ZM154.532 26.8121H156.02C156.98 26.8121 157.604 27.1241 157.604 27.8921C157.604 28.6841 156.968 29.0321 156.176 29.0321H154.532V26.8121ZM154.532 30.2081H156.212C157.268 30.2081 157.928 30.5681 157.928 31.4321C157.928 32.3921 157.028 32.6801 156.152 32.6801H154.532V30.2081ZM166.768 32.6201H162.916L165.304 30.3881C166.06 29.6921 166.744 28.9481 166.744 27.7841C166.744 26.1041 165.352 25.2881 163.864 25.2881C162.328 25.2881 160.996 26.2241 160.828 28.0001H162.4C162.508 27.1961 163.036 26.6321 163.804 26.6321C164.536 26.6321 165.088 27.1241 165.088 27.8801C165.088 28.4921 164.728 28.9841 164.272 29.4161L160.888 32.6081V34.0001H166.768V32.6201ZM171.581 34.0001H174.689C176.501 34.0001 178.157 33.3881 178.157 31.5761C178.157 30.4121 177.365 29.6921 176.345 29.5361V29.5121C177.197 29.2601 177.773 28.6121 177.773 27.6761C177.773 25.9721 176.261 25.5041 174.953 25.5041H171.581V34.0001ZM173.141 26.8121H174.629C175.589 26.8121 176.213 27.1241 176.213 27.8921C176.213 28.6841 175.577 29.0321 174.785 29.0321H173.141V26.8121ZM173.141 30.2081H174.821C175.877 30.2081 176.537 30.5681 176.537 31.4321C176.537 32.3921 175.637 32.6801 174.761 32.6801H173.141V30.2081ZM183.182 31.8641C183.182 32.6681 182.474 33.1121 181.73 33.1121C181.118 33.1121 180.71 32.8481 180.71 32.3081C180.71 31.7681 181.058 31.3841 181.886 31.3841C182.33 31.3841 182.786 31.4681 183.182 31.5641V31.8641ZM179.258 32.3441C179.258 33.6281 180.29 34.1561 181.358 34.1561C182.09 34.1561 182.798 33.8681 183.146 33.3041H183.182V34.0001H184.61V30.5561C184.61 28.8161 183.806 28.0961 181.994 28.0961C180.866 28.0961 180.086 28.3841 179.474 28.9721L180.314 29.8721C180.686 29.5001 181.214 29.2601 181.886 29.2601C182.81 29.2601 183.182 29.6441 183.182 30.3761V30.6281C182.678 30.5201 182.222 30.4721 181.754 30.4721C180.086 30.4721 179.258 31.2281 179.258 32.3441ZM183.374 26.0921C183.374 25.3961 182.81 24.8681 182.126 24.8681C181.43 24.8681 180.878 25.3961 180.878 26.1041C180.878 26.8001 181.442 27.3281 182.126 27.3281C182.81 27.3281 183.374 26.8001 183.374 26.0921ZM182.75 26.0921C182.75 26.4401 182.474 26.7041 182.126 26.7041C181.778 26.7041 181.502 26.4401 181.502 26.0921C181.502 25.7561 181.778 25.4921 182.126 25.4921C182.474 25.4921 182.75 25.7561 182.75 26.0921ZM189.407 32.8001H188.975C188.423 32.8001 187.955 32.7401 187.955 31.7321V29.4401H189.419V28.2521H187.955V26.7401H186.455V28.2521H185.543V29.4401H186.455V31.6961C186.455 33.6521 186.911 34.0001 188.711 34.0001H189.407V32.8001ZM195.977 31.5161C195.989 31.3361 196.001 31.1561 196.001 30.9521C196.001 29.5001 194.981 28.0961 193.229 28.0961C191.489 28.0961 190.157 29.4401 190.157 31.2521C190.157 33.0641 191.549 34.1801 193.181 34.1801C194.381 34.1801 195.425 33.5801 195.905 32.8841L194.873 32.2121C194.609 32.5241 194.081 32.9921 193.289 32.9921C192.401 32.9921 191.729 32.4641 191.621 31.5161H195.977ZM193.181 29.2121C193.997 29.2121 194.633 29.8241 194.633 30.5921H191.621C191.753 29.8121 192.329 29.2121 193.181 29.2121ZM203.179 30.7721C203.179 29.3561 202.579 28.0961 200.911 28.0961C199.975 28.0961 199.243 28.6121 198.967 29.1281H198.919V28.2521H197.419V34.0001H198.955V31.0961C198.955 30.0761 199.555 29.3441 200.431 29.3441C201.307 29.3441 201.643 30.0641 201.643 30.9041V34.0001H203.179V30.7721Z" fill="#202020"/>
<path d="M152.972 86.0001H156.08C157.892 86.0001 159.548 85.3881 159.548 83.5761C159.548 82.4121 158.756 81.6921 157.736 81.5361V81.5121C158.588 81.2601 159.164 80.6121 159.164 79.6761C159.164 77.9721 157.652 77.5041 156.344 77.5041H152.972V86.0001ZM154.532 78.8121H156.02C156.98 78.8121 157.604 79.1241 157.604 79.8921C157.604 80.6841 156.968 81.0321 156.176 81.0321H154.532V78.8121ZM154.532 82.2081H156.212C157.268 82.2081 157.928 82.5681 157.928 83.4321C157.928 84.3921 157.028 84.6801 156.152 84.6801H154.532V82.2081ZM166.768 84.6201H162.916L165.304 82.3881C166.06 81.6921 166.744 80.9481 166.744 79.7841C166.744 78.1041 165.352 77.2881 163.864 77.2881C162.328 77.2881 160.996 78.2241 160.828 80.0001H162.4C162.508 79.1961 163.036 78.6321 163.804 78.6321C164.536 78.6321 165.088 79.1241 165.088 79.8801C165.088 80.4921 164.728 80.9841 164.272 81.4161L160.888 84.6081V86.0001H166.768V84.6201ZM171.581 86.0001H174.689C176.501 86.0001 178.157 85.3881 178.157 83.5761C178.157 82.4121 177.365 81.6921 176.345 81.5361V81.5121C177.197 81.2601 177.773 80.6121 177.773 79.6761C177.773 77.9721 176.261 77.5041 174.953 77.5041H171.581V86.0001ZM173.141 78.8121H174.629C175.589 78.8121 176.213 79.1241 176.213 79.8921C176.213 80.6841 175.577 81.0321 174.785 81.0321H173.141V78.8121ZM173.141 82.2081H174.821C175.877 82.2081 176.537 82.5681 176.537 83.4321C176.537 84.3921 175.637 84.6801 174.761 84.6801H173.141V82.2081ZM183.182 83.8641C183.182 84.6681 182.474 85.1121 181.73 85.1121C181.118 85.1121 180.71 84.8481 180.71 84.3081C180.71 83.7681 181.058 83.3841 181.886 83.3841C182.33 83.3841 182.786 83.4681 183.182 83.5641V83.8641ZM179.258 84.3441C179.258 85.6281 180.29 86.1561 181.358 86.1561C182.09 86.1561 182.798 85.8681 183.146 85.3041H183.182V86.0001H184.61V82.5561C184.61 80.8161 183.806 80.0961 181.994 80.0961C180.866 80.0961 180.086 80.3841 179.474 80.9721L180.314 81.8721C180.686 81.5001 181.214 81.2601 181.886 81.2601C182.81 81.2601 183.182 81.6441 183.182 82.3761V82.6281C182.678 82.5201 182.222 82.4721 181.754 82.4721C180.086 82.4721 179.258 83.2281 179.258 84.3441ZM183.374 78.0921C183.374 77.3961 182.81 76.8681 182.126 76.8681C181.43 76.8681 180.878 77.3961 180.878 78.1041C180.878 78.8001 181.442 79.3281 182.126 79.3281C182.81 79.3281 183.374 78.8001 183.374 78.0921ZM182.75 78.0921C182.75 78.4401 182.474 78.7041 182.126 78.7041C181.778 78.7041 181.502 78.4401 181.502 78.0921C181.502 77.7561 181.778 77.4921 182.126 77.4921C182.474 77.4921 182.75 77.7561 182.75 78.0921ZM189.407 84.8001H188.975C188.423 84.8001 187.955 84.7401 187.955 83.7321V81.4401H189.419V80.2521H187.955V78.7401H186.455V80.2521H185.543V81.4401H186.455V83.6961C186.455 85.6521 186.911 86.0001 188.711 86.0001H189.407V84.8001ZM195.977 83.5161C195.989 83.3361 196.001 83.1561 196.001 82.9521C196.001 81.5001 194.981 80.0961 193.229 80.0961C191.489 80.0961 190.157 81.4401 190.157 83.2521C190.157 85.0641 191.549 86.1801 193.181 86.1801C194.381 86.1801 195.425 85.5801 195.905 84.8841L194.873 84.2121C194.609 84.5241 194.081 84.9921 193.289 84.9921C192.401 84.9921 191.729 84.4641 191.621 83.5161H195.977ZM193.181 81.2121C193.997 81.2121 194.633 81.8241 194.633 82.5921H191.621C191.753 81.8121 192.329 81.2121 193.181 81.2121ZM203.179 82.7721C203.179 81.3561 202.579 80.0961 200.911 80.0961C199.975 80.0961 199.243 80.6121 198.967 81.1281H198.919V80.2521H197.419V86.0001H198.955V83.0961C198.955 82.0761 199.555 81.3441 200.431 81.3441C201.307 81.3441 201.643 82.0641 201.643 82.9041V86.0001H203.179V82.7721Z" fill="#202020"/>
<path fill-rule="evenodd" clip-rule="evenodd" d="M138.202 29.4595L140.135 29.4585C140.244 29.4585 140.346 29.3945 140.293 29.2295L140.1 28.4495C140.073 28.3375 139.971 28.2585 139.856 28.2585H138.202C138.091 28.2585 138 28.3485 138 28.4595V29.2585C138 29.3695 138.091 29.4595 138.202 29.4595ZM137.397 29.4585C137.509 29.4585 137.601 29.3675 137.601 29.2545V28.4615C137.601 28.3495 137.509 28.2585 137.397 28.2585H136.004C135.892 28.2585 135.8 28.3495 135.8 28.4615V29.2545C135.8 29.3675 135.892 29.4585 136.004 29.4585H137.397ZM135.197 29.4585C135.307 29.4585 135.397 29.3685 135.397 29.2585V28.4585C135.397 28.3475 135.307 28.2585 135.197 28.2585H133.747C133.651 28.2585 133.562 28.3125 133.519 28.3995L133.138 29.1795C133.035 29.3605 133.147 29.4585 133.271 29.4585H135.197ZM142.087 29.4585H142.749C142.939 29.4585 143.059 29.6615 142.968 29.8275L141.358 32.7905L141.348 32.7847C140.953 32.5691 140.403 32.2695 139.513 32.2695C138.814 32.2695 138.464 32.4527 138.113 32.6359C137.763 32.8192 137.413 33.0025 136.712 33.0025C136.013 33.0025 135.663 32.8194 135.314 32.6362C134.963 32.4529 134.613 32.2695 133.912 32.2695C133.213 32.2695 132.863 32.4527 132.513 32.6359C132.164 32.8192 131.814 33.0025 131.113 33.0025C130.495 33.0025 130.151 32.8595 129.837 32.7005L131.333 29.6535C131.392 29.5345 131.514 29.4585 131.647 29.4585H131.75H131.986H132.315C132.336 29.4585 132.355 29.4445 132.362 29.4245L133.46 27.1995C133.52 27.0795 133.643 27.0025 133.778 27.0025H135.556H137.169C137.19 27.0025 137.215 26.9885 137.215 26.9485V26.4855C137.215 26.3155 137.31 26.1595 137.459 26.0835L138.672 25.3775C138.875 25.2775 139.016 25.3895 139.089 25.5755L139.43 26.3995C139.437 26.4205 139.455 26.4335 139.476 26.4345H140.031C140.18 26.4345 140.313 26.5315 140.361 26.6765L141.268 29.4215C141.275 29.4435 141.295 29.4585 141.318 29.4585H141.857H142.087ZM135.105 34.5777C135.483 34.7767 135.913 35.0024 136.736 35.0024C137.559 35.0024 137.989 34.7767 138.367 34.5777L138.368 34.5774C138.698 34.4044 138.959 34.2684 139.536 34.2684C139.948 34.2684 140.199 34.3374 140.429 34.4404L140.908 33.5604C140.582 33.4054 140.178 33.2684 139.536 33.2684C138.713 33.2684 138.282 33.4934 137.903 33.6924L137.902 33.6927C137.573 33.8656 137.312 34.0024 136.736 34.0024C136.16 34.0024 135.899 33.8656 135.57 33.6927L135.569 33.6924C135.19 33.4934 134.759 33.2684 133.936 33.2684C133.113 33.2684 132.683 33.4934 132.303 33.6924L132.301 33.6936C131.972 33.866 131.712 34.0024 131.135 34.0024C130.395 34.0024 129.698 33.5675 129.644 33.5336L129.642 33.5324L129.446 33.4244L129 34.3174L129.129 34.3894C129.167 34.4144 130.084 35.0024 131.135 35.0024C131.956 35.0024 132.385 34.7778 132.764 34.5793L132.768 34.5774C133.098 34.4044 133.359 34.2684 133.936 34.2684C134.513 34.2684 134.774 34.4044 135.104 34.5774L135.105 34.5777Z" fill="#0497BC"/>
<path fill-rule="evenodd" clip-rule="evenodd" d="M138.202 81.4595L140.135 81.4585C140.244 81.4585 140.346 81.3945 140.293 81.2295L140.1 80.4495C140.073 80.3375 139.971 80.2585 139.856 80.2585H138.202C138.091 80.2585 138 80.3485 138 80.4595V81.2585C138 81.3695 138.091 81.4595 138.202 81.4595ZM137.397 81.4585C137.509 81.4585 137.601 81.3675 137.601 81.2545V80.4615C137.601 80.3495 137.509 80.2585 137.397 80.2585H136.004C135.892 80.2585 135.8 80.3495 135.8 80.4615V81.2545C135.8 81.3675 135.892 81.4585 136.004 81.4585H137.397ZM135.197 81.4585C135.307 81.4585 135.397 81.3685 135.397 81.2585V80.4585C135.397 80.3475 135.307 80.2585 135.197 80.2585H133.747C133.651 80.2585 133.562 80.3125 133.519 80.3995L133.138 81.1795C133.035 81.3605 133.147 81.4585 133.271 81.4585H135.197ZM142.087 81.4585H142.749C142.939 81.4585 143.059 81.6615 142.968 81.8275L141.358 84.7905L141.348 84.7847C140.953 84.5691 140.403 84.2695 139.513 84.2695C138.814 84.2695 138.464 84.4527 138.113 84.6359C137.763 84.8192 137.413 85.0025 136.712 85.0025C136.013 85.0025 135.663 84.8194 135.314 84.6362C134.963 84.4529 134.613 84.2695 133.912 84.2695C133.213 84.2695 132.863 84.4527 132.513 84.6359C132.164 84.8192 131.814 85.0025 131.113 85.0025C130.495 85.0025 130.151 84.8595 129.837 84.7005L131.333 81.6535C131.392 81.5345 131.514 81.4585 131.647 81.4585H131.75H131.986H132.315C132.336 81.4585 132.355 81.4445 132.362 81.4245L133.46 79.1995C133.52 79.0795 133.643 79.0025 133.778 79.0025H135.556H137.169C137.19 79.0025 137.215 78.9885 137.215 78.9485V78.4855C137.215 78.3155 137.31 78.1595 137.459 78.0835L138.672 77.3775C138.875 77.2775 139.016 77.3895 139.089 77.5755L139.43 78.3995C139.437 78.4205 139.455 78.4335 139.476 78.4345H140.031C140.18 78.4345 140.313 78.5315 140.361 78.6765L141.268 81.4215C141.275 81.4435 141.295 81.4585 141.318 81.4585H141.857H142.087ZM135.105 86.5777C135.483 86.7767 135.913 87.0024 136.736 87.0024C137.559 87.0024 137.989 86.7767 138.367 86.5777L138.368 86.5774C138.698 86.4044 138.959 86.2684 139.536 86.2684C139.948 86.2684 140.199 86.3374 140.429 86.4404L140.908 85.5604C140.582 85.4054 140.178 85.2684 139.536 85.2684C138.713 85.2684 138.282 85.4934 137.903 85.6924L137.902 85.6927C137.573 85.8656 137.312 86.0024 136.736 86.0024C136.16 86.0024 135.899 85.8656 135.57 85.6927L135.569 85.6924C135.19 85.4934 134.759 85.2684 133.936 85.2684C133.113 85.2684 132.683 85.4934 132.303 85.6924L132.301 85.6936C131.972 85.866 131.712 86.0024 131.135 86.0024C130.395 86.0024 129.698 85.5675 129.644 85.5336L129.642 85.5324L129.446 85.4244L129 86.3174L129.129 86.3894C129.167 86.4144 130.084 87.0024 131.135 87.0024C131.956 87.0024 132.385 86.7778 132.764 86.5793L132.768 86.5774C133.098 86.4044 133.359 86.2684 133.936 86.2684C134.513 86.2684 134.774 86.4044 135.104 86.5774L135.105 86.5777Z" fill="#0497BC"/>
<rect x="232" y="8.00006" width="104" height="196" rx="2" fill="white"/>
<path d="M45.952 28.1321C45.952 28.9961 45.376 29.5121 44.236 29.5121H42.544V26.8481H44.2C45.292 26.8481 45.952 27.2201 45.952 28.1321ZM40.972 34.0001H42.556V30.7481H44.02L46.072 34.0001H47.992L45.664 30.4961C46.612 30.2561 47.548 29.4401 47.548 28.0721C47.548 26.4761 46.432 25.5041 44.464 25.5041H40.972V34.0001ZM53.0662 25.5041H51.6262L49.0582 27.4481L49.8982 28.5281L51.4702 27.3281V34.0001H53.0662V25.5041ZM59.2593 25.2881C56.9553 25.2881 56.1273 27.4121 56.1273 29.7401C56.1273 32.0801 56.9553 34.2281 59.2593 34.2281C61.5513 34.2281 62.3793 32.0801 62.3793 29.7401C62.3793 27.4121 61.5513 25.2881 59.2593 25.2881ZM59.2593 26.6321C60.4713 26.6321 60.7473 28.4441 60.7473 29.7401C60.7473 31.0601 60.4713 32.8601 59.2593 32.8601C58.0233 32.8601 57.7593 31.0601 57.7593 29.7401C57.7593 28.4441 58.0233 26.6321 59.2593 26.6321ZM70.2405 26.8961H72.8085V25.5041H66.0765V26.8961H68.6325V34.0001H70.2405V26.8961ZM78.5858 31.1201C78.5858 29.3081 77.1818 28.0961 75.4298 28.0961C73.6898 28.0961 72.2978 29.3081 72.2978 31.1201C72.2978 32.9441 73.6898 34.1801 75.4298 34.1801C77.1818 34.1801 78.5858 32.9441 78.5858 31.1201ZM77.0498 31.1201C77.0498 32.0561 76.4618 32.8721 75.4298 32.8721C74.4218 32.8721 73.8218 32.0561 73.8218 31.1201C73.8218 30.1961 74.4218 29.3921 75.4298 29.3921C76.4618 29.3921 77.0498 30.1961 77.0498 31.1201ZM79.7409 35.9081C80.4969 36.5441 81.5769 36.8801 82.6089 36.8801C84.8769 36.8801 85.9569 35.5601 85.9569 33.6281V28.2521H84.4809V29.1041H84.4569C84.0249 28.4321 83.2929 28.0961 82.5129 28.0961C80.7729 28.0961 79.6689 29.4641 79.6689 31.0721C79.6689 32.8241 80.8689 34.0001 82.6089 34.0001C83.3169 34.0001 84.0369 33.6641 84.4089 33.1361H84.4329V33.7481C84.4329 34.8281 83.8929 35.6201 82.5609 35.6201C81.8289 35.6201 81.0609 35.2961 80.5569 34.7921L79.7409 35.9081ZM81.2409 31.0841C81.2409 30.1481 81.8649 29.3801 82.8609 29.3801C83.8329 29.3801 84.5169 30.1481 84.5169 31.0721C84.5169 32.0441 83.8329 32.7881 82.8609 32.7881C81.8649 32.7881 81.2409 31.9721 81.2409 31.0841ZM93.2118 31.5161C93.2238 31.3361 93.2358 31.1561 93.2358 30.9521C93.2358 29.5001 92.2158 28.0961 90.4638 28.0961C88.7238 28.0961 87.3918 29.4401 87.3918 31.2521C87.3918 33.0641 88.7838 34.1801 90.4158 34.1801C91.6158 34.1801 92.6598 33.5801 93.1398 32.8841L92.1078 32.2121C91.8438 32.5241 91.3158 32.9921 90.5238 32.9921C89.6358 32.9921 88.9638 32.4641 88.8558 31.5161H93.2118ZM90.4158 29.2121C91.2318 29.2121 91.8678 29.8241 91.8678 30.5921H88.8558C88.9878 29.8121 89.5638 29.2121 90.4158 29.2121ZM97.7856 32.8001H97.3536C96.8016 32.8001 96.3336 32.7401 96.3336 31.7321V29.4401H97.7976V28.2521H96.3336V26.7401H94.8336V28.2521H93.9216V29.4401H94.8336V31.6961C94.8336 33.6521 95.2896 34.0001 97.0896 34.0001H97.7856V32.8001Z" fill="#202020"/>
<path d="M42.58 77.5041H40.972V86.0001H46.132V84.5961H42.58V77.5041ZM52.8464 84.6201H48.9944L51.3824 82.3881C52.1384 81.6921 52.8224 80.9481 52.8224 79.7841C52.8224 78.1041 51.4304 77.2881 49.9424 77.2881C48.4064 77.2881 47.0744 78.2241 46.9064 80.0001H48.4784C48.5864 79.1961 49.1144 78.6321 49.8824 78.6321C50.6144 78.6321 51.1664 79.1241 51.1664 79.8801C51.1664 80.4921 50.8064 80.9841 50.3504 81.4161L46.9664 84.6081V86.0001H52.8464V84.6201ZM60.9475 78.8961H63.5155V77.5041H56.7835V78.8961H59.3395V86.0001H60.9475V78.8961ZM69.2928 83.1201C69.2928 81.3081 67.8888 80.0961 66.1368 80.0961C64.3968 80.0961 63.0048 81.3081 63.0048 83.1201C63.0048 84.9441 64.3968 86.1801 66.1368 86.1801C67.8888 86.1801 69.2928 84.9441 69.2928 83.1201ZM67.7568 83.1201C67.7568 84.0561 67.1688 84.8721 66.1368 84.8721C65.1288 84.8721 64.5288 84.0561 64.5288 83.1201C64.5288 82.1961 65.1288 81.3921 66.1368 81.3921C67.1688 81.3921 67.7568 82.1961 67.7568 83.1201ZM70.4479 87.9081C71.2039 88.5441 72.2839 88.8801 73.3159 88.8801C75.5839 88.8801 76.6639 87.5601 76.6639 85.6281V80.2521H75.1879V81.1041H75.1639C74.7319 80.4321 73.9999 80.0961 73.2199 80.0961C71.4799 80.0961 70.3759 81.4641 70.3759 83.0721C70.3759 84.8241 71.5759 86.0001 73.3159 86.0001C74.0239 86.0001 74.7439 85.6641 75.1159 85.1361H75.1399V85.7481C75.1399 86.8281 74.5999 87.6201 73.2679 87.6201C72.5359 87.6201 71.7679 87.2961 71.2639 86.7921L70.4479 87.9081ZM71.9479 83.0841C71.9479 82.1481 72.5719 81.3801 73.5679 81.3801C74.5399 81.3801 75.2239 82.1481 75.2239 83.0721C75.2239 84.0441 74.5399 84.7881 73.5679 84.7881C72.5719 84.7881 71.9479 83.9721 71.9479 83.0841ZM83.9189 83.5161C83.9309 83.3361 83.9429 83.1561 83.9429 82.9521C83.9429 81.5001 82.9229 80.0961 81.1709 80.0961C79.4309 80.0961 78.0989 81.4401 78.0989 83.2521C78.0989 85.0641 79.4909 86.1801 81.1229 86.1801C82.3229 86.1801 83.3669 85.5801 83.8469 84.8841L82.8149 84.2121C82.5509 84.5241 82.0229 84.9921 81.2309 84.9921C80.3429 84.9921 79.6709 84.4641 79.5629 83.5161H83.9189ZM81.1229 81.2121C81.9389 81.2121 82.5749 81.8241 82.5749 82.5921H79.5629C79.6949 81.8121 80.2709 81.2121 81.1229 81.2121ZM88.4927 84.8001H88.0607C87.5087 84.8001 87.0407 84.7401 87.0407 83.7321V81.4401H88.5047V80.2521H87.0407V78.7401H85.5407V80.2521H84.6287V81.4401H85.5407V83.6961C85.5407 85.6521 85.9967 86.0001 87.7967 86.0001H88.4927V84.8001Z" fill="#202020"/>
<path d="M42.58 129.504H40.972V138H46.132V136.596H42.58V129.504ZM51.2264 129.504H49.7864L47.2184 131.448L48.0584 132.528L49.6304 131.328V138H51.2264V129.504ZM58.6795 129.504H57.2395L54.6715 131.448L55.5115 132.528L57.0835 131.328V138H58.6795V129.504ZM68.4006 130.896H70.9686V129.504H64.2366V130.896H66.7926V138H68.4006V130.896ZM76.746 135.12C76.746 133.308 75.342 132.096 73.59 132.096C71.85 132.096 70.458 133.308 70.458 135.12C70.458 136.944 71.85 138.18 73.59 138.18C75.342 138.18 76.746 136.944 76.746 135.12ZM75.21 135.12C75.21 136.056 74.622 136.872 73.59 136.872C72.582 136.872 71.982 136.056 71.982 135.12C71.982 134.196 72.582 133.392 73.59 133.392C74.622 133.392 75.21 134.196 75.21 135.12ZM77.9011 139.908C78.6571 140.544 79.7371 140.88 80.7691 140.88C83.0371 140.88 84.1171 139.56 84.1171 137.628V132.252H82.6411V133.104H82.6171C82.1851 132.432 81.4531 132.096 80.6731 132.096C78.9331 132.096 77.8291 133.464 77.8291 135.072C77.8291 136.824 79.0291 138 80.7691 138C81.4771 138 82.1971 137.664 82.5691 137.136H82.5931V137.748C82.5931 138.828 82.0531 139.62 80.7211 139.62C79.9891 139.62 79.2211 139.296 78.7171 138.792L77.9011 139.908ZM79.4011 135.084C79.4011 134.148 80.0251 133.38 81.0211 133.38C81.9931 133.38 82.6771 134.148 82.6771 135.072C82.6771 136.044 81.9931 136.788 81.0211 136.788C80.0251 136.788 79.4011 135.972 79.4011 135.084ZM91.372 135.516C91.384 135.336 91.396 135.156 91.396 134.952C91.396 133.5 90.376 132.096 88.624 132.096C86.884 132.096 85.552 133.44 85.552 135.252C85.552 137.064 86.944 138.18 88.576 138.18C89.776 138.18 90.82 137.58 91.3 136.884L90.268 136.212C90.004 136.524 89.476 136.992 88.684 136.992C87.796 136.992 87.124 136.464 87.016 135.516H91.372ZM88.576 133.212C89.392 133.212 90.028 133.824 90.028 134.592H87.016C87.148 133.812 87.724 133.212 88.576 133.212ZM95.9458 136.8H95.5138C94.9618 136.8 94.4938 136.74 94.4938 135.732V133.44H95.9578V132.252H94.4938V130.74H92.9938V132.252H92.0818V133.44H92.9938V135.696C92.9938 137.652 93.4498 138 95.2498 138H95.9458V136.8Z" fill="#202020"/>
<path fill-rule="evenodd" clip-rule="evenodd" d="M27.896 29.7641C28.04 29.7641 28.168 29.7291 28.213 29.5931C28.258 29.4571 28.211 29.3641 28.097 29.2781L27.063 28.4991C27.004 28.4561 26.934 28.4321 26.862 28.4321H26.196C26.053 28.4321 25.926 28.5241 25.88 28.6591C25.835 28.7951 25.881 28.9451 25.996 29.0311L26.946 29.7011C27.0342 29.767 27.1344 29.7655 27.2061 29.7644C27.2148 29.7642 27.2232 29.7641 27.231 29.7641H27.896ZM30.659 29.9911C30.698 30.0311 30.729 30.0651 30.75 30.1001C30.905 30.3061 31 30.5571 31 30.8341C31 31.3271 30.591 31.9811 30.1 32.7361C29.992 32.9011 29.809 33.0011 29.611 33.0011H17V27.0001H21.402L23.102 25.8331L21.4 24.4001H22.364L23.858 25.5791C23.939 25.6381 24 25.7291 24 25.8541C24 25.9771 23.952 26.0341 23.851 26.1101L22.557 27.0001H26.096C26.336 27.0001 26.736 27.0961 27.095 27.3321C28.192 28.0551 30.216 29.5461 30.531 29.8601C30.5477 29.8772 30.563 29.8928 30.5774 29.9075C30.5941 29.9244 30.6095 29.94 30.624 29.9551C30.636 29.9661 30.648 29.9791 30.659 29.9911ZM30.0001 35.0004H17.0001V34.0004H30.0001V35.0004Z" fill="#00367F"/>
<path fill-rule="evenodd" clip-rule="evenodd" d="M27.896 81.7641C28.04 81.7641 28.168 81.7291 28.213 81.5931C28.258 81.4571 28.211 81.3641 28.097 81.2781L27.063 80.4991C27.004 80.4561 26.934 80.4321 26.862 80.4321H26.196C26.053 80.4321 25.926 80.5241 25.88 80.6591C25.835 80.7951 25.881 80.9451 25.996 81.0311L26.946 81.7011C27.0342 81.767 27.1344 81.7655 27.2061 81.7644C27.2148 81.7642 27.2232 81.7641 27.231 81.7641H27.896ZM30.659 81.9911C30.698 82.0311 30.729 82.0651 30.75 82.1001C30.905 82.3061 31 82.5571 31 82.8341C31 83.3271 30.591 83.9811 30.1 84.7361C29.992 84.9011 29.809 85.0011 29.611 85.0011H17V79.0001H21.402L23.102 77.8331L21.4 76.4001H22.364L23.858 77.5791C23.939 77.6381 24 77.7291 24 77.8541C24 77.9771 23.952 78.0341 23.851 78.1101L22.557 79.0001H26.096C26.336 79.0001 26.736 79.0961 27.095 79.3321C28.192 80.0551 30.216 81.5461 30.531 81.8601C30.5477 81.8772 30.563 81.8928 30.5774 81.9075C30.5941 81.9244 30.6095 81.94 30.624 81.9551C30.636 81.9661 30.648 81.9791 30.659 81.9911ZM30.0001 87.0004H17.0001V86.0004H30.0001V87.0004Z" fill="#00367F"/>
<path fill-rule="evenodd" clip-rule="evenodd" d="M27.896 133.764C28.04 133.764 28.168 133.729 28.213 133.593C28.258 133.457 28.211 133.364 28.097 133.278L27.063 132.499C27.004 132.456 26.934 132.432 26.862 132.432H26.196C26.053 132.432 25.926 132.524 25.88 132.659C25.835 132.795 25.881 132.945 25.996 133.031L26.946 133.701C27.0342 133.767 27.1344 133.765 27.2061 133.764C27.2148 133.764 27.2232 133.764 27.231 133.764H27.896ZM30.659 133.991C30.698 134.031 30.729 134.065 30.75 134.1C30.905 134.306 31 134.557 31 134.834C31 135.327 30.591 135.981 30.1 136.736C29.992 136.901 29.809 137.001 29.611 137.001H17V131H21.402L23.102 129.833L21.4 128.4H22.364L23.858 129.579C23.939 129.638 24 129.729 24 129.854C24 129.977 23.952 130.034 23.851 130.11L22.557 131H26.096C26.336 131 26.736 131.096 27.095 131.332C28.192 132.055 30.216 133.546 30.531 133.86C30.5477 133.877 30.563 133.893 30.5774 133.907C30.5941 133.924 30.6095 133.94 30.624 133.955C30.636 133.966 30.648 133.979 30.659 133.991ZM30.0001 139H17.0001V138H30.0001V139Z" fill="#00367F"/>
<rect x="240" y="44.0001" width="18" height="8" rx="1" fill="#E9E9E9"/>
<rect x="240" y="96.0001" width="18" height="8" rx="1" fill="#E9E9E9"/>
<rect x="240" y="148" width="18" height="8" rx="1" fill="#E9E9E9"/>
<rect x="263" y="44.0001" width="18" height="8" rx="1" fill="#E9E9E9"/>
<rect x="263" y="96.0001" width="18" height="8" rx="1" fill="#E9E9E9"/>
<rect x="263" y="148" width="18" height="8" rx="1" fill="#E9E9E9"/>
<rect x="286" y="44.0001" width="18" height="8" rx="1" fill="#E9E9E9"/>
<rect x="286" y="96.0001" width="18" height="8" rx="1" fill="#E9E9E9"/>
<rect x="286" y="148" width="18" height="8" rx="1" fill="#E9E9E9"/>
<rect x="309" y="44.0001" width="18" height="8" rx="1" fill="#E9E9E9"/>
<rect x="309" y="96.0001" width="18" height="8" rx="1" fill="#E9E9E9"/>
<rect x="309" y="148" width="18" height="8" rx="1" fill="#E9E9E9"/>
<path d="M270.612 32.6201H266.76L269.148 30.3881C269.904 29.6921 270.588 28.9481 270.588 27.7841C270.588 26.1041 269.196 25.2881 267.708 25.2881C266.172 25.2881 264.84 26.2241 264.672 28.0001H266.244C266.352 27.1961 266.88 26.6321 267.648 26.6321C268.38 26.6321 268.932 27.1241 268.932 27.8801C268.932 28.4921 268.572 28.9841 268.116 29.4161L264.732 32.6081V34.0001H270.612V32.6201ZM275.185 25.2881C272.881 25.2881 272.053 27.4121 272.053 29.7401C272.053 32.0801 272.881 34.2281 275.185 34.2281C277.477 34.2281 278.305 32.0801 278.305 29.7401C278.305 27.4121 277.477 25.2881 275.185 25.2881ZM275.185 26.6321C276.397 26.6321 276.673 28.4441 276.673 29.7401C276.673 31.0601 276.397 32.8601 275.185 32.8601C273.949 32.8601 273.685 31.0601 273.685 29.7401C273.685 28.4441 273.949 26.6321 275.185 26.6321ZM282.878 34.0001H285.986C287.798 34.0001 289.454 33.3881 289.454 31.5761C289.454 30.4121 288.662 29.6921 287.642 29.5361V29.5121C288.494 29.2601 289.07 28.6121 289.07 27.6761C289.07 25.9721 287.558 25.5041 286.25 25.5041H282.878V34.0001ZM284.438 26.8121H285.926C286.886 26.8121 287.51 27.1241 287.51 27.8921C287.51 28.6841 286.874 29.0321 286.082 29.0321H284.438V26.8121ZM284.438 30.2081H286.118C287.174 30.2081 287.834 30.5681 287.834 31.4321C287.834 32.3921 286.934 32.6801 286.058 32.6801H284.438V30.2081ZM290.927 31.4561C290.927 33.1121 291.611 34.1321 293.291 34.1321C294.107 34.1321 294.791 33.6041 295.067 33.1601H295.103V34.0001H296.603V28.2521H295.055V31.1561C295.055 32.0801 294.611 32.8841 293.711 32.8841C292.787 32.8841 292.463 32.1881 292.463 31.3241V28.2521H290.927V31.4561ZM303.132 29.0441C302.508 28.4321 301.44 28.0961 300.456 28.0961C299.148 28.0961 297.96 28.7201 297.96 29.9561C297.96 32.0441 301.764 31.2401 301.764 32.3801C301.764 32.8361 301.2 33.0281 300.648 33.0281C300.012 33.0281 299.28 32.7281 298.704 32.1881L297.768 33.1121C298.2 33.4841 299.232 34.1801 300.66 34.1801C301.98 34.1801 303.24 33.5921 303.24 32.2841C303.24 31.0961 302.136 30.7361 300.864 30.5321C300.036 30.4001 299.448 30.2801 299.448 29.8601C299.448 29.4401 300.012 29.2721 300.528 29.2721C301.116 29.2721 301.884 29.5841 302.256 29.9441L303.132 29.0441ZM309.308 29.0441C308.684 28.4321 307.616 28.0961 306.632 28.0961C305.324 28.0961 304.136 28.7201 304.136 29.9561C304.136 32.0441 307.94 31.2401 307.94 32.3801C307.94 32.8361 307.376 33.0281 306.824 33.0281C306.188 33.0281 305.456 32.7281 304.88 32.1881L303.944 33.1121C304.376 33.4841 305.408 34.1801 306.836 34.1801C308.156 34.1801 309.416 33.5921 309.416 32.2841C309.416 31.0961 308.312 30.7361 307.04 30.5321C306.212 30.4001 305.624 30.2801 305.624 29.8601C305.624 29.4401 306.188 29.2721 306.704 29.2721C307.292 29.2721 308.06 29.5841 308.432 29.9441L309.308 29.0441ZM316.216 31.5161C316.228 31.3361 316.24 31.1561 316.24 30.9521C316.24 29.5001 315.22 28.0961 313.468 28.0961C311.728 28.0961 310.396 29.4401 310.396 31.2521C310.396 33.0641 311.788 34.1801 313.42 34.1801C314.62 34.1801 315.664 33.5801 316.144 32.8841L315.112 32.2121C314.848 32.5241 314.32 32.9921 313.528 32.9921C312.64 32.9921 311.968 32.4641 311.86 31.5161H316.216ZM313.42 29.2121C314.236 29.2121 314.872 29.8241 314.872 30.5921H311.86C311.992 29.8121 312.568 29.2121 313.42 29.2121ZM323.418 30.7721C323.418 29.3561 322.818 28.0961 321.15 28.0961C320.214 28.0961 319.482 28.6121 319.206 29.1281H319.158V28.2521H317.658V34.0001H319.194V31.0961C319.194 30.0761 319.794 29.3441 320.67 29.3441C321.546 29.3441 321.882 30.0641 321.882 30.9041V34.0001H323.418V30.7721Z" fill="#202020"/>
<path d="M268.992 77.5041H267.552L264.984 79.4481L265.824 80.5281L267.396 79.3281V86.0001H268.992V77.5041ZM278.017 77.5041H272.269V78.8721H276.337L272.881 86.0001H274.705L278.017 78.8001V77.5041ZM286.166 78.8961H288.734V77.5041H282.002V78.8961H284.558V86.0001H286.166V78.8961ZM288.642 86.0001H290.178V83.0961C290.178 82.2321 290.682 81.4521 291.678 81.4521C291.858 81.4521 292.122 81.4761 292.278 81.5241V80.1441C292.146 80.1081 292.002 80.0961 291.834 80.0961C291.078 80.0961 290.442 80.5401 290.142 81.1521H290.106V80.2521H288.642V86.0001ZM293.248 86.0001H294.784V80.2521H293.248V86.0001ZM293.104 78.1161C293.104 78.6321 293.512 79.0161 294.016 79.0161C294.532 79.0161 294.94 78.6321 294.94 78.1161C294.94 77.6121 294.532 77.1921 294.016 77.1921C293.512 77.1921 293.104 77.6121 293.104 78.1161ZM300.524 86.0001H302.408L300.164 82.3401L302.24 80.2521H300.308L298.172 82.5921H298.136V76.9281H296.588V86.0001H298.136V84.2481L299.024 83.3361L300.524 86.0001ZM307.285 86.0001H309.169L306.925 82.3401L309.001 80.2521H307.069L304.933 82.5921H304.897V76.9281H303.349V86.0001H304.897V84.2481L305.785 83.3361L307.285 86.0001ZM315.372 83.5161C315.384 83.3361 315.396 83.1561 315.396 82.9521C315.396 81.5001 314.376 80.0961 312.624 80.0961C310.884 80.0961 309.552 81.4401 309.552 83.2521C309.552 85.0641 310.944 86.1801 312.576 86.1801C313.776 86.1801 314.82 85.5801 315.3 84.8841L314.268 84.2121C314.004 84.5241 313.476 84.9921 312.684 84.9921C311.796 84.9921 311.124 84.4641 311.016 83.5161H315.372ZM312.576 81.2121C313.392 81.2121 314.028 81.8241 314.028 82.5921H311.016C311.148 81.8121 311.724 81.2121 312.576 81.2121ZM322.574 82.7721C322.574 81.3561 321.974 80.0961 320.306 80.0961C319.37 80.0961 318.638 80.6121 318.362 81.1281H318.314V80.2521H316.814V86.0001H318.35V83.0961C318.35 82.0761 318.95 81.3441 319.826 81.3441C320.702 81.3441 321.038 82.0641 321.038 82.9041V86.0001H322.574V82.7721Z" fill="#202020"/>
<path d="M268.992 129.504H267.552L264.984 131.448L265.824 132.528L267.396 131.328V138H268.992V129.504ZM276.637 133.536V133.512C277.405 133.26 277.933 132.54 277.933 131.628C277.933 130.128 276.649 129.288 275.185 129.288C273.709 129.288 272.425 130.152 272.425 131.652C272.425 132.564 272.977 133.248 273.721 133.512V133.548C272.857 133.812 272.161 134.58 272.161 135.66C272.161 137.34 273.577 138.228 275.185 138.228C276.769 138.228 278.197 137.328 278.197 135.648C278.197 134.592 277.525 133.788 276.637 133.536ZM273.961 131.736C273.961 131.052 274.477 130.536 275.185 130.536C275.857 130.536 276.397 131.052 276.397 131.736C276.397 132.396 275.869 132.936 275.185 132.936C274.477 132.936 273.961 132.396 273.961 131.736ZM273.745 135.564C273.745 134.772 274.333 134.184 275.185 134.184C276.025 134.184 276.613 134.784 276.613 135.564C276.613 136.38 276.025 136.956 275.185 136.956C274.321 136.956 273.745 136.38 273.745 135.564ZM286.166 130.896H288.734V129.504H282.002V130.896H284.558V138H286.166V130.896ZM288.642 138H290.178V135.096C290.178 134.232 290.682 133.452 291.678 133.452C291.858 133.452 292.122 133.476 292.278 133.524V132.144C292.146 132.108 292.002 132.096 291.834 132.096C291.078 132.096 290.442 132.54 290.142 133.152H290.106V132.252H288.642V138ZM293.248 138H294.784V132.252H293.248V138ZM293.104 130.116C293.104 130.632 293.512 131.016 294.016 131.016C294.532 131.016 294.94 130.632 294.94 130.116C294.94 129.612 294.532 129.192 294.016 129.192C293.512 129.192 293.104 129.612 293.104 130.116ZM300.524 138H302.408L300.164 134.34L302.24 132.252H300.308L298.172 134.592H298.136V128.928H296.588V138H298.136V136.248L299.024 135.336L300.524 138ZM307.285 138H309.169L306.925 134.34L309.001 132.252H307.069L304.933 134.592H304.897V128.928H303.349V138H304.897V136.248L305.785 135.336L307.285 138ZM315.372 135.516C315.384 135.336 315.396 135.156 315.396 134.952C315.396 133.5 314.376 132.096 312.624 132.096C310.884 132.096 309.552 133.44 309.552 135.252C309.552 137.064 310.944 138.18 312.576 138.18C313.776 138.18 314.82 137.58 315.3 136.884L314.268 136.212C314.004 136.524 313.476 136.992 312.684 136.992C311.796 136.992 311.124 136.464 311.016 135.516H315.372ZM312.576 133.212C313.392 133.212 314.028 133.824 314.028 134.592H311.016C311.148 133.812 311.724 133.212 312.576 133.212ZM322.574 134.772C322.574 133.356 321.974 132.096 320.306 132.096C319.37 132.096 318.638 132.612 318.362 133.128H318.314V132.252H316.814V138H318.35V135.096C318.35 134.076 318.95 133.344 319.826 133.344C320.702 133.344 321.038 134.064 321.038 134.904V138H322.574V134.772Z" fill="#202020"/>
<path fill-rule="evenodd" clip-rule="evenodd" d="M241.656 28.7896C241.656 28.5916 241.814 28.4316 242.006 28.4316H242.707C242.9 28.4316 243.055 28.5916 243.055 28.7896V30.2216C243.055 30.4186 242.9 30.5796 242.707 30.5796H242.006C241.814 30.5796 241.656 30.4186 241.656 30.2216V28.7896ZM243.756 28.7896C243.756 28.5916 243.913 28.4316 244.106 28.4316H246.906C247.099 28.4316 247.257 28.5916 247.257 28.7896V30.2216C247.257 30.4186 247.099 30.5796 246.906 30.5796H244.106C243.913 30.5796 243.756 30.4186 243.756 30.2216V28.7896ZM247.956 28.7896C247.956 28.5916 248.113 28.4316 248.306 28.4316H251.106C251.299 28.4316 251.456 28.5916 251.456 28.7896V30.2216C251.456 30.4186 251.299 30.5796 251.106 30.5796H248.306C248.113 30.5796 247.956 30.4186 247.956 30.2216V28.7896ZM252.156 28.7896C252.156 28.5916 252.314 28.4316 252.506 28.4316H253.593C253.77 28.4316 253.918 28.5646 253.939 28.7436L254.125 30.1746C254.138 30.2776 254.107 30.3796 254.04 30.4576C253.974 30.5356 253.878 30.5796 253.778 30.5796H252.506C252.314 30.5796 252.156 30.4186 252.156 30.2216V28.7896ZM254.995 31.5946L254.296 27.2986C254.266 27.1266 254.122 26.9996 253.95 26.9996H241.7C241.349 26.9996 241 27.3576 241 27.7166V31.5706V31.8136V32.6416C241 32.8206 241.128 32.9996 241.3 32.9996H242.847C243.083 32.2816 243.753 31.7996 244.55 31.7996C245.348 31.7996 246.017 32.2816 246.253 32.9996H249.797C250.032 32.2816 250.702 31.7996 251.5 31.7996C252.297 31.7996 252.967 32.2816 253.203 32.9996H254.65C254.843 32.9996 255 32.8386 255 32.6416V31.8136V31.6536C255 31.6336 254.998 31.6146 254.995 31.5946ZM243.55 33.7999C243.55 33.2489 243.998 32.7999 244.55 32.7999C245.102 32.7999 245.55 33.2489 245.55 33.7999C245.55 34.3519 245.102 34.7999 244.55 34.7999C243.998 34.7999 243.55 34.3519 243.55 33.7999ZM251.5 32.7999C250.948 32.7999 250.5 33.2489 250.5 33.7999C250.5 34.3519 250.948 34.7999 251.5 34.7999C252.052 34.7999 252.5 34.3519 252.5 33.7999C252.5 33.2489 252.052 32.7999 251.5 32.7999Z" fill="#C5044E"/>
<path fill-rule="evenodd" clip-rule="evenodd" d="M253.561 82.5331C253.666 82.5331 253.766 82.4851 253.833 82.4021C253.9 82.3201 253.925 82.2111 253.902 82.1071L253.593 80.7071C253.557 80.5461 253.416 80.4321 253.251 80.4321H253.085H252.159H251.81C251.616 80.4321 251.459 80.5891 251.459 80.7821V82.1831C251.459 82.3771 251.616 82.5331 251.81 82.5331H252.159H253.561ZM250.41 82.5321C250.603 82.5321 250.76 82.3761 250.76 82.1821V80.7821C250.76 80.5891 250.603 80.4321 250.41 80.4321H248.31C248.116 80.4321 247.959 80.5891 247.959 80.7821V82.1821C247.959 82.3761 248.116 82.5321 248.31 82.5321H250.41ZM246.899 82.5321C247.092 82.5321 247.25 82.3761 247.25 82.1821V80.7821C247.25 80.5891 247.092 80.4321 246.899 80.4321H244.799C244.605 80.4321 244.449 80.5891 244.449 80.7821V82.1821C244.449 82.3761 244.605 82.5321 244.799 82.5321H246.899ZM243.4 82.5331C243.593 82.5331 243.75 82.3771 243.75 82.1821V80.7821C243.75 80.5891 243.593 80.4321 243.4 80.4321H243.187H242.659C242.495 80.4321 242.352 80.5461 242.317 80.7071L242.008 82.1071C241.985 82.2111 242.01 82.3201 242.077 82.4021C242.143 82.4851 242.244 82.5331 242.35 82.5331H243.034H243.035H243.4ZM253.721 79.0001C253.884 79.0001 254.026 79.1131 254.062 79.2731L254.991 83.3811C255.016 83.5031 254.989 83.6301 254.917 83.7321L254.105 84.8551C254.039 84.9451 253.934 85.0001 253.821 85.0001H247.577H247.086H246.414H242.179C242.066 85.0001 241.961 84.9451 241.895 84.8551L241.083 83.7321C241.011 83.6301 240.984 83.5031 241.009 83.3811L241.938 79.2731C241.974 79.1131 242.116 79.0001 242.279 79.0001H247.406L249.105 77.8341L247.404 76.4001H248.368L249.862 77.5791C249.943 77.6391 250.004 77.7301 250.004 77.8551C250.004 77.9771 249.955 78.0351 249.854 78.1101L248.566 79.0001H253.721ZM254 87.0004H242V86.0004H254V87.0004Z" fill="#78469A"/>
<path fill-rule="evenodd" clip-rule="evenodd" d="M253.561 134.533C253.666 134.533 253.766 134.485 253.833 134.402C253.9 134.32 253.925 134.211 253.902 134.107L253.593 132.707C253.557 132.546 253.416 132.432 253.251 132.432H253.085H252.159H251.81C251.616 132.432 251.459 132.589 251.459 132.782V134.183C251.459 134.377 251.616 134.533 251.81 134.533H252.159H253.561ZM250.41 134.532C250.603 134.532 250.76 134.376 250.76 134.182V132.782C250.76 132.589 250.603 132.432 250.41 132.432H248.31C248.116 132.432 247.959 132.589 247.959 132.782V134.182C247.959 134.376 248.116 134.532 248.31 134.532H250.41ZM246.899 134.532C247.092 134.532 247.25 134.376 247.25 134.182V132.782C247.25 132.589 247.092 132.432 246.899 132.432H244.799C244.605 132.432 244.449 132.589 244.449 132.782V134.182C244.449 134.376 244.605 134.532 244.799 134.532H246.899ZM243.4 134.533C243.593 134.533 243.75 134.377 243.75 134.182V132.782C243.75 132.589 243.593 132.432 243.4 132.432H243.187H242.659C242.495 132.432 242.352 132.546 242.317 132.707L242.008 134.107C241.985 134.211 242.01 134.32 242.077 134.402C242.143 134.485 242.244 134.533 242.35 134.533H243.034H243.035H243.4ZM253.721 131C253.884 131 254.026 131.113 254.062 131.273L254.991 135.381C255.016 135.503 254.989 135.63 254.917 135.732L254.105 136.855C254.039 136.945 253.934 137 253.821 137H247.577H247.086H246.414H242.179C242.066 137 241.961 136.945 241.895 136.855L241.083 135.732C241.011 135.63 240.984 135.503 241.009 135.381L241.938 131.273C241.974 131.113 242.116 131 242.279 131H247.406L249.105 129.834L247.404 128.4H248.368L249.862 129.579C249.943 129.639 250.004 129.73 250.004 129.855C250.004 129.977 249.955 130.035 249.854 130.11L248.566 131H253.721ZM254 139H242V138H254V139Z" fill="#78469A"/>
</svg>
