<svg width="16" height="16" viewBox="0 0 16 16" fill="none" xmlns="http://www.w3.org/2000/svg">
<path fill-rule="evenodd" clip-rule="evenodd" d="M10 2.9668H8.00005V3.70013H9.74736L10.6632 6.10422C10.4339 6.20551 10.2375 6.35683 10.0681 6.53796C9.76529 6.86187 9.54115 7.28896 9.34659 7.70013C9.28565 7.82892 9.22775 7.95573 9.17085 8.08032L9.17084 8.08035L9.17082 8.08038C9.03763 8.37205 8.90999 8.65157 8.762 8.91589C8.66355 9.09172 8.56226 9.24866 8.45459 9.38417C8.27154 9.15037 7.98669 9.00012 7.66675 9.00012C7.47717 9.00012 7.29991 9.05288 7.14885 9.14451L5.25999 5.3668H5.66672C5.86922 5.3668 6.03338 5.20263 6.03338 5.00013C6.03338 4.79763 5.86922 4.63346 5.66672 4.63346H3.66672C3.46421 4.63346 3.30005 4.79763 3.30005 5.00013C3.30005 5.20263 3.46421 5.3668 3.66672 5.3668H4.4401L4.92344 6.33346L4.187 7.80633C3.91901 7.71584 3.63194 7.66679 3.33342 7.66679C1.86066 7.66679 0.666748 8.8607 0.666748 10.3335C0.666748 11.8062 1.86066 13.0001 3.33342 13.0001C4.68178 13.0001 5.7964 11.9994 5.97508 10.7001H6.95261C7.1341 10.8853 7.38701 11.0001 7.66675 11.0001C8.13563 11.0001 8.52914 10.6774 8.6373 10.242C8.96121 9.97748 9.20349 9.62846 9.40187 9.27414C9.56538 8.98209 9.71312 8.65866 9.8515 8.3557C9.90545 8.23759 9.95798 8.12259 10.0095 8.01378C10.2021 7.60671 10.3857 7.27205 10.6038 7.03878C10.7041 6.93149 10.809 6.84829 10.9249 6.7912L11.3836 7.99524C10.5589 8.44875 10.0001 9.32584 10.0001 10.3335C10.0001 11.8062 11.194 13.0001 12.6667 13.0001C14.1395 13.0001 15.3334 11.8062 15.3334 10.3335C15.3334 8.8607 14.1395 7.66679 12.6667 7.66679C12.4612 7.66679 12.2611 7.69005 12.0688 7.73408L11.167 5.3668H12C12.15 5.3668 12.2848 5.27551 12.3405 5.13631L13.0072 3.46964L12.3263 3.19729L11.7518 4.63346H10.8877L10.3427 3.20293C10.2885 3.06075 10.1522 2.9668 10 2.9668ZM5.33338 7.15336L6.67883 9.84424C6.67255 9.88435 6.66865 9.92525 6.66729 9.9668H5.97508C5.87065 9.20737 5.44645 8.54993 4.84271 8.13471L5.33338 7.15336ZM11.6482 8.68987L12.3241 10.464C12.3962 10.6532 12.608 10.7482 12.7972 10.6761C12.9865 10.604 13.0815 10.3922 13.0094 10.2029L12.3335 8.42874C12.4417 8.40993 12.5531 8.40012 12.6667 8.40012C13.7345 8.40012 14.6001 9.2657 14.6001 10.3335C14.6001 11.4012 13.7345 12.2668 12.6667 12.2668C11.599 12.2668 10.7334 11.4012 10.7334 10.3335C10.7334 9.63948 11.0991 9.0309 11.6482 8.68987ZM2.96672 10.3335H1.40008C1.40008 11.4012 2.26566 12.2668 3.33342 12.2668C4.2758 12.2668 5.0607 11.5925 5.23202 10.7001H3.33338C3.2063 10.7001 3.08829 10.6343 3.02148 10.5262C2.98509 10.4674 2.96672 10.4005 2.96672 10.3335ZM5.23203 9.9668H3.92666L4.51032 8.79949C4.878 9.08201 5.14121 9.49375 5.23203 9.9668ZM7.66675 10.3335C7.85084 10.3335 8.00008 10.1842 8.00008 10.0001C8.00008 9.81603 7.85084 9.66679 7.66675 9.66679C7.48265 9.66679 7.33342 9.81603 7.33342 10.0001C7.33342 10.1842 7.48265 10.3335 7.66675 10.3335Z" fill="white"/>
</svg>
