<svg width="16" height="16" viewBox="0 0 16 16" fill="none" xmlns="http://www.w3.org/2000/svg">
<path fill-rule="evenodd" clip-rule="evenodd" d="M8.59571 7.4141H7.22571V5.3941H8.58371C9.40471 5.3941 9.80271 5.7631 9.80371 6.3891C9.80471 6.9271 9.48071 7.4191 8.59571 7.4141ZM7.99951 1C11.8605 1 14.9995 4.141 14.9995 8C14.9995 11.859 11.8605 15 7.99951 15C4.13951 15 0.999512 11.859 0.999512 8C0.999512 4.141 4.13951 1 7.99951 1ZM7.99951 2C4.69151 2 1.99951 4.691 1.99951 8C1.99951 11.309 4.69151 14 7.99951 14C11.3085 14 13.9995 11.309 13.9995 8C13.9995 4.691 11.3085 2 7.99951 2ZM8.55171 4.0001C10.2417 4.0001 11.3397 4.7891 11.3397 6.3481C11.3397 7.9471 10.3327 8.8671 8.54071 8.8671H7.22571V12.0001H5.62471V4.0001H8.55171V4.0001Z" fill="white"/>
</svg>
