<?xml version="1.0" encoding="utf-8"?>
<!-- Generator: Adobe Illustrator 24.0.1, SVG Export Plug-In . SVG Version: 6.00 Build 0)  -->
<svg version="1.1" id="Layer_1" xmlns="http://www.w3.org/2000/svg" xmlns:xlink="http://www.w3.org/1999/xlink" x="0px" y="0px"
	 width="522.7999878px" height="158.3999939px" viewBox="0 0 522.7999878 158.3999939"
	 enable-background="new 0 0 522.7999878 158.3999939" xml:space="preserve">
<path fill="#FFFFFF" d="M21.0999908,18.6999969v27.6000061h53.3000031V65H21.0999908v26.6999969h60.1000061v18.6999969H0V0
	h81.1999969v18.6999969H21.0999908z"/>
<path fill="#FFFFFF" d="M195.9000092,156.3999939H0v-18.7000122h195.9000092V156.3999939z"/>
<path fill="#FFFFFF" d="M193.6999969,110.1999969l-72.3999939-65.5v65.5h-21.1000061V0H102.5l72.4000092,66.6999969V0h21.1000061
	v110.1999969H193.6999969z"/>
<path fill="#FFFFFF" d="M299.7999878,64.8999939h-31.5v91.5h-21.0999908v-91.5h-31.5V46.1999969h84.2000275v18.6999969H299.7999878z
	"/>
<path fill="#FFFFFF" d="M363.0999756,158.3999939c-7.0999756,0-13.5999756-1.1000061-19.3999634-3.2999878
	c-5.7999878-2.2000122-10.7999878-5.2999878-14.9000244-9.2999878c-4.0999756-4-7.2999878-8.8999939-9.5999756-14.6000061
	c-2.2999878-5.6999969-3.4000244-12.1000061-3.4000244-19.1000061V46.3000031h21.1000366V112
	c0,5.5,0.8999634,10.1000061,2.7000122,13.6999969c1.7999878,3.6000061,4,6.5,6.7000122,8.6000061
	c2.7000122,2.0999908,5.5,3.5999908,8.5999756,4.4000092c3.1000366,0.7999878,5.7999878,1.2000122,8.2000122,1.2000122
	s5.1000366-0.3999939,8.2000122-1.2000122c3.1000366-0.7999878,5.9000244-2.2999878,8.6000366-4.3999939
	s4.9000244-5,6.7000122-8.6000061s2.7000122-8.1999969,2.7000122-13.6999969V46.2000122h21.0999756V112
	c0,7-1.0999756,13.3999939-3.2999878,19.1000061s-5.4000244,10.6000061-9.5,14.6000061S388.5001221,152.8000183,382.7000732,155
	C376.9000244,157.2999878,370.2999878,158.3999939,363.0999756,158.3999939z"/>
<path fill="#FFFFFF" d="M451.2000122,121.3999939V156.5h-21.0999756V46.1999969h50.0999756
	c5.5999756,0,10.7999878,0.8999939,15.5,2.8000031c4.7000122,1.8999939,8.7000122,4.5,12,7.8000031
	c3.2999878,3.3999939,5.9000244,7.3999939,7.7999878,12c1.9000244,4.6999969,2.7999878,9.8000031,2.7999878,15.3000031
	c0,4.1000061-0.5999756,8.1000061-1.7000122,12C515.5,100,514,103.5,512,106.6000061s-4.4000244,5.8000031-7.2000122,8.1000061
	c-2.9000244,2.3000031-6,3.8000031-9.4000244,4.6999969l27.4000244,37.0000153h-25.0999756l-25.5-35.1000061h-21V121.3999939z
	 M451.2000122,103h24c4.4000244,0,8-0.6000061,10.9000244-1.6999969c2.9000244-1.1000061,5.0999756-2.6000061,6.7999878-4.3999939
	c1.7000122-1.8000031,2.7999878-3.8000031,3.4000244-6.1000061c0.5999756-2.3000031,0.9000244-4.5,0.9000244-6.8999939
	c0-2.6999969-0.4000244-5.1999969-1.2999878-7.5c-0.9000244-2.3000031-2.2000122-4.3000031-3.9000244-6
	c-1.7999878-1.6999969-4-3.1000061-6.7999878-4.1000061s-6.0999756-1.5-10-1.5h-24V103H451.2000122z"/>
</svg>
