<svg xmlns="http://www.w3.org/2000/svg" width="24" height="34" viewBox="0 0 24 34">
  <defs>
    <filter id="lime-active-a" width="133.9%" height="370.8%" x="-16.9%" y="-135.4%" filterUnits="objectBoundingBox">
      <feGaussianBlur in="SourceGraphic" stdDeviation=".903"/>
    </filter>
  </defs>
  <g fill="none" fill-rule="evenodd">
    <ellipse cx="12" cy="30" fill="#000" fill-opacity=".7" filter="url(#lime-active-a)" rx="8" ry="1"/>
    <path fill="#FFF" stroke="#BABBCF" stroke-width=".5" d="M12,0.25 C15.0281263,0.25 18.1672861,1.50676887 20.4385516,3.83648539 C22.428655,5.87780403 23.75,8.74363248 23.75,12.30882 C23.75,19.8263938 13.2093771,29.2676793 13.202099,29.2744923 C12.8756362,29.5925396 12.4405721,29.75 12.0049046,29.75 C11.5678915,29.75 11.1290086,29.591621 10.7906229,29.2676793 C10.7906229,29.2676793 0.25,19.8263938 0.25,12.30882 C0.25,8.74363248 1.57134503,5.87780403 3.56144836,3.83648539 C5.83271386,1.50676887 8.97187367,0.25 12,0.25 Z"/>
    <g fill="#0D0" fill-rule="nonzero" transform="translate(5 5)">
      <path d="M6.99997661,0.7939694 C10.4220365,0.7939694 13.2060777,3.57798729 13.2060777,6.99999983 C13.2060777,10.4220124 10.4220365,13.2060308 6.99997661,13.2060308 C3.57796378,13.2060308 0.793922267,10.4220131 0.793922267,7 C0.793922267,3.57798688 3.57796378,0.7939694 6.99997661,0.7939694 M6.99997778,2.21083333e-05 C3.13400809,2.21083333e-05 0,3.13400809 0,7 C0,10.8659919 3.13400809,13.9999778 6.99997778,13.9999778 C10.8659919,13.9999778 14,10.8659919 14,7 C14,3.13400809 10.8659919,2.21083333e-05 6.99997778,2.21083333e-05 L6.99997778,2.21083333e-05 Z"/>
      <circle cx="7" cy="7" r="1"/>
      <path d="M8.53348358 5.65774411L10.7060116 4.40343301C11.1345139 4.1560372 11.2159053 3.57061408 10.8700018 3.21682124 10.1885788 2.51985685 9.32043753 2.0062581 8.34644329 1.75688613 7.86499869 1.63362191 7.39568498 1.99385655 7.39568498 2.49083024L7.39568498 5.00083541C7.39568498 5.584754 8.02779553 5.94970338 8.53348358 5.65774411zM6.60431392 5.00083378L6.60431392 2.49083053C6.60431392 1.99385655 6.13499968 1.63362191 5.65355508 1.75688625 4.67956137 2.0062581 3.81142067 2.51985685 3.12999878 3.21682124 2.78409553 3.57061413 2.86548675 4.1560372 3.29398843 4.40343301L5.46651531 5.65774242C5.97220336 5.94970168 6.60431392 5.58475231 6.60431392 5.00083378zM8.92916967 7.65690643L11.1030323 8.91198747C11.5313787 9.15929344 12.0792551 8.93746146 12.2125358 8.46114436 12.3425911 7.99635678 12.4121555 7.50630942 12.4121555 7 12.4121555 6.49369 12.3425911 6.00364153 12.2125359 5.53885232 12.079254 5.0625358 11.5313788 4.84070382 11.1030312 5.08801032L8.92916967 6.34308967C8.42348162 6.63504893 8.42348162 7.36494716 8.92916967 7.65690643zM5.46651531 8.34225537L3.29398726 9.59656478C2.86548529 9.84396029 2.78409408 10.4293842 3.12999738 10.7831774 3.81141985 11.4801415 4.67956084 11.9937413 5.65355508 12.243114 6.13499968 12.3663778 6.60431392 12.0061437 6.60431392 11.5091697L6.60431392 8.99916401C6.60431392 8.41524548 5.97220336 8.05029604 5.46651531 8.34225537zM5.07083033 6.34309019L2.89696826 5.08801032C2.46862123 4.84070434 1.92074517 5.06253685 1.78746441 5.53885343 1.65740954 6.00364211 1.58784483 6.49369058 1.58784483 7 1.58784483 7.50630942 1.65740943 7.99635678 1.78746429 8.46114436 1.92074517 8.93746146 2.46862128 9.15929338 2.89696832 8.91198747L5.07083092 7.65690643C5.57651891 7.36494716 5.57651891 6.63504893 5.07083033 6.34309019zM7.39568498 8.99916238L7.39568498 11.5091698C7.39568498 12.0061437 7.86499922 12.3663779 8.34644382 12.243114 9.32043863 11.9937414 10.1885799 11.4801415 10.8700029 10.7831774 11.2159065 10.4293843 11.1345149 9.84396035 10.7060139 9.59656483L8.53348358 8.34225373C8.02779553 8.05029441 7.39568498 8.41524378 7.39568498 8.99916238z"/>
    </g>
  </g>
</svg>
