<?xml version="1.0" encoding="utf-8"?>
<!-- Generator: Adobe Illustrator 24.0.1, SVG Export Plug-In . SVG Version: 6.00 Build 0)  -->
<svg version="1.1" id="Layer_1" xmlns="http://www.w3.org/2000/svg" xmlns:xlink="http://www.w3.org/1999/xlink" x="0px" y="0px"
	 width="24px" height="24px" viewBox="0 0 24 24" enable-background="new 0 0 24 24" xml:space="preserve">
<g>
	<path fill="#00DD00" d="M11.9999599,1.3610904c5.8663883,0,10.6390305,4.7726021,10.6390305,10.6389093
		s-4.7726421,10.6389103-10.6390305,10.6389103C6.1336522,22.6389103,1.3610096,17.8663082,1.3610096,12
		S6.1336522,1.3610904,11.9999599,1.3610904 M11.9999619,0.0000379C5.3725853,0.0000379,0,5.3725853,0,12
		s5.3725853,11.9999619,11.9999619,11.9999619C18.6274147,23.9999619,24,18.6274147,24,12
		S18.6274147,0.0000379,11.9999619,0.0000379L11.9999619,0.0000379z"/>
	<circle fill="#00DD00" cx="12" cy="12" r="1.5523728"/>
	<g>
		<path fill="#00DD00" d="M14.628829,9.6989899l3.7243338-2.1502476c0.7345753-0.4241071,0.8741035-1.4276896,0.281126-2.0341916
			c-1.1681538-1.1947961-2.6563959-2.0752511-4.3261003-2.5027459c-0.8253336-0.2113101-1.6298714,0.406235-1.6298714,1.2581899
			v4.302866C12.6783171,9.573864,13.7619352,10.1994915,14.628829,9.6989899z"/>
		<path fill="#00DD00" d="M11.321681,8.5728579V4.2699952c0-0.8519554-0.8045387-1.4695005-1.6298723-1.2581902
			C8.0221052,3.4392996,6.533864,4.3197546,5.3657122,5.5145507c-0.592977,0.6065021-0.4534492,1.6100845,0.2811251,2.0341916
			L9.3711691,9.698987C10.2380629,10.1994886,11.321681,9.5738611,11.321681,8.5728579z"/>
		<path fill="#00DD00" d="M15.307148,13.1261253l3.7266216,2.1515675c0.7343082,0.4239531,1.6735249,0.0436697,1.9020061-0.7728739
			C21.1587276,13.7080402,21.2779808,12.867959,21.2779808,12c0-0.86796-0.1192532-1.7080431-0.342205-2.5048246
			c-0.2284832-0.8165426-1.1676979-1.196826-1.9020081-0.772872L15.307148,10.873868
			C14.4402542,11.3743696,14.4402542,12.6256237,15.307148,13.1261253z"/>
		<path fill="#00DD00" d="M9.3711691,14.3010092l-3.7243338,2.1502447c-0.7345748,0.4241066-0.8741026,1.4276905-0.2811255,2.034193
			c1.1681528,1.1947956,2.6563945,2.0752525,4.3260989,2.5027485c0.8253336,0.2113094,1.6298723-0.4062347,1.6298723-1.2581902
			v-4.3028669C11.321681,14.4261351,10.2380629,13.8005075,9.3711691,14.3010092z"/>
		<path fill="#00DD00" d="M8.692852,10.8738689L4.9662313,8.7223034C4.2319221,8.2983503,3.292706,8.6786346,3.0642247,9.4951773
			C2.8412735,10.2919579,2.7220197,11.132041,2.7220197,12s0.1192536,1.7080402,0.3422048,2.5048189
			c0.2284815,0.8165436,1.1676977,1.1968269,1.9020069,0.7728739l3.7266216-2.1515675
			C9.5597467,12.6256237,9.5597467,11.3743696,8.692852,10.8738689z"/>
		<path fill="#00DD00" d="M12.6783171,15.4271355v4.3028698c0,0.8519554,0.8045387,1.4694996,1.6298723,1.2581902
			c1.6697054-0.427496,3.1579475-1.3079529,4.3261013-2.5027485c0.5929775-0.6065025,0.4534492-1.6100864-0.2811241-2.034193
			l-3.7243376-2.1502476C13.7619352,13.8005047,12.6783171,14.4261322,12.6783171,15.4271355z"/>
	</g>
</g>
</svg>
