<?xml version="1.0" encoding="UTF-8"?>
<svg width="15px" height="10px" viewBox="0 0 15 10" version="1.1" xmlns="http://www.w3.org/2000/svg" xmlns:xlink="http://www.w3.org/1999/xlink">
    <title>tier-T-logo</title>
    <g id="Ny-Sparkesykler" stroke="none" stroke-width="1" fill="none" fill-rule="evenodd">
        <g id="ikoner-" transform="translate(-113.000000, -304.000000)" fill="#69D2AA" fill-rule="nonzero">
            <g id="Group-4" transform="translate(107.000000, 295.000000)">
                <g id="tier-T-logo" transform="translate(6.000000, 9.000000)">
                    <path d="M0.367076187,0.184021563 L14.6329365,0.184021563 C14.8229644,0.171723063 14.9869821,0.31580025 14.9992798,0.505827313 C15.0002394,0.520657812 15.0002394,0.535535188 14.9992798,0.550365688 L14.9992798,1.75714519 C14.9996517,1.94756981 14.8455832,2.10224087 14.6551595,2.1026125 C14.6477471,2.10262712 14.6403346,2.10240269 14.6329365,2.10193894 L8.57748906,2.10193894 L8.57748906,9.47191619 C8.56606581,9.6657815 8.40534606,9.81704738 8.21114463,9.81671056 L6.78886875,9.81671056 C6.59466788,9.81704737 6.43394813,9.6657815 6.42252488,9.47191619 L6.42252488,2.10193994 L0.367076187,2.10193994 C0.177024,2.11384181 0.01330775,1.96942244 0.0014058125,1.77937031 C0.000942375,1.771971 0.000718,1.76455944 0.000732375,1.75714612 L0.000732375,0.550366063 C-0.0115668125,0.360339 0.13251,0.196321313 0.322536937,0.184022187 C0.337367812,0.18306225 0.352245375,0.18306225 0.367076187,0.184021563 Z" id="Path"></path>
                </g>
            </g>
        </g>
    </g>
</svg>