<svg xmlns="http://www.w3.org/2000/svg" width="24" height="34" viewBox="0 0 24 34">
  <defs>
    <filter id="tier-active-a" width="133.9%" height="370.8%" x="-16.9%" y="-135.4%" filterUnits="objectBoundingBox">
      <feGaussianBlur in="SourceGraphic" stdDeviation=".903"/>
    </filter>
  </defs>
  <g fill="none" fill-rule="evenodd">
    <ellipse cx="12" cy="30" fill="#000" fill-opacity=".7" filter="url(#tier-active-a)" rx="8" ry="1"/>
    <path fill="#FFF" stroke="#BABBCF" stroke-width=".5" d="M12,0.25 C15.0281263,0.25 18.1672861,1.50676887 20.4385516,3.83648539 C22.428655,5.87780403 23.75,8.74363248 23.75,12.30882 C23.75,19.8263938 13.2093771,29.2676793 13.202099,29.2744923 C12.8756362,29.5925396 12.4405721,29.75 12.0049046,29.75 C11.5678915,29.75 11.1290086,29.591621 10.7906229,29.2676793 C10.7906229,29.2676793 0.25,19.8263938 0.25,12.30882 C0.25,8.74363248 1.57134503,5.87780403 3.56144836,3.83648539 C5.83271386,1.50676887 8.97187367,0.25 12,0.25 Z"/>
    <path fill="#69D2AA" fill-rule="nonzero" d="M5.3180706,8 L18.6819294,8 C18.8575479,8 19,8.14221096 19,8.31753212 L19,9.48235933 C19,9.65795187 18.8575479,9.79989144 18.6819294,9.79989144 L13.0074954,9.79989144 L13.0074954,16.6821965 C13.0074954,16.8577891 12.8650433,17 12.6894248,17 L11.3105752,17 C11.1349567,17 10.9925045,16.8577891 10.9925045,16.6821965 L10.9925045,9.79989144 L5.3180706,9.79989144 C5.14245213,9.79989144 5,9.65795187 5,9.48235933 L5,8.31753212 C5,8.14221096 5.14245213,8 5.3180706,8 L5.3180706,8 Z"/>
  </g>
</svg>
