<svg xmlns="http://www.w3.org/2000/svg" width="24" height="34" viewBox="0 0 24 34">
  <defs>
    <filter id="voi-active-a" width="133.9%" height="370.8%" x="-16.9%" y="-135.4%" filterUnits="objectBoundingBox">
      <feGaussianBlur in="SourceGraphic" stdDeviation=".903"/>
    </filter>
  </defs>
  <g fill="none" fill-rule="evenodd">
    <ellipse cx="12" cy="30" fill="#000" fill-opacity=".7" filter="url(#voi-active-a)" rx="8" ry="1"/>
    <path fill="#FFF" stroke="#BABBCF" stroke-width=".5" d="M12,0.25 C15.0281263,0.25 18.1672861,1.50676887 20.4385516,3.83648539 C22.428655,5.87780403 23.75,8.74363248 23.75,12.30882 C23.75,19.8263938 13.2093771,29.2676793 13.202099,29.2744923 C12.8756362,29.5925396 12.4405721,29.75 12.0049046,29.75 C11.5678915,29.75 11.1290086,29.591621 10.7906229,29.2676793 C10.7906229,29.2676793 0.25,19.8263938 0.25,12.30882 C0.25,8.74363248 1.57134503,5.87780403 3.56144836,3.83648539 C5.83271386,1.50676887 8.97187367,0.25 12,0.25 Z"/>
    <path fill="#F46C63" fill-rule="nonzero" d="M15.7030719,7.5 L11.7462958,16.3680832 L8.93978125,16.3680832 L5,7.5 L7.80651475,7.5 L10.4075427,13.5330718 L13.088139,7.5 L15.7030719,7.5 Z M17.3091118,16.4995696 C16.8580593,16.5096342 16.4227005,16.342795 16.1063189,16.0386341 C15.7818564,15.7342689 15.6051217,15.3164664 15.6180952,14.8844686 C15.6180952,14.4120884 15.7808367,14.030289 16.1063189,13.7390689 C16.789765,13.1563037 17.8284578,13.1563037 18.5119031,13.7390689 C18.837387,14.0312627 18.9998707,14.4130621 18.9993541,14.8844686 C19.0121122,15.3162156 18.8353934,15.7337134 18.5111304,16.0379035 C18.1950642,16.3421457 17.7600108,16.509239 17.309111,16.4995696 L17.3091118,16.4995696 Z"/>
  </g>
</svg>
