<?xml version="1.0" encoding="UTF-8"?>
<svg width="15px" height="11px" viewBox="0 0 15 11" version="1.1" xmlns="http://www.w3.org/2000/svg" xmlns:xlink="http://www.w3.org/1999/xlink">
    <title>voi_symbol_coral copy 5</title>
    <g id="Ny-Sparkesykler" stroke="none" stroke-width="1" fill="none" fill-rule="evenodd">
        <g id="ikoner-" transform="translate(-113.000000, -266.000000)" fill="#F46C63" fill-rule="nonzero">
            <g id="Group-3" transform="translate(107.000000, 258.000000)">
                <g id="voi_symbol_coral-copy-5" transform="translate(6.000000, 8.000000)">
                    <path d="M11.418956,0 L7.19752747,10.0054945 L4.2032967,10.0054945 L0,0 L2.99423077,0 L5.76923077,6.80686813 L8.62912088,0 L11.418956,0 Z M13.1324176,10.1538462 C12.6511964,10.1652007 12.1867191,9.9769636 11.8491758,9.63379121 C11.5030113,9.29038766 11.3144559,8.8189991 11.3282967,8.33159341 C11.3282967,7.79862637 11.5019231,7.36785714 11.8491758,7.03928571 C12.5783343,6.38177599 13.6865008,6.38177599 14.4156593,7.03928571 C14.7629121,7.36895604 14.9362637,7.79972527 14.9357143,8.33159341 C14.9493254,8.81871554 14.7607877,9.28976141 14.4148352,9.63296703 C14.0776298,9.97623055 13.6134771,10.1647553 13.1324176,10.1538462 L13.1324176,10.1538462 Z" id="voi_plain_coral"></path>
                </g>
            </g>
        </g>
    </g>
</svg>