<?xml version="1.0" encoding="utf-8"?>
<!-- Generator: Adobe Illustrator 24.0.1, SVG Export Plug-In . SVG Version: 6.00 Build 0)  -->
<svg version="1.1" id="Layer_1" xmlns="http://www.w3.org/2000/svg" xmlns:xlink="http://www.w3.org/1999/xlink" x="0px" y="0px"
	 width="344px" height="212px" viewBox="0 0 344 212" enable-background="new 0 0 344 212" xml:space="preserve">
<path fill-rule="evenodd" clip-rule="evenodd" fill="#E9E9E9" d="M2,0h340c1.1045837,0,2,0.8954304,2,2v208
	c0,1.1045685-0.8954163,2-2,2H2c-1.1045696,0-2-0.8954315-2-2V2C0,0.8954304,0.8954304,0,2,0z"/>
<path fill-rule="evenodd" clip-rule="evenodd" fill="#F8F8F8" d="M10,8h100c1.1045685,0,2,0.8954306,2,2v192
	c0,1.1045685-0.8954315,2-2,2H10c-1.1045694,0-2-0.8954315-2-2V10C8,8.8954306,8.8954306,8,10,8z"/>
<path fill-rule="evenodd" clip-rule="evenodd" fill="#E9E9E9" d="M17,44h16c0.5522842,0,1,0.4477158,1,1v6
	c0,0.5522842-0.4477158,1-1,1H17c-0.5522842,0-1-0.4477158-1-1v-6C16,44.4477158,16.4477158,44,17,44z"/>
<path fill-rule="evenodd" clip-rule="evenodd" fill="#E9E9E9" d="M17,96h16c0.5522842,0,1,0.4477158,1,1v6
	c0,0.5522842-0.4477158,1-1,1H17c-0.5522842,0-1-0.4477158-1-1v-6C16,96.4477158,16.4477158,96,17,96z"/>
<path fill-rule="evenodd" clip-rule="evenodd" fill="#E9E9E9" d="M17,148h16c0.5522842,0,1,0.4477081,1,1v6
	c0,0.5522919-0.4477158,1-1,1H17c-0.5522842,0-1-0.4477081-1-1v-6C16,148.4477081,16.4477158,148,17,148z"/>
<path fill-rule="evenodd" clip-rule="evenodd" fill="#E9E9E9" d="M40,44h16c0.5522842,0,1,0.4477158,1,1v6
	c0,0.5522842-0.4477158,1-1,1H40c-0.5522842,0-1-0.4477158-1-1v-6C39,44.4477158,39.4477158,44,40,44z"/>
<path fill-rule="evenodd" clip-rule="evenodd" fill="#E9E9E9" d="M40,96h16c0.5522842,0,1,0.4477158,1,1v6
	c0,0.5522842-0.4477158,1-1,1H40c-0.5522842,0-1-0.4477158-1-1v-6C39,96.4477158,39.4477158,96,40,96z"/>
<path fill-rule="evenodd" clip-rule="evenodd" fill="#E9E9E9" d="M40,148h16c0.5522842,0,1,0.4477081,1,1v6
	c0,0.5522919-0.4477158,1-1,1H40c-0.5522842,0-1-0.4477081-1-1v-6C39,148.4477081,39.4477158,148,40,148z"/>
<path fill-rule="evenodd" clip-rule="evenodd" fill="#E9E9E9" d="M63,44h16c0.5522842,0,1,0.4477158,1,1v6
	c0,0.5522842-0.4477158,1-1,1H63c-0.5522842,0-1-0.4477158-1-1v-6C62,44.4477158,62.4477158,44,63,44z"/>
<path fill-rule="evenodd" clip-rule="evenodd" fill="#E9E9E9" d="M63,96h16c0.5522842,0,1,0.4477158,1,1v6
	c0,0.5522842-0.4477158,1-1,1H63c-0.5522842,0-1-0.4477158-1-1v-6C62,96.4477158,62.4477158,96,63,96z"/>
<path fill-rule="evenodd" clip-rule="evenodd" fill="#E9E9E9" d="M63,148h16c0.5522842,0,1,0.4477081,1,1v6
	c0,0.5522919-0.4477158,1-1,1H63c-0.5522842,0-1-0.4477081-1-1v-6C62,148.4477081,62.4477158,148,63,148z"/>
<path fill-rule="evenodd" clip-rule="evenodd" fill="#E9E9E9" d="M86,44h16c0.5522842,0,1,0.4477158,1,1v6
	c0,0.5522842-0.4477158,1-1,1H86c-0.5522842,0-1-0.4477158-1-1v-6C85,44.4477158,85.4477158,44,86,44z"/>
<path fill-rule="evenodd" clip-rule="evenodd" fill="#E9E9E9" d="M86,96h16c0.5522842,0,1,0.4477158,1,1v6
	c0,0.5522842-0.4477158,1-1,1H86c-0.5522842,0-1-0.4477158-1-1v-6C85,96.4477158,85.4477158,96,86,96z"/>
<path fill-rule="evenodd" clip-rule="evenodd" fill="#E9E9E9" d="M86,148h16c0.5522842,0,1,0.4477081,1,1v6
	c0,0.5522919-0.4477158,1-1,1H86c-0.5522842,0-1-0.4477081-1-1v-6C85,148.4477081,85.4477158,148,86,148z"/>
<path fill-rule="evenodd" clip-rule="evenodd" fill="#F8F8F8" d="M122,140h100c1.1045685,0,2,0.8954315,2,2v60
	c0,1.1045685-0.8954315,2-2,2H122c-1.1045685,0-2-0.8954315-2-2v-60C120,140.8954315,120.8954315,140,122,140z"/>
<path fill-rule="evenodd" clip-rule="evenodd" fill="#E9E9E9" d="M129,176h16c0.5522919,0,1,0.4477081,1,1v6
	c0,0.5522919-0.4477081,1-1,1h-16c-0.5522919,0-1-0.4477081-1-1v-6C128,176.4477081,128.4477081,176,129,176z"/>
<path fill-rule="evenodd" clip-rule="evenodd" fill="#E9E9E9" d="M152,176h16c0.5522919,0,1,0.4477081,1,1v6
	c0,0.5522919-0.4477081,1-1,1h-16c-0.5522919,0-1-0.4477081-1-1v-6C151,176.4477081,151.4477081,176,152,176z"/>
<path fill-rule="evenodd" clip-rule="evenodd" fill="#E9E9E9" d="M175,176h16c0.5522919,0,1,0.4477081,1,1v6
	c0,0.5522919-0.4477081,1-1,1h-16c-0.5522919,0-1-0.4477081-1-1v-6C174,176.4477081,174.4477081,176,175,176z"/>
<path fill-rule="evenodd" clip-rule="evenodd" fill="#E9E9E9" d="M198,176h16c0.5522919,0,1,0.4477081,1,1v6
	c0,0.5522919-0.4477081,1-1,1h-16c-0.5522919,0-1-0.4477081-1-1v-6C197,176.4477081,197.4477081,176,198,176z"/>
<path d="M154.6264648,160.9863281h0.5039062c0.8754883,0,1.6669922-0.2753906,1.6669922-1.2226562
	c0-0.7314453-0.6118164-1.1757812-1.2832031-1.1757812c-0.6235352,0-1.1274414,0.3476562-1.331543,0.9599609h-1.6069336
	c0.4438477-1.6669922,1.7509766-2.2548828,3.0341797-2.2548828c1.4394531,0,2.7944336,0.7792969,2.7944336,2.3144531
	c0,0.9599609-0.6113281,1.6914062-1.4389648,1.9189453v0.0244141c0.9594727,0.2275391,1.6547852,1.0068359,1.6547852,2.0263672
	c0,1.7636719-1.4990234,2.6503906-3.0219727,2.6503906c-1.4873047,0-2.8427734-0.6474609-3.262207-2.4707031h1.5952148
	c0.2158203,0.6484375,0.8032227,1.1279297,1.6069336,1.1279297c0.7197266,0,1.4633789-0.4199219,1.4633789-1.3554688
	c0-1.0195312-0.9594727-1.3310547-1.9072266-1.3310547h-0.4677734V160.9863281z"/>
<path d="M163.4233398,157.5087891h3.3696289c1.3076172,0,2.8183594,0.4677734,2.8183594,2.1708984
	c0,0.9355469-0.5751953,1.5830078-1.4267578,1.8349609v0.0234375c1.0195312,0.15625,1.8105469,0.8759766,1.8105469,2.0390625
	c0,1.8115234-1.6542969,2.4228516-3.4658203,2.4228516h-3.105957V157.5087891z M164.9824219,161.0351562H166.625
	c0.7919922,0,1.4277344-0.3486328,1.4277344-1.1396484c0-0.7675781-0.6240234-1.0791016-1.5830078-1.0791016h-1.4873047V161.0351562
	z M164.9824219,164.6806641h1.6191406c0.875,0,1.7744141-0.2880859,1.7744141-1.2470703
	c0-0.8632812-0.6591797-1.2236328-1.7148438-1.2236328h-1.6787109V164.6806641z"/>
<path d="M173.5976562,162.4736328c0.4677734,0,0.9238281,0.0478516,1.4277344,0.15625v-0.2519531
	c0-0.7314453-0.3720703-1.1152344-1.2958984-1.1152344c-0.671875,0-1.1992188,0.2402344-1.5712891,0.6113281l-0.8388672-0.8994141
	c0.6113281-0.5878906,1.390625-0.875,2.5185547-0.875c1.8105469,0,2.6142578,0.71875,2.6142578,2.4580078V166h-1.4267578v-0.6953125
	h-0.0361328c-0.3486328,0.5634766-1.0556641,0.8515625-1.7871094,0.8515625c-1.0673828,0-2.0986328-0.5283203-2.0986328-1.8115234
	C171.1035156,163.2294922,171.9306641,162.4736328,173.5976562,162.4736328z M175.0253906,163.5654297
	c-0.3964844-0.0957031-0.8515625-0.1796875-1.2958984-0.1796875c-0.8271484,0-1.1748047,0.3837891-1.1748047,0.9228516
	c0,0.5400391,0.4072266,0.8037109,1.0185547,0.8037109c0.7441406,0,1.4521484-0.4433594,1.4521484-1.2470703V163.5654297z"/>
<path d="M184,166h-1.5351562v-3.0947266c0-0.8388672-0.3359375-1.5585938-1.2119141-1.5585938
	c-0.875,0-1.4746094,0.7314453-1.4746094,1.7509766V166h-1.5351562v-5.7451172h1.4990234v0.8759766h0.0478516
	c0.2763672-0.515625,1.0078125-1.03125,1.9433594-1.03125c1.6669922,0,2.2666016,1.2587891,2.2666016,2.6738281V166z"/>
<path d="M186.8945312,163.5175781c0.1083984,0.9472656,0.7802734,1.4746094,1.6669922,1.4746094
	c0.7919922,0,1.3193359-0.4677734,1.5830078-0.7792969l1.0322266,0.671875
	c-0.4804688,0.6953125-1.5234375,1.2949219-2.7226562,1.2949219c-1.6308594,0-3.0224609-1.1152344-3.0224609-2.9257812
	c0-1.8115234,1.3310547-3.1542969,3.0703125-3.1542969c1.7509766,0,2.7705078,1.4033203,2.7705078,2.8544922
	c0,0.203125-0.0117188,0.3837891-0.0244141,0.5634766H186.8945312z M186.8945312,162.59375h3.0107422
	c0-0.7675781-0.6357422-1.3789062-1.4511719-1.3789062C187.6025391,161.2148438,187.0263672,161.8144531,186.8945312,162.59375z"/>
<path d="M198.4482422,166h-1.5351562v-3.0947266c0-0.8388672-0.3359375-1.5585938-1.2119141-1.5585938
	c-0.875,0-1.4746094,0.7314453-1.4746094,1.7509766V166h-1.5351562v-5.7451172h1.4990234v0.8759766h0.0478516
	c0.2763672-0.515625,1.0078125-1.03125,1.9433594-1.03125c1.6669922,0,2.2666016,1.2587891,2.2666016,2.6738281V166z"/>
<path fill-rule="evenodd" clip-rule="evenodd" fill="#DE8108" d="M135.9994965,155c3.8610077,0,7,3.1410065,7,7s-3.1389923,7-7,7
	c-3.8600006,0-7-3.1410065-7-7S132.1394958,155,135.9994965,155z M135.9994965,156c-3.3079987,0-6,2.6909943-6,6s2.6920013,6,6,6
	c3.3090057,0,6-2.6909943,6-6S139.3085022,156,135.9994965,156z M138.9989014,159v1.1669922h-2.4150085V166h-1.1669922v-5.8330078
	h-2.4129944V159H138.9989014z"/>
<path fill-rule="evenodd" clip-rule="evenodd" fill="#F8F8F8" d="M122,8h100c1.1045685,0,2,0.8954306,2,2v120
	c0,1.1045685-0.8954315,2-2,2H122c-1.1045685,0-2-0.8954315-2-2V10C120,8.8954306,120.8954315,8,122,8z"/>
<path fill-rule="evenodd" clip-rule="evenodd" fill="#E9E9E9" d="M129,44h16c0.5522919,0,1,0.4477158,1,1v6
	c0,0.5522842-0.4477081,1-1,1h-16c-0.5522919,0-1-0.4477158-1-1v-6C128,44.4477158,128.4477081,44,129,44z"/>
<path fill-rule="evenodd" clip-rule="evenodd" fill="#E9E9E9" d="M129,96h16c0.5522919,0,1,0.4477158,1,1v6
	c0,0.5522842-0.4477081,1-1,1h-16c-0.5522919,0-1-0.4477158-1-1v-6C128,96.4477158,128.4477081,96,129,96z"/>
<path fill-rule="evenodd" clip-rule="evenodd" fill="#E9E9E9" d="M152,44h16c0.5522919,0,1,0.4477158,1,1v6
	c0,0.5522842-0.4477081,1-1,1h-16c-0.5522919,0-1-0.4477158-1-1v-6C151,44.4477158,151.4477081,44,152,44z"/>
<path fill-rule="evenodd" clip-rule="evenodd" fill="#E9E9E9" d="M152,96h16c0.5522919,0,1,0.4477158,1,1v6
	c0,0.5522842-0.4477081,1-1,1h-16c-0.5522919,0-1-0.4477158-1-1v-6C151,96.4477158,151.4477081,96,152,96z"/>
<path fill-rule="evenodd" clip-rule="evenodd" fill="#E9E9E9" d="M175,44h16c0.5522919,0,1,0.4477158,1,1v6
	c0,0.5522842-0.4477081,1-1,1h-16c-0.5522919,0-1-0.4477158-1-1v-6C174,44.4477158,174.4477081,44,175,44z"/>
<path fill-rule="evenodd" clip-rule="evenodd" fill="#E9E9E9" d="M175,96h16c0.5522919,0,1,0.4477158,1,1v6
	c0,0.5522842-0.4477081,1-1,1h-16c-0.5522919,0-1-0.4477158-1-1v-6C174,96.4477158,174.4477081,96,175,96z"/>
<path fill-rule="evenodd" clip-rule="evenodd" fill="#E9E9E9" d="M198,44h16c0.5522919,0,1,0.4477158,1,1v6
	c0,0.5522842-0.4477081,1-1,1h-16c-0.5522919,0-1-0.4477158-1-1v-6C197,44.4477158,197.4477081,44,198,44z"/>
<path fill-rule="evenodd" clip-rule="evenodd" fill="#E9E9E9" d="M198,96h16c0.5522919,0,1,0.4477158,1,1v6
	c0,0.5522842-0.4477081,1-1,1h-16c-0.5522919,0-1-0.4477158-1-1v-6C197,96.4477158,197.4477081,96,198,96z"/>
<path d="M152.9716797,25.5087891h3.3701172c1.3071289,0,2.8183594,0.4677734,2.8183594,2.1708984
	c0,0.9355469-0.5756836,1.5830078-1.4272461,1.8349609v0.0234375c1.0195312,0.15625,1.8110352,0.8759766,1.8110352,2.0390625
	c0,1.8115234-1.6552734,2.4228516-3.4663086,2.4228516h-3.105957V25.5087891z M154.5307617,29.0351562h1.6430664
	c0.7915039,0,1.4272461-0.3486328,1.4272461-1.1396484c0-0.7675781-0.6240234-1.0791016-1.5834961-1.0791016h-1.4868164V29.0351562z
	 M154.5307617,32.6806641h1.6191406c0.8754883,0,1.7749023-0.2880859,1.7749023-1.2470703
	c0-0.8632812-0.659668-1.2236328-1.715332-1.2236328h-1.6787109V32.6806641z"/>
<path d="M165.1494141,34h-1.5952148v-6.6679688l-1.5708008,1.1992188l-0.8398438-1.0800781l2.5664062-1.9423828h1.4394531V34z"/>
<path d="M171.5830078,25.5087891h3.3701172c1.3066406,0,2.8183594,0.4677734,2.8183594,2.1708984
	c0,0.9355469-0.5761719,1.5830078-1.4277344,1.8349609v0.0234375c1.0195312,0.15625,1.8115234,0.8759766,1.8115234,2.0390625
	C178.1552734,33.3886719,176.5,34,174.6894531,34h-3.1064453V25.5087891z M173.1416016,29.0351562h1.6435547
	c0.7910156,0,1.4267578-0.3486328,1.4267578-1.1396484c0-0.7675781-0.6230469-1.0791016-1.5830078-1.0791016h-1.4873047V29.0351562z
	 M173.1416016,32.6806641h1.6191406c0.8759766,0,1.7753906-0.2880859,1.7753906-1.2470703
	c0-0.8632812-0.6601562-1.2236328-1.7148438-1.2236328h-1.6796875V32.6806641z"/>
<path d="M181.7578125,30.4736328c0.4677734,0,0.9238281,0.0478516,1.4277344,0.15625v-0.2519531
	c0-0.7314453-0.3720703-1.1152344-1.2958984-1.1152344c-0.671875,0-1.1992188,0.2402344-1.5712891,0.6113281l-0.8388672-0.8994141
	c0.6113281-0.5878906,1.390625-0.875,2.5185547-0.875c1.8105469,0,2.6142578,0.71875,2.6142578,2.4580078V34h-1.4267578v-0.6953125
	h-0.0361328c-0.3486328,0.5634766-1.0556641,0.8515625-1.7871094,0.8515625c-1.0673828,0-2.0986328-0.5283203-2.0986328-1.8115234
	C179.2636719,31.2294922,180.0908203,30.4736328,181.7578125,30.4736328z M183.1855469,31.5654297
	c-0.3964844-0.0957031-0.8515625-0.1796875-1.2958984-0.1796875c-0.8271484,0-1.1748047,0.3837891-1.1748047,0.9228516
	c0,0.5400391,0.4072266,0.8037109,1.0185547,0.8037109c0.7441406,0,1.4521484-0.4433594,1.4521484-1.2470703V31.5654297z
	 M182.1298828,27.3320312c-0.6835938,0-1.2470703-0.5283203-1.2470703-1.2236328
	c0-0.7080078,0.5507812-1.2353516,1.2470703-1.2353516c0.6835938,0,1.2470703,0.5273438,1.2470703,1.2236328
	C183.3769531,26.8037109,182.8134766,27.3320312,182.1298828,27.3320312z M182.1298828,25.4970703
	c-0.3476562,0-0.6240234,0.2636719-0.6240234,0.5996094c0,0.3476562,0.2763672,0.6113281,0.6240234,0.6113281
	s0.6230469-0.2636719,0.6230469-0.6113281C182.7529297,25.7607422,182.4775391,25.4970703,182.1298828,25.4970703z"/>
<path d="M189.4130859,34h-0.6953125c-1.7988281,0-2.2548828-0.3476562-2.2548828-2.3027344v-2.2548828h-0.9111328v-1.1875h0.9111328
	v-1.5107422h1.4990234v1.5107422h1.4638672v1.1875h-1.4638672v2.2910156c0,1.0068359,0.4677734,1.0673828,1.0195312,1.0673828
	h0.4316406V34z"/>
<path d="M191.6337891,31.5175781c0.1083984,0.9472656,0.7802734,1.4746094,1.6669922,1.4746094
	c0.7919922,0,1.3193359-0.4677734,1.5830078-0.7792969l1.0322266,0.671875
	c-0.4804688,0.6953125-1.5234375,1.2949219-2.7226562,1.2949219c-1.6308594,0-3.0224609-1.1152344-3.0224609-2.9257812
	c0-1.8115234,1.3310547-3.1542969,3.0703125-3.1542969c1.7509766,0,2.7705078,1.4033203,2.7705078,2.8544922
	c0,0.203125-0.0117188,0.3837891-0.0244141,0.5634766H191.6337891z M191.6337891,30.59375h3.0107422
	c0-0.7675781-0.6357422-1.3789062-1.4511719-1.3789062C192.3417969,29.2148438,191.765625,29.8144531,191.6337891,30.59375z"/>
<path d="M203.1884766,34h-1.5351562v-3.0947266c0-0.8388672-0.3359375-1.5585938-1.2119141-1.5585938
	c-0.875,0-1.4746094,0.7314453-1.4746094,1.7509766V34h-1.5351562v-5.7451172h1.4990234v0.8759766h0.0478516
	c0.2763672-0.515625,1.0078125-1.03125,1.9433594-1.03125c1.6669922,0,2.2666016,1.2587891,2.2666016,2.6738281V34z"/>
<path d="M152.9716797,77.5087891h3.3701172c1.3071289,0,2.8183594,0.4677734,2.8183594,2.1708984
	c0,0.9355469-0.5756836,1.5830078-1.4272461,1.8349609v0.0234375c1.0195312,0.15625,1.8110352,0.8759766,1.8110352,2.0390625
	c0,1.8115234-1.6552734,2.4228516-3.4663086,2.4228516h-3.105957V77.5087891z M154.5307617,81.0351562h1.6430664
	c0.7915039,0,1.4272461-0.3486328,1.4272461-1.1396484c0-0.7675781-0.6240234-1.0791016-1.5834961-1.0791016h-1.4868164V81.0351562z
	 M154.5307617,84.6806641h1.6191406c0.8754883,0,1.7749023-0.2880859,1.7749023-1.2470703
	c0-0.8632812-0.659668-1.2236328-1.715332-1.2236328h-1.6787109V84.6806641z"/>
<path d="M166.7685547,86h-5.8769531v-1.3916016l3.3818359-3.1894531c0.4560547-0.4326172,0.8164062-0.9238281,0.8164062-1.5351562
	c0-0.7558594-0.5517578-1.2480469-1.2836914-1.2480469c-0.7675781,0-1.2954102,0.5644531-1.4033203,1.3671875h-1.5708008
	c0.1674805-1.7744141,1.4990234-2.7099609,3.0341797-2.7099609c1.4873047,0,2.8779297,0.8154297,2.8779297,2.4941406
	c0,1.1640625-0.6835938,1.9072266-1.4384766,2.6025391l-2.387207,2.2314453h3.8500977V86z"/>
<path d="M171.5830078,77.5087891h3.3701172c1.3066406,0,2.8183594,0.4677734,2.8183594,2.1708984
	c0,0.9355469-0.5761719,1.5830078-1.4277344,1.8349609v0.0234375c1.0195312,0.15625,1.8115234,0.8759766,1.8115234,2.0390625
	C178.1552734,85.3886719,176.5,86,174.6894531,86h-3.1064453V77.5087891z M173.1416016,81.0351562h1.6435547
	c0.7910156,0,1.4267578-0.3486328,1.4267578-1.1396484c0-0.7675781-0.6230469-1.0791016-1.5830078-1.0791016h-1.4873047V81.0351562z
	 M173.1416016,84.6806641h1.6191406c0.8759766,0,1.7753906-0.2880859,1.7753906-1.2470703
	c0-0.8632812-0.6601562-1.2236328-1.7148438-1.2236328h-1.6796875V84.6806641z"/>
<path d="M181.7578125,82.4736328c0.4677734,0,0.9238281,0.0478516,1.4277344,0.15625v-0.2519531
	c0-0.7314453-0.3720703-1.1152344-1.2958984-1.1152344c-0.671875,0-1.1992188,0.2402344-1.5712891,0.6113281l-0.8388672-0.8994141
	c0.6113281-0.5878906,1.390625-0.875,2.5185547-0.875c1.8105469,0,2.6142578,0.71875,2.6142578,2.4580078V86h-1.4267578v-0.6953125
	h-0.0361328c-0.3486328,0.5634766-1.0556641,0.8515625-1.7871094,0.8515625c-1.0673828,0-2.0986328-0.5283203-2.0986328-1.8115234
	C179.2636719,83.2294922,180.0908203,82.4736328,181.7578125,82.4736328z M183.1855469,83.5654297
	c-0.3964844-0.0957031-0.8515625-0.1796875-1.2958984-0.1796875c-0.8271484,0-1.1748047,0.3837891-1.1748047,0.9228516
	c0,0.5400391,0.4072266,0.8037109,1.0185547,0.8037109c0.7441406,0,1.4521484-0.4433594,1.4521484-1.2470703V83.5654297z
	 M182.1298828,79.3320312c-0.6835938,0-1.2470703-0.5283203-1.2470703-1.2236328
	c0-0.7080078,0.5507812-1.2353516,1.2470703-1.2353516c0.6835938,0,1.2470703,0.5273438,1.2470703,1.2236328
	C183.3769531,78.8037109,182.8134766,79.3320312,182.1298828,79.3320312z M182.1298828,77.4970703
	c-0.3476562,0-0.6240234,0.2636719-0.6240234,0.5996094c0,0.3476562,0.2763672,0.6113281,0.6240234,0.6113281
	s0.6230469-0.2636719,0.6230469-0.6113281C182.7529297,77.7607422,182.4775391,77.4970703,182.1298828,77.4970703z"/>
<path d="M189.4130859,86h-0.6953125c-1.7988281,0-2.2548828-0.3476562-2.2548828-2.3027344v-2.2548828h-0.9111328v-1.1875h0.9111328
	v-1.5107422h1.4990234v1.5107422h1.4638672v1.1875h-1.4638672v2.2910156c0,1.0068359,0.4677734,1.0673828,1.0195312,1.0673828
	h0.4316406V86z"/>
<path d="M191.6337891,83.5175781c0.1083984,0.9472656,0.7802734,1.4746094,1.6669922,1.4746094
	c0.7919922,0,1.3193359-0.4677734,1.5830078-0.7792969l1.0322266,0.671875
	c-0.4804688,0.6953125-1.5234375,1.2949219-2.7226562,1.2949219c-1.6308594,0-3.0224609-1.1152344-3.0224609-2.9257812
	c0-1.8115234,1.3310547-3.1542969,3.0703125-3.1542969c1.7509766,0,2.7705078,1.4033203,2.7705078,2.8544922
	c0,0.203125-0.0117188,0.3837891-0.0244141,0.5634766H191.6337891z M191.6337891,82.59375h3.0107422
	c0-0.7675781-0.6357422-1.3789062-1.4511719-1.3789062C192.3417969,81.2148438,191.765625,81.8144531,191.6337891,82.59375z"/>
<path d="M203.1884766,86h-1.5351562v-3.0947266c0-0.8388672-0.3359375-1.5585938-1.2119141-1.5585938
	c-0.875,0-1.4746094,0.7314453-1.4746094,1.7509766V86h-1.5351562v-5.7451172h1.4990234v0.8759766h0.0478516
	c0.2763672-0.515625,1.0078125-1.03125,1.9433594-1.03125c1.6669922,0,2.2666016,1.2587891,2.2666016,2.6738281V86z"/>
<path fill-rule="evenodd" clip-rule="evenodd" fill="#0497BC" d="M140.1354065,29.4584351l-1.9330139,0.0009995
	c-0.1109924,0-0.2019958-0.0900002-0.2019958-0.2010002v-0.7989998c0-0.1110001,0.0910034-0.2010002,0.2019958-0.2010002h1.654007
	c0.1150055,0,0.2169952,0.0790005,0.2440033,0.1910019l0.1929932,0.7799988
	C140.346405,29.3944359,140.2444,29.4584351,140.1354065,29.4584351L140.1354065,29.4584351z M137.6013947,29.2544365
	c0,0.112999-0.0919952,0.2039986-0.2039948,0.2039986h-1.3930054c-0.1119995,0-0.2039948-0.0909996-0.2039948-0.2039986v-0.7930012
	c0-0.1119995,0.0919952-0.203001,0.2039948-0.203001h1.3930054c0.1119995,0,0.2039948,0.0910015,0.2039948,0.203001V29.2544365z
	 M135.3973999,29.2584343c0,0.1100006-0.0899963,0.2000008-0.1999969,0.2000008h-1.9260101
	c-0.1239929,0-0.2359924-0.0979996-0.1329956-0.2789993l0.3809967-0.7800007
	c0.0429993-0.0869999,0.1320038-0.1410007,0.2280121-0.1410007h1.4499969c0.1100006,0,0.1999969,0.0890007,0.1999969,0.2000008
	V29.2584343z M139.5359955,33.2683334c0.6419983,0,1.0460052,0.137001,1.3720093,0.2919998l-0.4790039,0.8800011
	c-0.2299957-0.1030006-0.4810028-0.1720009-0.8930054-0.1720009c-0.5769958,0-0.8379974,0.1360016-1.1679993,0.3090019
	c-0.3789978,0.1990013-0.8089905,0.4249992-1.6320038,0.4249992c-0.822998,0-1.2529907-0.2259979-1.6319885-0.4249992
	c-0.3300018-0.1730003-0.5910034-0.3090019-1.1679993-0.3090019c-0.5770111,0-0.8379974,0.1360016-1.1679993,0.3090019
	c-0.3800049,0.1990013-0.8090057,0.4249992-1.6330109,0.4249992c-1.0509949,0-1.9679871-0.5879974-2.0059967-0.612999L129,34.317337
	l0.4459991-0.8930016l0.1959991,0.1079979c0.0370026,0.0230026,0.7429962,0.4700012,1.4929962,0.4700012
	c0.5780029,0,0.8380127-0.137001,1.1679993-0.3099976c0.3800049-0.1990013,0.8100128-0.4240036,1.6330109-0.4240036
	s1.2539978,0.2250023,1.6329956,0.4240036c0.3300018,0.1729965,0.5910034,0.3099976,1.1669922,0.3099976
	c0.576004,0,0.8370056-0.137001,1.1670074-0.3099976C138.2819977,33.4933357,138.7129974,33.2683334,139.5359955,33.2683334z
	 M138.6723938,25.3774357c0.2030029-0.1000004,0.3440094,0.0119991,0.4170074,0.198l0,0l0.3410034,0.8239994
	c0.0069885,0.0209999,0.0249939,0.0340004,0.04599,0.0349998l0,0h0.5550079c0.1490021,0,0.2819977,0.0970001,0.3300018,0.2420006
	l0,0l0.9069977,2.7450008c0.0070038,0.0219994,0.0269928,0.0369987,0.0500031,0.0369987l0,0h1.4309998
	c0.1899872,0,0.3099976,0.203001,0.2189941,0.3689995l0,0l-1.6100006,2.9630013
	c-0.3959961-0.2159996-0.946991-0.5209999-1.8450012-0.5209999c-1.3999939,0-1.3999939,0.7329979-2.8009949,0.7329979
	c-1.3990021,0-1.3990021-0.7329979-2.8000031-0.7329979c-1.3990021,0-1.3990021,0.7329979-2.798996,0.7329979
	c-0.6179962,0-0.9620056-0.1429977-1.276001-0.3019981l0,0l1.4960022-3.0470009
	c0.0589905-0.1189995,0.1809998-0.1949997,0.3139954-0.1949997l0,0h0.6679993c0.0209961,0,0.0400085-0.0139999,0.0469971-0.0340004
	l0,0l1.0980072-2.2249985c0.0599976-0.1200008,0.1829987-0.1970005,0.3179932-0.1970005l0,0h3.3910065
	c0.0209961,0,0.04599-0.0139999,0.04599-0.0540009l0,0v-0.4629993c0-0.1700001,0.0950012-0.3260002,0.2440033-0.4020004l0,0
	L138.6723938,25.3774357z"/>
<path fill-rule="evenodd" clip-rule="evenodd" fill="#0497BC" d="M140.1354065,81.4584351l-1.9330139,0.0009995
	c-0.1109924,0-0.2019958-0.0899963-0.2019958-0.2009964v-0.7990036c0-0.1110001,0.0910034-0.2009964,0.2019958-0.2009964h1.654007
	c0.1150055,0,0.2169952,0.0789948,0.2440033,0.1909943l0.1929932,0.7800064
	C140.346405,81.3944321,140.2444,81.4584351,140.1354065,81.4584351L140.1354065,81.4584351z M137.6013947,81.2544327
	c0,0.112999-0.0919952,0.2040024-0.2039948,0.2040024h-1.3930054c-0.1119995,0-0.2039948-0.0910034-0.2039948-0.2040024v-0.7929993
	c0-0.1119995,0.0919952-0.2029953,0.2039948-0.2029953h1.3930054c0.1119995,0,0.2039948,0.0909958,0.2039948,0.2029953V81.2544327z
	 M135.3973999,81.2584381c0,0.1100006-0.0899963,0.1999969-0.1999969,0.1999969h-1.9260101
	c-0.1239929,0-0.2359924-0.0979996-0.1329956-0.2789993l0.3809967-0.7799988
	c0.0429993-0.086998,0.1320038-0.1409988,0.2280121-0.1409988h1.4499969c0.1100006,0,0.1999969,0.0889969,0.1999969,0.1999969
	V81.2584381z M139.5359955,85.2683334c0.6419983,0,1.0460052,0.137001,1.3720093,0.2919998l-0.4790039,0.8800049
	c-0.2299957-0.1030045-0.4810028-0.1720047-0.8930054-0.1720047c-0.5769958,0-0.8379974,0.1360016-1.1679993,0.3089981
	c-0.3789978,0.1990051-0.8089905,0.4250031-1.6320038,0.4250031c-0.822998,0-1.2529907-0.2259979-1.6319885-0.4250031
	c-0.3300018-0.1729965-0.5910034-0.3089981-1.1679993-0.3089981c-0.5770111,0-0.8379974,0.1360016-1.1679993,0.3089981
	c-0.3800049,0.1990051-0.8090057,0.4250031-1.6330109,0.4250031c-1.0509949,0-1.9679871-0.5879974-2.0059967-0.612999L129,86.317337
	l0.4459991-0.8930054l0.1959991,0.1080017c0.0370026,0.0230026,0.7429962,0.4700012,1.4929962,0.4700012
	c0.5780029,0,0.8380127-0.137001,1.1679993-0.3099976c0.3800049-0.1990051,0.8100128-0.4240036,1.6330109-0.4240036
	s1.2539978,0.2249985,1.6329956,0.4240036c0.3300018,0.1729965,0.5910034,0.3099976,1.1669922,0.3099976
	c0.576004,0,0.8370056-0.137001,1.1670074-0.3099976C138.2819977,85.4933319,138.7129974,85.2683334,139.5359955,85.2683334z
	 M138.6723938,77.3774338c0.2030029-0.0999985,0.3440094,0.012001,0.4170074,0.197998l0,0l0.3410034,0.8240051
	c0.0069885,0.0209961,0.0249939,0.0339966,0.04599,0.034996l0,0h0.5550079c0.1490021,0,0.2819977,0.0970001,0.3300018,0.2420044l0,0
	l0.9069977,2.7449951c0.0070038,0.0220032,0.0269928,0.0370026,0.0500031,0.0370026l0,0h1.4309998
	c0.1899872,0,0.3099976,0.2030029,0.2189941,0.3690033l0,0l-1.6100006,2.9629974
	c-0.3959961-0.2160034-0.946991-0.5210037-1.8450012-0.5210037c-1.3999939,0-1.3999939,0.7330017-2.8009949,0.7330017
	c-1.3990021,0-1.3990021-0.7330017-2.8000031-0.7330017c-1.3990021,0-1.3990021,0.7330017-2.798996,0.7330017
	c-0.6179962,0-0.9620056-0.1429977-1.276001-0.3019943l0,0l1.4960022-3.0470047
	c0.0589905-0.1189957,0.1809998-0.1949997,0.3139954-0.1949997l0,0h0.6679993c0.0209961,0,0.0400085-0.0139999,0.0469971-0.0339966
	l0,0l1.0980072-2.2250061c0.0599976-0.1199951,0.1829987-0.1969986,0.3179932-0.1969986l0,0h3.3910065
	c0.0209961,0,0.04599-0.0139999,0.04599-0.0540009l0,0v-0.4629974c0-0.1699982,0.0950012-0.3259964,0.2440033-0.4020004l0,0
	L138.6723938,77.3774338z"/>
<path fill-rule="evenodd" clip-rule="evenodd" fill="#F8F8F8" d="M234,8h100c1.1045837,0,2,0.8954306,2,2v192
	c0,1.1045685-0.8954163,2-2,2H234c-1.1045685,0-2-0.8954315-2-2V10C232,8.8954306,232.8954315,8,234,8z"/>
<path d="M40.9716797,25.5087891h3.4897461c1.9672852,0,3.0825195,0.9716797,3.0825195,2.5664062
	c0,1.3671875-0.9355469,2.1826172-1.8828125,2.4228516L47.987793,34h-1.9189453l-2.0512695-3.25h-1.4628906V34h-1.5830078
	V25.5087891z M44.1977539,26.8515625h-1.6552734v2.6630859h1.6914062c1.1391602,0,1.7148438-0.515625,1.7148438-1.3798828
	C45.9487305,27.2236328,45.2890625,26.8515625,44.1977539,26.8515625z"/>
<path d="M53.0644531,34h-1.5947266v-6.6679688L49.8984375,28.53125l-0.8393555-1.0800781l2.5668945-1.9423828h1.4384766V34z"/>
<path d="M62.3759766,29.7421875c0,2.3388672-0.828125,4.4853516-3.1191406,4.4853516
	c-2.3027344,0-3.1298828-2.1464844-3.1298828-4.4853516c0-2.3261719,0.8271484-4.4492188,3.1298828-4.4492188
	C61.5478516,25.2929688,62.3759766,27.4160156,62.3759766,29.7421875z M57.7578125,29.7421875
	c0,1.3193359,0.2636719,3.1181641,1.4990234,3.1181641c1.2119141,0,1.4873047-1.7988281,1.4873047-3.1181641
	c0-1.2949219-0.2753906-3.1064453-1.4873047-3.1064453C58.0214844,26.6357422,57.7578125,28.4472656,57.7578125,29.7421875z"/>
<path d="M70.2373047,34h-1.6074219v-7.0996094h-2.5546875v-1.3916016h6.7285156v1.3916016h-2.5664062V34z"/>
<path d="M75.421875,34.1796875c-1.7392578,0-3.1298828-1.2353516-3.1298828-3.0585938
	c0-1.8105469,1.390625-3.0214844,3.1298828-3.0214844c1.7509766,0,3.1542969,1.2109375,3.1542969,3.0214844
	C78.5761719,32.9443359,77.1728516,34.1796875,75.421875,34.1796875z M75.421875,29.3945312
	c-1.0078125,0-1.6074219,0.8037109-1.6074219,1.7265625c0,0.9355469,0.5996094,1.7519531,1.6074219,1.7519531
	c1.03125,0,1.6191406-0.8164062,1.6191406-1.7519531C77.0410156,30.1982422,76.453125,29.3945312,75.421875,29.3945312z"/>
<path d="M80.5458984,34.7919922c0.5039062,0.5029297,1.2714844,0.8271484,2.0029297,0.8271484
	c1.3320312,0,1.8710938-0.7919922,1.8710938-1.8710938v-0.6113281h-0.0234375C84.0244141,33.6640625,83.3046875,34,82.5976562,34
	c-1.7392578,0-2.9384766-1.1757812-2.9384766-2.9267578c0-1.6064453,1.1035156-2.9736328,2.8417969-2.9736328
	c0.7802734,0,1.5117188,0.3359375,1.9433594,1.0068359h0.0234375v-0.8515625h1.4755859v5.3730469
	c0,1.9316406-1.0791016,3.2509766-3.3457031,3.2509766c-1.0322266,0-2.1113281-0.3359375-2.8671875-0.9716797L80.5458984,34.7919922
	z M82.8486328,32.7890625c0.9716797,0,1.6552734-0.7441406,1.6552734-1.7158203
	c0-0.9228516-0.6835938-1.6904297-1.6552734-1.6904297c-0.9951172,0-1.6181641,0.7675781-1.6181641,1.703125
	C81.2304688,31.9726562,81.8535156,32.7890625,82.8486328,32.7890625z"/>
<path d="M88.8505859,31.5175781c0.1083984,0.9472656,0.7802734,1.4746094,1.6669922,1.4746094
	c0.7919922,0,1.3193359-0.4677734,1.5830078-0.7792969l1.0322266,0.671875
	c-0.4804688,0.6953125-1.5234375,1.2949219-2.7226562,1.2949219c-1.6308594,0-3.0224609-1.1152344-3.0224609-2.9257812
	c0-1.8115234,1.3310547-3.1542969,3.0703125-3.1542969c1.7509766,0,2.7705078,1.4033203,2.7705078,2.8544922
	c0,0.203125-0.0117188,0.3837891-0.0244141,0.5634766H88.8505859z M88.8505859,30.59375h3.0107422
	c0-0.7675781-0.6357422-1.3789062-1.4511719-1.3789062C89.5585938,29.2148438,88.9824219,29.8144531,88.8505859,30.59375z"/>
<path d="M97.7773438,34h-0.6953125c-1.7988281,0-2.2548828-0.3476562-2.2548828-2.3027344v-2.2548828h-0.9111328v-1.1875h0.9111328
	v-1.5107422h1.4990234v1.5107422h1.4628906v1.1875h-1.4628906v2.2910156c0,1.0068359,0.4677734,1.0673828,1.0195312,1.0673828
	h0.4316406V34z"/>
<path d="M42.5786133,84.5966797h3.5498047V86h-5.1567383v-8.4912109h1.6069336V84.5966797z"/>
<path d="M52.8476562,86h-5.8764648v-1.3916016l3.3823242-3.1894531c0.4555664-0.4326172,0.8154297-0.9238281,0.8154297-1.5351562
	c0-0.7558594-0.5517578-1.2480469-1.2832031-1.2480469c-0.7675781,0-1.2954102,0.5644531-1.4033203,1.3671875h-1.5712891
	c0.1679688-1.7744141,1.4995117-2.7099609,3.034668-2.7099609c1.4873047,0,2.878418,0.8154297,2.878418,2.4941406
	c0,1.1640625-0.6835938,1.9072266-1.4394531,2.6025391l-2.3867188,2.2314453h3.8496094V86z"/>
<path d="M60.9492188,86h-1.6074219v-7.0996094h-2.5546875v-1.3916016h6.7285156v1.3916016h-2.5664062V86z"/>
<path d="M66.1337891,86.1796875c-1.7392578,0-3.1298828-1.2353516-3.1298828-3.0585938
	c0-1.8105469,1.390625-3.0214844,3.1298828-3.0214844c1.7509766,0,3.1542969,1.2109375,3.1542969,3.0214844
	C69.2880859,84.9443359,67.8847656,86.1796875,66.1337891,86.1796875z M66.1337891,81.3945312
	c-1.0078125,0-1.6074219,0.8037109-1.6074219,1.7265625c0,0.9355469,0.5996094,1.7519531,1.6074219,1.7519531
	c1.03125,0,1.6191406-0.8164062,1.6191406-1.7519531C67.7529297,82.1982422,67.1650391,81.3945312,66.1337891,81.3945312z"/>
<path d="M71.2587891,86.7919922c0.5039062,0.5029297,1.2714844,0.8271484,2.0029297,0.8271484
	c1.3320312,0,1.8710938-0.7919922,1.8710938-1.8710938v-0.6113281H75.109375C74.7373047,85.6640625,74.0175781,86,73.3105469,86
	c-1.7392578,0-2.9384766-1.1757812-2.9384766-2.9267578c0-1.6064453,1.1035156-2.9736328,2.8417969-2.9736328
	c0.7802734,0,1.5117188,0.3359375,1.9433594,1.0068359h0.0234375v-0.8515625H76.65625v5.3730469
	c0,1.9316406-1.0791016,3.2509766-3.3457031,3.2509766c-1.0322266,0-2.1113281-0.3359375-2.8671875-0.9716797L71.2587891,86.7919922
	z M73.5615234,84.7890625c0.9716797,0,1.6552734-0.7441406,1.6552734-1.7158203
	c0-0.9228516-0.6835938-1.6904297-1.6552734-1.6904297c-0.9951172,0-1.6181641,0.7675781-1.6181641,1.703125
	C71.9433594,83.9726562,72.5664062,84.7890625,73.5615234,84.7890625z"/>
<path d="M79.5625,83.5175781c0.1083984,0.9472656,0.7802734,1.4746094,1.6669922,1.4746094
	c0.7919922,0,1.3193359-0.4677734,1.5830078-0.7792969l1.0322266,0.671875
	c-0.4804688,0.6953125-1.5234375,1.2949219-2.7226562,1.2949219c-1.6308594,0-3.0224609-1.1152344-3.0224609-2.9257812
	c0-1.8115234,1.3310547-3.1542969,3.0703125-3.1542969c1.7509766,0,2.7705078,1.4033203,2.7705078,2.8544922
	c0,0.203125-0.0117188,0.3837891-0.0244141,0.5634766H79.5625z M79.5625,82.59375h3.0107422
	c0-0.7675781-0.6357422-1.3789062-1.4511719-1.3789062C80.2705078,81.2148438,79.6943359,81.8144531,79.5625,82.59375z"/>
<path d="M88.4892578,86h-0.6953125c-1.7988281,0-2.2548828-0.3476562-2.2548828-2.3027344v-2.2548828h-0.9111328v-1.1875h0.9111328
	v-1.5107422h1.4990234v1.5107422h1.4638672v1.1875h-1.4638672v2.2910156c0,1.0068359,0.4677734,1.0673828,1.0195312,1.0673828
	h0.4316406V86z"/>
<path d="M42.5786133,136.5966797h3.5498047V138h-5.1567383v-8.4912109h1.6069336V136.5966797z"/>
<path d="M51.2290039,138h-1.5952148v-6.6679688L48.0625,132.53125l-0.8393555-1.0800781l2.5668945-1.9423828h1.4389648V138z"/>
<path d="M58.6806641,138h-1.5947266v-6.6679688l-1.5712891,1.1992188l-0.8398438-1.0800781l2.5664062-1.9423828h1.4394531V138z"/>
<path d="M68.4013672,138h-1.6074219v-7.0996094h-2.5546875v-1.3916016h6.7285156v1.3916016h-2.5664062V138z"/>
<path d="M73.5859375,138.1796875c-1.7392578,0-3.1298828-1.2353516-3.1298828-3.0585938
	c0-1.8105469,1.390625-3.0214844,3.1298828-3.0214844c1.7509766,0,3.1542969,1.2109375,3.1542969,3.0214844
	C76.7402344,136.9443359,75.3369141,138.1796875,73.5859375,138.1796875z M73.5859375,133.3945312
	c-1.0078125,0-1.6074219,0.8037109-1.6074219,1.7265625c0,0.9355469,0.5996094,1.7519531,1.6074219,1.7519531
	c1.03125,0,1.6191406-0.8164062,1.6191406-1.7519531C75.2050781,134.1982422,74.6171875,133.3945312,73.5859375,133.3945312z"/>
<path d="M78.7099609,138.7919922c0.5039062,0.5029297,1.2714844,0.8271484,2.0029297,0.8271484
	c1.3320312,0,1.8710938-0.7919922,1.8710938-1.8710938v-0.6113281h-0.0234375C82.1884766,137.6640625,81.46875,138,80.7617188,138
	c-1.7392578,0-2.9384766-1.1757812-2.9384766-2.9267578c0-1.6064453,1.1035156-2.9736328,2.8417969-2.9736328
	c0.7802734,0,1.5117188,0.3359375,1.9433594,1.0068359h0.0234375v-0.8515625h1.4755859v5.3730469
	c0,1.9316406-1.0791016,3.2509766-3.3457031,3.2509766c-1.0322266,0-2.1113281-0.3359375-2.8671875-0.9716797
	L78.7099609,138.7919922z M81.0126953,136.7890625c0.9716797,0,1.6552734-0.7441406,1.6552734-1.7158203
	c0-0.9228516-0.6835938-1.6904297-1.6552734-1.6904297c-0.9951172,0-1.6181641,0.7675781-1.6181641,1.703125
	C79.3945312,135.9726562,80.0175781,136.7890625,81.0126953,136.7890625z"/>
<path d="M87.0136719,135.5175781c0.1083984,0.9472656,0.7802734,1.4746094,1.6669922,1.4746094
	c0.7919922,0,1.3193359-0.4677734,1.5830078-0.7792969l1.0322266,0.671875
	c-0.4804688,0.6953125-1.5234375,1.2949219-2.7226562,1.2949219c-1.6308594,0-3.0224609-1.1152344-3.0224609-2.9257812
	c0-1.8115234,1.3310547-3.1542969,3.0703125-3.1542969c1.7509766,0,2.7705078,1.4033203,2.7705078,2.8544922
	c0,0.203125-0.0117188,0.3837891-0.0244141,0.5634766H87.0136719z M87.0136719,134.59375h3.0107422
	c0-0.7675781-0.6357422-1.3789062-1.4511719-1.3789062C87.7216797,133.2148438,87.1455078,133.8144531,87.0136719,134.59375z"/>
<path d="M95.9414062,138h-0.6953125c-1.7988281,0-2.2548828-0.3476562-2.2548828-2.3027344v-2.2548828h-0.9111328v-1.1875h0.9111328
	v-1.5107422h1.4990234v1.5107422h1.4628906v1.1875h-1.4628906v2.2910156c0,1.0068359,0.4677734,1.0673828,1.0195312,1.0673828
	h0.4316406V138z"/>
<path fill-rule="evenodd" clip-rule="evenodd" fill="#00367F" d="M28.2129002,29.5930004
	c-0.0450001,0.1359997-0.1730003,0.1709995-0.3169994,0.1709995h-0.6650009c-0.0719986,0-0.1860008,0.0109997-0.2849998-0.0629997
	l-0.9500008-0.6700001c-0.1149979-0.0860004-0.1609993-0.2360001-0.1159992-0.3719997
	c0.0459995-0.1350002,0.1730003-0.2270012,0.316-0.2270012h0.6660004c0.0719986,0,0.1419983,0.0240002,0.2010002,0.0670013
	l1.0340004,0.7789993C28.2108994,29.3640003,28.2579002,29.4570007,28.2129002,29.5930004 M30,34.0003014v1H17v-1H30z
	 M22.3638992,24.3999996l1.4940014,1.1790009c0.0809994,0.059,0.1420002,0.1499996,0.1420002,0.2749996
	c0,0.1229992-0.0480003,0.1800003-0.1490002,0.2560005l0,0L22.5569,27h3.5389996
	c0.2399998,0,0.6400013,0.0960007,0.9990005,0.3320007c1.0970001,0.7229996,3.1210003,2.2139988,3.4359989,2.5279999
	c0.0360012,0.0369987,0.0660019,0.0669994,0.0930023,0.0949993c0.0119972,0.0109997,0.0239983,0.0240002,0.0349998,0.0360012
	c0.0389977,0.039999,0.0699997,0.0739975,0.0909996,0.1089993c0.1549988,0.2059994,0.25,0.4569988,0.25,0.7339993
	c0,0.493-0.4090004,1.1469994-0.9000015,1.9020004c-0.1079979,0.1650009-0.2910004,0.2649994-0.4889984,0.2649994l0,0H16.9999008V27
	h4.4019985l1.7000008-1.1669998l-1.7019997-1.4330006H22.3638992z"/>
<path fill-rule="evenodd" clip-rule="evenodd" fill="#00367F" d="M28.2129002,81.5930023
	c-0.0450001,0.1360016-0.1730003,0.1709976-0.3169994,0.1709976h-0.6650009c-0.0719986,0-0.1860008,0.0110016-0.2849998-0.0629959
	l-0.9500008-0.6700058c-0.1149979-0.0859985-0.1609993-0.2360001-0.1159992-0.3720016
	c0.0459995-0.1349945,0.1730003-0.2269974,0.316-0.2269974h0.6660004c0.0719986,0,0.1419983,0.0240021,0.2010002,0.0670013
	l1.0340004,0.7789993C28.2108994,81.3639984,28.2579002,81.4570007,28.2129002,81.5930023 M30,86.0002975v1H17v-1H30z
	 M22.3638992,76.4000015l1.4940014,1.1790009c0.0809994,0.0589981,0.1420002,0.1500015,0.1420002,0.2750015
	c0,0.1229935-0.0480003,0.1799927-0.1490002,0.2559967l0,0L22.5569,79h3.5389996
	c0.2399998,0,0.6400013,0.0960007,0.9990005,0.3320007c1.0970001,0.7229996,3.1210003,2.2139969,3.4359989,2.5279999
	c0.0360012,0.0370026,0.0660019,0.0670013,0.0930023,0.0950012c0.0119972,0.0110016,0.0239983,0.0240021,0.0349998,0.0359955
	c0.0389977,0.0400009,0.0699997,0.0740051,0.0909996,0.1090012c0.1549988,0.2060013,0.25,0.4570007,0.25,0.7340012
	c0,0.4929962-0.4090004,1.1470032-0.9000015,1.9020004c-0.1079979,0.1650009-0.2910004,0.2649994-0.4889984,0.2649994l0,0
	H16.9999008V79h4.4019985l1.7000008-1.1669998l-1.7019997-1.4329987H22.3638992z"/>
<path fill-rule="evenodd" clip-rule="evenodd" fill="#00367F" d="M28.2129002,133.5930023
	c-0.0450001,0.1360016-0.1730003,0.1710052-0.3169994,0.1710052h-0.6650009c-0.0719986,0-0.1860008,0.0109863-0.2849998-0.0630035
	l-0.9500008-0.6699982c-0.1149979-0.0859985-0.1609993-0.2360077-0.1159992-0.3720093
	c0.0459995-0.1349945,0.1730003-0.2269897,0.316-0.2269897h0.6660004c0.0719986,0,0.1419983,0.0239868,0.2010002,0.0669861
	l1.0340004,0.779007C28.2108994,133.3639984,28.2579002,133.4570007,28.2129002,133.5930023 M30,138.0003052v1H17v-1H30z
	 M22.3638992,128.3999939l1.4940014,1.1790009c0.0809994,0.0590057,0.1420002,0.1500092,0.1420002,0.2750092
	c0,0.1230011-0.0480003,0.1799927-0.1490002,0.2559967l0,0L22.5569,131h3.5389996
	c0.2399998,0,0.6400013,0.095993,0.9990005,0.3320007c1.0970001,0.7229919,3.1210003,2.2140045,3.4359989,2.5279999
	c0.0360012,0.0370026,0.0660019,0.0670013,0.0930023,0.0950012c0.0119972,0.0110016,0.0239983,0.0240021,0.0349998,0.0359955
	c0.0389977,0.0400085,0.0699997,0.0740051,0.0909996,0.1090088c0.1549988,0.2059937,0.25,0.4570007,0.25,0.7339935
	c0,0.4929962-0.4090004,1.1470032-0.9000015,1.9019928c-0.1079979,0.1650085-0.2910004,0.2650146-0.4889984,0.2650146l0,0
	H16.9999008V131h4.4019985l1.7000008-1.1670074l-1.7019997-1.4329987H22.3638992z"/>
<path fill-rule="evenodd" clip-rule="evenodd" fill="#E9E9E9" d="M241,44h16c0.5522766,0,1,0.4477158,1,1v6
	c0,0.5522842-0.4477234,1-1,1h-16c-0.5522919,0-1-0.4477158-1-1v-6C240,44.4477158,240.4477081,44,241,44z"/>
<path fill-rule="evenodd" clip-rule="evenodd" fill="#E9E9E9" d="M241,96h16c0.5522766,0,1,0.4477158,1,1v6
	c0,0.5522842-0.4477234,1-1,1h-16c-0.5522919,0-1-0.4477158-1-1v-6C240,96.4477158,240.4477081,96,241,96z"/>
<path fill-rule="evenodd" clip-rule="evenodd" fill="#E9E9E9" d="M241,148h16c0.5522766,0,1,0.4477081,1,1v6
	c0,0.5522919-0.4477234,1-1,1h-16c-0.5522919,0-1-0.4477081-1-1v-6C240,148.4477081,240.4477081,148,241,148z"/>
<path fill-rule="evenodd" clip-rule="evenodd" fill="#E9E9E9" d="M264,44h16c0.5522766,0,1,0.4477158,1,1v6
	c0,0.5522842-0.4477234,1-1,1h-16c-0.5522766,0-1-0.4477158-1-1v-6C263,44.4477158,263.4477234,44,264,44z"/>
<path fill-rule="evenodd" clip-rule="evenodd" fill="#E9E9E9" d="M264,96h16c0.5522766,0,1,0.4477158,1,1v6
	c0,0.5522842-0.4477234,1-1,1h-16c-0.5522766,0-1-0.4477158-1-1v-6C263,96.4477158,263.4477234,96,264,96z"/>
<path fill-rule="evenodd" clip-rule="evenodd" fill="#E9E9E9" d="M264,148h16c0.5522766,0,1,0.4477081,1,1v6
	c0,0.5522919-0.4477234,1-1,1h-16c-0.5522766,0-1-0.4477081-1-1v-6C263,148.4477081,263.4477234,148,264,148z"/>
<path fill-rule="evenodd" clip-rule="evenodd" fill="#E9E9E9" d="M287,44h16c0.5522766,0,1,0.4477158,1,1v6
	c0,0.5522842-0.4477234,1-1,1h-16c-0.5522766,0-1-0.4477158-1-1v-6C286,44.4477158,286.4477234,44,287,44z"/>
<path fill-rule="evenodd" clip-rule="evenodd" fill="#E9E9E9" d="M287,96h16c0.5522766,0,1,0.4477158,1,1v6
	c0,0.5522842-0.4477234,1-1,1h-16c-0.5522766,0-1-0.4477158-1-1v-6C286,96.4477158,286.4477234,96,287,96z"/>
<path fill-rule="evenodd" clip-rule="evenodd" fill="#E9E9E9" d="M287,148h16c0.5522766,0,1,0.4477081,1,1v6
	c0,0.5522919-0.4477234,1-1,1h-16c-0.5522766,0-1-0.4477081-1-1v-6C286,148.4477081,286.4477234,148,287,148z"/>
<path fill-rule="evenodd" clip-rule="evenodd" fill="#E9E9E9" d="M310,44h16c0.5522766,0,1,0.4477158,1,1v6
	c0,0.5522842-0.4477234,1-1,1h-16c-0.5522766,0-1-0.4477158-1-1v-6C309,44.4477158,309.4477234,44,310,44z"/>
<path fill-rule="evenodd" clip-rule="evenodd" fill="#E9E9E9" d="M310,96h16c0.5522766,0,1,0.4477158,1,1v6
	c0,0.5522842-0.4477234,1-1,1h-16c-0.5522766,0-1-0.4477158-1-1v-6C309,96.4477158,309.4477234,96,310,96z"/>
<path fill-rule="evenodd" clip-rule="evenodd" fill="#E9E9E9" d="M310,148h16c0.5522766,0,1,0.4477081,1,1v6
	c0,0.5522919-0.4477234,1-1,1h-16c-0.5522766,0-1-0.4477081-1-1v-6C309,148.4477081,309.4477234,148,310,148z"/>
<path d="M270.6083984,34h-5.8769531v-1.3916016l3.3818359-3.1894531c0.4560547-0.4326172,0.8164062-0.9238281,0.8164062-1.5351562
	c0-0.7558594-0.5527344-1.2480469-1.2832031-1.2480469c-0.7675781,0-1.2958984,0.5644531-1.4042969,1.3671875h-1.5703125
	c0.1679688-1.7744141,1.4990234-2.7099609,3.0341797-2.7099609c1.4873047,0,2.8779297,0.8154297,2.8779297,2.4941406
	c0,1.1640625-0.6835938,1.9072266-1.4394531,2.6025391l-2.3867188,2.2314453h3.8505859V34z"/>
<path d="M278.2998047,29.7421875c0,2.3388672-0.8271484,4.4853516-3.1181641,4.4853516
	c-2.3027344,0-3.1308594-2.1464844-3.1308594-4.4853516c0-2.3261719,0.828125-4.4492188,3.1308594-4.4492188
	C277.4726562,25.2929688,278.2998047,27.4160156,278.2998047,29.7421875z M273.6826172,29.7421875
	c0,1.3193359,0.2636719,3.1181641,1.4990234,3.1181641c1.2109375,0,1.4873047-1.7988281,1.4873047-3.1181641
	c0-1.2949219-0.2763672-3.1064453-1.4873047-3.1064453C273.9462891,26.6357422,273.6826172,28.4472656,273.6826172,29.7421875z"/>
<path d="M282.875,25.5087891h3.3701172c1.3066406,0,2.8183594,0.4677734,2.8183594,2.1708984
	c0,0.9355469-0.5761719,1.5830078-1.4277344,1.8349609v0.0234375c1.0195312,0.15625,1.8115234,0.8759766,1.8115234,2.0390625
	c0,1.8115234-1.6552734,2.4228516-3.4658203,2.4228516H282.875V25.5087891z M284.4335938,29.0351562h1.6435547
	c0.7910156,0,1.4267578-0.3486328,1.4267578-1.1396484c0-0.7675781-0.6230469-1.0791016-1.5830078-1.0791016h-1.4873047V29.0351562z
	 M284.4335938,32.6806641h1.6191406c0.8759766,0,1.7753906-0.2880859,1.7753906-1.2470703
	c0-0.8632812-0.6601562-1.2236328-1.7148438-1.2236328h-1.6796875V32.6806641z"/>
<path d="M290.9267578,28.2548828h1.5351562v3.0703125c0,0.8642578,0.3242188,1.5595703,1.2470703,1.5595703
	c0.9003906,0,1.34375-0.8037109,1.34375-1.7275391v-2.9023438h1.546875V34h-1.4990234v-0.8398438h-0.0361328
	c-0.2753906,0.4443359-0.9589844,0.9716797-1.7744141,0.9716797c-1.6796875,0-2.3632812-1.0195312-2.3632812-2.6748047V28.2548828z"
	/>
<path d="M302.2529297,29.9462891c-0.3720703-0.3603516-1.1396484-0.671875-1.7275391-0.671875
	c-0.515625,0-1.0791016,0.1679688-1.0791016,0.5878906s0.5878906,0.5400391,1.4150391,0.671875
	c1.2714844,0.2041016,2.375,0.5634766,2.375,1.7509766c0,1.3066406-1.2597656,1.8945312-2.5791016,1.8945312
	c-1.4267578,0-2.4580078-0.6953125-2.890625-1.0673828l0.9355469-0.9228516
	c0.5761719,0.5390625,1.3076172,0.8388672,1.9433594,0.8388672c0.5517578,0,1.1152344-0.1914062,1.1152344-0.6474609
	c0-1.1396484-3.8017578-0.3359375-3.8017578-2.4228516c0-1.2353516,1.1875-1.8583984,2.4941406-1.8583984
	c0.984375,0,2.0517578,0.3359375,2.6748047,0.9472656L302.2529297,29.9462891z"/>
<path d="M308.4335938,29.9462891c-0.3720703-0.3603516-1.1396484-0.671875-1.7275391-0.671875
	c-0.515625,0-1.0791016,0.1679688-1.0791016,0.5878906s0.5878906,0.5400391,1.4150391,0.671875
	c1.2714844,0.2041016,2.375,0.5634766,2.375,1.7509766c0,1.3066406-1.2597656,1.8945312-2.5791016,1.8945312
	c-1.4267578,0-2.4580078-0.6953125-2.890625-1.0673828l0.9355469-0.9228516
	c0.5761719,0.5390625,1.3076172,0.8388672,1.9433594,0.8388672c0.5517578,0,1.1152344-0.1914062,1.1152344-0.6474609
	c0-1.1396484-3.8017578-0.3359375-3.8017578-2.4228516c0-1.2353516,1.1875-1.8583984,2.4941406-1.8583984
	c0.984375,0,2.0517578,0.3359375,2.6748047,0.9472656L308.4335938,29.9462891z"/>
<path d="M311.8662109,31.5175781c0.1083984,0.9472656,0.7802734,1.4746094,1.6669922,1.4746094
	c0.7919922,0,1.3193359-0.4677734,1.5830078-0.7792969l1.0322266,0.671875
	c-0.4804688,0.6953125-1.5234375,1.2949219-2.7226562,1.2949219c-1.6308594,0-3.0224609-1.1152344-3.0224609-2.9257812
	c0-1.8115234,1.3310547-3.1542969,3.0703125-3.1542969c1.7509766,0,2.7705078,1.4033203,2.7705078,2.8544922
	c0,0.203125-0.0117188,0.3837891-0.0244141,0.5634766H311.8662109z M311.8662109,30.59375h3.0107422
	c0-0.7675781-0.6357422-1.3789062-1.4511719-1.3789062C312.5742188,29.2148438,311.9980469,29.8144531,311.8662109,30.59375z"/>
<path d="M323.4199219,34h-1.5351562v-3.0947266c0-0.8388672-0.3359375-1.5585938-1.2119141-1.5585938
	c-0.875,0-1.4746094,0.7314453-1.4746094,1.7509766V34h-1.5351562v-5.7451172h1.4990234v0.8759766h0.0478516
	c0.2763672-0.515625,1.0078125-1.03125,1.9433594-1.03125c1.6669922,0,2.2666016,1.2587891,2.2666016,2.6738281V34z"/>
<path d="M268.9892578,86h-1.5947266v-6.6679688l-1.5712891,1.1992188l-0.8398438-1.0800781l2.5664062-1.9423828h1.4394531V86z"/>
<path d="M278.0117188,78.8037109L274.7011719,86h-1.8222656l3.4541016-7.1240234h-4.0654297v-1.3671875h5.7441406V78.8037109z"/>
<path d="M286.1611328,86h-1.6074219v-7.0996094h-2.5546875v-1.3916016h6.7285156v1.3916016h-2.5664062V86z"/>
<path d="M288.6357422,80.2548828h1.4628906v0.8994141h0.0361328c0.2998047-0.6113281,0.9355469-1.0546875,1.6914062-1.0546875
	c0.1679688,0,0.3115234,0.0117188,0.4433594,0.0478516v1.3789062c-0.15625-0.0478516-0.4199219-0.0722656-0.5996094-0.0722656
	c-0.9951172,0-1.4990234,0.7802734-1.4990234,1.6435547V86h-1.5351562V80.2548828z"/>
<path d="M294.0107422,77.1972656c0.515625,0,0.9238281,0.4189453,0.9238281,0.9228516
	c0,0.515625-0.4082031,0.8994141-0.9238281,0.8994141c-0.5039062,0-0.9111328-0.3837891-0.9111328-0.8994141
	C293.0996094,77.6162109,293.5068359,77.1972656,294.0107422,77.1972656z M293.2431641,80.2548828h1.5351562V86h-1.5351562
	V80.2548828z"/>
<path d="M299.0136719,83.3378906l-0.8876953,0.9111328V86h-1.546875v-9.0673828h1.546875V82.59375h0.0361328l2.1347656-2.3388672
	h1.9316406l-2.0751953,2.0869141L302.3964844,86h-1.8837891L299.0136719,83.3378906z"/>
<path d="M305.7695312,83.3378906l-0.8876953,0.9111328V86h-1.546875v-9.0673828h1.546875V82.59375h0.0361328l2.1347656-2.3388672
	h1.9316406l-2.0751953,2.0869141L309.1523438,86h-1.8837891L305.7695312,83.3378906z"/>
<path d="M310.9902344,83.5175781c0.1083984,0.9472656,0.7802734,1.4746094,1.6669922,1.4746094
	c0.7919922,0,1.3193359-0.4677734,1.5830078-0.7792969l1.0322266,0.671875
	c-0.4804688,0.6953125-1.5234375,1.2949219-2.7226562,1.2949219c-1.6308594,0-3.0224609-1.1152344-3.0224609-2.9257812
	c0-1.8115234,1.3310547-3.1542969,3.0703125-3.1542969c1.7509766,0,2.7705078,1.4033203,2.7705078,2.8544922
	c0,0.203125-0.0117188,0.3837891-0.0244141,0.5634766H310.9902344z M310.9902344,82.59375h3.0107422
	c0-0.7675781-0.6357422-1.3789062-1.4511719-1.3789062C311.6982422,81.2148438,311.1220703,81.8144531,310.9902344,82.59375z"/>
<path d="M322.5439453,86h-1.5351562v-3.0947266c0-0.8388672-0.3359375-1.5585938-1.2119141-1.5585938
	c-0.875,0-1.4746094,0.7314453-1.4746094,1.7509766V86h-1.5351562v-5.7451172h1.4990234v0.8759766h0.0478516
	c0.2763672-0.515625,1.0078125-1.03125,1.9433594-1.03125c1.6669922,0,2.2666016,1.2587891,2.2666016,2.6738281V86z"/>
<path d="M268.9892578,138h-1.5947266v-6.6679688l-1.5712891,1.1992188l-0.8398438-1.0800781l2.5664062-1.9423828h1.4394531V138z"/>
<path d="M278.1923828,135.6494141c0,1.6787109-1.4277344,2.578125-3.0107422,2.578125
	c-1.6074219,0-3.0224609-0.8867188-3.0224609-2.5664062c0-1.0791016,0.6962891-1.8466797,1.5595703-2.1103516v-0.0361328
	c-0.7441406-0.2636719-1.2949219-0.9472656-1.2949219-1.859375c0-1.4990234,1.2832031-2.3623047,2.7578125-2.3623047
	c1.4628906,0,2.7460938,0.8398438,2.7460938,2.3388672c0,0.9111328-0.5273438,1.6308594-1.2949219,1.8828125v0.0234375
	C277.5205078,133.7900391,278.1923828,134.59375,278.1923828,135.6494141z M275.1816406,136.9570312
	c0.8398438,0,1.4267578-0.5761719,1.4267578-1.3916016c0-0.7792969-0.5869141-1.3789062-1.4267578-1.3789062
	c-0.8515625,0-1.4394531,0.5869141-1.4394531,1.3789062C273.7421875,136.3808594,274.3183594,136.9570312,275.1816406,136.9570312z
	 M275.1816406,132.9384766c0.6835938,0,1.2109375-0.5390625,1.2109375-1.1992188
	c0-0.6835938-0.5390625-1.1992188-1.2109375-1.1992188c-0.7070312,0-1.2226562,0.515625-1.2226562,1.1992188
	C273.9589844,132.3994141,274.4746094,132.9384766,275.1816406,132.9384766z"/>
<path d="M286.1611328,138h-1.6074219v-7.0996094h-2.5546875v-1.3916016h6.7285156v1.3916016h-2.5664062V138z"/>
<path d="M288.6357422,132.2548828h1.4628906v0.8994141h0.0361328c0.2998047-0.6113281,0.9355469-1.0546875,1.6914062-1.0546875
	c0.1679688,0,0.3115234,0.0117188,0.4433594,0.0478516v1.3789062c-0.15625-0.0478516-0.4199219-0.0722656-0.5996094-0.0722656
	c-0.9951172,0-1.4990234,0.7802734-1.4990234,1.6435547V138h-1.5351562V132.2548828z"/>
<path d="M294.0107422,129.1972656c0.515625,0,0.9238281,0.4189453,0.9238281,0.9228516
	c0,0.515625-0.4082031,0.8994141-0.9238281,0.8994141c-0.5039062,0-0.9111328-0.3837891-0.9111328-0.8994141
	C293.0996094,129.6162109,293.5068359,129.1972656,294.0107422,129.1972656z M293.2431641,132.2548828h1.5351562V138h-1.5351562
	V132.2548828z"/>
<path d="M299.0136719,135.3378906l-0.8876953,0.9111328V138h-1.546875v-9.0673828h1.546875v5.6611328h0.0361328l2.1347656-2.3388672
	h1.9316406l-2.0751953,2.0869141L302.3964844,138h-1.8837891L299.0136719,135.3378906z"/>
<path d="M305.7695312,135.3378906l-0.8876953,0.9111328V138h-1.546875v-9.0673828h1.546875v5.6611328h0.0361328l2.1347656-2.3388672
	h1.9316406l-2.0751953,2.0869141L309.1523438,138h-1.8837891L305.7695312,135.3378906z"/>
<path d="M310.9902344,135.5175781c0.1083984,0.9472656,0.7802734,1.4746094,1.6669922,1.4746094
	c0.7919922,0,1.3193359-0.4677734,1.5830078-0.7792969l1.0322266,0.671875
	c-0.4804688,0.6953125-1.5234375,1.2949219-2.7226562,1.2949219c-1.6308594,0-3.0224609-1.1152344-3.0224609-2.9257812
	c0-1.8115234,1.3310547-3.1542969,3.0703125-3.1542969c1.7509766,0,2.7705078,1.4033203,2.7705078,2.8544922
	c0,0.203125-0.0117188,0.3837891-0.0244141,0.5634766H310.9902344z M310.9902344,134.59375h3.0107422
	c0-0.7675781-0.6357422-1.3789062-1.4511719-1.3789062C311.6982422,133.2148438,311.1220703,133.8144531,310.9902344,134.59375z"/>
<path d="M322.5439453,138h-1.5351562v-3.0947266c0-0.8388672-0.3359375-1.5585938-1.2119141-1.5585938
	c-0.875,0-1.4746094,0.7314453-1.4746094,1.7509766V138h-1.5351562v-5.7451172h1.4990234v0.8759766h0.0478516
	c0.2763672-0.515625,1.0078125-1.03125,1.9433594-1.03125c1.6669922,0,2.2666016,1.2587891,2.2666016,2.6738281V138z"/>
<path fill-rule="evenodd" clip-rule="evenodd" fill="#C5044E" d="M241.6562042,28.7894897
	c0-0.198,0.1579895-0.3579998,0.3499908-0.3579998h0.701004c0.1930084,0,0.3480072,0.1599998,0.3480072,0.3579998v1.4319992
	c0,0.1970024-0.1549988,0.3580017-0.3480072,0.3580017h-0.701004c-0.1920013,0-0.3499908-0.1609993-0.3499908-0.3580017V28.7894897z
	 M243.7561951,28.7894897c0-0.198,0.1569977-0.3579998,0.3500061-0.3579998h2.8000031
	c0.1929932,0,0.3509979,0.1599998,0.3509979,0.3579998v1.4319992c0,0.1970024-0.1580048,0.3580017-0.3509979,0.3580017h-2.8000031
	c-0.1930084,0-0.3500061-0.1609993-0.3500061-0.3580017V28.7894897z M247.9562073,28.7894897
	c0-0.198,0.1569977-0.3579998,0.3499908-0.3579998h2.8000031c0.1929932,0,0.3500061,0.1599998,0.3500061,0.3579998v1.4319992
	c0,0.1970024-0.1570129,0.3580017-0.3500061,0.3580017h-2.8000031c-0.1929932,0-0.3499908-0.1609993-0.3499908-0.3580017V28.7894897
	z M252.1562042,28.7894897c0-0.198,0.1579895-0.3579998,0.3499908-0.3579998h1.0870056
	c0.177002,0,0.3249969,0.1329994,0.345993,0.3120003l0.1860046,1.4309998
	c0.0130005,0.1029987-0.0180054,0.2049999-0.0849915,0.282999c-0.0660095,0.078001-0.1620026,0.1220016-0.2620087,0.1220016
	h-1.2720032c-0.1920013,0-0.3499908-0.1609993-0.3499908-0.3580017V28.7894897z M244.550293,32.7997894c0.552002,0,1,0.4490013,1,1
	c0,0.552002-0.447998,1-1,1c-0.5519867,0-1-0.447998-1-1C243.550293,33.2487907,243.9983063,32.7997894,244.550293,32.7997894z
	 M251.5,32.7997894c0.552002,0,1,0.4490013,1,1c0,0.552002-0.447998,1-1,1s-1-0.447998-1-1
	C250.5,33.2487907,250.947998,32.7997894,251.5,32.7997894z M253.9501953,26.9994888
	c0.1719971,0,0.3160095,0.1270008,0.3460083,0.2990017l0,0l0.6989899,4.2959995
	c0.003006,0.0200005,0.0050049,0.0389996,0.0050049,0.059l0,0v0.9880009c0,0.1969986-0.1569977,0.3579979-0.3499908,0.3579979l0,0
	h-1.4470062c-0.2360077-0.7179985-0.9060059-1.1999989-1.7030029-1.1999989c-0.7980042,0-1.4680023,0.4820004-1.7030029,1.1999989
	l0,0h-3.5439911c-0.2360077-0.7179985-0.9049988-1.1999989-1.7030029-1.1999989
	c-0.7969971,0-1.4669952,0.4820004-1.7030029,1.1999989l0,0h-1.5469971c-0.1719971,0-0.3000031-0.1790009-0.3000031-0.3579979l0,0
	v-4.9250011c0-0.3589993,0.348999-0.717001,0.6999969-0.717001l0,0H253.9501953z"/>
<path fill-rule="evenodd" clip-rule="evenodd" fill="#78469A" d="M253.8330078,82.4020004
	c-0.0670013,0.0830002-0.1670074,0.1309967-0.2720032,0.1309967h-1.4020081h-0.348999
	c-0.1940002,0-0.3509979-0.1559982-0.3509979-0.3499985v-1.401001c0-0.1930008,0.1569977-0.3499985,0.3509979-0.3499985h0.348999
	h0.9260101h0.1660004c0.1649933,0,0.3059998,0.1139984,0.3419952,0.2750015l0.3090057,1.4000015
	C253.9250031,82.2109985,253.8999939,82.3199997,253.8330078,82.4020004L253.8330078,82.4020004z M250.7599945,82.1819992
	c0,0.1940002-0.1569977,0.3499985-0.3499908,0.3499985h-2.1000061c-0.1940002,0-0.3509979-0.1559982-0.3509979-0.3499985v-1.4000015
	c0-0.1930008,0.1569977-0.3499985,0.3509979-0.3499985h2.1000061c0.1929932,0,0.3499908,0.1569977,0.3499908,0.3499985V82.1819992z
	 M247.25,82.1819992c0,0.1940002-0.1580048,0.3499985-0.3509979,0.3499985h-2.1000061
	c-0.1940002,0-0.3499908-0.1559982-0.3499908-0.3499985v-1.4000015c0-0.1930008,0.1559906-0.3499985,0.3499908-0.3499985h2.1000061
	c0.1929932,0,0.3509979,0.1569977,0.3509979,0.3499985V82.1819992z M243.75,82.1819992
	c0,0.1949997-0.1569977,0.3509979-0.3500061,0.3509979h-0.3649902h-0.0010071h-0.6839905
	c-0.1060028,0-0.2070007-0.0479965-0.2730103-0.1309967c-0.0670013-0.0820007-0.0919952-0.1910019-0.0690002-0.2949982
	l0.3090057-1.4000015c0.0350037-0.1610031,0.1779938-0.2750015,0.3419952-0.2750015h0.5279999h0.2129974
	c0.1930084,0,0.3500061,0.1569977,0.3500061,0.3499985V82.1819992z M254,86.0002975v1h-12v-1H254z M248.3679962,76.4000015
	l1.4940033,1.1790009c0.0809937,0.0599976,0.1419983,0.151001,0.1419983,0.276001
	c0,0.121994-0.048996,0.1800003-0.1499939,0.2549973l0,0L248.5659943,79h5.1549988
	c0.1630096,0,0.3050079,0.112999,0.3410034,0.2730026l0,0l0.9290009,4.1079941
	c0.0250092,0.1220016-0.0019989,0.2490005-0.0740051,0.3510056l0,0l-0.8119965,1.1229935
	C254.0390015,84.9449997,253.9340057,85,253.8209991,85l0,0h-11.6419983c-0.1130066,0-0.2180023-0.0550003-0.2839966-0.1450043l0,0
	l-0.8120117-1.1229935c-0.071991-0.102005-0.098999-0.2290039-0.0739899-0.3510056l0,0l0.9290009-4.1079941
	C241.973999,79.112999,242.1159973,79,242.279007,79l0,0h5.1269989l1.6989899-1.1660004l-1.7009888-1.4339981H248.3679962z"/>
<path fill-rule="evenodd" clip-rule="evenodd" fill="#78469A" d="M253.8330078,134.4020081
	c-0.0670013,0.0829926-0.1670074,0.1309967-0.2720032,0.1309967h-1.4020081h-0.348999
	c-0.1940002,0-0.3509979-0.1560059-0.3509979-0.3500061v-1.401001c0-0.1929932,0.1569977-0.3499908,0.3509979-0.3499908h0.348999
	h0.9260101h0.1660004c0.1649933,0,0.3059998,0.1139984,0.3419952,0.2749939l0.3090057,1.3999939
	C253.9250031,134.2109985,253.8999939,134.3200073,253.8330078,134.4020081L253.8330078,134.4020081z M250.7599945,134.1820068
	c0,0.1940002-0.1569977,0.3499908-0.3499908,0.3499908h-2.1000061c-0.1940002,0-0.3509979-0.1559906-0.3509979-0.3499908v-1.4000092
	c0-0.1929932,0.1569977-0.3499908,0.3509979-0.3499908h2.1000061c0.1929932,0,0.3499908,0.1569977,0.3499908,0.3499908V134.1820068z
	 M247.25,134.1820068c0,0.1940002-0.1580048,0.3499908-0.3509979,0.3499908h-2.1000061
	c-0.1940002,0-0.3499908-0.1559906-0.3499908-0.3499908v-1.4000092c0-0.1929932,0.1559906-0.3499908,0.3499908-0.3499908h2.1000061
	c0.1929932,0,0.3509979,0.1569977,0.3509979,0.3499908V134.1820068z M243.75,134.1820068
	c0,0.1949921-0.1569977,0.3509979-0.3500061,0.3509979h-0.3649902h-0.0010071h-0.6839905
	c-0.1060028,0-0.2070007-0.0480042-0.2730103-0.1309967c-0.0670013-0.0820007-0.0919952-0.1910095-0.0690002-0.2950134
	l0.3090057-1.3999939c0.0350037-0.1609955,0.1779938-0.2749939,0.3419952-0.2749939h0.5279999h0.2129974
	c0.1930084,0,0.3500061,0.1569977,0.3500061,0.3499908V134.1820068z M254,138.0003052v1h-12v-1H254z M248.3679962,128.3999939
	l1.4940033,1.1790009c0.0809937,0.0600128,0.1419983,0.151001,0.1419983,0.276001
	c0,0.1220093-0.048996,0.1800079-0.1499939,0.2550049l0,0L248.5659943,131h5.1549988
	c0.1630096,0,0.3050079,0.1130066,0.3410034,0.272995l0,0l0.9290009,4.1080017
	c0.0250092,0.1220093-0.0019989,0.2490082-0.0740051,0.3509979l0,0l-0.8119965,1.1230011
	C254.0390015,136.9450073,253.9340057,137,253.8209991,137l0,0h-11.6419983c-0.1130066,0-0.2180023-0.0549927-0.2839966-0.1450043
	l0,0l-0.8120117-1.1230011c-0.071991-0.1019897-0.098999-0.2289886-0.0739899-0.3509979l0,0l0.9290009-4.1080017
	C241.973999,131.1130066,242.1159973,131,242.279007,131l0,0h5.1269989l1.6989899-1.1660004l-1.7009888-1.4340057H248.3679962z"/>
</svg>
