<svg width="344" height="212" viewBox="0 0 344 212" fill="none" xmlns="http://www.w3.org/2000/svg">
<rect x="344" y="212" width="344" height="212" rx="2" transform="rotate(-180 344 212)" fill="#181C56"/>
<rect x="139" y="102" width="94" height="64" rx="2" transform="rotate(-90 139 102)" fill="#292B6A"/>
<rect x="175" y="94" width="18" height="8" rx="1" transform="rotate(-90 175 94)" fill="#54568C"/>
<rect x="175" y="71" width="18" height="8" rx="1" transform="rotate(-90 175 71)" fill="#54568C"/>
<rect x="175" y="48" width="18" height="8" rx="1" transform="rotate(-90 175 48)" fill="#54568C"/>
<path d="M156.504 63.772L156.504 68.644L160.572 68.788L160.944 68.008C160.848 67.612 160.776 67.192 160.776 66.844C160.776 65.884 161.244 64.972 162.348 64.972C163.284 64.972 163.884 65.656 163.884 66.508C163.884 67.204 163.428 67.816 162.756 68.02L162.756 69.628C164.496 69.22 165.228 67.9 165.228 66.484C165.228 64.804 164.172 63.376 162.252 63.376C160.548 63.376 159.564 64.66 159.564 66.328C159.564 66.628 159.612 67.012 159.696 67.3L157.872 67.24L157.872 63.772L156.504 63.772ZM156.504 56.7269L156.504 58.6589L161.82 62.1749L163.2 62.1749L163.2 58.2149L165 58.2149L165 56.7269L163.2 56.7269L163.2 55.5269L161.892 55.5269L161.892 56.7269L156.504 56.7269ZM161.892 58.2149L161.892 60.6149L158.16 58.2389L158.16 58.2149L161.892 58.2149ZM165 51.1217L165 48.0137C165 46.2017 164.388 44.5457 162.576 44.5457C161.412 44.5457 160.692 45.3377 160.536 46.3577L160.512 46.3577C160.26 45.5057 159.612 44.9297 158.676 44.9297C156.972 44.9297 156.504 46.4417 156.504 47.7497L156.504 51.1217L165 51.1217ZM157.812 49.5617L157.812 48.0737C157.812 47.1137 158.124 46.4897 158.892 46.4897C159.684 46.4897 160.032 47.1257 160.032 47.9177L160.032 49.5617L157.812 49.5617ZM161.208 49.5617L161.208 47.8817C161.208 46.8257 161.568 46.1657 162.432 46.1657C163.392 46.1657 163.68 47.0657 163.68 47.9417L163.68 49.5617L161.208 49.5617ZM162.456 43.0735C164.112 43.0735 165.132 42.3895 165.132 40.7095C165.132 39.8935 164.604 39.2095 164.16 38.9335L164.16 38.8975L165 38.8975L165 37.3975L159.252 37.3975L159.252 38.9455L162.156 38.9455C163.08 38.9455 163.884 39.3895 163.884 40.2895C163.884 41.2135 163.188 41.5375 162.324 41.5375L159.252 41.5375L159.252 43.0735L162.456 43.0735ZM160.044 30.8678C159.432 31.4918 159.096 32.5598 159.096 33.5438C159.096 34.8518 159.72 36.0398 160.956 36.0398C163.044 36.0398 162.24 32.2358 163.38 32.2358C163.836 32.2358 164.028 32.7998 164.028 33.3518C164.028 33.9878 163.728 34.7198 163.188 35.2958L164.112 36.2318C164.484 35.7998 165.18 34.7678 165.18 33.3398C165.18 32.0198 164.592 30.7598 163.284 30.7598C162.096 30.7598 161.736 31.8638 161.532 33.1358C161.4 33.9638 161.28 34.5518 160.86 34.5518C160.44 34.5518 160.272 33.9878 160.272 33.4718C160.272 32.8838 160.584 32.1158 160.944 31.7438L160.044 30.8678ZM160.044 24.692C159.432 25.316 159.096 26.384 159.096 27.368C159.096 28.676 159.72 29.864 160.956 29.864C163.044 29.864 162.24 26.06 163.38 26.06C163.836 26.06 164.028 26.624 164.028 27.176C164.028 27.812 163.728 28.544 163.188 29.12L164.112 30.056C164.484 29.624 165.18 28.592 165.18 27.164C165.18 25.844 164.592 24.584 163.284 24.584C162.096 24.584 161.736 25.688 161.532 26.96C161.4 27.788 161.28 28.376 160.86 28.376C160.44 28.376 160.272 27.812 160.272 27.296C160.272 26.708 160.584 25.94 160.944 25.568L160.044 24.692Z" fill="white"/>
<path fill-rule="evenodd" clip-rule="evenodd" d="M159.789 92.3438C159.591 92.3438 159.431 92.1858 159.431 91.9938L159.431 91.2928C159.431 91.0998 159.591 90.9448 159.789 90.9448L161.221 90.9448C161.418 90.9448 161.579 91.0998 161.579 91.2928L161.579 91.9938C161.579 92.1858 161.418 92.3438 161.221 92.3438L159.789 92.3438ZM159.789 90.2438C159.591 90.2438 159.431 90.0868 159.431 89.8938L159.431 87.0938C159.431 86.9008 159.591 86.7428 159.789 86.7428L161.221 86.7428C161.418 86.7428 161.579 86.9008 161.579 87.0938L161.579 89.8938C161.579 90.0868 161.418 90.2438 161.221 90.2438L159.789 90.2438ZM159.789 86.0438C159.591 86.0438 159.431 85.8868 159.431 85.6938L159.431 82.8938C159.431 82.7008 159.591 82.5438 159.789 82.5438L161.221 82.5438C161.418 82.5438 161.579 82.7008 161.579 82.8938L161.579 85.6938C161.579 85.8868 161.418 86.0438 161.221 86.0438L159.789 86.0438ZM159.789 81.8438C159.591 81.8438 159.431 81.6858 159.431 81.4938L159.431 80.4068C159.431 80.2298 159.564 80.0818 159.743 80.0608L161.174 79.8748C161.277 79.8618 161.379 79.8928 161.457 79.9598C161.535 80.0258 161.579 80.1218 161.579 80.2218L161.579 81.4938C161.579 81.6858 161.418 81.8438 161.221 81.8438L159.789 81.8438ZM162.594 79.0048L158.298 79.7038C158.126 79.7338 157.999 79.8778 157.999 80.0498L157.999 92.2998C157.999 92.6508 158.357 92.9998 158.716 92.9998L162.57 92.9998L162.813 92.9998L163.641 92.9998C163.82 92.9998 163.999 92.8718 163.999 92.6998L163.999 91.1528C163.281 90.9168 162.799 90.2468 162.799 89.4498C162.799 88.6518 163.281 87.9828 163.999 87.7468L163.999 84.2028C163.281 83.9678 162.799 83.2978 162.799 82.4998C162.799 81.7028 163.281 81.0328 163.999 80.7968L163.999 79.3498C163.999 79.1568 163.838 78.9998 163.641 78.9998L162.813 78.9998L162.653 78.9998C162.633 78.9998 162.614 79.0018 162.594 79.0048ZM164.799 90.4497C164.248 90.4497 163.799 90.0017 163.799 89.4497C163.799 88.8977 164.248 88.4497 164.799 88.4497C165.351 88.4497 165.799 88.8977 165.799 89.4497C165.799 90.0017 165.351 90.4497 164.799 90.4497ZM163.799 82.5C163.799 83.052 164.248 83.5 164.799 83.5C165.351 83.5 165.799 83.052 165.799 82.5C165.799 81.948 165.351 81.5 164.799 81.5C164.248 81.5 163.799 81.948 163.799 82.5Z" fill="#C5044E"/>
<rect x="7" y="102" width="94" height="124" rx="2" transform="rotate(-90 7 102)" fill="#292B6A"/>
<rect x="43" y="94" width="18" height="8" rx="1" transform="rotate(-90 43 94)" fill="#54568C"/>
<rect x="95" y="94" width="18" height="8" rx="1" transform="rotate(-90 95 94)" fill="#54568C"/>
<rect x="43" y="71" width="18" height="8" rx="1" transform="rotate(-90 43 71)" fill="#54568C"/>
<rect x="95" y="71" width="18" height="8" rx="1" transform="rotate(-90 95 71)" fill="#54568C"/>
<rect x="43" y="48" width="18" height="8" rx="1" transform="rotate(-90 43 48)" fill="#54568C"/>
<rect x="95" y="48" width="18" height="8" rx="1" transform="rotate(-90 95 48)" fill="#54568C"/>
<path d="M33 69.028L33 65.92C33 64.108 32.388 62.452 30.576 62.452C29.412 62.452 28.692 63.244 28.536 64.264L28.512 64.264C28.26 63.412 27.612 62.836 26.676 62.836C24.972 62.836 24.504 64.348 24.504 65.656L24.504 69.028L33 69.028ZM25.812 67.468L25.812 65.98C25.812 65.02 26.124 64.396 26.892 64.396C27.684 64.396 28.032 65.032 28.032 65.824L28.032 67.468L25.812 67.468ZM29.208 67.468L29.208 65.788C29.208 64.732 29.568 64.072 30.432 64.072C31.392 64.072 31.68 64.972 31.68 65.848L31.68 67.468L29.208 67.468ZM31.62 55.2317L31.62 59.0837L29.388 56.6957C28.692 55.9397 27.948 55.2557 26.784 55.2557C25.104 55.2557 24.288 56.6477 24.288 58.1357C24.288 59.6717 25.224 61.0037 27 61.1717L27 59.5997C26.196 59.4917 25.632 58.9637 25.632 58.1957C25.632 57.4637 26.124 56.9117 26.88 56.9117C27.492 56.9117 27.984 57.2717 28.416 57.7277L31.608 61.1117L33 61.1117L33 55.2317L31.62 55.2317ZM33 50.4186L33 47.3106C33 45.4986 32.388 43.8426 30.576 43.8426C29.412 43.8426 28.692 44.6346 28.536 45.6546L28.512 45.6546C28.26 44.8026 27.612 44.2266 26.676 44.2266C24.972 44.2266 24.504 45.7386 24.504 47.0466L24.504 50.4186L33 50.4186ZM25.812 48.8586L25.812 47.3706C25.812 46.4106 26.124 45.7866 26.892 45.7866C27.684 45.7866 28.032 46.4226 28.032 47.2146L28.032 48.8586L25.812 48.8586ZM29.208 48.8586L29.208 47.1786C29.208 46.1226 29.568 45.4626 30.432 45.4626C31.392 45.4626 31.68 46.3626 31.68 47.2386L31.68 48.8586L29.208 48.8586ZM30.864 38.8183C31.668 38.8183 32.112 39.5263 32.112 40.2703C32.112 40.8823 31.848 41.2903 31.308 41.2903C30.768 41.2903 30.384 40.9423 30.384 40.1143C30.384 39.6703 30.468 39.2143 30.564 38.8183L30.864 38.8183ZM31.344 42.7423C32.628 42.7423 33.156 41.7103 33.156 40.6423C33.156 39.9103 32.868 39.2023 32.304 38.8543L32.304 38.8183L33 38.8183L33 37.3903L29.556 37.3903C27.816 37.3903 27.096 38.1943 27.096 40.0063C27.096 41.1343 27.384 41.9143 27.972 42.5263L28.872 41.6863C28.5 41.3143 28.26 40.7863 28.26 40.1143C28.26 39.1903 28.644 38.8183 29.376 38.8183L29.628 38.8183C29.52 39.3223 29.472 39.7783 29.472 40.2463C29.472 41.9143 30.228 42.7423 31.344 42.7423ZM25.092 38.6263C24.396 38.6263 23.868 39.1903 23.868 39.8743C23.868 40.5703 24.396 41.1223 25.104 41.1223C25.8 41.1223 26.328 40.5583 26.328 39.8743C26.328 39.1903 25.8 38.6263 25.092 38.6263ZM25.092 39.2503C25.44 39.2503 25.704 39.5263 25.704 39.8743C25.704 40.2223 25.44 40.4983 25.092 40.4983C24.756 40.4983 24.492 40.2223 24.492 39.8743C24.492 39.5263 24.756 39.2503 25.092 39.2503ZM31.8 32.5933L31.8 33.0253C31.8 33.5773 31.74 34.0453 30.732 34.0453L28.44 34.0453L28.44 32.5813L27.252 32.5813L27.252 34.0453L25.74 34.0453L25.74 35.5453L27.252 35.5453L27.252 36.4573L28.44 36.4573L28.44 35.5453L30.696 35.5453C32.652 35.5453 33 35.0893 33 33.2893L33 32.5933L31.8 32.5933ZM30.516 26.0225C30.336 26.0105 30.156 25.9985 29.952 25.9985C28.5 25.9985 27.096 27.0185 27.096 28.7705C27.096 30.5105 28.44 31.8425 30.252 31.8425C32.064 31.8425 33.18 30.4505 33.18 28.8185C33.18 27.6185 32.58 26.5745 31.884 26.0945L31.212 27.1265C31.524 27.3905 31.992 27.9185 31.992 28.7105C31.992 29.5985 31.464 30.2705 30.516 30.3785L30.516 26.0225ZM28.212 28.8185C28.212 28.0025 28.824 27.3665 29.592 27.3665L29.592 30.3785C28.812 30.2465 28.212 29.6705 28.212 28.8185ZM29.772 18.8207C28.356 18.8207 27.096 19.4207 27.096 21.0887C27.096 22.0247 27.612 22.7567 28.128 23.0327L28.128 23.0807L27.252 23.0807L27.252 24.5807L33 24.5807L33 23.0447L30.096 23.0447C29.076 23.0447 28.344 22.4447 28.344 21.5687C28.344 20.6927 29.064 20.3567 29.904 20.3567L33 20.3567L33 18.8207L29.772 18.8207Z" fill="white"/>
<path d="M85 69.028L85 65.92C85 64.108 84.388 62.452 82.576 62.452C81.412 62.452 80.692 63.244 80.536 64.264L80.512 64.264C80.26 63.412 79.612 62.836 78.676 62.836C76.972 62.836 76.504 64.348 76.504 65.656L76.504 69.028L85 69.028ZM77.812 67.468L77.812 65.98C77.812 65.02 78.124 64.396 78.892 64.396C79.684 64.396 80.032 65.032 80.032 65.824L80.032 67.468L77.812 67.468ZM81.208 67.468L81.208 65.788C81.208 64.732 81.568 64.072 82.432 64.072C83.392 64.072 83.68 64.972 83.68 65.848L83.68 67.468L81.208 67.468ZM83.62 55.2317L83.62 59.0837L81.388 56.6957C80.692 55.9397 79.948 55.2557 78.784 55.2557C77.104 55.2557 76.288 56.6477 76.288 58.1357C76.288 59.6717 77.224 61.0037 79 61.1717L79 59.5997C78.196 59.4917 77.632 58.9637 77.632 58.1957C77.632 57.4637 78.124 56.9117 78.88 56.9117C79.492 56.9117 79.984 57.2717 80.416 57.7277L83.608 61.1117L85 61.1117L85 55.2317L83.62 55.2317ZM85 50.4186L85 47.3106C85 45.4986 84.388 43.8426 82.576 43.8426C81.412 43.8426 80.692 44.6346 80.536 45.6546L80.512 45.6546C80.26 44.8026 79.612 44.2266 78.676 44.2266C76.972 44.2266 76.504 45.7386 76.504 47.0466L76.504 50.4186L85 50.4186ZM77.812 48.8586L77.812 47.3706C77.812 46.4106 78.124 45.7866 78.892 45.7866C79.684 45.7866 80.032 46.4226 80.032 47.2146L80.032 48.8586L77.812 48.8586ZM81.208 48.8586L81.208 47.1786C81.208 46.1226 81.568 45.4626 82.432 45.4626C83.392 45.4626 83.68 46.3626 83.68 47.2386L83.68 48.8586L81.208 48.8586ZM82.864 38.8184C83.668 38.8184 84.112 39.5264 84.112 40.2704C84.112 40.8824 83.848 41.2904 83.308 41.2904C82.768 41.2904 82.384 40.9424 82.384 40.1144C82.384 39.6704 82.468 39.2144 82.564 38.8184L82.864 38.8184ZM83.344 42.7424C84.628 42.7424 85.156 41.7104 85.156 40.6424C85.156 39.9104 84.868 39.2024 84.304 38.8544L84.304 38.8184L85 38.8184L85 37.3904L81.556 37.3904C79.816 37.3904 79.096 38.1944 79.096 40.0064C79.096 41.1344 79.384 41.9144 79.972 42.5264L80.872 41.6864C80.5 41.3144 80.26 40.7864 80.26 40.1144C80.26 39.1904 80.644 38.8184 81.376 38.8184L81.628 38.8184C81.52 39.3224 81.472 39.7784 81.472 40.2464C81.472 41.9144 82.228 42.7424 83.344 42.7424ZM77.092 38.6264C76.396 38.6264 75.868 39.1904 75.868 39.8744C75.868 40.5704 76.396 41.1224 77.104 41.1224C77.8 41.1224 78.328 40.5584 78.328 39.8744C78.328 39.1904 77.8 38.6264 77.092 38.6264ZM77.092 39.2504C77.44 39.2504 77.704 39.5264 77.704 39.8744C77.704 40.2224 77.44 40.4984 77.092 40.4984C76.756 40.4984 76.492 40.2224 76.492 39.8744C76.492 39.5264 76.756 39.2504 77.092 39.2504ZM83.8 32.5933L83.8 33.0253C83.8 33.5773 83.74 34.0453 82.732 34.0453L80.44 34.0453L80.44 32.5813L79.252 32.5813L79.252 34.0453L77.74 34.0453L77.74 35.5453L79.252 35.5453L79.252 36.4573L80.44 36.4573L80.44 35.5453L82.696 35.5453C84.652 35.5453 85 35.0893 85 33.2893L85 32.5933L83.8 32.5933ZM82.516 26.0225C82.336 26.0105 82.156 25.9985 81.952 25.9985C80.5 25.9985 79.096 27.0185 79.096 28.7705C79.096 30.5105 80.44 31.8425 82.252 31.8425C84.064 31.8425 85.18 30.4505 85.18 28.8185C85.18 27.6185 84.58 26.5745 83.884 26.0945L83.212 27.1265C83.524 27.3905 83.992 27.9185 83.992 28.7105C83.992 29.5985 83.464 30.2705 82.516 30.3785L82.516 26.0225ZM80.212 28.8185C80.212 28.0025 80.824 27.3665 81.592 27.3665L81.592 30.3785C80.812 30.2465 80.212 29.6705 80.212 28.8185ZM81.772 18.8207C80.356 18.8207 79.096 19.4207 79.096 21.0887C79.096 22.0247 79.612 22.7567 80.128 23.0327L80.128 23.0807L79.252 23.0807L79.252 24.5807L85 24.5807L85 23.0447L82.096 23.0447C81.076 23.0447 80.344 22.4447 80.344 21.5687C80.344 20.6927 81.064 20.3567 81.904 20.3567L85 20.3567L85 18.8207L81.772 18.8207Z" fill="white"/>
<path fill-rule="evenodd" clip-rule="evenodd" d="M28.4593 83.7976L28.4583 81.8646C28.4583 81.7556 28.3943 81.6536 28.2293 81.7066L27.4493 81.8996C27.3373 81.9266 27.2583 82.0286 27.2583 82.1436L27.2583 83.7976C27.2583 83.9086 27.3483 83.9996 27.4593 83.9996L28.2583 83.9996C28.3693 83.9996 28.4593 83.9086 28.4593 83.7976ZM28.4583 84.6026C28.4583 84.4906 28.3673 84.3986 28.2543 84.3986L27.4613 84.3986C27.3493 84.3986 27.2583 84.4906 27.2583 84.6026L27.2583 85.9956C27.2583 86.1076 27.3493 86.1996 27.4613 86.1996L28.2543 86.1996C28.3673 86.1996 28.4583 86.1076 28.4583 85.9956L28.4583 84.6026ZM28.4583 86.8026C28.4583 86.6926 28.3683 86.6026 28.2583 86.6026L27.4583 86.6026C27.3473 86.6026 27.2583 86.6926 27.2583 86.8026L27.2583 88.2526C27.2583 88.3486 27.3123 88.4376 27.3993 88.4806L28.1793 88.8616C28.3603 88.9646 28.4583 88.8526 28.4583 88.7286L28.4583 86.8026ZM28.4583 79.9126L28.4583 79.2506C28.4583 79.0606 28.6613 78.9406 28.8273 79.0316L31.7903 80.6416L31.7845 80.6522C31.5689 81.0474 31.2693 81.5966 31.2693 82.4866C31.2693 83.1864 31.4525 83.5364 31.6357 83.8865C31.819 84.2367 32.0023 84.5869 32.0023 85.2876C32.0023 85.9868 31.8192 86.3366 31.636 86.6864C31.4527 87.0366 31.2693 87.3868 31.2693 88.0876C31.2693 88.7869 31.4525 89.1367 31.6357 89.4865C31.819 89.8364 32.0023 90.1864 32.0023 90.8866C32.0023 91.5046 31.8593 91.8486 31.7003 92.1626L28.6533 90.6666C28.5343 90.6076 28.4583 90.4856 28.4583 90.3526L28.4583 90.2496L28.4583 90.0136L28.4583 89.6846C28.4583 89.6636 28.4443 89.6446 28.4243 89.6376L26.1993 88.5396C26.0793 88.4796 26.0023 88.3566 26.0023 88.2216L26.0023 86.4436L26.0023 84.8306C26.0023 84.8096 25.9883 84.7846 25.9483 84.7846L25.4853 84.7846C25.3153 84.7846 25.1593 84.6896 25.0833 84.5406L24.3773 83.3276C24.2773 83.1246 24.3893 82.9836 24.5753 82.9106L25.3993 82.5696C25.4203 82.5626 25.4333 82.5446 25.4343 82.5236L25.4343 81.9686C25.4343 81.8196 25.5313 81.6866 25.6763 81.6386L28.4213 80.7316C28.4433 80.7246 28.4583 80.7046 28.4583 80.6816L28.4583 80.1426L28.4583 79.9126ZM33.5775 86.8954C33.7764 86.5165 34.0022 86.0865 34.0022 85.264C34.0022 84.4414 33.7764 84.0114 33.5775 83.6326L33.5772 83.632C33.4042 83.302 33.2682 83.041 33.2682 82.464C33.2682 82.052 33.3372 81.801 33.4402 81.571L32.5602 81.092C32.4052 81.418 32.2682 81.822 32.2682 82.464C32.2682 83.287 32.4932 83.718 32.6922 84.097L32.6925 84.0975C32.8653 84.4273 33.0022 84.6883 33.0022 85.264C33.0022 85.8396 32.8653 86.1007 32.6925 86.4304L32.6922 86.431C32.4932 86.81 32.2682 87.241 32.2682 88.064C32.2682 88.887 32.4932 89.317 32.6922 89.697L32.6934 89.6992C32.8658 90.0282 33.0022 90.2883 33.0022 90.865C33.0022 91.6048 32.5672 92.3018 32.5333 92.3561L32.5322 92.358L32.4242 92.554L33.3172 93L33.3892 92.871C33.4142 92.833 34.0022 91.916 34.0022 90.865C34.0022 90.0435 33.7776 89.6146 33.579 89.2355L33.5772 89.232C33.4042 88.902 33.2682 88.641 33.2682 88.064C33.2682 87.487 33.4042 87.226 33.5772 86.896L33.5775 86.8954Z" fill="#0497BC"/>
<path fill-rule="evenodd" clip-rule="evenodd" d="M80.4593 83.7976L80.4583 81.8646C80.4583 81.7556 80.3943 81.6536 80.2293 81.7066L79.4493 81.8996C79.3373 81.9266 79.2583 82.0286 79.2583 82.1436L79.2583 83.7976C79.2583 83.9086 79.3483 83.9996 79.4593 83.9996L80.2583 83.9996C80.3693 83.9996 80.4593 83.9086 80.4593 83.7976ZM80.4583 84.6026C80.4583 84.4906 80.3673 84.3986 80.2543 84.3986L79.4613 84.3986C79.3493 84.3986 79.2583 84.4906 79.2583 84.6026L79.2583 85.9956C79.2583 86.1076 79.3493 86.1996 79.4613 86.1996L80.2543 86.1996C80.3673 86.1996 80.4583 86.1076 80.4583 85.9956L80.4583 84.6026ZM80.4583 86.8026C80.4583 86.6926 80.3683 86.6026 80.2583 86.6026L79.4583 86.6026C79.3473 86.6026 79.2583 86.6926 79.2583 86.8026L79.2583 88.2526C79.2583 88.3486 79.3123 88.4376 79.3993 88.4806L80.1793 88.8616C80.3603 88.9646 80.4583 88.8526 80.4583 88.7286L80.4583 86.8026ZM80.4583 79.9126L80.4583 79.2506C80.4583 79.0606 80.6613 78.9406 80.8273 79.0316L83.7903 80.6416L83.7845 80.6522C83.5689 81.0474 83.2693 81.5966 83.2693 82.4866C83.2693 83.1865 83.4525 83.5365 83.6357 83.8865C83.819 84.2367 84.0023 84.587 84.0023 85.2876C84.0023 85.9868 83.8192 86.3366 83.636 86.6865C83.4527 87.0366 83.2693 87.3868 83.2693 88.0876C83.2693 88.787 83.4525 89.1367 83.6357 89.4865C83.819 89.8365 84.0023 90.1865 84.0023 90.8866C84.0023 91.5046 83.8593 91.8486 83.7003 92.1626L80.6533 90.6666C80.5343 90.6076 80.4583 90.4856 80.4583 90.3526L80.4583 90.2496L80.4583 90.0136L80.4583 89.6846C80.4583 89.6636 80.4443 89.6446 80.4243 89.6376L78.1993 88.5396C78.0793 88.4796 78.0023 88.3566 78.0023 88.2216L78.0023 86.4436L78.0023 84.8306C78.0023 84.8096 77.9883 84.7846 77.9483 84.7846L77.4853 84.7846C77.3153 84.7846 77.1593 84.6896 77.0833 84.5406L76.3773 83.3276C76.2773 83.1246 76.3893 82.9836 76.5753 82.9106L77.3993 82.5696C77.4203 82.5626 77.4333 82.5446 77.4343 82.5236L77.4343 81.9686C77.4343 81.8196 77.5313 81.6866 77.6763 81.6386L80.4213 80.7316C80.4433 80.7246 80.4583 80.7046 80.4583 80.6816L80.4583 80.1426L80.4583 79.9126ZM85.5775 86.8954C85.7764 86.5165 86.0022 86.0866 86.0022 85.264C86.0022 84.4414 85.7764 84.0114 85.5775 83.6326L85.5772 83.632C85.4042 83.302 85.2682 83.041 85.2682 82.464C85.2682 82.052 85.3372 81.801 85.4402 81.571L84.5602 81.092C84.4052 81.418 84.2682 81.822 84.2682 82.464C84.2682 83.287 84.4932 83.718 84.6922 84.097L84.6925 84.0976C84.8653 84.4273 85.0022 84.6883 85.0022 85.264C85.0022 85.8397 84.8653 86.1007 84.6925 86.4304L84.6922 86.431C84.4932 86.81 84.2682 87.241 84.2682 88.064C84.2682 88.887 84.4932 89.317 84.6922 89.697L84.6934 89.6993C84.8658 90.0282 85.0022 90.2883 85.0022 90.865C85.0022 91.6048 84.5672 92.3018 84.5333 92.3561L84.5322 92.358L84.4242 92.554L85.3172 93L85.3892 92.871C85.4142 92.833 86.0022 91.916 86.0022 90.865C86.0022 90.0435 85.7776 89.6146 85.579 89.2355L85.5772 89.232C85.4042 88.902 85.2682 88.641 85.2682 88.064C85.2682 87.487 85.4042 87.226 85.5772 86.896L85.5775 86.8954Z" fill="#0497BC"/>
<rect x="211" y="102" width="94" height="124" rx="2" transform="rotate(-90 211 102)" fill="#292B6A"/>
<rect x="247" y="94" width="18" height="8" rx="1" transform="rotate(-90 247 94)" fill="#54568C"/>
<rect x="299" y="94" width="18" height="8" rx="1" transform="rotate(-90 299 94)" fill="#54568C"/>
<rect x="247" y="71" width="18" height="8" rx="1" transform="rotate(-90 247 71)" fill="#54568C"/>
<rect x="299" y="71" width="18" height="8" rx="1" transform="rotate(-90 299 71)" fill="#54568C"/>
<rect x="247" y="48" width="18" height="8" rx="1" transform="rotate(-90 247 48)" fill="#54568C"/>
<rect x="299" y="48" width="18" height="8" rx="1" transform="rotate(-90 299 48)" fill="#54568C"/>
<path d="M237 69.028L237 65.92C237 64.108 236.388 62.452 234.576 62.452C233.412 62.452 232.692 63.244 232.536 64.264L232.512 64.264C232.26 63.412 231.612 62.836 230.676 62.836C228.972 62.836 228.504 64.348 228.504 65.656L228.504 69.028L237 69.028ZM229.812 67.468L229.812 65.98C229.812 65.02 230.124 64.396 230.892 64.396C231.684 64.396 232.032 65.032 232.032 65.824L232.032 67.468L229.812 67.468ZM233.208 67.468L233.208 65.788C233.208 64.732 233.568 64.072 234.432 64.072C235.392 64.072 235.68 64.972 235.68 65.848L235.68 67.468L233.208 67.468ZM235.62 55.2317L235.62 59.0837L233.388 56.6957C232.692 55.9397 231.948 55.2557 230.784 55.2557C229.104 55.2557 228.288 56.6477 228.288 58.1357C228.288 59.6717 229.224 61.0037 231 61.1717L231 59.5997C230.196 59.4917 229.632 58.9637 229.632 58.1957C229.632 57.4637 230.124 56.9117 230.88 56.9117C231.492 56.9117 231.984 57.2717 232.416 57.7277L235.608 61.1117L237 61.1117L237 55.2317L235.62 55.2317ZM237 50.4186L237 47.3106C237 45.4986 236.388 43.8426 234.576 43.8426C233.412 43.8426 232.692 44.6346 232.536 45.6546L232.512 45.6546C232.26 44.8026 231.612 44.2266 230.676 44.2266C228.972 44.2266 228.504 45.7386 228.504 47.0466L228.504 50.4186L237 50.4186ZM229.812 48.8586L229.812 47.3706C229.812 46.4106 230.124 45.7866 230.892 45.7866C231.684 45.7866 232.032 46.4226 232.032 47.2146L232.032 48.8586L229.812 48.8586ZM233.208 48.8586L233.208 47.1786C233.208 46.1226 233.568 45.4626 234.432 45.4626C235.392 45.4626 235.68 46.3626 235.68 47.2386L235.68 48.8586L233.208 48.8586ZM234.864 38.8184C235.668 38.8184 236.112 39.5264 236.112 40.2704C236.112 40.8824 235.848 41.2904 235.308 41.2904C234.768 41.2904 234.384 40.9424 234.384 40.1144C234.384 39.6704 234.468 39.2144 234.564 38.8184L234.864 38.8184ZM235.344 42.7424C236.628 42.7424 237.156 41.7104 237.156 40.6424C237.156 39.9104 236.868 39.2024 236.304 38.8544L236.304 38.8184L237 38.8184L237 37.3904L233.556 37.3904C231.816 37.3904 231.096 38.1944 231.096 40.0064C231.096 41.1344 231.384 41.9144 231.972 42.5264L232.872 41.6864C232.5 41.3144 232.26 40.7864 232.26 40.1144C232.26 39.1904 232.644 38.8184 233.376 38.8184L233.628 38.8184C233.52 39.3224 233.472 39.7784 233.472 40.2464C233.472 41.9144 234.228 42.7424 235.344 42.7424ZM229.092 38.6264C228.396 38.6264 227.868 39.1904 227.868 39.8744C227.868 40.5704 228.396 41.1224 229.104 41.1224C229.8 41.1224 230.328 40.5584 230.328 39.8744C230.328 39.1904 229.8 38.6264 229.092 38.6264ZM229.092 39.2504C229.44 39.2504 229.704 39.5264 229.704 39.8744C229.704 40.2224 229.44 40.4984 229.092 40.4984C228.756 40.4984 228.492 40.2224 228.492 39.8744C228.492 39.5264 228.756 39.2504 229.092 39.2504ZM235.8 32.5933L235.8 33.0253C235.8 33.5773 235.74 34.0453 234.732 34.0453L232.44 34.0453L232.44 32.5813L231.252 32.5813L231.252 34.0453L229.74 34.0453L229.74 35.5453L231.252 35.5453L231.252 36.4573L232.44 36.4573L232.44 35.5453L234.696 35.5453C236.652 35.5453 237 35.0893 237 33.2893L237 32.5933L235.8 32.5933ZM234.516 26.0225C234.336 26.0105 234.156 25.9985 233.952 25.9985C232.5 25.9985 231.096 27.0185 231.096 28.7705C231.096 30.5105 232.44 31.8425 234.252 31.8425C236.064 31.8425 237.18 30.4505 237.18 28.8185C237.18 27.6185 236.58 26.5745 235.884 26.0945L235.212 27.1265C235.524 27.3905 235.992 27.9185 235.992 28.7105C235.992 29.5985 235.464 30.2705 234.516 30.3785L234.516 26.0225ZM232.212 28.8185C232.212 28.0025 232.824 27.3665 233.592 27.3665L233.592 30.3785C232.812 30.2465 232.212 29.6705 232.212 28.8185ZM233.772 18.8207C232.356 18.8207 231.096 19.4207 231.096 21.0887C231.096 22.0247 231.612 22.7567 232.128 23.0327L232.128 23.0807L231.252 23.0807L231.252 24.5807L237 24.5807L237 23.0447L234.096 23.0447C233.076 23.0447 232.344 22.4447 232.344 21.5687C232.344 20.6927 233.064 20.3567 233.904 20.3567L237 20.3567L237 18.8207L233.772 18.8207Z" fill="white"/>
<path d="M289 69.028L289 65.92C289 64.108 288.388 62.452 286.576 62.452C285.412 62.452 284.692 63.244 284.536 64.264L284.512 64.264C284.26 63.412 283.612 62.836 282.676 62.836C280.972 62.836 280.504 64.348 280.504 65.656L280.504 69.028L289 69.028ZM281.812 67.468L281.812 65.98C281.812 65.02 282.124 64.396 282.892 64.396C283.684 64.396 284.032 65.032 284.032 65.824L284.032 67.468L281.812 67.468ZM285.208 67.468L285.208 65.788C285.208 64.732 285.568 64.072 286.432 64.072C287.392 64.072 287.68 64.972 287.68 65.848L287.68 67.468L285.208 67.468ZM287.62 55.2318L287.62 59.0838L285.388 56.6958C284.692 55.9398 283.948 55.2558 282.784 55.2558C281.104 55.2558 280.288 56.6478 280.288 58.1358C280.288 59.6718 281.224 61.0038 283 61.1718L283 59.5998C282.196 59.4918 281.632 58.9638 281.632 58.1958C281.632 57.4638 282.124 56.9118 282.88 56.9118C283.492 56.9118 283.984 57.2718 284.416 57.7278L287.608 61.1118L289 61.1118L289 55.2318L287.62 55.2318ZM289 50.4186L289 47.3106C289 45.4986 288.388 43.8426 286.576 43.8426C285.412 43.8426 284.692 44.6346 284.536 45.6546L284.512 45.6546C284.26 44.8026 283.612 44.2266 282.676 44.2266C280.972 44.2266 280.504 45.7386 280.504 47.0466L280.504 50.4186L289 50.4186ZM281.812 48.8586L281.812 47.3706C281.812 46.4106 282.124 45.7866 282.892 45.7866C283.684 45.7866 284.032 46.4226 284.032 47.2146L284.032 48.8586L281.812 48.8586ZM285.208 48.8586L285.208 47.1786C285.208 46.1226 285.568 45.4626 286.432 45.4626C287.392 45.4626 287.68 46.3626 287.68 47.2386L287.68 48.8586L285.208 48.8586ZM286.864 38.8184C287.668 38.8184 288.112 39.5264 288.112 40.2704C288.112 40.8824 287.848 41.2904 287.308 41.2904C286.768 41.2904 286.384 40.9424 286.384 40.1144C286.384 39.6704 286.468 39.2144 286.564 38.8184L286.864 38.8184ZM287.344 42.7424C288.628 42.7424 289.156 41.7104 289.156 40.6424C289.156 39.9104 288.868 39.2024 288.304 38.8544L288.304 38.8184L289 38.8184L289 37.3904L285.556 37.3904C283.816 37.3904 283.096 38.1944 283.096 40.0064C283.096 41.1344 283.384 41.9144 283.972 42.5264L284.872 41.6864C284.5 41.3144 284.26 40.7864 284.26 40.1144C284.26 39.1904 284.644 38.8184 285.376 38.8184L285.628 38.8184C285.52 39.3224 285.472 39.7784 285.472 40.2464C285.472 41.9144 286.228 42.7424 287.344 42.7424ZM281.092 38.6264C280.396 38.6264 279.868 39.1904 279.868 39.8744C279.868 40.5704 280.396 41.1224 281.104 41.1224C281.8 41.1224 282.328 40.5584 282.328 39.8744C282.328 39.1904 281.8 38.6264 281.092 38.6264ZM281.092 39.2504C281.44 39.2504 281.704 39.5264 281.704 39.8744C281.704 40.2224 281.44 40.4984 281.092 40.4984C280.756 40.4984 280.492 40.2224 280.492 39.8744C280.492 39.5264 280.756 39.2504 281.092 39.2504ZM287.8 32.5933L287.8 33.0253C287.8 33.5773 287.74 34.0453 286.732 34.0453L284.44 34.0453L284.44 32.5813L283.252 32.5813L283.252 34.0453L281.74 34.0453L281.74 35.5453L283.252 35.5453L283.252 36.4573L284.44 36.4573L284.44 35.5453L286.696 35.5453C288.652 35.5453 289 35.0893 289 33.2893L289 32.5933L287.8 32.5933ZM286.516 26.0225C286.336 26.0105 286.156 25.9985 285.952 25.9985C284.5 25.9985 283.096 27.0185 283.096 28.7705C283.096 30.5105 284.44 31.8425 286.252 31.8425C288.064 31.8425 289.18 30.4505 289.18 28.8185C289.18 27.6185 288.58 26.5745 287.884 26.0945L287.212 27.1265C287.524 27.3905 287.992 27.9185 287.992 28.7105C287.992 29.5985 287.464 30.2705 286.516 30.3785L286.516 26.0225ZM284.212 28.8185C284.212 28.0025 284.824 27.3665 285.592 27.3665L285.592 30.3785C284.812 30.2465 284.212 29.6705 284.212 28.8185ZM285.772 18.8208C284.356 18.8208 283.096 19.4208 283.096 21.0888C283.096 22.0248 283.612 22.7568 284.128 23.0328L284.128 23.0808L283.252 23.0808L283.252 24.5808L289 24.5808L289 23.0448L286.096 23.0448C285.076 23.0448 284.344 22.4448 284.344 21.5688C284.344 20.6928 285.064 20.3568 285.904 20.3568L289 20.3568L289 18.8208L285.772 18.8208Z" fill="white"/>
<path fill-rule="evenodd" clip-rule="evenodd" d="M232.459 83.7976L232.458 81.8646C232.458 81.7556 232.394 81.6536 232.229 81.7066L231.449 81.8996C231.337 81.9266 231.258 82.0286 231.258 82.1436L231.258 83.7976C231.258 83.9086 231.348 83.9996 231.459 83.9996L232.258 83.9996C232.369 83.9996 232.459 83.9086 232.459 83.7976ZM232.458 84.6026C232.458 84.4906 232.367 84.3986 232.254 84.3986L231.461 84.3986C231.349 84.3986 231.258 84.4906 231.258 84.6026L231.258 85.9956C231.258 86.1076 231.349 86.1996 231.461 86.1996L232.254 86.1996C232.367 86.1996 232.458 86.1076 232.458 85.9956L232.458 84.6026ZM232.458 86.8026C232.458 86.6926 232.368 86.6026 232.258 86.6026L231.458 86.6026C231.347 86.6026 231.258 86.6926 231.258 86.8026L231.258 88.2526C231.258 88.3486 231.312 88.4376 231.399 88.4806L232.179 88.8616C232.36 88.9646 232.458 88.8526 232.458 88.7286L232.458 86.8026ZM232.458 79.9126L232.458 79.2506C232.458 79.0606 232.661 78.9406 232.827 79.0316L235.79 80.6416L235.784 80.6522C235.569 81.0474 235.269 81.5966 235.269 82.4866C235.269 83.1865 235.452 83.5365 235.636 83.8865C235.819 84.2367 236.002 84.587 236.002 85.2876C236.002 85.9868 235.819 86.3366 235.636 86.6865C235.453 87.0366 235.269 87.3868 235.269 88.0876C235.269 88.787 235.452 89.1367 235.636 89.4865C235.819 89.8365 236.002 90.1865 236.002 90.8866C236.002 91.5046 235.859 91.8486 235.7 92.1626L232.653 90.6666C232.534 90.6076 232.458 90.4856 232.458 90.3526L232.458 90.2496L232.458 90.0136L232.458 89.6846C232.458 89.6636 232.444 89.6446 232.424 89.6376L230.199 88.5396C230.079 88.4796 230.002 88.3566 230.002 88.2216L230.002 86.4436L230.002 84.8306C230.002 84.8096 229.988 84.7846 229.948 84.7846L229.485 84.7846C229.315 84.7846 229.159 84.6896 229.083 84.5406L228.377 83.3276C228.277 83.1246 228.389 82.9836 228.575 82.9106L229.399 82.5696C229.42 82.5626 229.433 82.5446 229.434 82.5236L229.434 81.9686C229.434 81.8196 229.531 81.6866 229.676 81.6386L232.421 80.7316C232.443 80.7246 232.458 80.7046 232.458 80.6816L232.458 80.1426L232.458 79.9126ZM237.577 86.8954C237.776 86.5165 238.002 86.0866 238.002 85.264C238.002 84.4414 237.776 84.0114 237.577 83.6326L237.577 83.632C237.404 83.302 237.268 83.041 237.268 82.464C237.268 82.052 237.337 81.801 237.44 81.571L236.56 81.092C236.405 81.418 236.268 81.822 236.268 82.464C236.268 83.287 236.493 83.718 236.692 84.097L236.692 84.0976C236.865 84.4273 237.002 84.6883 237.002 85.264C237.002 85.8397 236.865 86.1007 236.692 86.4304L236.692 86.431C236.493 86.81 236.268 87.241 236.268 88.064C236.268 88.887 236.493 89.317 236.692 89.697L236.693 89.6993C236.866 90.0282 237.002 90.2883 237.002 90.865C237.002 91.6048 236.567 92.3018 236.533 92.3561L236.532 92.358L236.424 92.554L237.317 93L237.389 92.871C237.414 92.833 238.002 91.916 238.002 90.865C238.002 90.0435 237.778 89.6146 237.579 89.2355L237.577 89.232C237.404 88.902 237.268 88.641 237.268 88.064C237.268 87.487 237.404 87.226 237.577 86.896L237.577 86.8954Z" fill="#0497BC"/>
<path fill-rule="evenodd" clip-rule="evenodd" d="M284.459 83.7976L284.458 81.8646C284.458 81.7556 284.394 81.6536 284.229 81.7066L283.449 81.8996C283.337 81.9266 283.258 82.0286 283.258 82.1436L283.258 83.7976C283.258 83.9086 283.348 83.9996 283.459 83.9996L284.258 83.9996C284.369 83.9996 284.459 83.9086 284.459 83.7976ZM284.458 84.6026C284.458 84.4906 284.367 84.3986 284.254 84.3986L283.461 84.3986C283.349 84.3986 283.258 84.4906 283.258 84.6026L283.258 85.9956C283.258 86.1076 283.349 86.1996 283.461 86.1996L284.254 86.1996C284.367 86.1996 284.458 86.1076 284.458 85.9956L284.458 84.6026ZM284.458 86.8026C284.458 86.6926 284.368 86.6026 284.258 86.6026L283.458 86.6026C283.347 86.6026 283.258 86.6926 283.258 86.8026L283.258 88.2526C283.258 88.3486 283.312 88.4376 283.399 88.4806L284.179 88.8616C284.36 88.9646 284.458 88.8526 284.458 88.7286L284.458 86.8026ZM284.458 79.9126L284.458 79.2506C284.458 79.0606 284.661 78.9406 284.827 79.0316L287.79 80.6416L287.784 80.6522C287.569 81.0474 287.269 81.5966 287.269 82.4866C287.269 83.1865 287.452 83.5365 287.636 83.8865C287.819 84.2367 288.002 84.587 288.002 85.2876C288.002 85.9869 287.819 86.3366 287.636 86.6865C287.453 87.0366 287.269 87.3869 287.269 88.0876C287.269 88.787 287.452 89.1367 287.636 89.4865C287.819 89.8365 288.002 90.1865 288.002 90.8866C288.002 91.5046 287.859 91.8486 287.7 92.1626L284.653 90.6666C284.534 90.6076 284.458 90.4856 284.458 90.3526L284.458 90.2496L284.458 90.0136L284.458 89.6846C284.458 89.6636 284.444 89.6446 284.424 89.6376L282.199 88.5396C282.079 88.4796 282.002 88.3566 282.002 88.2216L282.002 86.4436L282.002 84.8306C282.002 84.8096 281.988 84.7846 281.948 84.7846L281.485 84.7846C281.315 84.7846 281.159 84.6896 281.083 84.5406L280.377 83.3276C280.277 83.1246 280.389 82.9836 280.575 82.9106L281.399 82.5696C281.42 82.5626 281.433 82.5446 281.434 82.5236L281.434 81.9686C281.434 81.8196 281.531 81.6866 281.676 81.6386L284.421 80.7316C284.443 80.7246 284.458 80.7046 284.458 80.6816L284.458 80.1426L284.458 79.9126ZM289.577 86.8954C289.776 86.5166 290.002 86.0866 290.002 85.264C290.002 84.4414 289.776 84.0114 289.577 83.6326L289.577 83.632C289.404 83.302 289.268 83.041 289.268 82.464C289.268 82.052 289.337 81.801 289.44 81.571L288.56 81.092C288.405 81.418 288.268 81.822 288.268 82.464C288.268 83.287 288.493 83.718 288.692 84.097L288.692 84.0976C288.865 84.4273 289.002 84.6883 289.002 85.264C289.002 85.8397 288.865 86.1007 288.692 86.4304L288.692 86.431C288.493 86.81 288.268 87.241 288.268 88.064C288.268 88.887 288.493 89.317 288.692 89.697L288.693 89.6993C288.866 90.0282 289.002 90.2883 289.002 90.865C289.002 91.6048 288.567 92.3018 288.533 92.3561L288.532 92.358L288.424 92.554L289.317 93L289.389 92.871C289.414 92.833 290.002 91.916 290.002 90.865C290.002 90.0435 289.778 89.6146 289.579 89.2355L289.577 89.232C289.404 88.902 289.268 88.641 289.268 88.064C289.268 87.487 289.404 87.226 289.577 86.896L289.577 86.8954Z" fill="#0497BC"/>
<rect x="211" y="204" width="94" height="124" rx="2" transform="rotate(-90 211 204)" fill="#292B6A"/>
<rect x="247" y="196" width="18" height="8" rx="1" transform="rotate(-90 247 196)" fill="#54568C"/>
<rect x="299" y="196" width="18" height="8" rx="1" transform="rotate(-90 299 196)" fill="#54568C"/>
<rect x="247" y="173" width="18" height="8" rx="1" transform="rotate(-90 247 173)" fill="#54568C"/>
<rect x="299" y="173" width="18" height="8" rx="1" transform="rotate(-90 299 173)" fill="#54568C"/>
<rect x="247" y="150" width="18" height="8" rx="1" transform="rotate(-90 247 150)" fill="#54568C"/>
<rect x="299" y="150" width="18" height="8" rx="1" transform="rotate(-90 299 150)" fill="#54568C"/>
<path d="M237 171.028L237 167.92C237 166.108 236.388 164.452 234.576 164.452C233.412 164.452 232.692 165.244 232.536 166.264L232.512 166.264C232.26 165.412 231.612 164.836 230.676 164.836C228.972 164.836 228.504 166.348 228.504 167.656L228.504 171.028L237 171.028ZM229.812 169.468L229.812 167.98C229.812 167.02 230.124 166.396 230.892 166.396C231.684 166.396 232.032 167.032 232.032 167.824L232.032 169.468L229.812 169.468ZM233.208 169.468L233.208 167.788C233.208 166.732 233.568 166.072 234.432 166.072C235.392 166.072 235.68 166.972 235.68 167.848L235.68 169.468L233.208 169.468ZM235.62 157.232L235.62 161.084L233.388 158.696C232.692 157.94 231.948 157.256 230.784 157.256C229.104 157.256 228.288 158.648 228.288 160.136C228.288 161.672 229.224 163.004 231 163.172L231 161.6C230.196 161.492 229.632 160.964 229.632 160.196C229.632 159.464 230.124 158.912 230.88 158.912C231.492 158.912 231.984 159.272 232.416 159.728L235.608 163.112L237 163.112L237 157.232L235.62 157.232ZM237 152.419L237 149.311C237 147.499 236.388 145.843 234.576 145.843C233.412 145.843 232.692 146.635 232.536 147.655L232.512 147.655C232.26 146.803 231.612 146.227 230.676 146.227C228.972 146.227 228.504 147.739 228.504 149.047L228.504 152.419L237 152.419ZM229.812 150.859L229.812 149.371C229.812 148.411 230.124 147.787 230.892 147.787C231.684 147.787 232.032 148.423 232.032 149.215L232.032 150.859L229.812 150.859ZM233.208 150.859L233.208 149.179C233.208 148.123 233.568 147.463 234.432 147.463C235.392 147.463 235.68 148.363 235.68 149.239L235.68 150.859L233.208 150.859ZM234.864 140.818C235.668 140.818 236.112 141.526 236.112 142.27C236.112 142.882 235.848 143.29 235.308 143.29C234.768 143.29 234.384 142.942 234.384 142.114C234.384 141.67 234.468 141.214 234.564 140.818L234.864 140.818ZM235.344 144.742C236.628 144.742 237.156 143.71 237.156 142.642C237.156 141.91 236.868 141.202 236.304 140.854L236.304 140.818L237 140.818L237 139.39L233.556 139.39C231.816 139.39 231.096 140.194 231.096 142.006C231.096 143.134 231.384 143.914 231.972 144.526L232.872 143.686C232.5 143.314 232.26 142.786 232.26 142.114C232.26 141.19 232.644 140.818 233.376 140.818L233.628 140.818C233.52 141.322 233.472 141.778 233.472 142.246C233.472 143.914 234.228 144.742 235.344 144.742ZM229.092 140.626C228.396 140.626 227.868 141.19 227.868 141.874C227.868 142.57 228.396 143.122 229.104 143.122C229.8 143.122 230.328 142.558 230.328 141.874C230.328 141.19 229.8 140.626 229.092 140.626ZM229.092 141.25C229.44 141.25 229.704 141.526 229.704 141.874C229.704 142.222 229.44 142.498 229.092 142.498C228.756 142.498 228.492 142.222 228.492 141.874C228.492 141.526 228.756 141.25 229.092 141.25ZM235.8 134.593L235.8 135.025C235.8 135.577 235.74 136.045 234.732 136.045L232.44 136.045L232.44 134.581L231.252 134.581L231.252 136.045L229.74 136.045L229.74 137.545L231.252 137.545L231.252 138.457L232.44 138.457L232.44 137.545L234.696 137.545C236.652 137.545 237 137.089 237 135.289L237 134.593L235.8 134.593ZM234.516 128.023C234.336 128.011 234.156 127.999 233.952 127.999C232.5 127.999 231.096 129.019 231.096 130.771C231.096 132.511 232.44 133.843 234.252 133.843C236.064 133.843 237.18 132.451 237.18 130.819C237.18 129.619 236.58 128.575 235.884 128.095L235.212 129.127C235.524 129.391 235.992 129.919 235.992 130.711C235.992 131.599 235.464 132.271 234.516 132.379L234.516 128.023ZM232.212 130.819C232.212 130.003 232.824 129.367 233.592 129.367L233.592 132.379C232.812 132.247 232.212 131.671 232.212 130.819ZM233.772 120.821C232.356 120.821 231.096 121.421 231.096 123.089C231.096 124.025 231.612 124.757 232.128 125.033L232.128 125.081L231.252 125.081L231.252 126.581L237 126.581L237 125.045L234.096 125.045C233.076 125.045 232.344 124.445 232.344 123.569C232.344 122.693 233.064 122.357 233.904 122.357L237 122.357L237 120.821L233.772 120.821Z" fill="white"/>
<path d="M289 171.028L289 167.92C289 166.108 288.388 164.452 286.576 164.452C285.412 164.452 284.692 165.244 284.536 166.264L284.512 166.264C284.26 165.412 283.612 164.836 282.676 164.836C280.972 164.836 280.504 166.348 280.504 167.656L280.504 171.028L289 171.028ZM281.812 169.468L281.812 167.98C281.812 167.02 282.124 166.396 282.892 166.396C283.684 166.396 284.032 167.032 284.032 167.824L284.032 169.468L281.812 169.468ZM285.208 169.468L285.208 167.788C285.208 166.732 285.568 166.072 286.432 166.072C287.392 166.072 287.68 166.972 287.68 167.848L287.68 169.468L285.208 169.468ZM287.62 157.232L287.62 161.084L285.388 158.696C284.692 157.94 283.948 157.256 282.784 157.256C281.104 157.256 280.288 158.648 280.288 160.136C280.288 161.672 281.224 163.004 283 163.172L283 161.6C282.196 161.492 281.632 160.964 281.632 160.196C281.632 159.464 282.124 158.912 282.88 158.912C283.492 158.912 283.984 159.272 284.416 159.728L287.608 163.112L289 163.112L289 157.232L287.62 157.232ZM289 152.419L289 149.311C289 147.499 288.388 145.843 286.576 145.843C285.412 145.843 284.692 146.635 284.536 147.655L284.512 147.655C284.26 146.803 283.612 146.227 282.676 146.227C280.972 146.227 280.504 147.739 280.504 149.047L280.504 152.419L289 152.419ZM281.812 150.859L281.812 149.371C281.812 148.411 282.124 147.787 282.892 147.787C283.684 147.787 284.032 148.423 284.032 149.215L284.032 150.859L281.812 150.859ZM285.208 150.859L285.208 149.179C285.208 148.123 285.568 147.463 286.432 147.463C287.392 147.463 287.68 148.363 287.68 149.239L287.68 150.859L285.208 150.859ZM286.864 140.818C287.668 140.818 288.112 141.526 288.112 142.27C288.112 142.882 287.848 143.29 287.308 143.29C286.768 143.29 286.384 142.942 286.384 142.114C286.384 141.67 286.468 141.214 286.564 140.818L286.864 140.818ZM287.344 144.742C288.628 144.742 289.156 143.71 289.156 142.642C289.156 141.91 288.868 141.202 288.304 140.854L288.304 140.818L289 140.818L289 139.39L285.556 139.39C283.816 139.39 283.096 140.194 283.096 142.006C283.096 143.134 283.384 143.914 283.972 144.526L284.872 143.686C284.5 143.314 284.26 142.786 284.26 142.114C284.26 141.19 284.644 140.818 285.376 140.818L285.628 140.818C285.52 141.322 285.472 141.778 285.472 142.246C285.472 143.914 286.228 144.742 287.344 144.742ZM281.092 140.626C280.396 140.626 279.868 141.19 279.868 141.874C279.868 142.57 280.396 143.122 281.104 143.122C281.8 143.122 282.328 142.558 282.328 141.874C282.328 141.19 281.8 140.626 281.092 140.626ZM281.092 141.25C281.44 141.25 281.704 141.526 281.704 141.874C281.704 142.222 281.44 142.498 281.092 142.498C280.756 142.498 280.492 142.222 280.492 141.874C280.492 141.526 280.756 141.25 281.092 141.25ZM287.8 134.593L287.8 135.025C287.8 135.577 287.74 136.045 286.732 136.045L284.44 136.045L284.44 134.581L283.252 134.581L283.252 136.045L281.74 136.045L281.74 137.545L283.252 137.545L283.252 138.457L284.44 138.457L284.44 137.545L286.696 137.545C288.652 137.545 289 137.089 289 135.289L289 134.593L287.8 134.593ZM286.516 128.023C286.336 128.011 286.156 127.999 285.952 127.999C284.5 127.999 283.096 129.019 283.096 130.771C283.096 132.511 284.44 133.843 286.252 133.843C288.064 133.843 289.18 132.451 289.18 130.819C289.18 129.619 288.58 128.575 287.884 128.095L287.212 129.127C287.524 129.391 287.992 129.919 287.992 130.711C287.992 131.599 287.464 132.271 286.516 132.379L286.516 128.023ZM284.212 130.819C284.212 130.003 284.824 129.367 285.592 129.367L285.592 132.379C284.812 132.247 284.212 131.671 284.212 130.819ZM285.772 120.821C284.356 120.821 283.096 121.421 283.096 123.089C283.096 124.025 283.612 124.757 284.128 125.033L284.128 125.081L283.252 125.081L283.252 126.581L289 126.581L289 125.045L286.096 125.045C285.076 125.045 284.344 124.445 284.344 123.569C284.344 122.693 285.064 122.357 285.904 122.357L289 122.357L289 120.821L285.772 120.821Z" fill="white"/>
<path fill-rule="evenodd" clip-rule="evenodd" d="M232.459 185.798L232.458 183.865C232.458 183.756 232.394 183.654 232.229 183.707L231.449 183.9C231.337 183.927 231.258 184.029 231.258 184.144L231.258 185.798C231.258 185.909 231.348 186 231.459 186L232.258 186C232.369 186 232.459 185.909 232.459 185.798ZM232.458 186.603C232.458 186.491 232.367 186.399 232.254 186.399L231.461 186.399C231.349 186.399 231.258 186.491 231.258 186.603L231.258 187.996C231.258 188.108 231.349 188.2 231.461 188.2L232.254 188.2C232.367 188.2 232.458 188.108 232.458 187.996L232.458 186.603ZM232.458 188.803C232.458 188.693 232.368 188.603 232.258 188.603L231.458 188.603C231.347 188.603 231.258 188.693 231.258 188.803L231.258 190.253C231.258 190.349 231.312 190.438 231.399 190.481L232.179 190.862C232.36 190.965 232.458 190.853 232.458 190.729L232.458 188.803ZM232.458 181.913L232.458 181.251C232.458 181.061 232.661 180.941 232.827 181.032L235.79 182.642L235.784 182.652C235.569 183.047 235.269 183.597 235.269 184.487C235.269 185.186 235.452 185.536 235.636 185.887C235.819 186.237 236.002 186.587 236.002 187.288C236.002 187.987 235.819 188.337 235.636 188.686C235.453 189.037 235.269 189.387 235.269 190.088C235.269 190.787 235.452 191.137 235.636 191.487C235.819 191.836 236.002 192.186 236.002 192.887C236.002 193.505 235.859 193.849 235.7 194.163L232.653 192.667C232.534 192.608 232.458 192.486 232.458 192.353L232.458 192.25L232.458 192.014L232.458 191.685C232.458 191.664 232.444 191.645 232.424 191.638L230.199 190.54C230.079 190.48 230.002 190.357 230.002 190.222L230.002 188.444L230.002 186.831C230.002 186.81 229.988 186.785 229.948 186.785L229.485 186.785C229.315 186.785 229.159 186.69 229.083 186.541L228.377 185.328C228.277 185.125 228.389 184.984 228.575 184.911L229.399 184.57C229.42 184.563 229.433 184.545 229.434 184.524L229.434 183.969C229.434 183.82 229.531 183.687 229.676 183.639L232.421 182.732C232.443 182.725 232.458 182.705 232.458 182.682L232.458 182.143L232.458 181.913ZM237.577 188.895C237.776 188.517 238.002 188.087 238.002 187.264C238.002 186.441 237.776 186.011 237.577 185.633L237.577 185.632C237.404 185.302 237.268 185.041 237.268 184.464C237.268 184.052 237.337 183.801 237.44 183.571L236.56 183.092C236.405 183.418 236.268 183.822 236.268 184.464C236.268 185.287 236.493 185.718 236.692 186.097L236.692 186.098C236.865 186.427 237.002 186.688 237.002 187.264C237.002 187.84 236.865 188.101 236.692 188.43L236.692 188.431C236.493 188.81 236.268 189.241 236.268 190.064C236.268 190.887 236.493 191.317 236.692 191.697L236.693 191.699C236.866 192.028 237.002 192.288 237.002 192.865C237.002 193.605 236.567 194.302 236.533 194.356L236.532 194.358L236.424 194.554L237.317 195L237.389 194.871C237.414 194.833 238.002 193.916 238.002 192.865C238.002 192.044 237.778 191.615 237.579 191.236L237.577 191.232C237.404 190.902 237.268 190.641 237.268 190.064C237.268 189.487 237.404 189.226 237.577 188.896L237.577 188.895Z" fill="#0497BC"/>
<path fill-rule="evenodd" clip-rule="evenodd" d="M284.459 185.798L284.458 183.865C284.458 183.756 284.394 183.654 284.229 183.707L283.449 183.9C283.337 183.927 283.258 184.029 283.258 184.144L283.258 185.798C283.258 185.909 283.348 186 283.459 186L284.258 186C284.369 186 284.459 185.909 284.459 185.798ZM284.458 186.603C284.458 186.491 284.367 186.399 284.254 186.399L283.461 186.399C283.349 186.399 283.258 186.491 283.258 186.603L283.258 187.996C283.258 188.108 283.349 188.2 283.461 188.2L284.254 188.2C284.367 188.2 284.458 188.108 284.458 187.996L284.458 186.603ZM284.458 188.803C284.458 188.693 284.368 188.603 284.258 188.603L283.458 188.603C283.347 188.603 283.258 188.693 283.258 188.803L283.258 190.253C283.258 190.349 283.312 190.438 283.399 190.481L284.179 190.862C284.36 190.965 284.458 190.853 284.458 190.729L284.458 188.803ZM284.458 181.913L284.458 181.251C284.458 181.061 284.661 180.941 284.827 181.032L287.79 182.642L287.784 182.652C287.569 183.047 287.269 183.597 287.269 184.487C287.269 185.186 287.452 185.536 287.636 185.887C287.819 186.237 288.002 186.587 288.002 187.288C288.002 187.987 287.819 188.337 287.636 188.686C287.453 189.037 287.269 189.387 287.269 190.088C287.269 190.787 287.452 191.137 287.636 191.487C287.819 191.836 288.002 192.186 288.002 192.887C288.002 193.505 287.859 193.849 287.7 194.163L284.653 192.667C284.534 192.608 284.458 192.486 284.458 192.353L284.458 192.25L284.458 192.014L284.458 191.685C284.458 191.664 284.444 191.645 284.424 191.638L282.199 190.54C282.079 190.48 282.002 190.357 282.002 190.222L282.002 188.444L282.002 186.831C282.002 186.81 281.988 186.785 281.948 186.785L281.485 186.785C281.315 186.785 281.159 186.69 281.083 186.541L280.377 185.328C280.277 185.125 280.389 184.984 280.575 184.911L281.399 184.57C281.42 184.563 281.433 184.545 281.434 184.524L281.434 183.969C281.434 183.82 281.531 183.687 281.676 183.639L284.421 182.732C284.443 182.725 284.458 182.705 284.458 182.682L284.458 182.143L284.458 181.913ZM289.577 188.895C289.776 188.517 290.002 188.087 290.002 187.264C290.002 186.441 289.776 186.011 289.577 185.633L289.577 185.632C289.404 185.302 289.268 185.041 289.268 184.464C289.268 184.052 289.337 183.801 289.44 183.571L288.56 183.092C288.405 183.418 288.268 183.822 288.268 184.464C288.268 185.287 288.493 185.718 288.692 186.097L288.692 186.098C288.865 186.427 289.002 186.688 289.002 187.264C289.002 187.84 288.865 188.101 288.692 188.43L288.692 188.431C288.493 188.81 288.268 189.241 288.268 190.064C288.268 190.887 288.493 191.317 288.692 191.697L288.693 191.699C288.866 192.028 289.002 192.288 289.002 192.865C289.002 193.605 288.567 194.302 288.533 194.356L288.532 194.358L288.424 194.554L289.317 195L289.389 194.871C289.414 194.833 290.002 193.916 290.002 192.865C290.002 192.044 289.778 191.615 289.579 191.236L289.577 191.232C289.404 190.902 289.268 190.641 289.268 190.064C289.268 189.487 289.404 189.226 289.577 188.896L289.577 188.895Z" fill="#0497BC"/>
<rect x="7" y="204" width="94" height="196" rx="2" transform="rotate(-90 7 204)" fill="#292B6A"/>
<rect x="43" y="196" width="18" height="8" rx="1" transform="rotate(-90 43 196)" fill="#54568C"/>
<rect x="95" y="196" width="18" height="8" rx="1" transform="rotate(-90 95 196)" fill="#54568C"/>
<rect x="147" y="196" width="18" height="8" rx="1" transform="rotate(-90 147 196)" fill="#54568C"/>
<rect x="43" y="173" width="18" height="8" rx="1" transform="rotate(-90 43 173)" fill="#54568C"/>
<rect x="95" y="173" width="18" height="8" rx="1" transform="rotate(-90 95 173)" fill="#54568C"/>
<rect x="147" y="173" width="18" height="8" rx="1" transform="rotate(-90 147 173)" fill="#54568C"/>
<rect x="43" y="150" width="18" height="8" rx="1" transform="rotate(-90 43 150)" fill="#54568C"/>
<rect x="95" y="150" width="18" height="8" rx="1" transform="rotate(-90 95 150)" fill="#54568C"/>
<rect x="147" y="150" width="18" height="8" rx="1" transform="rotate(-90 147 150)" fill="#54568C"/>
<path d="M27.132 166.048C27.996 166.048 28.512 166.624 28.512 167.764L28.512 169.456L25.848 169.456L25.848 167.8C25.848 166.708 26.22 166.048 27.132 166.048ZM33 171.028L33 169.444L29.748 169.444L29.748 167.98L33 165.928L33 164.008L29.496 166.336C29.256 165.388 28.44 164.452 27.072 164.452C25.476 164.452 24.504 165.568 24.504 167.536L24.504 171.028L33 171.028ZM24.504 158.934L24.504 160.374L26.448 162.942L27.528 162.102L26.328 160.53L33 160.53L33 158.934L24.504 158.934ZM24.288 152.741C24.288 155.045 26.412 155.873 28.74 155.873C31.08 155.873 33.228 155.045 33.228 152.741C33.228 150.449 31.08 149.621 28.74 149.621C26.412 149.621 24.288 150.449 24.288 152.741ZM25.632 152.741C25.632 151.529 27.444 151.253 28.74 151.253C30.06 151.253 31.86 151.529 31.86 152.741C31.86 153.977 30.06 154.241 28.74 154.241C27.444 154.241 25.632 153.977 25.632 152.741ZM25.896 141.76L25.896 139.192L24.504 139.192L24.504 145.924L25.896 145.924L25.896 143.368L33 143.368L33 141.76L25.896 141.76ZM30.12 133.414C28.308 133.414 27.096 134.818 27.096 136.57C27.096 138.31 28.308 139.702 30.12 139.702C31.944 139.702 33.18 138.31 33.18 136.57C33.18 134.818 31.944 133.414 30.12 133.414ZM30.12 134.95C31.056 134.95 31.872 135.538 31.872 136.57C31.872 137.578 31.056 138.178 30.12 138.178C29.196 138.178 28.392 137.578 28.392 136.57C28.392 135.538 29.196 134.95 30.12 134.95ZM34.908 132.259C35.544 131.503 35.88 130.423 35.88 129.391C35.88 127.123 34.56 126.043 32.628 126.043L27.252 126.043L27.252 127.519L28.104 127.519L28.104 127.543C27.432 127.975 27.096 128.707 27.096 129.487C27.096 131.227 28.464 132.331 30.072 132.331C31.824 132.331 33 131.131 33 129.391C33 128.683 32.664 127.963 32.136 127.591L32.136 127.567L32.748 127.567C33.828 127.567 34.62 128.107 34.62 129.439C34.62 130.171 34.296 130.939 33.792 131.443L34.908 132.259ZM30.084 130.759C29.148 130.759 28.38 130.135 28.38 129.139C28.38 128.167 29.148 127.483 30.072 127.483C31.044 127.483 31.788 128.167 31.788 129.139C31.788 130.135 30.972 130.759 30.084 130.759Z" fill="white"/>
<path d="M76.504 169.42L76.504 171.028L85 171.028L85 165.868L83.596 165.868L83.596 169.42L76.504 169.42ZM83.62 159.154L83.62 163.006L81.388 160.618C80.692 159.862 79.948 159.178 78.784 159.178C77.104 159.178 76.288 160.57 76.288 162.058C76.288 163.594 77.224 164.926 79 165.094L79 163.522C78.196 163.414 77.632 162.886 77.632 162.118C77.632 161.386 78.124 160.834 78.88 160.834C79.492 160.834 79.984 161.194 80.416 161.65L83.608 165.034L85 165.034L85 159.154L83.62 159.154ZM77.896 151.052L77.896 148.484L76.504 148.484L76.504 155.216L77.896 155.216L77.896 152.66L85 152.66L85 151.052L77.896 151.052ZM82.12 142.707C80.308 142.707 79.096 144.111 79.096 145.863C79.096 147.603 80.308 148.995 82.12 148.995C83.944 148.995 85.18 147.603 85.18 145.863C85.18 144.111 83.944 142.707 82.12 142.707ZM82.12 144.243C83.056 144.243 83.872 144.831 83.872 145.863C83.872 146.871 83.056 147.471 82.12 147.471C81.196 147.471 80.392 146.871 80.392 145.863C80.392 144.831 81.196 144.243 82.12 144.243ZM86.908 141.552C87.544 140.796 87.88 139.716 87.88 138.684C87.88 136.416 86.56 135.336 84.628 135.336L79.252 135.336L79.252 136.812L80.104 136.812L80.104 136.836C79.432 137.268 79.096 138 79.096 138.78C79.096 140.52 80.464 141.624 82.072 141.624C83.824 141.624 85 140.424 85 138.684C85 137.976 84.664 137.256 84.136 136.884L84.136 136.86L84.748 136.86C85.828 136.86 86.62 137.4 86.62 138.732C86.62 139.464 86.296 140.232 85.792 140.736L86.908 141.552ZM82.084 140.052C81.148 140.052 80.38 139.428 80.38 138.432C80.38 137.46 81.148 136.776 82.072 136.776C83.044 136.776 83.788 137.46 83.788 138.432C83.788 139.428 82.972 140.052 82.084 140.052Z" fill="white"/>
<path d="M128.504 169.42L128.504 171.028L137 171.028L137 165.868L135.596 165.868L135.596 169.42L128.504 169.42ZM128.504 160.774L128.504 162.214L130.448 164.782L131.528 163.942L130.328 162.37L137 162.37L137 160.774L128.504 160.774ZM128.504 153.32L128.504 154.76L130.448 157.328L131.528 156.488L130.328 154.916L137 154.916L137 153.32L128.504 153.32ZM129.896 143.599L129.896 141.031L128.504 141.031L128.504 147.763L129.896 147.763L129.896 145.207L137 145.207L137 143.599L129.896 143.599ZM134.12 135.254C132.308 135.254 131.096 136.658 131.096 138.41C131.096 140.15 132.308 141.542 134.12 141.542C135.944 141.542 137.18 140.15 137.18 138.41C137.18 136.658 135.944 135.254 134.12 135.254ZM134.12 136.79C135.056 136.79 135.872 137.378 135.872 138.41C135.872 139.418 135.056 140.018 134.12 140.018C133.196 140.018 132.392 139.418 132.392 138.41C132.392 137.378 133.196 136.79 134.12 136.79ZM138.908 134.099C139.544 133.343 139.88 132.263 139.88 131.231C139.88 128.963 138.56 127.883 136.628 127.883L131.252 127.883L131.252 129.359L132.104 129.359L132.104 129.383C131.432 129.815 131.096 130.547 131.096 131.327C131.096 133.067 132.464 134.171 134.072 134.171C135.824 134.171 137 132.971 137 131.231C137 130.523 136.664 129.803 136.136 129.431L136.136 129.407L136.748 129.407C137.828 129.407 138.62 129.947 138.62 131.279C138.62 132.011 138.296 132.779 137.792 133.283L138.908 134.099ZM134.084 132.599C133.148 132.599 132.38 131.975 132.38 130.979C132.38 130.007 133.148 129.323 134.072 129.323C135.044 129.323 135.788 130.007 135.788 130.979C135.788 131.975 134.972 132.599 134.084 132.599Z" fill="white"/>
<path fill-rule="evenodd" clip-rule="evenodd" d="M28.7644 184.104C28.7644 183.96 28.7294 183.832 28.5934 183.787C28.4574 183.742 28.3644 183.789 28.2784 183.903L27.4994 184.937C27.4564 184.996 27.4324 185.066 27.4324 185.138L27.4324 185.804C27.4324 185.947 27.5244 186.074 27.6594 186.12C27.7954 186.165 27.9454 186.119 28.0314 186.004L28.7014 185.054C28.7673 184.966 28.7658 184.866 28.7647 184.794C28.7645 184.785 28.7644 184.777 28.7644 184.769L28.7644 184.104ZM28.9914 181.341C29.0314 181.302 29.0654 181.271 29.1004 181.25C29.3064 181.095 29.5574 181 29.8344 181C30.3274 181 30.9814 181.409 31.7364 181.9C31.9014 182.008 32.0014 182.191 32.0014 182.389L32.0014 195L26.0004 195L26.0004 190.598L24.8334 188.898L23.4004 190.6L23.4004 189.636L24.5794 188.142C24.6384 188.061 24.7294 188 24.8544 188C24.9774 188 25.0344 188.048 25.1104 188.149L26.0004 189.443L26.0004 185.904C26.0004 185.664 26.0964 185.264 26.3324 184.905C27.0554 183.808 28.5464 181.784 28.8604 181.469C28.8775 181.452 28.8931 181.437 28.9078 181.423C28.9247 181.406 28.9403 181.391 28.9554 181.376C28.9664 181.364 28.9794 181.352 28.9914 181.341ZM34.0007 182L34.0007 195L33.0007 195L33.0007 182L34.0007 182Z" fill="#00367F"/>
<path fill-rule="evenodd" clip-rule="evenodd" d="M80.7644 184.104C80.7644 183.96 80.7294 183.832 80.5934 183.787C80.4574 183.742 80.3644 183.789 80.2784 183.903L79.4994 184.937C79.4564 184.996 79.4324 185.066 79.4324 185.138L79.4324 185.804C79.4324 185.947 79.5244 186.074 79.6594 186.12C79.7954 186.165 79.9454 186.119 80.0314 186.004L80.7014 185.054C80.7673 184.966 80.7658 184.866 80.7647 184.794C80.7645 184.785 80.7644 184.777 80.7644 184.769L80.7644 184.104ZM80.9914 181.341C81.0314 181.302 81.0654 181.271 81.1004 181.25C81.3064 181.095 81.5574 181 81.8344 181C82.3274 181 82.9814 181.409 83.7364 181.9C83.9014 182.008 84.0014 182.191 84.0014 182.389L84.0014 195L78.0004 195L78.0004 190.598L76.8334 188.898L75.4004 190.6L75.4004 189.636L76.5794 188.142C76.6384 188.061 76.7294 188 76.8544 188C76.9774 188 77.0344 188.048 77.1104 188.149L78.0004 189.443L78.0004 185.904C78.0004 185.664 78.0964 185.264 78.3324 184.905C79.0554 183.808 80.5464 181.784 80.8604 181.469C80.8775 181.452 80.8931 181.437 80.9078 181.423C80.9247 181.406 80.9403 181.391 80.9554 181.376C80.9664 181.364 80.9794 181.352 80.9914 181.341ZM86.0007 182L86.0007 195L85.0007 195L85.0007 182L86.0007 182Z" fill="#00367F"/>
<path fill-rule="evenodd" clip-rule="evenodd" d="M132.764 184.104C132.764 183.96 132.729 183.832 132.593 183.787C132.457 183.742 132.364 183.789 132.278 183.903L131.499 184.937C131.456 184.996 131.432 185.066 131.432 185.138L131.432 185.804C131.432 185.947 131.524 186.074 131.659 186.12C131.795 186.165 131.945 186.119 132.031 186.004L132.701 185.054C132.767 184.966 132.766 184.866 132.765 184.794C132.765 184.785 132.764 184.777 132.764 184.769L132.764 184.104ZM132.991 181.341C133.031 181.302 133.065 181.271 133.1 181.25C133.306 181.095 133.557 181 133.834 181C134.327 181 134.981 181.409 135.736 181.9C135.901 182.008 136.001 182.191 136.001 182.389L136.001 195L130 195L130 190.598L128.833 188.898L127.4 190.6L127.4 189.636L128.579 188.142C128.638 188.061 128.729 188 128.854 188C128.977 188 129.034 188.048 129.11 188.149L130 189.443L130 185.904C130 185.664 130.096 185.264 130.332 184.905C131.055 183.808 132.546 181.784 132.86 181.469C132.878 181.452 132.893 181.437 132.908 181.423C132.925 181.406 132.94 181.391 132.955 181.376C132.966 181.364 132.979 181.352 132.991 181.341ZM138.001 182L138.001 195L137.001 195L137.001 182L138.001 182Z" fill="#00367F"/>
</svg>
