<svg width="344" height="212" viewBox="0 0 344 212" fill="none" xmlns="http://www.w3.org/2000/svg">
<rect width="344" height="212" rx="2" fill="#181C56"/>
<rect x="8" y="8" width="104" height="196" rx="2" fill="#292B6A"/>
<rect x="16" y="44" width="18" height="8" rx="1" fill="#54568C"/>
<rect x="16" y="96" width="18" height="8" rx="1" fill="#54568C"/>
<rect x="16" y="148" width="18" height="8" rx="1" fill="#54568C"/>
<rect x="39" y="44" width="18" height="8" rx="1" fill="#54568C"/>
<rect x="39" y="96" width="18" height="8" rx="1" fill="#54568C"/>
<rect x="39" y="148" width="18" height="8" rx="1" fill="#54568C"/>
<rect x="62" y="44" width="18" height="8" rx="1" fill="#54568C"/>
<rect x="62" y="96" width="18" height="8" rx="1" fill="#54568C"/>
<rect x="62" y="148" width="18" height="8" rx="1" fill="#54568C"/>
<rect x="85" y="44" width="18" height="8" rx="1" fill="#54568C"/>
<rect x="85" y="96" width="18" height="8" rx="1" fill="#54568C"/>
<rect x="85" y="148" width="18" height="8" rx="1" fill="#54568C"/>
<rect x="120" y="140" width="104" height="64" rx="2" fill="#292B6A"/>
<rect x="128" y="176" width="18" height="8" rx="1" fill="#54568C"/>
<rect x="151" y="176" width="18" height="8" rx="1" fill="#54568C"/>
<rect x="174" y="176" width="18" height="8" rx="1" fill="#54568C"/>
<rect x="197" y="176" width="18" height="8" rx="1" fill="#54568C"/>
<path d="M158.228 157.504H153.356L153.212 161.572L153.992 161.944C154.388 161.848 154.808 161.776 155.156 161.776C156.116 161.776 157.028 162.244 157.028 163.348C157.028 164.284 156.344 164.884 155.492 164.884C154.796 164.884 154.184 164.428 153.98 163.756H152.372C152.78 165.496 154.1 166.228 155.516 166.228C157.196 166.228 158.624 165.172 158.624 163.252C158.624 161.548 157.34 160.564 155.672 160.564C155.372 160.564 154.988 160.612 154.7 160.696L154.76 158.872H158.228V157.504ZM165.273 157.504H163.341L159.825 162.82V164.2H163.785V166H165.273V164.2H166.473V162.892H165.273V157.504ZM163.785 162.892H161.385L163.761 159.16H163.785V162.892ZM170.878 166H173.986C175.798 166 177.454 165.388 177.454 163.576C177.454 162.412 176.662 161.692 175.642 161.536V161.512C176.494 161.26 177.07 160.612 177.07 159.676C177.07 157.972 175.558 157.504 174.25 157.504H170.878V166ZM172.438 158.812H173.926C174.886 158.812 175.51 159.124 175.51 159.892C175.51 160.684 174.874 161.032 174.082 161.032H172.438V158.812ZM172.438 162.208H174.118C175.174 162.208 175.834 162.568 175.834 163.432C175.834 164.392 174.934 164.68 174.058 164.68H172.438V162.208ZM178.927 163.456C178.927 165.112 179.611 166.132 181.291 166.132C182.107 166.132 182.791 165.604 183.067 165.16H183.103V166H184.603V160.252H183.055V163.156C183.055 164.08 182.611 164.884 181.711 164.884C180.787 164.884 180.463 164.188 180.463 163.324V160.252H178.927V163.456ZM191.132 161.044C190.508 160.432 189.44 160.096 188.456 160.096C187.148 160.096 185.96 160.72 185.96 161.956C185.96 164.044 189.764 163.24 189.764 164.38C189.764 164.836 189.2 165.028 188.648 165.028C188.012 165.028 187.28 164.728 186.704 164.188L185.768 165.112C186.2 165.484 187.232 166.18 188.66 166.18C189.98 166.18 191.24 165.592 191.24 164.284C191.24 163.096 190.136 162.736 188.864 162.532C188.036 162.4 187.448 162.28 187.448 161.86C187.448 161.44 188.012 161.272 188.528 161.272C189.116 161.272 189.884 161.584 190.256 161.944L191.132 161.044ZM197.308 161.044C196.684 160.432 195.616 160.096 194.632 160.096C193.324 160.096 192.136 160.72 192.136 161.956C192.136 164.044 195.94 163.24 195.94 164.38C195.94 164.836 195.376 165.028 194.824 165.028C194.188 165.028 193.456 164.728 192.88 164.188L191.944 165.112C192.376 165.484 193.408 166.18 194.836 166.18C196.156 166.18 197.416 165.592 197.416 164.284C197.416 163.096 196.312 162.736 195.04 162.532C194.212 162.4 193.624 162.28 193.624 161.86C193.624 161.44 194.188 161.272 194.704 161.272C195.292 161.272 196.06 161.584 196.432 161.944L197.308 161.044ZM204.216 163.516C204.228 163.336 204.24 163.156 204.24 162.952C204.24 161.5 203.22 160.096 201.468 160.096C199.728 160.096 198.396 161.44 198.396 163.252C198.396 165.064 199.788 166.18 201.42 166.18C202.62 166.18 203.664 165.58 204.144 164.884L203.112 164.212C202.848 164.524 202.32 164.992 201.528 164.992C200.64 164.992 199.968 164.464 199.86 163.516H204.216ZM201.42 161.212C202.236 161.212 202.872 161.824 202.872 162.592H199.86C199.992 161.812 200.568 161.212 201.42 161.212ZM211.418 162.772C211.418 161.356 210.818 160.096 209.15 160.096C208.214 160.096 207.482 160.612 207.206 161.128H207.158V160.252H205.658V166H207.194V163.096C207.194 162.076 207.794 161.344 208.67 161.344C209.546 161.344 209.882 162.064 209.882 162.904V166H211.418V162.772Z" fill="white"/>
<path fill-rule="evenodd" clip-rule="evenodd" d="M129.656 160.789C129.656 160.591 129.814 160.431 130.006 160.431H130.707C130.9 160.431 131.055 160.591 131.055 160.789V162.221C131.055 162.418 130.9 162.579 130.707 162.579H130.006C129.814 162.579 129.656 162.418 129.656 162.221V160.789ZM131.756 160.789C131.756 160.591 131.913 160.431 132.106 160.431H134.906C135.099 160.431 135.257 160.591 135.257 160.789V162.221C135.257 162.418 135.099 162.579 134.906 162.579H132.106C131.913 162.579 131.756 162.418 131.756 162.221V160.789ZM135.956 160.789C135.956 160.591 136.113 160.431 136.306 160.431H139.106C139.299 160.431 139.456 160.591 139.456 160.789V162.221C139.456 162.418 139.299 162.579 139.106 162.579H136.306C136.113 162.579 135.956 162.418 135.956 162.221V160.789ZM140.156 160.789C140.156 160.591 140.314 160.431 140.506 160.431H141.593C141.77 160.431 141.918 160.564 141.939 160.743L142.125 162.174C142.138 162.277 142.107 162.379 142.04 162.457C141.974 162.535 141.878 162.579 141.778 162.579H140.506C140.314 162.579 140.156 162.418 140.156 162.221V160.789ZM142.995 163.594L142.296 159.298C142.266 159.126 142.122 158.999 141.95 158.999H129.7C129.349 158.999 129 159.357 129 159.716V163.57V163.813V164.641C129 164.82 129.128 164.999 129.3 164.999H130.847C131.083 164.281 131.753 163.799 132.55 163.799C133.348 163.799 134.017 164.281 134.253 164.999H137.797C138.032 164.281 138.702 163.799 139.5 163.799C140.297 163.799 140.967 164.281 141.203 164.999H142.65C142.843 164.999 143 164.838 143 164.641V163.813V163.653C143 163.633 142.998 163.614 142.995 163.594ZM131.55 165.8C131.55 165.249 131.998 164.8 132.55 164.8C133.102 164.8 133.55 165.249 133.55 165.8C133.55 166.352 133.102 166.8 132.55 166.8C131.998 166.8 131.55 166.352 131.55 165.8ZM139.5 164.8C138.948 164.8 138.5 165.249 138.5 165.8C138.5 166.352 138.948 166.8 139.5 166.8C140.052 166.8 140.5 166.352 140.5 165.8C140.5 165.249 140.052 164.8 139.5 164.8Z" fill="#C5044E"/>
<rect x="120" y="8" width="104" height="124" rx="2" fill="#292B6A"/>
<rect x="128" y="44" width="18" height="8" rx="1" fill="#54568C"/>
<rect x="128" y="96" width="18" height="8" rx="1" fill="#54568C"/>
<rect x="151" y="44" width="18" height="8" rx="1" fill="#54568C"/>
<rect x="151" y="96" width="18" height="8" rx="1" fill="#54568C"/>
<rect x="174" y="44" width="18" height="8" rx="1" fill="#54568C"/>
<rect x="174" y="96" width="18" height="8" rx="1" fill="#54568C"/>
<rect x="197" y="44" width="18" height="8" rx="1" fill="#54568C"/>
<rect x="197" y="96" width="18" height="8" rx="1" fill="#54568C"/>
<path d="M152.972 34H156.08C157.892 34 159.548 33.388 159.548 31.576C159.548 30.412 158.756 29.692 157.736 29.536V29.512C158.588 29.26 159.164 28.612 159.164 27.676C159.164 25.972 157.652 25.504 156.344 25.504H152.972V34ZM154.532 26.812H156.02C156.98 26.812 157.604 27.124 157.604 27.892C157.604 28.684 156.968 29.032 156.176 29.032H154.532V26.812ZM154.532 30.208H156.212C157.268 30.208 157.928 30.568 157.928 31.432C157.928 32.392 157.028 32.68 156.152 32.68H154.532V30.208ZM166.768 32.62H162.916L165.304 30.388C166.06 29.692 166.744 28.948 166.744 27.784C166.744 26.104 165.352 25.288 163.864 25.288C162.328 25.288 160.996 26.224 160.828 28H162.4C162.508 27.196 163.036 26.632 163.804 26.632C164.536 26.632 165.088 27.124 165.088 27.88C165.088 28.492 164.728 28.984 164.272 29.416L160.888 32.608V34H166.768V32.62ZM171.581 34H174.689C176.501 34 178.157 33.388 178.157 31.576C178.157 30.412 177.365 29.692 176.345 29.536V29.512C177.197 29.26 177.773 28.612 177.773 27.676C177.773 25.972 176.261 25.504 174.953 25.504H171.581V34ZM173.141 26.812H174.629C175.589 26.812 176.213 27.124 176.213 27.892C176.213 28.684 175.577 29.032 174.785 29.032H173.141V26.812ZM173.141 30.208H174.821C175.877 30.208 176.537 30.568 176.537 31.432C176.537 32.392 175.637 32.68 174.761 32.68H173.141V30.208ZM183.182 31.864C183.182 32.668 182.474 33.112 181.73 33.112C181.118 33.112 180.71 32.848 180.71 32.308C180.71 31.768 181.058 31.384 181.886 31.384C182.33 31.384 182.786 31.468 183.182 31.564V31.864ZM179.258 32.344C179.258 33.628 180.29 34.156 181.358 34.156C182.09 34.156 182.798 33.868 183.146 33.304H183.182V34H184.61V30.556C184.61 28.816 183.806 28.096 181.994 28.096C180.866 28.096 180.086 28.384 179.474 28.972L180.314 29.872C180.686 29.5 181.214 29.26 181.886 29.26C182.81 29.26 183.182 29.644 183.182 30.376V30.628C182.678 30.52 182.222 30.472 181.754 30.472C180.086 30.472 179.258 31.228 179.258 32.344ZM183.374 26.092C183.374 25.396 182.81 24.868 182.126 24.868C181.43 24.868 180.878 25.396 180.878 26.104C180.878 26.8 181.442 27.328 182.126 27.328C182.81 27.328 183.374 26.8 183.374 26.092ZM182.75 26.092C182.75 26.44 182.474 26.704 182.126 26.704C181.778 26.704 181.502 26.44 181.502 26.092C181.502 25.756 181.778 25.492 182.126 25.492C182.474 25.492 182.75 25.756 182.75 26.092ZM189.407 32.8H188.975C188.423 32.8 187.955 32.74 187.955 31.732V29.44H189.419V28.252H187.955V26.74H186.455V28.252H185.543V29.44H186.455V31.696C186.455 33.652 186.911 34 188.711 34H189.407V32.8ZM195.977 31.516C195.989 31.336 196.001 31.156 196.001 30.952C196.001 29.5 194.981 28.096 193.229 28.096C191.489 28.096 190.157 29.44 190.157 31.252C190.157 33.064 191.549 34.18 193.181 34.18C194.381 34.18 195.425 33.58 195.905 32.884L194.873 32.212C194.609 32.524 194.081 32.992 193.289 32.992C192.401 32.992 191.729 32.464 191.621 31.516H195.977ZM193.181 29.212C193.997 29.212 194.633 29.824 194.633 30.592H191.621C191.753 29.812 192.329 29.212 193.181 29.212ZM203.179 30.772C203.179 29.356 202.579 28.096 200.911 28.096C199.975 28.096 199.243 28.612 198.967 29.128H198.919V28.252H197.419V34H198.955V31.096C198.955 30.076 199.555 29.344 200.431 29.344C201.307 29.344 201.643 30.064 201.643 30.904V34H203.179V30.772Z" fill="white"/>
<path d="M152.972 86H156.08C157.892 86 159.548 85.388 159.548 83.576C159.548 82.412 158.756 81.692 157.736 81.536V81.512C158.588 81.26 159.164 80.612 159.164 79.676C159.164 77.972 157.652 77.504 156.344 77.504H152.972V86ZM154.532 78.812H156.02C156.98 78.812 157.604 79.124 157.604 79.892C157.604 80.684 156.968 81.032 156.176 81.032H154.532V78.812ZM154.532 82.208H156.212C157.268 82.208 157.928 82.568 157.928 83.432C157.928 84.392 157.028 84.68 156.152 84.68H154.532V82.208ZM166.768 84.62H162.916L165.304 82.388C166.06 81.692 166.744 80.948 166.744 79.784C166.744 78.104 165.352 77.288 163.864 77.288C162.328 77.288 160.996 78.224 160.828 80H162.4C162.508 79.196 163.036 78.632 163.804 78.632C164.536 78.632 165.088 79.124 165.088 79.88C165.088 80.492 164.728 80.984 164.272 81.416L160.888 84.608V86H166.768V84.62ZM171.581 86H174.689C176.501 86 178.157 85.388 178.157 83.576C178.157 82.412 177.365 81.692 176.345 81.536V81.512C177.197 81.26 177.773 80.612 177.773 79.676C177.773 77.972 176.261 77.504 174.953 77.504H171.581V86ZM173.141 78.812H174.629C175.589 78.812 176.213 79.124 176.213 79.892C176.213 80.684 175.577 81.032 174.785 81.032H173.141V78.812ZM173.141 82.208H174.821C175.877 82.208 176.537 82.568 176.537 83.432C176.537 84.392 175.637 84.68 174.761 84.68H173.141V82.208ZM183.182 83.864C183.182 84.668 182.474 85.112 181.73 85.112C181.118 85.112 180.71 84.848 180.71 84.308C180.71 83.768 181.058 83.384 181.886 83.384C182.33 83.384 182.786 83.468 183.182 83.564V83.864ZM179.258 84.344C179.258 85.628 180.29 86.156 181.358 86.156C182.09 86.156 182.798 85.868 183.146 85.304H183.182V86H184.61V82.556C184.61 80.816 183.806 80.096 181.994 80.096C180.866 80.096 180.086 80.384 179.474 80.972L180.314 81.872C180.686 81.5 181.214 81.26 181.886 81.26C182.81 81.26 183.182 81.644 183.182 82.376V82.628C182.678 82.52 182.222 82.472 181.754 82.472C180.086 82.472 179.258 83.228 179.258 84.344ZM183.374 78.092C183.374 77.396 182.81 76.868 182.126 76.868C181.43 76.868 180.878 77.396 180.878 78.104C180.878 78.8 181.442 79.328 182.126 79.328C182.81 79.328 183.374 78.8 183.374 78.092ZM182.75 78.092C182.75 78.44 182.474 78.704 182.126 78.704C181.778 78.704 181.502 78.44 181.502 78.092C181.502 77.756 181.778 77.492 182.126 77.492C182.474 77.492 182.75 77.756 182.75 78.092ZM189.407 84.8H188.975C188.423 84.8 187.955 84.74 187.955 83.732V81.44H189.419V80.252H187.955V78.74H186.455V80.252H185.543V81.44H186.455V83.696C186.455 85.652 186.911 86 188.711 86H189.407V84.8ZM195.977 83.516C195.989 83.336 196.001 83.156 196.001 82.952C196.001 81.5 194.981 80.096 193.229 80.096C191.489 80.096 190.157 81.44 190.157 83.252C190.157 85.064 191.549 86.18 193.181 86.18C194.381 86.18 195.425 85.58 195.905 84.884L194.873 84.212C194.609 84.524 194.081 84.992 193.289 84.992C192.401 84.992 191.729 84.464 191.621 83.516H195.977ZM193.181 81.212C193.997 81.212 194.633 81.824 194.633 82.592H191.621C191.753 81.812 192.329 81.212 193.181 81.212ZM203.179 82.772C203.179 81.356 202.579 80.096 200.911 80.096C199.975 80.096 199.243 80.612 198.967 81.128H198.919V80.252H197.419V86H198.955V83.096C198.955 82.076 199.555 81.344 200.431 81.344C201.307 81.344 201.643 82.064 201.643 82.904V86H203.179V82.772Z" fill="white"/>
<path fill-rule="evenodd" clip-rule="evenodd" d="M138.202 29.4594L140.135 29.4584C140.244 29.4584 140.346 29.3944 140.293 29.2294L140.1 28.4494C140.073 28.3374 139.971 28.2584 139.856 28.2584H138.202C138.091 28.2584 138 28.3484 138 28.4594V29.2584C138 29.3694 138.091 29.4594 138.202 29.4594ZM137.397 29.4584C137.509 29.4584 137.601 29.3674 137.601 29.2544V28.4614C137.601 28.3494 137.509 28.2584 137.397 28.2584H136.004C135.892 28.2584 135.8 28.3494 135.8 28.4614V29.2544C135.8 29.3674 135.892 29.4584 136.004 29.4584H137.397ZM135.197 29.4584C135.307 29.4584 135.397 29.3684 135.397 29.2584V28.4584C135.397 28.3474 135.307 28.2584 135.197 28.2584H133.747C133.651 28.2584 133.562 28.3124 133.519 28.3994L133.138 29.1794C133.035 29.3604 133.147 29.4584 133.271 29.4584H135.197ZM142.087 29.4584H142.749C142.939 29.4584 143.059 29.6614 142.968 29.8274L141.358 32.7904L141.348 32.7846C140.953 32.569 140.403 32.2694 139.513 32.2694C138.814 32.2694 138.464 32.4526 138.113 32.6358C137.763 32.8191 137.413 33.0024 136.712 33.0024C136.013 33.0024 135.663 32.8193 135.314 32.6361C134.963 32.4528 134.613 32.2694 133.912 32.2694C133.213 32.2694 132.863 32.4526 132.513 32.6358C132.164 32.8191 131.814 33.0024 131.113 33.0024C130.495 33.0024 130.151 32.8594 129.837 32.7004L131.333 29.6534C131.392 29.5344 131.514 29.4584 131.647 29.4584H131.75H131.986H132.315C132.336 29.4584 132.355 29.4444 132.362 29.4244L133.46 27.1994C133.52 27.0794 133.643 27.0024 133.778 27.0024H135.556H137.169C137.19 27.0024 137.215 26.9884 137.215 26.9484V26.4854C137.215 26.3154 137.31 26.1594 137.459 26.0834L138.672 25.3774C138.875 25.2774 139.016 25.3894 139.089 25.5754L139.43 26.3994C139.437 26.4204 139.455 26.4334 139.476 26.4344H140.031C140.18 26.4344 140.313 26.5314 140.361 26.6764L141.268 29.4214C141.275 29.4434 141.295 29.4584 141.318 29.4584H141.857H142.087ZM135.105 34.5776C135.483 34.7766 135.913 35.0023 136.736 35.0023C137.559 35.0023 137.989 34.7766 138.367 34.5776L138.368 34.5773C138.698 34.4043 138.959 34.2683 139.536 34.2683C139.948 34.2683 140.199 34.3373 140.429 34.4403L140.908 33.5603C140.582 33.4053 140.178 33.2683 139.536 33.2683C138.713 33.2683 138.282 33.4933 137.903 33.6923L137.902 33.6926C137.573 33.8655 137.312 34.0023 136.736 34.0023C136.16 34.0023 135.899 33.8655 135.57 33.6926L135.569 33.6923C135.19 33.4933 134.759 33.2683 133.936 33.2683C133.113 33.2683 132.683 33.4933 132.303 33.6923L132.301 33.6935C131.972 33.866 131.712 34.0023 131.135 34.0023C130.395 34.0023 129.698 33.5674 129.644 33.5335L129.642 33.5323L129.446 33.4243L129 34.3173L129.129 34.3893C129.167 34.4143 130.084 35.0023 131.135 35.0023C131.956 35.0023 132.385 34.7777 132.764 34.5792L132.768 34.5773C133.098 34.4043 133.359 34.2683 133.936 34.2683C134.513 34.2683 134.774 34.4043 135.104 34.5773L135.105 34.5776Z" fill="#0497BC"/>
<path fill-rule="evenodd" clip-rule="evenodd" d="M138.202 81.4594L140.135 81.4584C140.244 81.4584 140.346 81.3944 140.293 81.2294L140.1 80.4494C140.073 80.3374 139.971 80.2584 139.856 80.2584H138.202C138.091 80.2584 138 80.3484 138 80.4594V81.2584C138 81.3694 138.091 81.4594 138.202 81.4594ZM137.397 81.4584C137.509 81.4584 137.601 81.3674 137.601 81.2544V80.4614C137.601 80.3494 137.509 80.2584 137.397 80.2584H136.004C135.892 80.2584 135.8 80.3494 135.8 80.4614V81.2544C135.8 81.3674 135.892 81.4584 136.004 81.4584H137.397ZM135.197 81.4584C135.307 81.4584 135.397 81.3684 135.397 81.2584V80.4584C135.397 80.3474 135.307 80.2584 135.197 80.2584H133.747C133.651 80.2584 133.562 80.3124 133.519 80.3994L133.138 81.1794C133.035 81.3604 133.147 81.4584 133.271 81.4584H135.197ZM142.087 81.4584H142.749C142.939 81.4584 143.059 81.6614 142.968 81.8274L141.358 84.7904L141.348 84.7846C140.953 84.569 140.403 84.2694 139.513 84.2694C138.814 84.2694 138.464 84.4526 138.113 84.6358C137.763 84.8191 137.413 85.0024 136.712 85.0024C136.013 85.0024 135.663 84.8193 135.314 84.6361C134.963 84.4528 134.613 84.2694 133.912 84.2694C133.213 84.2694 132.863 84.4526 132.513 84.6358C132.164 84.8191 131.814 85.0024 131.113 85.0024C130.495 85.0024 130.151 84.8594 129.837 84.7004L131.333 81.6534C131.392 81.5344 131.514 81.4584 131.647 81.4584H131.75H131.986H132.315C132.336 81.4584 132.355 81.4444 132.362 81.4244L133.46 79.1994C133.52 79.0794 133.643 79.0024 133.778 79.0024H135.556H137.169C137.19 79.0024 137.215 78.9884 137.215 78.9484V78.4854C137.215 78.3154 137.31 78.1594 137.459 78.0834L138.672 77.3774C138.875 77.2774 139.016 77.3894 139.089 77.5754L139.43 78.3994C139.437 78.4204 139.455 78.4334 139.476 78.4344H140.031C140.18 78.4344 140.313 78.5314 140.361 78.6764L141.268 81.4214C141.275 81.4434 141.295 81.4584 141.318 81.4584H141.857H142.087ZM135.105 86.5776C135.483 86.7766 135.913 87.0023 136.736 87.0023C137.559 87.0023 137.989 86.7766 138.367 86.5776L138.368 86.5773C138.698 86.4043 138.959 86.2683 139.536 86.2683C139.948 86.2683 140.199 86.3373 140.429 86.4403L140.908 85.5603C140.582 85.4053 140.178 85.2683 139.536 85.2683C138.713 85.2683 138.282 85.4933 137.903 85.6923L137.902 85.6926C137.573 85.8655 137.312 86.0023 136.736 86.0023C136.16 86.0023 135.899 85.8655 135.57 85.6926L135.569 85.6923C135.19 85.4933 134.759 85.2683 133.936 85.2683C133.113 85.2683 132.683 85.4933 132.303 85.6923L132.301 85.6935C131.972 85.866 131.712 86.0023 131.135 86.0023C130.395 86.0023 129.698 85.5674 129.644 85.5335L129.642 85.5323L129.446 85.4243L129 86.3173L129.129 86.3893C129.167 86.4143 130.084 87.0023 131.135 87.0023C131.956 87.0023 132.385 86.7777 132.764 86.5792L132.768 86.5773C133.098 86.4043 133.359 86.2683 133.936 86.2683C134.513 86.2683 134.774 86.4043 135.104 86.5773L135.105 86.5776Z" fill="#0497BC"/>
<rect x="232" y="8" width="104" height="196" rx="2" fill="#292B6A"/>
<path d="M45.952 28.132C45.952 28.996 45.376 29.512 44.236 29.512H42.544V26.848H44.2C45.292 26.848 45.952 27.22 45.952 28.132ZM40.972 34H42.556V30.748H44.02L46.072 34H47.992L45.664 30.496C46.612 30.256 47.548 29.44 47.548 28.072C47.548 26.476 46.432 25.504 44.464 25.504H40.972V34ZM53.0662 25.504H51.6262L49.0582 27.448L49.8982 28.528L51.4702 27.328V34H53.0662V25.504ZM59.2593 25.288C56.9553 25.288 56.1273 27.412 56.1273 29.74C56.1273 32.08 56.9553 34.228 59.2593 34.228C61.5513 34.228 62.3793 32.08 62.3793 29.74C62.3793 27.412 61.5513 25.288 59.2593 25.288ZM59.2593 26.632C60.4713 26.632 60.7473 28.444 60.7473 29.74C60.7473 31.06 60.4713 32.86 59.2593 32.86C58.0233 32.86 57.7593 31.06 57.7593 29.74C57.7593 28.444 58.0233 26.632 59.2593 26.632ZM70.2405 26.896H72.8085V25.504H66.0765V26.896H68.6325V34H70.2405V26.896ZM78.5858 31.12C78.5858 29.308 77.1818 28.096 75.4298 28.096C73.6898 28.096 72.2978 29.308 72.2978 31.12C72.2978 32.944 73.6898 34.18 75.4298 34.18C77.1818 34.18 78.5858 32.944 78.5858 31.12ZM77.0498 31.12C77.0498 32.056 76.4618 32.872 75.4298 32.872C74.4218 32.872 73.8218 32.056 73.8218 31.12C73.8218 30.196 74.4218 29.392 75.4298 29.392C76.4618 29.392 77.0498 30.196 77.0498 31.12ZM79.7409 35.908C80.4969 36.544 81.5769 36.88 82.6089 36.88C84.8769 36.88 85.9569 35.56 85.9569 33.628V28.252H84.4809V29.104H84.4569C84.0249 28.432 83.2929 28.096 82.5129 28.096C80.7729 28.096 79.6689 29.464 79.6689 31.072C79.6689 32.824 80.8689 34 82.6089 34C83.3169 34 84.0369 33.664 84.4089 33.136H84.4329V33.748C84.4329 34.828 83.8929 35.62 82.5609 35.62C81.8289 35.62 81.0609 35.296 80.5569 34.792L79.7409 35.908ZM81.2409 31.084C81.2409 30.148 81.8649 29.38 82.8609 29.38C83.8329 29.38 84.5169 30.148 84.5169 31.072C84.5169 32.044 83.8329 32.788 82.8609 32.788C81.8649 32.788 81.2409 31.972 81.2409 31.084ZM93.2118 31.516C93.2238 31.336 93.2358 31.156 93.2358 30.952C93.2358 29.5 92.2158 28.096 90.4638 28.096C88.7238 28.096 87.3918 29.44 87.3918 31.252C87.3918 33.064 88.7838 34.18 90.4158 34.18C91.6158 34.18 92.6598 33.58 93.1398 32.884L92.1078 32.212C91.8438 32.524 91.3158 32.992 90.5238 32.992C89.6358 32.992 88.9638 32.464 88.8558 31.516H93.2118ZM90.4158 29.212C91.2318 29.212 91.8678 29.824 91.8678 30.592H88.8558C88.9878 29.812 89.5638 29.212 90.4158 29.212ZM97.7856 32.8H97.3536C96.8016 32.8 96.3336 32.74 96.3336 31.732V29.44H97.7976V28.252H96.3336V26.74H94.8336V28.252H93.9216V29.44H94.8336V31.696C94.8336 33.652 95.2896 34 97.0896 34H97.7856V32.8Z" fill="white"/>
<path d="M42.58 77.504H40.972V86H46.132V84.596H42.58V77.504ZM52.8464 84.62H48.9944L51.3824 82.388C52.1384 81.692 52.8224 80.948 52.8224 79.784C52.8224 78.104 51.4304 77.288 49.9424 77.288C48.4064 77.288 47.0744 78.224 46.9064 80H48.4784C48.5864 79.196 49.1144 78.632 49.8824 78.632C50.6144 78.632 51.1664 79.124 51.1664 79.88C51.1664 80.492 50.8064 80.984 50.3504 81.416L46.9664 84.608V86H52.8464V84.62ZM60.9475 78.896H63.5155V77.504H56.7835V78.896H59.3395V86H60.9475V78.896ZM69.2928 83.12C69.2928 81.308 67.8888 80.096 66.1368 80.096C64.3968 80.096 63.0048 81.308 63.0048 83.12C63.0048 84.944 64.3968 86.18 66.1368 86.18C67.8888 86.18 69.2928 84.944 69.2928 83.12ZM67.7568 83.12C67.7568 84.056 67.1688 84.872 66.1368 84.872C65.1288 84.872 64.5288 84.056 64.5288 83.12C64.5288 82.196 65.1288 81.392 66.1368 81.392C67.1688 81.392 67.7568 82.196 67.7568 83.12ZM70.4479 87.908C71.2039 88.544 72.2839 88.88 73.3159 88.88C75.5839 88.88 76.6639 87.56 76.6639 85.628V80.252H75.1879V81.104H75.1639C74.7319 80.432 73.9999 80.096 73.2199 80.096C71.4799 80.096 70.3759 81.464 70.3759 83.072C70.3759 84.824 71.5759 86 73.3159 86C74.0239 86 74.7439 85.664 75.1159 85.136H75.1399V85.748C75.1399 86.828 74.5999 87.62 73.2679 87.62C72.5359 87.62 71.7679 87.296 71.2639 86.792L70.4479 87.908ZM71.9479 83.084C71.9479 82.148 72.5719 81.38 73.5679 81.38C74.5399 81.38 75.2239 82.148 75.2239 83.072C75.2239 84.044 74.5399 84.788 73.5679 84.788C72.5719 84.788 71.9479 83.972 71.9479 83.084ZM83.9189 83.516C83.9309 83.336 83.9429 83.156 83.9429 82.952C83.9429 81.5 82.9229 80.096 81.1709 80.096C79.4309 80.096 78.0989 81.44 78.0989 83.252C78.0989 85.064 79.4909 86.18 81.1229 86.18C82.3229 86.18 83.3669 85.58 83.8469 84.884L82.8149 84.212C82.5509 84.524 82.0229 84.992 81.2309 84.992C80.3429 84.992 79.6709 84.464 79.5629 83.516H83.9189ZM81.1229 81.212C81.9389 81.212 82.5749 81.824 82.5749 82.592H79.5629C79.6949 81.812 80.2709 81.212 81.1229 81.212ZM88.4927 84.8H88.0607C87.5087 84.8 87.0407 84.74 87.0407 83.732V81.44H88.5047V80.252H87.0407V78.74H85.5407V80.252H84.6287V81.44H85.5407V83.696C85.5407 85.652 85.9967 86 87.7967 86H88.4927V84.8Z" fill="white"/>
<path d="M42.58 129.504H40.972V138H46.132V136.596H42.58V129.504ZM51.2264 129.504H49.7864L47.2184 131.448L48.0584 132.528L49.6304 131.328V138H51.2264V129.504ZM58.6795 129.504H57.2395L54.6715 131.448L55.5115 132.528L57.0835 131.328V138H58.6795V129.504ZM68.4006 130.896H70.9686V129.504H64.2366V130.896H66.7926V138H68.4006V130.896ZM76.746 135.12C76.746 133.308 75.342 132.096 73.59 132.096C71.85 132.096 70.458 133.308 70.458 135.12C70.458 136.944 71.85 138.18 73.59 138.18C75.342 138.18 76.746 136.944 76.746 135.12ZM75.21 135.12C75.21 136.056 74.622 136.872 73.59 136.872C72.582 136.872 71.982 136.056 71.982 135.12C71.982 134.196 72.582 133.392 73.59 133.392C74.622 133.392 75.21 134.196 75.21 135.12ZM77.9011 139.908C78.6571 140.544 79.7371 140.88 80.7691 140.88C83.0371 140.88 84.1171 139.56 84.1171 137.628V132.252H82.6411V133.104H82.6171C82.1851 132.432 81.4531 132.096 80.6731 132.096C78.9331 132.096 77.8291 133.464 77.8291 135.072C77.8291 136.824 79.0291 138 80.7691 138C81.4771 138 82.1971 137.664 82.5691 137.136H82.5931V137.748C82.5931 138.828 82.0531 139.62 80.7211 139.62C79.9891 139.62 79.2211 139.296 78.7171 138.792L77.9011 139.908ZM79.4011 135.084C79.4011 134.148 80.0251 133.38 81.0211 133.38C81.9931 133.38 82.6771 134.148 82.6771 135.072C82.6771 136.044 81.9931 136.788 81.0211 136.788C80.0251 136.788 79.4011 135.972 79.4011 135.084ZM91.372 135.516C91.384 135.336 91.396 135.156 91.396 134.952C91.396 133.5 90.376 132.096 88.624 132.096C86.884 132.096 85.552 133.44 85.552 135.252C85.552 137.064 86.944 138.18 88.576 138.18C89.776 138.18 90.82 137.58 91.3 136.884L90.268 136.212C90.004 136.524 89.476 136.992 88.684 136.992C87.796 136.992 87.124 136.464 87.016 135.516H91.372ZM88.576 133.212C89.392 133.212 90.028 133.824 90.028 134.592H87.016C87.148 133.812 87.724 133.212 88.576 133.212ZM95.9458 136.8H95.5138C94.9618 136.8 94.4938 136.74 94.4938 135.732V133.44H95.9578V132.252H94.4938V130.74H92.9938V132.252H92.0818V133.44H92.9938V135.696C92.9938 137.652 93.4498 138 95.2498 138H95.9458V136.8Z" fill="white"/>
<path fill-rule="evenodd" clip-rule="evenodd" d="M27.896 29.764C28.04 29.764 28.168 29.729 28.213 29.593C28.258 29.457 28.211 29.364 28.097 29.278L27.063 28.499C27.004 28.456 26.934 28.432 26.862 28.432H26.196C26.053 28.432 25.926 28.524 25.88 28.659C25.835 28.795 25.881 28.945 25.996 29.031L26.946 29.701C27.0342 29.767 27.1344 29.7654 27.2061 29.7643C27.2148 29.7641 27.2232 29.764 27.231 29.764H27.896ZM30.659 29.991C30.698 30.031 30.729 30.065 30.75 30.1C30.905 30.306 31 30.557 31 30.834C31 31.327 30.591 31.981 30.1 32.736C29.992 32.901 29.809 33.001 29.611 33.001H17V27H21.402L23.102 25.833L21.4 24.4H22.364L23.858 25.579C23.939 25.638 24 25.729 24 25.854C24 25.977 23.952 26.034 23.851 26.11L22.557 27H26.096C26.336 27 26.736 27.096 27.095 27.332C28.192 28.055 30.216 29.546 30.531 29.86C30.5477 29.8771 30.563 29.8927 30.5774 29.9074C30.5941 29.9243 30.6095 29.94 30.624 29.955C30.636 29.966 30.648 29.979 30.659 29.991ZM30.0001 35.0003H17.0001V34.0003H30.0001V35.0003Z" fill="#00367F"/>
<path fill-rule="evenodd" clip-rule="evenodd" d="M27.896 81.764C28.04 81.764 28.168 81.729 28.213 81.593C28.258 81.457 28.211 81.364 28.097 81.278L27.063 80.499C27.004 80.456 26.934 80.432 26.862 80.432H26.196C26.053 80.432 25.926 80.524 25.88 80.659C25.835 80.795 25.881 80.945 25.996 81.031L26.946 81.701C27.0342 81.7669 27.1344 81.7654 27.2061 81.7643C27.2148 81.7641 27.2232 81.764 27.231 81.764H27.896ZM30.659 81.991C30.698 82.031 30.729 82.065 30.75 82.1C30.905 82.306 31 82.557 31 82.834C31 83.327 30.591 83.981 30.1 84.736C29.992 84.901 29.809 85.001 29.611 85.001H17V79H21.402L23.102 77.833L21.4 76.4H22.364L23.858 77.579C23.939 77.638 24 77.729 24 77.854C24 77.977 23.952 78.034 23.851 78.11L22.557 79H26.096C26.336 79 26.736 79.096 27.095 79.332C28.192 80.055 30.216 81.546 30.531 81.86C30.5477 81.8771 30.563 81.8927 30.5774 81.9074C30.5941 81.9243 30.6095 81.94 30.624 81.955C30.636 81.966 30.648 81.979 30.659 81.991ZM30.0001 87.0003H17.0001V86.0003H30.0001V87.0003Z" fill="#00367F"/>
<path fill-rule="evenodd" clip-rule="evenodd" d="M27.896 133.764C28.04 133.764 28.168 133.729 28.213 133.593C28.258 133.457 28.211 133.364 28.097 133.278L27.063 132.499C27.004 132.456 26.934 132.432 26.862 132.432H26.196C26.053 132.432 25.926 132.524 25.88 132.659C25.835 132.795 25.881 132.945 25.996 133.031L26.946 133.701C27.0342 133.767 27.1344 133.765 27.2061 133.764C27.2148 133.764 27.2232 133.764 27.231 133.764H27.896ZM30.659 133.991C30.698 134.031 30.729 134.065 30.75 134.1C30.905 134.306 31 134.557 31 134.834C31 135.327 30.591 135.981 30.1 136.736C29.992 136.901 29.809 137.001 29.611 137.001H17V131H21.402L23.102 129.833L21.4 128.4H22.364L23.858 129.579C23.939 129.638 24 129.729 24 129.854C24 129.977 23.952 130.034 23.851 130.11L22.557 131H26.096C26.336 131 26.736 131.096 27.095 131.332C28.192 132.055 30.216 133.546 30.531 133.86C30.5477 133.877 30.563 133.893 30.5774 133.907C30.5941 133.924 30.6095 133.94 30.624 133.955C30.636 133.966 30.648 133.979 30.659 133.991ZM30.0001 139H17.0001V138H30.0001V139Z" fill="#00367F"/>
<rect x="240" y="44" width="18" height="8" rx="1" fill="white" fill-opacity="0.11"/>
<rect x="240" y="96" width="18" height="8" rx="1" fill="white" fill-opacity="0.11"/>
<rect x="240" y="148" width="18" height="8" rx="1" fill="white" fill-opacity="0.11"/>
<rect x="263" y="44" width="18" height="8" rx="1" fill="white" fill-opacity="0.11"/>
<rect x="263" y="96" width="18" height="8" rx="1" fill="white" fill-opacity="0.11"/>
<rect x="263" y="148" width="18" height="8" rx="1" fill="white" fill-opacity="0.11"/>
<rect x="286" y="44" width="18" height="8" rx="1" fill="white" fill-opacity="0.11"/>
<rect x="286" y="96" width="18" height="8" rx="1" fill="white" fill-opacity="0.11"/>
<rect x="286" y="148" width="18" height="8" rx="1" fill="white" fill-opacity="0.11"/>
<rect x="309" y="44" width="18" height="8" rx="1" fill="white" fill-opacity="0.11"/>
<rect x="309" y="96" width="18" height="8" rx="1" fill="white" fill-opacity="0.11"/>
<rect x="309" y="148" width="18" height="8" rx="1" fill="white" fill-opacity="0.11"/>
<path d="M270.612 32.62H266.76L269.148 30.388C269.904 29.692 270.588 28.948 270.588 27.784C270.588 26.104 269.196 25.288 267.708 25.288C266.172 25.288 264.84 26.224 264.672 28H266.244C266.352 27.196 266.88 26.632 267.648 26.632C268.38 26.632 268.932 27.124 268.932 27.88C268.932 28.492 268.572 28.984 268.116 29.416L264.732 32.608V34H270.612V32.62ZM275.185 25.288C272.881 25.288 272.053 27.412 272.053 29.74C272.053 32.08 272.881 34.228 275.185 34.228C277.477 34.228 278.305 32.08 278.305 29.74C278.305 27.412 277.477 25.288 275.185 25.288ZM275.185 26.632C276.397 26.632 276.673 28.444 276.673 29.74C276.673 31.06 276.397 32.86 275.185 32.86C273.949 32.86 273.685 31.06 273.685 29.74C273.685 28.444 273.949 26.632 275.185 26.632ZM282.878 34H285.986C287.798 34 289.454 33.388 289.454 31.576C289.454 30.412 288.662 29.692 287.642 29.536V29.512C288.494 29.26 289.07 28.612 289.07 27.676C289.07 25.972 287.558 25.504 286.25 25.504H282.878V34ZM284.438 26.812H285.926C286.886 26.812 287.51 27.124 287.51 27.892C287.51 28.684 286.874 29.032 286.082 29.032H284.438V26.812ZM284.438 30.208H286.118C287.174 30.208 287.834 30.568 287.834 31.432C287.834 32.392 286.934 32.68 286.058 32.68H284.438V30.208ZM290.927 31.456C290.927 33.112 291.611 34.132 293.291 34.132C294.107 34.132 294.791 33.604 295.067 33.16H295.103V34H296.603V28.252H295.055V31.156C295.055 32.08 294.611 32.884 293.711 32.884C292.787 32.884 292.463 32.188 292.463 31.324V28.252H290.927V31.456ZM303.132 29.044C302.508 28.432 301.44 28.096 300.456 28.096C299.148 28.096 297.96 28.72 297.96 29.956C297.96 32.044 301.764 31.24 301.764 32.38C301.764 32.836 301.2 33.028 300.648 33.028C300.012 33.028 299.28 32.728 298.704 32.188L297.768 33.112C298.2 33.484 299.232 34.18 300.66 34.18C301.98 34.18 303.24 33.592 303.24 32.284C303.24 31.096 302.136 30.736 300.864 30.532C300.036 30.4 299.448 30.28 299.448 29.86C299.448 29.44 300.012 29.272 300.528 29.272C301.116 29.272 301.884 29.584 302.256 29.944L303.132 29.044ZM309.308 29.044C308.684 28.432 307.616 28.096 306.632 28.096C305.324 28.096 304.136 28.72 304.136 29.956C304.136 32.044 307.94 31.24 307.94 32.38C307.94 32.836 307.376 33.028 306.824 33.028C306.188 33.028 305.456 32.728 304.88 32.188L303.944 33.112C304.376 33.484 305.408 34.18 306.836 34.18C308.156 34.18 309.416 33.592 309.416 32.284C309.416 31.096 308.312 30.736 307.04 30.532C306.212 30.4 305.624 30.28 305.624 29.86C305.624 29.44 306.188 29.272 306.704 29.272C307.292 29.272 308.06 29.584 308.432 29.944L309.308 29.044ZM316.216 31.516C316.228 31.336 316.24 31.156 316.24 30.952C316.24 29.5 315.22 28.096 313.468 28.096C311.728 28.096 310.396 29.44 310.396 31.252C310.396 33.064 311.788 34.18 313.42 34.18C314.62 34.18 315.664 33.58 316.144 32.884L315.112 32.212C314.848 32.524 314.32 32.992 313.528 32.992C312.64 32.992 311.968 32.464 311.86 31.516H316.216ZM313.42 29.212C314.236 29.212 314.872 29.824 314.872 30.592H311.86C311.992 29.812 312.568 29.212 313.42 29.212ZM323.418 30.772C323.418 29.356 322.818 28.096 321.15 28.096C320.214 28.096 319.482 28.612 319.206 29.128H319.158V28.252H317.658V34H319.194V31.096C319.194 30.076 319.794 29.344 320.67 29.344C321.546 29.344 321.882 30.064 321.882 30.904V34H323.418V30.772Z" fill="white"/>
<path d="M268.992 77.504H267.552L264.984 79.448L265.824 80.528L267.396 79.328V86H268.992V77.504ZM278.017 77.504H272.269V78.872H276.337L272.881 86H274.705L278.017 78.8V77.504ZM286.166 78.896H288.734V77.504H282.002V78.896H284.558V86H286.166V78.896ZM288.642 86H290.178V83.096C290.178 82.232 290.682 81.452 291.678 81.452C291.858 81.452 292.122 81.476 292.278 81.524V80.144C292.146 80.108 292.002 80.096 291.834 80.096C291.078 80.096 290.442 80.54 290.142 81.152H290.106V80.252H288.642V86ZM293.248 86H294.784V80.252H293.248V86ZM293.104 78.116C293.104 78.632 293.512 79.016 294.016 79.016C294.532 79.016 294.94 78.632 294.94 78.116C294.94 77.612 294.532 77.192 294.016 77.192C293.512 77.192 293.104 77.612 293.104 78.116ZM300.524 86H302.408L300.164 82.34L302.24 80.252H300.308L298.172 82.592H298.136V76.928H296.588V86H298.136V84.248L299.024 83.336L300.524 86ZM307.285 86H309.169L306.925 82.34L309.001 80.252H307.069L304.933 82.592H304.897V76.928H303.349V86H304.897V84.248L305.785 83.336L307.285 86ZM315.372 83.516C315.384 83.336 315.396 83.156 315.396 82.952C315.396 81.5 314.376 80.096 312.624 80.096C310.884 80.096 309.552 81.44 309.552 83.252C309.552 85.064 310.944 86.18 312.576 86.18C313.776 86.18 314.82 85.58 315.3 84.884L314.268 84.212C314.004 84.524 313.476 84.992 312.684 84.992C311.796 84.992 311.124 84.464 311.016 83.516H315.372ZM312.576 81.212C313.392 81.212 314.028 81.824 314.028 82.592H311.016C311.148 81.812 311.724 81.212 312.576 81.212ZM322.574 82.772C322.574 81.356 321.974 80.096 320.306 80.096C319.37 80.096 318.638 80.612 318.362 81.128H318.314V80.252H316.814V86H318.35V83.096C318.35 82.076 318.95 81.344 319.826 81.344C320.702 81.344 321.038 82.064 321.038 82.904V86H322.574V82.772Z" fill="white"/>
<path d="M268.992 129.504H267.552L264.984 131.448L265.824 132.528L267.396 131.328V138H268.992V129.504ZM276.637 133.536V133.512C277.405 133.26 277.933 132.54 277.933 131.628C277.933 130.128 276.649 129.288 275.185 129.288C273.709 129.288 272.425 130.152 272.425 131.652C272.425 132.564 272.977 133.248 273.721 133.512V133.548C272.857 133.812 272.161 134.58 272.161 135.66C272.161 137.34 273.577 138.228 275.185 138.228C276.769 138.228 278.197 137.328 278.197 135.648C278.197 134.592 277.525 133.788 276.637 133.536ZM273.961 131.736C273.961 131.052 274.477 130.536 275.185 130.536C275.857 130.536 276.397 131.052 276.397 131.736C276.397 132.396 275.869 132.936 275.185 132.936C274.477 132.936 273.961 132.396 273.961 131.736ZM273.745 135.564C273.745 134.772 274.333 134.184 275.185 134.184C276.025 134.184 276.613 134.784 276.613 135.564C276.613 136.38 276.025 136.956 275.185 136.956C274.321 136.956 273.745 136.38 273.745 135.564ZM286.166 130.896H288.734V129.504H282.002V130.896H284.558V138H286.166V130.896ZM288.642 138H290.178V135.096C290.178 134.232 290.682 133.452 291.678 133.452C291.858 133.452 292.122 133.476 292.278 133.524V132.144C292.146 132.108 292.002 132.096 291.834 132.096C291.078 132.096 290.442 132.54 290.142 133.152H290.106V132.252H288.642V138ZM293.248 138H294.784V132.252H293.248V138ZM293.104 130.116C293.104 130.632 293.512 131.016 294.016 131.016C294.532 131.016 294.94 130.632 294.94 130.116C294.94 129.612 294.532 129.192 294.016 129.192C293.512 129.192 293.104 129.612 293.104 130.116ZM300.524 138H302.408L300.164 134.34L302.24 132.252H300.308L298.172 134.592H298.136V128.928H296.588V138H298.136V136.248L299.024 135.336L300.524 138ZM307.285 138H309.169L306.925 134.34L309.001 132.252H307.069L304.933 134.592H304.897V128.928H303.349V138H304.897V136.248L305.785 135.336L307.285 138ZM315.372 135.516C315.384 135.336 315.396 135.156 315.396 134.952C315.396 133.5 314.376 132.096 312.624 132.096C310.884 132.096 309.552 133.44 309.552 135.252C309.552 137.064 310.944 138.18 312.576 138.18C313.776 138.18 314.82 137.58 315.3 136.884L314.268 136.212C314.004 136.524 313.476 136.992 312.684 136.992C311.796 136.992 311.124 136.464 311.016 135.516H315.372ZM312.576 133.212C313.392 133.212 314.028 133.824 314.028 134.592H311.016C311.148 133.812 311.724 133.212 312.576 133.212ZM322.574 134.772C322.574 133.356 321.974 132.096 320.306 132.096C319.37 132.096 318.638 132.612 318.362 133.128H318.314V132.252H316.814V138H318.35V135.096C318.35 134.076 318.95 133.344 319.826 133.344C320.702 133.344 321.038 134.064 321.038 134.904V138H322.574V134.772Z" fill="white"/>
<path fill-rule="evenodd" clip-rule="evenodd" d="M241.656 28.7895C241.656 28.5915 241.814 28.4315 242.006 28.4315H242.707C242.9 28.4315 243.055 28.5915 243.055 28.7895V30.2215C243.055 30.4185 242.9 30.5795 242.707 30.5795H242.006C241.814 30.5795 241.656 30.4185 241.656 30.2215V28.7895ZM243.756 28.7895C243.756 28.5915 243.913 28.4315 244.106 28.4315H246.906C247.099 28.4315 247.257 28.5915 247.257 28.7895V30.2215C247.257 30.4185 247.099 30.5795 246.906 30.5795H244.106C243.913 30.5795 243.756 30.4185 243.756 30.2215V28.7895ZM247.956 28.7895C247.956 28.5915 248.113 28.4315 248.306 28.4315H251.106C251.299 28.4315 251.456 28.5915 251.456 28.7895V30.2215C251.456 30.4185 251.299 30.5795 251.106 30.5795H248.306C248.113 30.5795 247.956 30.4185 247.956 30.2215V28.7895ZM252.156 28.7895C252.156 28.5915 252.314 28.4315 252.506 28.4315H253.593C253.77 28.4315 253.918 28.5645 253.939 28.7435L254.125 30.1745C254.138 30.2775 254.107 30.3795 254.04 30.4575C253.974 30.5355 253.878 30.5795 253.778 30.5795H252.506C252.314 30.5795 252.156 30.4185 252.156 30.2215V28.7895ZM254.995 31.5945L254.296 27.2985C254.266 27.1265 254.122 26.9995 253.95 26.9995H241.7C241.349 26.9995 241 27.3575 241 27.7165V31.5705V31.8135V32.6415C241 32.8205 241.128 32.9995 241.3 32.9995H242.847C243.083 32.2815 243.753 31.7995 244.55 31.7995C245.348 31.7995 246.017 32.2815 246.253 32.9995H249.797C250.032 32.2815 250.702 31.7995 251.5 31.7995C252.297 31.7995 252.967 32.2815 253.203 32.9995H254.65C254.843 32.9995 255 32.8385 255 32.6415V31.8135V31.6535C255 31.6335 254.998 31.6145 254.995 31.5945ZM243.55 33.7998C243.55 33.2488 243.998 32.7998 244.55 32.7998C245.102 32.7998 245.55 33.2488 245.55 33.7998C245.55 34.3518 245.102 34.7998 244.55 34.7998C243.998 34.7998 243.55 34.3518 243.55 33.7998ZM251.5 32.7998C250.948 32.7998 250.5 33.2488 250.5 33.7998C250.5 34.3518 250.948 34.7998 251.5 34.7998C252.052 34.7998 252.5 34.3518 252.5 33.7998C252.5 33.2488 252.052 32.7998 251.5 32.7998Z" fill="#C5044E"/>
<path fill-rule="evenodd" clip-rule="evenodd" d="M253.561 82.533C253.666 82.533 253.766 82.485 253.833 82.402C253.9 82.32 253.925 82.211 253.902 82.107L253.593 80.707C253.557 80.546 253.416 80.432 253.251 80.432H253.085H252.159H251.81C251.616 80.432 251.459 80.589 251.459 80.782V82.183C251.459 82.377 251.616 82.533 251.81 82.533H252.159H253.561ZM250.41 82.532C250.603 82.532 250.76 82.376 250.76 82.182V80.782C250.76 80.589 250.603 80.432 250.41 80.432H248.31C248.116 80.432 247.959 80.589 247.959 80.782V82.182C247.959 82.376 248.116 82.532 248.31 82.532H250.41ZM246.899 82.532C247.092 82.532 247.25 82.376 247.25 82.182V80.782C247.25 80.589 247.092 80.432 246.899 80.432H244.799C244.605 80.432 244.449 80.589 244.449 80.782V82.182C244.449 82.376 244.605 82.532 244.799 82.532H246.899ZM243.4 82.533C243.593 82.533 243.75 82.377 243.75 82.182V80.782C243.75 80.589 243.593 80.432 243.4 80.432H243.187H242.659C242.495 80.432 242.352 80.546 242.317 80.707L242.008 82.107C241.985 82.211 242.01 82.32 242.077 82.402C242.143 82.485 242.244 82.533 242.35 82.533H243.034H243.035H243.4ZM253.721 79C253.884 79 254.026 79.113 254.062 79.273L254.991 83.381C255.016 83.503 254.989 83.63 254.917 83.732L254.105 84.855C254.039 84.945 253.934 85 253.821 85H247.577H247.086H246.414H242.179C242.066 85 241.961 84.945 241.895 84.855L241.083 83.732C241.011 83.63 240.984 83.503 241.009 83.381L241.938 79.273C241.974 79.113 242.116 79 242.279 79H247.406L249.105 77.834L247.404 76.4H248.368L249.862 77.579C249.943 77.639 250.004 77.73 250.004 77.855C250.004 77.977 249.955 78.035 249.854 78.11L248.566 79H253.721ZM254 87.0003H242V86.0003H254V87.0003Z" fill="#78469A"/>
<path fill-rule="evenodd" clip-rule="evenodd" d="M253.561 134.533C253.666 134.533 253.766 134.485 253.833 134.402C253.9 134.32 253.925 134.211 253.902 134.107L253.593 132.707C253.557 132.546 253.416 132.432 253.251 132.432H253.085H252.159H251.81C251.616 132.432 251.459 132.589 251.459 132.782V134.183C251.459 134.377 251.616 134.533 251.81 134.533H252.159H253.561ZM250.41 134.532C250.603 134.532 250.76 134.376 250.76 134.182V132.782C250.76 132.589 250.603 132.432 250.41 132.432H248.31C248.116 132.432 247.959 132.589 247.959 132.782V134.182C247.959 134.376 248.116 134.532 248.31 134.532H250.41ZM246.899 134.532C247.092 134.532 247.25 134.376 247.25 134.182V132.782C247.25 132.589 247.092 132.432 246.899 132.432H244.799C244.605 132.432 244.449 132.589 244.449 132.782V134.182C244.449 134.376 244.605 134.532 244.799 134.532H246.899ZM243.4 134.533C243.593 134.533 243.75 134.377 243.75 134.182V132.782C243.75 132.589 243.593 132.432 243.4 132.432H243.187H242.659C242.495 132.432 242.352 132.546 242.317 132.707L242.008 134.107C241.985 134.211 242.01 134.32 242.077 134.402C242.143 134.485 242.244 134.533 242.35 134.533H243.034H243.035H243.4ZM253.721 131C253.884 131 254.026 131.113 254.062 131.273L254.991 135.381C255.016 135.503 254.989 135.63 254.917 135.732L254.105 136.855C254.039 136.945 253.934 137 253.821 137H247.577H247.086H246.414H242.179C242.066 137 241.961 136.945 241.895 136.855L241.083 135.732C241.011 135.63 240.984 135.503 241.009 135.381L241.938 131.273C241.974 131.113 242.116 131 242.279 131H247.406L249.105 129.834L247.404 128.4H248.368L249.862 129.579C249.943 129.639 250.004 129.73 250.004 129.855C250.004 129.977 249.955 130.035 249.854 130.11L248.566 131H253.721ZM254 139H242V138H254V139Z" fill="#78469A"/>
</svg>
