<?xml version="1.0" encoding="utf-8"?>
<!-- Generator: Adobe Illustrator 24.0.1, SVG Export Plug-In . SVG Version: 6.00 Build 0)  -->
<svg version="1.1" id="Layer_1" xmlns="http://www.w3.org/2000/svg" xmlns:xlink="http://www.w3.org/1999/xlink" x="0px" y="0px"
	 width="117px" height="20px" viewBox="0 0 117 20" enable-background="new 0 0 117 20" xml:space="preserve">
<polygon fill-rule="evenodd" clip-rule="evenodd" fill="#181C56" points="0,0.125 0,13.9020004 10.132,13.9020004 
	10.132,11.5690002 2.632,11.5690002 2.632,8.2370005 9.2860003,8.2370005 9.2860003,5.9029999 2.632,5.9029999 2.632,2.4590001 
	10.132,2.4590001 10.132,0.125 "/>
<polygon fill-rule="evenodd" clip-rule="evenodd" fill="#FF5959" points="0,19.6800003 24.4610004,19.6800003 
	24.4610004,17.3449993 0,17.3449993 "/>
<polygon fill-rule="evenodd" clip-rule="evenodd" fill="#181C56" points="21.8290005,0.125 21.8290005,8.4630003 12.7869997,0.125 
	12.5050001,0.125 12.5050001,13.9020004 15.1370001,13.9020004 15.1370001,5.7150002 24.1800003,13.9020004 24.4610004,13.9020004 
	24.4610004,0.125 "/>
<polygon fill-rule="evenodd" clip-rule="evenodd" fill="#181C56" points="37.4329987,8.2370005 33.5040016,8.2370005 
	33.5040016,19.6800003 30.8719997,19.6800003 30.8719997,8.2370005 26.9239998,8.2370005 26.9239998,5.9029999 
	37.4329987,5.9029999 "/>
<path fill-rule="evenodd" clip-rule="evenodd" fill="#181C56" d="M45.3315086,19.9247494
	c-0.8900261,0-1.6984062-0.1381245-2.4248886-0.4141235c-0.7271042-0.2758751-1.3474655-0.664875-1.8612061-1.1668758
	c-0.5138664-0.5017509-0.9117508-1.1105003-1.1936531-1.8257504c-0.2819061-0.71525-0.4229813-1.5118742-0.4229813-2.3903742
	V5.9025002h2.6317596v8.2251253c0,0.6903744,0.1128616,1.2611246,0.3383331,1.7127495
	c0.2255974,0.4517508,0.5043793,0.8093748,0.8365936,1.072875c0.3319664,0.2636242,0.6891518,0.4456253,1.0715561,0.5457497
	c0.3820305,0.10075,0.723732,0.1506252,1.0244865,0.1506252c0.3007584,0,0.6422119-0.0498753,1.0246162-0.1506252
	c0.3821526-0.1001244,0.7393379-0.2821255,1.0714302-0.5457497c0.3318405-0.2635002,0.6109962-0.6211243,0.8365936-1.072875
	c0.2255974-0.4516249,0.3382072-1.0223751,0.3382072-1.7127495V5.9025002h2.6318855v8.2251253
	c0,0.8785-0.1379547,1.6751242-0.4134903,2.3903742c-0.2757874,0.71525-0.6706734,1.3239994-1.1844177,1.8257504
	c-0.5139923,0.5020008-1.1343536,0.8910007-1.8609581,1.1668758C47.0483971,19.7866249,46.2338982,19.9247494,45.3315086,19.9247494
	 M56.3295517,12.9983625h2.9981842c0.5491982,0,1.002018-0.0688753,1.3582039-0.2069998
	c0.3559341-0.1380005,0.6370888-0.3200006,0.8430862-0.5458755c0.2063713-0.2258749,0.3468208-0.4798746,0.4216042-0.7622499
	c0.0749092-0.2823744,0.1124878-0.567625,0.1124878-0.8563747c0-0.3388748-0.0531845-0.6522503-0.1591797-0.9411249
	c-0.106369-0.2884998-0.2686691-0.5392504-0.4874001-0.7527504c-0.2184792-0.2132502-0.4995079-0.3827496-0.8430862-0.5083752
	c-0.3438263-0.1252499-0.7588158-0.1881247-1.2457161-0.1881247h-2.9981842V12.9983625z M56.3295517,15.2946129v4.3853741
	h-2.6317558V5.9024873h6.2516747c0.7032585,0,1.3464661,0.11625,1.9303741,0.3483753
	c0.5837784,0.2322497,1.0827904,0.5583749,1.4969063,0.9787498c0.414238,0.4205003,0.7374687,0.9222498,0.9699287,1.5057497
	c0.2319641,0.583375,0.3481979,1.2202501,0.3481979,1.9103756c0,0.5144997-0.0690384,1.0133753-0.2069931,1.4961252
	c-0.1380844,0.4833746-0.3294754,0.9193745-0.5745468,1.3081245c-0.2449455,0.3892498-0.5460777,0.7247505-0.903759,1.007
	c-0.3576851,0.2825003-0.7502022,0.4800005-1.1770515,0.5928755l3.4262772,4.6301241h-3.1391296l-3.1857033-4.3853741H56.3295517z"
	/>
<polygon fill-rule="evenodd" clip-rule="evenodd" fill="#FF5959" points="79.223999,19.7420006 77.2939987,19.7420006 
	77.2939987,7.632 72.8669968,7.632 72.8669968,5.9349999 83.651001,5.9349999 83.651001,7.632 79.223999,7.632 "/>
<path fill-rule="evenodd" clip-rule="evenodd" fill="#FF5959" d="M89.2667999,15.6467752
	c-0.7409973-0.1560001-1.598999-0.2730007-2.3789978-0.2730007c-1.5406265,0-2.1841278,0.6824999-2.1841278,1.6966257
	c0,1.0139999,0.760498,1.4624996,1.8721237,1.4624996c1.3453751,0,2.6910019-0.7800007,2.6910019-2.2816257V15.6467752z
	 M86.9462967,14.0476503c0.838501,0,1.7160034,0.1366243,2.3205032,0.2535v-0.4485006
	c0-1.3649998-0.6240005-2.105999-2.340126-2.105999c-1.1699982,0-2.0670013,0.4679995-2.6716232,1.1311245l-1.0920029-1.2286253
	c0.9360046-0.8970003,1.9696274-1.4041243,3.8221283-1.4041243c2.7301254,0,4.0367508,1.0139999,4.0367508,3.9001245v5.5968752
	h-1.7356262V18.513401h-0.0585022c-0.5849991,0.9554977-1.7354965,1.4624977-3.0226212,1.4624977
	c-1.7941284,0-3.3735046-0.8969994-3.3735046-2.8666229C82.8316727,15.4322748,83.8650513,14.0476503,86.9462967,14.0476503
	L86.9462967,14.0476503z"/>
<polygon fill-rule="evenodd" clip-rule="evenodd" fill="#FF5959" points="98.6269989,19.7420006 96.637001,19.7420006 
	92.8740005,10.4990005 94.9020004,10.4990005 97.612999,17.7719994 97.651001,17.7719994 100.3820038,10.4990005 
	102.3320007,10.4990005 "/>
<polygon fill-rule="evenodd" clip-rule="evenodd" fill="#FF5959" points="104.1450043,19.7420006 105.9779968,19.7420006 
	105.9779968,4.9990001 104.1450043,4.9990001 "/>
<path fill-rule="evenodd" clip-rule="evenodd" fill="#FF5959" d="M114.928421,15.6467752
	c-0.7411194-0.1560001-1.5991211-0.2730007-2.3791199-0.2730007c-1.5404968,0-2.1841278,0.6824999-2.1841278,1.6966257
	c0,1.0139999,0.760498,1.4624996,1.8721313,1.4624996c1.3454971,0,2.6911163-0.7800007,2.6911163-2.2816257V15.6467752z
	 M112.6078033,14.0476503c0.838623,0,1.7159958,0.1366243,2.3206177,0.2535v-0.4485006
	c0-1.3649998-0.6239929-2.105999-2.3401184-2.105999c-1.1699982,0-2.0671234,0.4679995-2.6716309,1.1311245l-1.0919952-1.2286253
	c0.935997-0.8970003,1.9696198-1.4041243,3.8221283-1.4041243c2.7301178,0,4.0366211,1.0139999,4.0366211,3.9001245v5.5968752
	h-1.7356262V18.513401h-0.0583801c-0.5849915,0.9554977-1.7356186,1.4624977-3.0226212,1.4624977
	c-1.7941208,0-3.3736191-0.8969994-3.3736191-2.8666229C108.4931793,15.4322748,109.5266724,14.0476503,112.6078033,14.0476503
	L112.6078033,14.0476503z"/>
</svg>
