<?xml version="1.0" encoding="utf-8"?>
<!-- Generator: Adobe Illustrator 24.0.1, SVG Export Plug-In . SVG Version: 6.00 Build 0)  -->
<svg version="1.1" id="Layer_1" xmlns="http://www.w3.org/2000/svg" xmlns:xlink="http://www.w3.org/1999/xlink" x="0px" y="0px"
	 width="344px" height="212px" viewBox="0 0 344 212" enable-background="new 0 0 344 212" xml:space="preserve">
<path fill-rule="evenodd" clip-rule="evenodd" fill="#181C56" d="M2,0h340c1.1045837,0,2,0.8954304,2,2v208
	c0,1.1045685-0.8954163,2-2,2H2c-1.1045696,0-2-0.8954315-2-2V2C0,0.8954304,0.8954304,0,2,0z"/>
<path fill-rule="evenodd" clip-rule="evenodd" fill="#292B6A" d="M10,8h100c1.1045685,0,2,0.8954306,2,2v192
	c0,1.1045685-0.8954315,2-2,2H10c-1.1045694,0-2-0.8954315-2-2V10C8,8.8954306,8.8954306,8,10,8z"/>
<path fill-rule="evenodd" clip-rule="evenodd" fill="#54568C" d="M17,44h16c0.5522842,0,1,0.4477158,1,1v6
	c0,0.5522842-0.4477158,1-1,1H17c-0.5522842,0-1-0.4477158-1-1v-6C16,44.4477158,16.4477158,44,17,44z"/>
<path fill-rule="evenodd" clip-rule="evenodd" fill="#54568C" d="M17,96h16c0.5522842,0,1,0.4477158,1,1v6
	c0,0.5522842-0.4477158,1-1,1H17c-0.5522842,0-1-0.4477158-1-1v-6C16,96.4477158,16.4477158,96,17,96z"/>
<path fill-rule="evenodd" clip-rule="evenodd" fill="#54568C" d="M17,148h16c0.5522842,0,1,0.4477081,1,1v6
	c0,0.5522919-0.4477158,1-1,1H17c-0.5522842,0-1-0.4477081-1-1v-6C16,148.4477081,16.4477158,148,17,148z"/>
<path fill-rule="evenodd" clip-rule="evenodd" fill="#54568C" d="M40,44h16c0.5522842,0,1,0.4477158,1,1v6
	c0,0.5522842-0.4477158,1-1,1H40c-0.5522842,0-1-0.4477158-1-1v-6C39,44.4477158,39.4477158,44,40,44z"/>
<path fill-rule="evenodd" clip-rule="evenodd" fill="#54568C" d="M40,96h16c0.5522842,0,1,0.4477158,1,1v6
	c0,0.5522842-0.4477158,1-1,1H40c-0.5522842,0-1-0.4477158-1-1v-6C39,96.4477158,39.4477158,96,40,96z"/>
<path fill-rule="evenodd" clip-rule="evenodd" fill="#54568C" d="M40,148h16c0.5522842,0,1,0.4477081,1,1v6
	c0,0.5522919-0.4477158,1-1,1H40c-0.5522842,0-1-0.4477081-1-1v-6C39,148.4477081,39.4477158,148,40,148z"/>
<path fill-rule="evenodd" clip-rule="evenodd" fill="#54568C" d="M63,44h16c0.5522842,0,1,0.4477158,1,1v6
	c0,0.5522842-0.4477158,1-1,1H63c-0.5522842,0-1-0.4477158-1-1v-6C62,44.4477158,62.4477158,44,63,44z"/>
<path fill-rule="evenodd" clip-rule="evenodd" fill="#54568C" d="M63,96h16c0.5522842,0,1,0.4477158,1,1v6
	c0,0.5522842-0.4477158,1-1,1H63c-0.5522842,0-1-0.4477158-1-1v-6C62,96.4477158,62.4477158,96,63,96z"/>
<path fill-rule="evenodd" clip-rule="evenodd" fill="#54568C" d="M63,148h16c0.5522842,0,1,0.4477081,1,1v6
	c0,0.5522919-0.4477158,1-1,1H63c-0.5522842,0-1-0.4477081-1-1v-6C62,148.4477081,62.4477158,148,63,148z"/>
<path fill-rule="evenodd" clip-rule="evenodd" fill="#54568C" d="M86,44h16c0.5522842,0,1,0.4477158,1,1v6
	c0,0.5522842-0.4477158,1-1,1H86c-0.5522842,0-1-0.4477158-1-1v-6C85,44.4477158,85.4477158,44,86,44z"/>
<path fill-rule="evenodd" clip-rule="evenodd" fill="#54568C" d="M86,96h16c0.5522842,0,1,0.4477158,1,1v6
	c0,0.5522842-0.4477158,1-1,1H86c-0.5522842,0-1-0.4477158-1-1v-6C85,96.4477158,85.4477158,96,86,96z"/>
<path fill-rule="evenodd" clip-rule="evenodd" fill="#54568C" d="M86,148h16c0.5522842,0,1,0.4477081,1,1v6
	c0,0.5522919-0.4477158,1-1,1H86c-0.5522842,0-1-0.4477081-1-1v-6C85,148.4477081,85.4477158,148,86,148z"/>
<path fill-rule="evenodd" clip-rule="evenodd" fill="#292B6A" d="M122,140h100c1.1045685,0,2,0.8954315,2,2v60
	c0,1.1045685-0.8954315,2-2,2H122c-1.1045685,0-2-0.8954315-2-2v-60C120,140.8954315,120.8954315,140,122,140z"/>
<path fill-rule="evenodd" clip-rule="evenodd" fill="#54568C" d="M129,176h16c0.5522919,0,1,0.4477081,1,1v6
	c0,0.5522919-0.4477081,1-1,1h-16c-0.5522919,0-1-0.4477081-1-1v-6C128,176.4477081,128.4477081,176,129,176z"/>
<path fill-rule="evenodd" clip-rule="evenodd" fill="#54568C" d="M152,176h16c0.5522919,0,1,0.4477081,1,1v6
	c0,0.5522919-0.4477081,1-1,1h-16c-0.5522919,0-1-0.4477081-1-1v-6C151,176.4477081,151.4477081,176,152,176z"/>
<path fill-rule="evenodd" clip-rule="evenodd" fill="#54568C" d="M175,176h16c0.5522919,0,1,0.4477081,1,1v6
	c0,0.5522919-0.4477081,1-1,1h-16c-0.5522919,0-1-0.4477081-1-1v-6C174,176.4477081,174.4477081,176,175,176z"/>
<path fill-rule="evenodd" clip-rule="evenodd" fill="#54568C" d="M198,176h16c0.5522919,0,1,0.4477081,1,1v6
	c0,0.5522919-0.4477081,1-1,1h-16c-0.5522919,0-1-0.4477081-1-1v-6C197,176.4477081,197.4477081,176,198,176z"/>
<path fill="#FFFFFF" d="M155.6000061,166.2279968c1.5239868,0,3.0239868-0.8880005,3.0239868-2.6519928
	c0-1.0200043-0.6959991-1.8000031-1.6559906-2.0279999v-0.0240021c0.8280029-0.2279968,1.4400024-0.9600067,1.4400024-1.9199982
	c0-1.5360107-1.3560028-2.3160095-2.7960052-2.3160095c-1.2839966,0-2.5919952,0.5880127-3.0359955,2.256012h1.6080017
	c0.2039948-0.6119995,0.7079926-0.9600067,1.3320007-0.9600067c0.6719971,0,1.2839966,0.4440002,1.2839966,1.1759949
	c0,0.947998-0.7920074,1.223999-1.6679993,1.223999h-0.5039978v1.2120056h0.4679871
	c0.9480133,0,1.9080048,0.3119965,1.9080048,1.3320007c0,0.9360046-0.7440033,1.3560028-1.4640045,1.3560028
	c-0.8040009,0-1.3919983-0.4799957-1.6079865-1.128006h-1.5960083
	C152.7559967,165.5800018,154.1119995,166.2279968,155.6000061,166.2279968z M166.5319977,166
	C168.3439941,166,170,165.3880005,170,163.576004c0-1.1640015-0.7920074-1.8840027-1.8119965-2.0400085v-0.0240021
	c0.8519897-0.2519989,1.4279938-0.8999939,1.4279938-1.8359985c0-1.7039948-1.5119934-2.1719971-2.8199921-2.1719971h-3.3720093V166
	H166.5319977z M166.628006,161.0319977h-1.6440125v-2.2200012h1.4880066c0.9600067,0,1.5839996,0.3119965,1.5839996,1.0800018
	C168.0559998,160.6840057,167.4199982,161.0319977,166.628006,161.0319977z M166.6040039,164.6799927h-1.6200104v-2.4720001
	h1.6800079c1.0559998,0,1.7160034,0.3600006,1.7160034,1.2240143
	C168.3800049,164.3919983,167.4799957,164.6799927,166.6040039,164.6799927z M173.2039948,166.1560059
	c0.7320099,0,1.4400024-0.2880096,1.7880096-0.852005h0.0359955V166h1.4279938v-3.4440002
	c0-1.7400055-0.8040009-2.4600067-2.6159973-2.4600067c-1.1279907,0-1.9079895,0.2880096-2.519989,0.8760071l0.8399963,0.8999939
	c0.371994-0.371994,0.8999939-0.6119995,1.571991-0.6119995c0.9240112,0,1.2960052,0.3840027,1.2960052,1.1160126v0.2519989
	c-0.5039978-0.1080017-0.9600067-0.1560059-1.4279938-0.1560059c-1.6679993,0-2.4960022,0.7559967-2.4960022,1.871994
	C171.1040039,165.628006,172.1360016,166.1560059,173.2039948,166.1560059z M173.576004,165.1119995
	c-0.6119995,0-1.0200043-0.2639923-1.0200043-0.8040009c0-0.5399933,0.3480072-0.923996,1.1759949-0.923996
	c0.4440002,0,0.9000092,0.0839996,1.2960052,0.1799927v0.3000031
	C175.0279999,164.6679993,174.3200073,165.1119995,173.576004,165.1119995z M179.7799988,166v-2.904007
	c0-1.019989,0.6000061-1.7519989,1.4759979-1.7519989c0.8760071,0,1.2120056,0.7200012,1.2120056,1.5600128V166h1.5359955
	v-3.2279968c0-1.4160004-0.5999908-2.6760101-2.2680054-2.6760101c-0.9359894,0-1.6679993,0.5160065-1.943985,1.0320129h-0.0480042
	v-0.8760071h-1.5V166H179.7799988z M188.4559937,166.1799927c1.2000122,0,2.2440033-0.5999908,2.723999-1.29599
	l-1.0319977-0.6719971c-0.2639923,0.3119965-0.7919922,0.7799988-1.5839996,0.7799988
	c-0.8880005,0-1.5599976-0.5279999-1.6679993-1.4759979h4.3560028c0.0120087-0.1800079,0.0240021-0.3600006,0.0240021-0.5640106
	c0-1.4519958-1.0200043-2.8560028-2.7720032-2.8560028c-1.7399902,0-3.071991,1.3440094-3.071991,3.1560059
	S186.8240051,166.1799927,188.4559937,166.1799927z M189.9080048,162.5919952h-3.0120087
	c0.1320038-0.7799988,0.7080078-1.3799896,1.5599976-1.3799896
	C189.2720032,161.2120056,189.9080048,161.8240051,189.9080048,162.5919952z M194.2279968,166v-2.904007
	c0-1.019989,0.6000061-1.7519989,1.4759979-1.7519989c0.8760071,0,1.2120056,0.7200012,1.2120056,1.5600128V166h1.5359955
	v-3.2279968c0-1.4160004-0.5999908-2.6760101-2.2679901-2.6760101c-0.9360046,0-1.6679993,0.5160065-1.9440002,1.0320129h-0.0480042
	v-0.8760071h-1.5V166H194.2279968z"/>
<path fill-rule="evenodd" clip-rule="evenodd" fill="#F08901" d="M135.9994965,155c3.8610077,0,7,3.1410065,7,7s-3.1389923,7-7,7
	c-3.8600006,0-7-3.1410065-7-7S132.1394958,155,135.9994965,155z M135.9994965,156c-3.3079987,0-6,2.6909943-6,6s2.6920013,6,6,6
	c3.3090057,0,6-2.6909943,6-6S139.3085022,156,135.9994965,156z M138.9989014,159v1.1669922h-2.4150085V166h-1.1669922v-5.8330078
	h-2.4129944V159H138.9989014z"/>
<path fill-rule="evenodd" clip-rule="evenodd" fill="#292B6A" d="M122,8h100c1.1045685,0,2,0.8954306,2,2v120
	c0,1.1045685-0.8954315,2-2,2H122c-1.1045685,0-2-0.8954315-2-2V10C120,8.8954306,120.8954315,8,122,8z"/>
<path fill-rule="evenodd" clip-rule="evenodd" fill="#54568C" d="M129,44h16c0.5522919,0,1,0.4477158,1,1v6
	c0,0.5522842-0.4477081,1-1,1h-16c-0.5522919,0-1-0.4477158-1-1v-6C128,44.4477158,128.4477081,44,129,44z"/>
<path fill-rule="evenodd" clip-rule="evenodd" fill="#54568C" d="M129,96h16c0.5522919,0,1,0.4477158,1,1v6
	c0,0.5522842-0.4477081,1-1,1h-16c-0.5522919,0-1-0.4477158-1-1v-6C128,96.4477158,128.4477081,96,129,96z"/>
<path fill-rule="evenodd" clip-rule="evenodd" fill="#54568C" d="M152,44h16c0.5522919,0,1,0.4477158,1,1v6
	c0,0.5522842-0.4477081,1-1,1h-16c-0.5522919,0-1-0.4477158-1-1v-6C151,44.4477158,151.4477081,44,152,44z"/>
<path fill-rule="evenodd" clip-rule="evenodd" fill="#54568C" d="M152,96h16c0.5522919,0,1,0.4477158,1,1v6
	c0,0.5522842-0.4477081,1-1,1h-16c-0.5522919,0-1-0.4477158-1-1v-6C151,96.4477158,151.4477081,96,152,96z"/>
<path fill-rule="evenodd" clip-rule="evenodd" fill="#54568C" d="M175,44h16c0.5522919,0,1,0.4477158,1,1v6
	c0,0.5522842-0.4477081,1-1,1h-16c-0.5522919,0-1-0.4477158-1-1v-6C174,44.4477158,174.4477081,44,175,44z"/>
<path fill-rule="evenodd" clip-rule="evenodd" fill="#54568C" d="M175,96h16c0.5522919,0,1,0.4477158,1,1v6
	c0,0.5522842-0.4477081,1-1,1h-16c-0.5522919,0-1-0.4477158-1-1v-6C174,96.4477158,174.4477081,96,175,96z"/>
<path fill-rule="evenodd" clip-rule="evenodd" fill="#54568C" d="M198,44h16c0.5522919,0,1,0.4477158,1,1v6
	c0,0.5522842-0.4477081,1-1,1h-16c-0.5522919,0-1-0.4477158-1-1v-6C197,44.4477158,197.4477081,44,198,44z"/>
<path fill-rule="evenodd" clip-rule="evenodd" fill="#54568C" d="M198,96h16c0.5522919,0,1,0.4477158,1,1v6
	c0,0.5522842-0.4477081,1-1,1h-16c-0.5522919,0-1-0.4477158-1-1v-6C197,96.4477158,197.4477081,96,198,96z"/>
<path fill="#FFFFFF" d="M156.0800018,34c1.8119965,0,3.4680023-0.6119995,3.4680023-2.4239998
	c0-1.1639996-0.7920074-1.8840008-1.8120117-2.0400009v-0.0240002c0.852005-0.2519989,1.428009-0.8999996,1.428009-1.8359985
	c0-1.7040005-1.5120087-2.1720009-2.8200073-2.1720009h-3.371994V34H156.0800018z M156.1759949,29.0319996h-1.6439972v-2.2199993
	h1.4880066c0.9599915,0,1.5839996,0.3120003,1.5839996,1.0799999C157.6040039,28.684,156.9680023,29.0319996,156.1759949,29.0319996
	z M156.1519928,32.6800003h-1.6199951v-2.4720001h1.6800079c1.0559998,0,1.7159882,0.3600006,1.7159882,1.223999
	C157.9279938,32.3919983,157.0279999,32.6800003,156.1519928,32.6800003z M165.1519928,34v-8.4960003h-1.4399872L161.1439972,27.448
	l0.8399963,1.0799999l1.5720062-1.2000008V34H165.1519928z M174.6920013,34c1.8119965,0,3.4680023-0.6119995,3.4680023-2.4239998
	c0-1.1639996-0.7920074-1.8840008-1.8119965-2.0400009v-0.0240002c0.8519897-0.2519989,1.4279938-0.8999996,1.4279938-1.8359985
	c0-1.7040005-1.5119934-2.1720009-2.8200073-2.1720009h-3.371994V34H174.6920013z M174.7879944,29.0319996h-1.6439972v-2.2199993
	h1.4880066c0.9599915,0,1.5839996,0.3120003,1.5839996,1.0799999C176.2160034,28.684,175.5800018,29.0319996,174.7879944,29.0319996
	z M174.7640076,32.6800003h-1.6200104v-2.4720001h1.6800079c1.0559998,0,1.7159882,0.3600006,1.7159882,1.223999
	C176.5399933,32.3919983,175.6399994,32.6800003,174.7640076,32.6800003z M182.1320038,27.3279991
	c0.6839905,0,1.2480011-0.5279999,1.2480011-1.2360001c0-0.6959991-0.5640106-1.223999-1.2480011-1.223999
	c-0.6959991,0-1.2480011,0.5279999-1.2480011,1.2360001C180.8840027,26.7999992,181.447998,27.3279991,182.1320038,27.3279991z
	 M182.1320038,26.7040005c-0.3480072,0-0.6240082-0.2639999-0.6240082-0.6120014
	c0-0.3359985,0.276001-0.5999985,0.6240082-0.5999985c0.3479919,0,0.6239929,0.2639999,0.6239929,0.5999985
	C182.7559967,26.4400005,182.4799957,26.7040005,182.1320038,26.7040005z M181.3639984,34.1559982
	c0.7319946,0,1.4400024-0.2879982,1.7879944-0.8519974h0.0360107V34h1.4279938v-3.4440002
	c0-1.7399998-0.8040009-2.4599991-2.6159973-2.4599991c-1.128006,0-1.9080048,0.2880001-2.5200043,0.8759995l0.8400116,0.8999996
	c0.371994-0.3719997,0.8999939-0.6119995,1.571991-0.6119995c0.923996,0,1.2960052,0.3839989,1.2960052,1.1159992v0.2520008
	c-0.5039978-0.1079998-0.9600067-0.1560001-1.428009-0.1560001c-1.6679993,0-2.4959869,0.7560005-2.4959869,1.8720016
	C179.2640076,33.6279984,180.2960052,34.1559982,181.3639984,34.1559982z M181.7359924,33.1119995
	c-0.6119995,0-1.019989-0.2639999-1.019989-0.8040009c0-0.539999,0.3479919-0.9239979,1.1759949-0.9239979
	c0.4440002,0,0.9000092,0.0839996,1.2960052,0.1799984v0.3000011
	C183.1880035,32.6679993,182.4799957,33.1119995,181.7359924,33.1119995z M189.5359955,34v-1.2000008h-0.4319916
	c-0.552002,0-1.0200043-0.0599976-1.0200043-1.0679989v-2.2919998h1.4640045v-1.1879997h-1.4640045v-1.512001h-1.5v1.512001
	h-0.9120026v1.1879997h0.9120026v2.2559986c0,1.9560013,0.4559937,2.3040009,2.2559967,2.3040009H189.5359955z
	 M193.3159943,34.1800003c1.2000122,0,2.2440033-0.5999985,2.723999-1.2960014l-1.0319977-0.6719971
	c-0.2639923,0.3119965-0.7919922,0.7799988-1.5839996,0.7799988c-0.8880005,0-1.5599976-0.5279999-1.6679993-1.4759998h4.3560028
	c0.0119934-0.1800003,0.0240021-0.3600006,0.0240021-0.5640011c0-1.4519997-1.0200043-2.855999-2.7720032-2.855999
	c-1.7400055,0-3.071991,1.3439999-3.071991,3.1560001C190.2920074,33.0639992,191.6840057,34.1800003,193.3159943,34.1800003z
	 M194.7680054,30.5919991h-3.0120087c0.1320038-0.7799988,0.7080078-1.3799992,1.5599976-1.3799992
	C194.1320038,29.2119999,194.7680054,29.8239994,194.7680054,30.5919991z M199.0879974,34v-2.9039993
	c0-1.0200005,0.6000061-1.7520008,1.4759979-1.7520008c0.8760071,0,1.2120056,0.7199993,1.2120056,1.5599995V34h1.5359955
	v-3.2280006c0-1.4159985-0.5999908-2.6759987-2.2679901-2.6759987c-0.9360046,0-1.6679993,0.5159988-1.9440002,1.0319996h-0.0480042
	v-0.8759995h-1.5V34H199.0879974z M156.0800018,86c1.8119965,0,3.4680023-0.6119995,3.4680023-2.4240036
	c0-1.1639938-0.7920074-1.8839951-1.8120117-2.0399933V81.512001c0.852005-0.2519989,1.428009-0.9000015,1.428009-1.8359985
	c0-1.7040024-1.5120087-2.1720047-2.8200073-2.1720047h-3.371994V86H156.0800018z M156.1759949,81.0319977h-1.6439972v-2.2200012
	h1.4880066c0.9599915,0,1.5839996,0.3120041,1.5839996,1.0800018
	C157.6040039,80.6839981,156.9680023,81.0319977,156.1759949,81.0319977z M156.1519928,84.6800003h-1.6199951v-2.4720001h1.6800079
	c1.0559998,0,1.7159882,0.3600006,1.7159882,1.223999C157.9279938,84.3919983,157.0279999,84.6800003,156.1519928,84.6800003z
	 M166.7720032,86v-1.3799973h-3.852005l2.3880005-2.2320023c0.7559967-0.6959991,1.4400024-1.4400024,1.4400024-2.6040039
	c0-1.6800003-1.3919983-2.4959946-2.8800049-2.4959946c-1.5359955,0-2.8679962,0.935997-3.0359955,2.711998h1.5720062
	c0.1079865-0.8040009,0.6359863-1.3679962,1.4039917-1.3679962c0.7319946,0,1.2839966,0.4919968,1.2839966,1.2479935
	c0,0.6119995-0.3600006,1.1040039-0.8159943,1.5360031l-3.3840027,3.1920013V86H166.7720032z M174.6920013,86
	c1.8119965,0,3.4680023-0.6119995,3.4680023-2.4240036c0-1.1639938-0.7920074-1.8839951-1.8119965-2.0399933V81.512001
	c0.8519897-0.2519989,1.4279938-0.9000015,1.4279938-1.8359985c0-1.7040024-1.5119934-2.1720047-2.8200073-2.1720047h-3.371994V86
	H174.6920013z M174.7879944,81.0319977h-1.6439972v-2.2200012h1.4880066c0.9599915,0,1.5839996,0.3120041,1.5839996,1.0800018
	C176.2160034,80.6839981,175.5800018,81.0319977,174.7879944,81.0319977z M174.7640076,84.6800003h-1.6200104v-2.4720001h1.6800079
	c1.0559998,0,1.7159882,0.3600006,1.7159882,1.223999C176.5399933,84.3919983,175.6399994,84.6800003,174.7640076,84.6800003z
	 M182.1320038,79.3280029c0.6839905,0,1.2480011-0.5279999,1.2480011-1.2360001
	c0-0.6959991-0.5640106-1.2240067-1.2480011-1.2240067c-0.6959991,0-1.2480011,0.5280075-1.2480011,1.2360001
	C180.8840027,78.8000031,181.447998,79.3280029,182.1320038,79.3280029z M182.1320038,78.7040024
	c-0.3480072,0-0.6240082-0.2639999-0.6240082-0.6119995c0-0.3360062,0.276001-0.6000061,0.6240082-0.6000061
	c0.3479919,0,0.6239929,0.2639999,0.6239929,0.6000061C182.7559967,78.4400024,182.4799957,78.7040024,182.1320038,78.7040024z
	 M181.3639984,86.1559982c0.7319946,0,1.4400024-0.288002,1.7879944-0.8519974h0.0360107V86h1.4279938v-3.4440002
	c0-1.7399979-0.8040009-2.4599991-2.6159973-2.4599991c-1.128006,0-1.9080048,0.288002-2.5200043,0.8759995l0.8400116,0.9000015
	c0.371994-0.3720016,0.8999939-0.6119995,1.571991-0.6119995c0.923996,0,1.2960052,0.3839951,1.2960052,1.1159973v0.2519989
	c-0.5039978-0.1080017-0.9600067-0.1559982-1.428009-0.1559982c-1.6679993,0-2.4959869,0.7559967-2.4959869,1.8720016
	C179.2640076,85.6279984,180.2960052,86.1559982,181.3639984,86.1559982z M181.7359924,85.1119995
	c-0.6119995,0-1.019989-0.2639999-1.019989-0.8040009s0.3479919-0.923996,1.1759949-0.923996
	c0.4440002,0,0.9000092,0.0839996,1.2960052,0.1800003v0.2999954
	C183.1880035,84.6679993,182.4799957,85.1119995,181.7359924,85.1119995z M189.5359955,86v-1.1999969h-0.4319916
	c-0.552002,0-1.0200043-0.0600052-1.0200043-1.0680008v-2.2919998h1.4640045v-1.1880035h-1.4640045v-1.512001h-1.5v1.512001
	h-0.9120026v1.1880035h0.9120026v2.2559967c0,1.9560013,0.4559937,2.3040009,2.2559967,2.3040009H189.5359955z
	 M193.3159943,86.1800003c1.2000122,0,2.2440033-0.5999985,2.723999-1.2959976l-1.0319977-0.6720047
	c-0.2639923,0.3120041-0.7919922,0.7799988-1.5839996,0.7799988c-0.8880005,0-1.5599976-0.5279999-1.6679993-1.4759979h4.3560028
	c0.0119934-0.1800003,0.0240021-0.3600006,0.0240021-0.5639954c0-1.4520035-1.0200043-2.8560028-2.7720032-2.8560028
	c-1.7400055,0-3.071991,1.3440018-3.071991,3.1559982C190.2920074,85.064003,191.6840057,86.1800003,193.3159943,86.1800003z
	 M194.7680054,82.5920029h-3.0120087c0.1320038-0.7800064,0.7080078-1.3800049,1.5599976-1.3800049
	C194.1320038,81.211998,194.7680054,81.8239975,194.7680054,82.5920029z M199.0879974,86v-2.9039993
	c0-1.0200043,0.6000061-1.7519989,1.4759979-1.7519989c0.8760071,0,1.2120056,0.7200012,1.2120056,1.5599976V86h1.5359955
	v-3.2279968c0-1.4160004-0.5999908-2.6760025-2.2679901-2.6760025c-0.9360046,0-1.6679993,0.5159988-1.9440002,1.0319977h-0.0480042
	v-0.8759995h-1.5V86H199.0879974z"/>
<path fill-rule="evenodd" clip-rule="evenodd" fill="#6FDFFF" d="M140.1354065,29.4584351l-1.9330139,0.0009995
	c-0.1109924,0-0.2019958-0.0900002-0.2019958-0.2010002v-0.7989998c0-0.1110001,0.0910034-0.2010002,0.2019958-0.2010002h1.654007
	c0.1150055,0,0.2169952,0.0790005,0.2440033,0.1910019l0.1929932,0.7799988
	C140.346405,29.3944359,140.2444,29.4584351,140.1354065,29.4584351L140.1354065,29.4584351z M137.6013947,29.2544365
	c0,0.112999-0.0919952,0.2039986-0.2039948,0.2039986h-1.3930054c-0.1119995,0-0.2039948-0.0909996-0.2039948-0.2039986v-0.7930012
	c0-0.1119995,0.0919952-0.203001,0.2039948-0.203001h1.3930054c0.1119995,0,0.2039948,0.0910015,0.2039948,0.203001V29.2544365z
	 M135.3973999,29.2584343c0,0.1100006-0.0899963,0.2000008-0.1999969,0.2000008h-1.9260101
	c-0.1239929,0-0.2359924-0.0979996-0.1329956-0.2789993l0.3809967-0.7800007
	c0.0429993-0.0869999,0.1320038-0.1410007,0.2280121-0.1410007h1.4499969c0.1100006,0,0.1999969,0.0890007,0.1999969,0.2000008
	V29.2584343z M139.5359955,33.2683334c0.6419983,0,1.0460052,0.137001,1.3720093,0.2919998l-0.4790039,0.8800011
	c-0.2299957-0.1030006-0.4810028-0.1720009-0.8930054-0.1720009c-0.5769958,0-0.8379974,0.1360016-1.1679993,0.3090019
	c-0.3789978,0.1990013-0.8089905,0.4249992-1.6320038,0.4249992c-0.822998,0-1.2529907-0.2259979-1.6319885-0.4249992
	c-0.3300018-0.1730003-0.5910034-0.3090019-1.1679993-0.3090019c-0.5770111,0-0.8379974,0.1360016-1.1679993,0.3090019
	c-0.3800049,0.1990013-0.8090057,0.4249992-1.6330109,0.4249992c-1.0509949,0-1.9679871-0.5879974-2.0059967-0.612999L129,34.317337
	l0.4459991-0.8930016l0.1959991,0.1079979c0.0370026,0.0230026,0.7429962,0.4700012,1.4929962,0.4700012
	c0.5780029,0,0.8380127-0.137001,1.1679993-0.3099976c0.3800049-0.1990013,0.8100128-0.4240036,1.6330109-0.4240036
	s1.2539978,0.2250023,1.6329956,0.4240036c0.3300018,0.1729965,0.5910034,0.3099976,1.1669922,0.3099976
	c0.576004,0,0.8370056-0.137001,1.1670074-0.3099976C138.2819977,33.4933357,138.7129974,33.2683334,139.5359955,33.2683334z
	 M138.6723938,25.3774357c0.2030029-0.1000004,0.3440094,0.0119991,0.4170074,0.198l0,0l0.3410034,0.8239994
	c0.0069885,0.0209999,0.0249939,0.0340004,0.04599,0.0349998l0,0h0.5550079c0.1490021,0,0.2819977,0.0970001,0.3300018,0.2420006
	l0,0l0.9069977,2.7450008c0.0070038,0.0219994,0.0269928,0.0369987,0.0500031,0.0369987l0,0h1.4309998
	c0.1899872,0,0.3099976,0.203001,0.2189941,0.3689995l0,0l-1.6100006,2.9630013
	c-0.3959961-0.2159996-0.946991-0.5209999-1.8450012-0.5209999c-1.3999939,0-1.3999939,0.7329979-2.8009949,0.7329979
	c-1.3990021,0-1.3990021-0.7329979-2.8000031-0.7329979c-1.3990021,0-1.3990021,0.7329979-2.798996,0.7329979
	c-0.6179962,0-0.9620056-0.1429977-1.276001-0.3019981l0,0l1.4960022-3.0470009
	c0.0589905-0.1189995,0.1809998-0.1949997,0.3139954-0.1949997l0,0h0.6679993c0.0209961,0,0.0400085-0.0139999,0.0469971-0.0340004
	l0,0l1.0980072-2.2249985c0.0599976-0.1200008,0.1829987-0.1970005,0.3179932-0.1970005l0,0h3.3910065
	c0.0209961,0,0.04599-0.0139999,0.04599-0.0540009l0,0v-0.4629993c0-0.1700001,0.0950012-0.3260002,0.2440033-0.4020004l0,0
	L138.6723938,25.3774357z"/>
<path fill-rule="evenodd" clip-rule="evenodd" fill="#6FDFFF" d="M140.1354065,81.4584351l-1.9330139,0.0009995
	c-0.1109924,0-0.2019958-0.0899963-0.2019958-0.2009964v-0.7990036c0-0.1110001,0.0910034-0.2009964,0.2019958-0.2009964h1.654007
	c0.1150055,0,0.2169952,0.0789948,0.2440033,0.1909943l0.1929932,0.7800064
	C140.346405,81.3944321,140.2444,81.4584351,140.1354065,81.4584351L140.1354065,81.4584351z M137.6013947,81.2544327
	c0,0.112999-0.0919952,0.2040024-0.2039948,0.2040024h-1.3930054c-0.1119995,0-0.2039948-0.0910034-0.2039948-0.2040024v-0.7929993
	c0-0.1119995,0.0919952-0.2029953,0.2039948-0.2029953h1.3930054c0.1119995,0,0.2039948,0.0909958,0.2039948,0.2029953V81.2544327z
	 M135.3973999,81.2584381c0,0.1100006-0.0899963,0.1999969-0.1999969,0.1999969h-1.9260101
	c-0.1239929,0-0.2359924-0.0979996-0.1329956-0.2789993l0.3809967-0.7799988
	c0.0429993-0.086998,0.1320038-0.1409988,0.2280121-0.1409988h1.4499969c0.1100006,0,0.1999969,0.0889969,0.1999969,0.1999969
	V81.2584381z M139.5359955,85.2683334c0.6419983,0,1.0460052,0.137001,1.3720093,0.2919998l-0.4790039,0.8800049
	c-0.2299957-0.1030045-0.4810028-0.1720047-0.8930054-0.1720047c-0.5769958,0-0.8379974,0.1360016-1.1679993,0.3089981
	c-0.3789978,0.1990051-0.8089905,0.4250031-1.6320038,0.4250031c-0.822998,0-1.2529907-0.2259979-1.6319885-0.4250031
	c-0.3300018-0.1729965-0.5910034-0.3089981-1.1679993-0.3089981c-0.5770111,0-0.8379974,0.1360016-1.1679993,0.3089981
	c-0.3800049,0.1990051-0.8090057,0.4250031-1.6330109,0.4250031c-1.0509949,0-1.9679871-0.5879974-2.0059967-0.612999L129,86.317337
	l0.4459991-0.8930054l0.1959991,0.1080017c0.0370026,0.0230026,0.7429962,0.4700012,1.4929962,0.4700012
	c0.5780029,0,0.8380127-0.137001,1.1679993-0.3099976c0.3800049-0.1990051,0.8100128-0.4240036,1.6330109-0.4240036
	s1.2539978,0.2249985,1.6329956,0.4240036c0.3300018,0.1729965,0.5910034,0.3099976,1.1669922,0.3099976
	c0.576004,0,0.8370056-0.137001,1.1670074-0.3099976C138.2819977,85.4933319,138.7129974,85.2683334,139.5359955,85.2683334z
	 M138.6723938,77.3774338c0.2030029-0.0999985,0.3440094,0.012001,0.4170074,0.197998l0,0l0.3410034,0.8240051
	c0.0069885,0.0209961,0.0249939,0.0339966,0.04599,0.034996l0,0h0.5550079c0.1490021,0,0.2819977,0.0970001,0.3300018,0.2420044l0,0
	l0.9069977,2.7449951c0.0070038,0.0220032,0.0269928,0.0370026,0.0500031,0.0370026l0,0h1.4309998
	c0.1899872,0,0.3099976,0.2030029,0.2189941,0.3690033l0,0l-1.6100006,2.9629974
	c-0.3959961-0.2160034-0.946991-0.5210037-1.8450012-0.5210037c-1.3999939,0-1.3999939,0.7330017-2.8009949,0.7330017
	c-1.3990021,0-1.3990021-0.7330017-2.8000031-0.7330017c-1.3990021,0-1.3990021,0.7330017-2.798996,0.7330017
	c-0.6179962,0-0.9620056-0.1429977-1.276001-0.3019943l0,0l1.4960022-3.0470047
	c0.0589905-0.1189957,0.1809998-0.1949997,0.3139954-0.1949997l0,0h0.6679993c0.0209961,0,0.0400085-0.0139999,0.0469971-0.0339966
	l0,0l1.0980072-2.2250061c0.0599976-0.1199951,0.1829987-0.1969986,0.3179932-0.1969986l0,0h3.3910065
	c0.0209961,0,0.04599-0.0139999,0.04599-0.0540009l0,0v-0.4629974c0-0.1699982,0.0950012-0.3259964,0.2440033-0.4020004l0,0
	L138.6723938,77.3774338z"/>
<path fill-rule="evenodd" clip-rule="evenodd" fill="#292B6A" d="M234,8h100c1.1045837,0,2,0.8954306,2,2v192
	c0,1.1045685-0.8954163,2-2,2H234c-1.1045685,0-2-0.8954315-2-2V10C232,8.8954306,232.8954315,8,234,8z"/>
<path fill="#FFFFFF" d="M42.5559998,34v-3.2520008h1.4640007L46.0719986,34h1.920002l-2.3279991-3.5039997
	c0.947998-0.2399998,1.8839989-1.0559998,1.8839989-2.4239998c0-1.5960007-1.1160011-2.5680008-3.0839996-2.5680008h-3.4920006V34
	H42.5559998z M44.2360001,29.5119991h-1.6920013v-2.6639996h1.656002c1.0919991,0,1.7519989,0.3719997,1.7519989,1.2840004
	C45.9519997,28.9960003,45.3759995,29.5119991,44.2360001,29.5119991z M53.0680008,34v-8.4960003h-1.4400024L49.0600014,27.448
	l0.8400002,1.0799999l1.5719986-1.2000008V34H53.0680008z M59.2599983,34.2280006
	c2.2919998,0,3.1200027-2.1479988,3.1200027-4.4880009c0-2.3279991-0.8280029-4.4519997-3.1200027-4.4519997
	c-2.303997,0-3.132,2.1240005-3.132,4.4519997C56.1279984,32.0800018,56.9560013,34.2280006,59.2599983,34.2280006z
	 M59.2599983,32.8600006c-1.2360001,0-1.5-1.8000011-1.5-3.1200008c0-1.2959995,0.2639999-3.1079998,1.5-3.1079998
	c1.2120018,0,1.4880028,1.8120003,1.4880028,3.1079998C60.7480011,31.0599995,60.4720001,32.8600006,59.2599983,32.8600006z
	 M70.2399979,34v-7.1040001h2.5680008v-1.3920002h-6.7320023v1.3920002h2.5560074V34H70.2399979z M76.5759964,34.1800003
	c1.7520065,0,3.1560059-1.2360001,3.1560059-3.0599995c0-1.8120003-1.4039993-3.0240002-3.1560059-3.0240002
	c-1.7399979,0-3.1319962,1.2119999-3.1319962,3.0240002C73.4440002,32.9440002,74.8359985,34.1800003,76.5759964,34.1800003z
	 M76.5759964,32.8720016c-1.0079956,0-1.6079941-0.8160019-1.6079941-1.7520008
	c0-0.9240017,0.5999985-1.7280006,1.6079941-1.7280006c1.0320053,0,1.6200027,0.8039989,1.6200027,1.7280006
	C78.1959991,32.0559998,77.6080017,32.8720016,76.5759964,32.8720016z M83.7519989,36.8800011
	c2.2679977,0,3.3479996-1.3199997,3.3479996-3.2520027v-5.3759975h-1.4759979v0.8519993h-0.0240021
	c-0.4319992-0.6720009-1.1640015-1.0079994-1.9440002-1.0079994c-1.7399979,0-2.8440018,1.368-2.8440018,2.9759998
	C80.8119965,32.8240013,82.012001,34,83.7519989,34c0.7080002,0,1.4280014-0.3359985,1.8000031-0.8639984h0.0239944v0.6119995
	c0,1.079998-0.5399933,1.8719978-1.871994,1.8719978c-0.7320023,0-1.5-0.3239975-2.0040054-0.8279991l-0.8159943,1.1160011
	C81.6399994,36.5439987,82.7200012,36.8800011,83.7519989,36.8800011z M84.0039978,32.7879982
	c-0.9959946,0-1.6199951-0.8159981-1.6199951-1.7039986c0-0.9359989,0.6240005-1.7040005,1.6199951-1.7040005
	c0.9720001,0,1.6560059,0.7680016,1.6560059,1.6920013C85.6600037,32.0439987,84.9759979,32.7879982,84.0039978,32.7879982z
	 M91.564003,34.1800003c1.1999969,0,2.2439957-0.5999985,2.723999-1.2960014l-1.0320053-0.6719971
	c-0.2639999,0.3119965-0.7919998,0.7799988-1.5839996,0.7799988c-0.8880005,0-1.5599976-0.5279999-1.6679993-1.4759998h4.3560028
	c0.012001-0.1800003,0.0240021-0.3600006,0.0240021-0.5640011c0-1.4519997-1.0200043-2.855999-2.7720032-2.855999
	c-1.7399979,0-3.0719986,1.3439999-3.0719986,3.1560001C88.5400009,33.0639992,89.9319992,34.1800003,91.564003,34.1800003z
	 M93.0159988,30.5919991h-3.012001c0.1320038-0.7799988,0.7080002-1.3799992,1.5600052-1.3799992
	C92.3799973,29.2119999,93.0159988,29.8239994,93.0159988,30.5919991z M98.9319992,34v-1.2000008H98.5
	c-0.552002,0-1.0199966-0.0599976-1.0199966-1.0679989v-2.2919998h1.4639969v-1.1879997h-1.4639969v-1.512001h-1.5v1.512001
	h-0.9120026v1.1879997h0.9120026v2.2559986C95.9800034,33.6520004,96.435997,34,98.2360001,34H98.9319992z M46.132,86v-1.4039993
	h-3.5519981v-7.0920029h-1.6080017V86H46.132z M52.8520012,86v-1.3799973H49l2.3880005-2.2320023
	c0.7560005-0.6959991,1.4399986-1.4400024,1.4399986-2.6040039c0-1.6800003-1.3919983-2.4959946-2.8799973-2.4959946
	c-1.5360031,0-2.868,0.935997-3.0360031,2.711998h1.5720024c0.1079979-0.8040009,0.6359978-1.3679962,1.4039993-1.3679962
	c0.7319984,0,1.2840004,0.4919968,1.2840004,1.2479935c0,0.6119995-0.3600006,1.1040039-0.8160019,1.5360031l-3.3839989,3.1920013
	V86H52.8520012z M60.9519997,86v-7.1039963h2.5680008v-1.3920059h-6.7320023v1.3920059h2.5560036V86H60.9519997z
	 M67.288002,86.1800003c1.7519989,0,3.1559982-1.2360001,3.1559982-3.0599976c0-1.8120041-1.4039993-3.0240021-3.1559982-3.0240021
	c-1.7400055,0-3.1320038,1.211998-3.1320038,3.0240021C64.1559982,84.9440002,65.5479965,86.1800003,67.288002,86.1800003z
	 M67.288002,84.8720016c-1.0080032,0-1.6080017-0.8160019-1.6080017-1.7519989c0-0.9240036,0.5999985-1.7280045,1.6080017-1.7280045
	c1.0319977,0,1.6199951,0.8040009,1.6199951,1.7280045C68.9079971,84.0559998,68.3199997,84.8720016,67.288002,84.8720016z
	 M74.4639969,88.8799973c2.2680054,0,3.3479996-1.3199997,3.3479996-3.2519989v-5.3759995h-1.4759979v0.8519974h-0.0240021
	c-0.4319992-0.6719971-1.1639938-1.0079956-1.9440002-1.0079956c-1.7399979,0-2.8439941,1.3679962-2.8439941,2.9759979
	C71.5240021,84.8239975,72.723999,86,74.4639969,86c0.7080002,0,1.4280014-0.3359985,1.8000031-0.8639984h0.0240021v0.6119995
	c0,1.0800018-0.5400009,1.8720016-1.8720016,1.8720016c-0.7320023,0-1.5-0.3240051-2.0039978-0.8280029l-0.8160019,1.1159973
	C72.3519974,88.5439987,73.4319992,88.8799973,74.4639969,88.8799973z M74.7160034,84.788002
	c-0.9960022,0-1.6200027-0.8160019-1.6200027-1.7040024c0-0.935997,0.6240005-1.7040024,1.6200027-1.7040024
	c0.9720001,0,1.6559982,0.7680054,1.6559982,1.6920013C76.3720016,84.0439987,75.6880035,84.788002,74.7160034,84.788002z
	 M82.276001,86.1800003c1.1999969,0,2.2439957-0.5999985,2.723999-1.2959976l-1.0319977-0.6720047
	c-0.2639999,0.3120041-0.7919998,0.7799988-1.5839996,0.7799988c-0.8880005,0-1.5600052-0.5279999-1.6679993-1.4759979h4.3559952
	c0.012001-0.1800003,0.0240021-0.3600006,0.0240021-0.5639954c0-1.4520035-1.0200043-2.8560028-2.7720032-2.8560028
	c-1.7399979,0-3.0719986,1.3440018-3.0719986,3.1559982C79.2519989,85.064003,80.6439972,86.1800003,82.276001,86.1800003z
	 M83.7279968,82.5920029h-3.0119934c0.1319962-0.7800064,0.7080002-1.3800049,1.5599976-1.3800049
	C83.0920029,81.211998,83.7279968,81.8239975,83.7279968,82.5920029z M89.6439972,86v-1.1999969H89.211998
	c-0.5519943,0-1.0199966-0.0600052-1.0199966-1.0680008v-2.2919998h1.4639969v-1.1880035h-1.4639969v-1.512001h-1.5v1.512001
	h-0.9120026v1.1880035h0.9120026v2.2559967C86.6920013,85.6520004,87.1480026,86,88.947998,86H89.6439972z M46.132,138v-1.404007
	h-3.5519981v-7.0919952h-1.6080017V138H46.132z M51.2319984,138v-8.4960022h-1.4399986l-2.5680008,1.9440002l0.8400002,1.0800018
	l1.5720024-1.1999969V138H51.2319984z M58.6839981,138v-8.4960022h-1.4399986l-2.5680008,1.9440002l0.8400002,1.0800018
	l1.5720024-1.1999969V138H58.6839981z M68.4039993,138v-7.1040039h2.5680008v-1.3919983h-6.7320023v1.3919983h2.5559998V138
	H68.4039993z M74.7399979,138.1799927c1.7519989,0,3.1560059-1.2359924,3.1560059-3.0599976
	c0-1.8119965-1.404007-3.0240021-3.1560059-3.0240021c-1.7399979,0-3.1319962,1.2120056-3.1319962,3.0240021
	C71.6080017,136.9440002,73,138.1799927,74.7399979,138.1799927z M74.7399979,136.871994
	c-1.0079956,0-1.6079941-0.8159943-1.6079941-1.7519989c0-0.923996,0.5999985-1.7279968,1.6079941-1.7279968
	c1.0320053,0,1.6200027,0.8040009,1.6200027,1.7279968C76.3600006,136.0559998,75.7720032,136.871994,74.7399979,136.871994z
	 M81.9160004,140.8800049c2.2679977,0,3.3479996-1.3200073,3.3479996-3.2519989v-5.3760071H83.788002v0.852005h-0.0240021
	c-0.4319992-0.6719971-1.1640015-1.0080109-1.9440002-1.0080109c-1.7399979,0-2.8440018,1.3680115-2.8440018,2.9760132
	c0,1.7519989,1.2000046,2.9279938,2.9400024,2.9279938c0.7080002,0,1.4280014-0.3359985,1.8000031-0.8639984h0.0239944v0.6119995
	c0,1.0800018-0.5400009,1.871994-1.8720016,1.871994c-0.7319946,0-1.5-0.3239899-2.0039978-0.8279877l-0.8160019,1.1159973
	C79.8040009,140.5440063,80.8840027,140.8800049,81.9160004,140.8800049z M82.1679993,136.7879944
	c-0.9960022,0-1.6200027-0.8159943-1.6200027-1.7039948c0-0.9360046,0.6240005-1.7039948,1.6200027-1.7039948
	c0.9720001,0,1.6559982,0.7679901,1.6559982,1.6920013C83.8239975,136.0440063,83.1399994,136.7879944,82.1679993,136.7879944z
	 M89.7279968,138.1799927c1.2000046,0,2.2440033-0.5999908,2.7240067-1.29599l-1.0320053-0.6719971
	c-0.2639999,0.3119965-0.7919998,0.7799988-1.5839996,0.7799988c-0.8880005,0-1.5599976-0.5279999-1.6679993-1.4759979h4.3560028
	c0.012001-0.1800079,0.0239944-0.3600006,0.0239944-0.5640106c0-1.4519958-1.0199966-2.8560028-2.7719955-2.8560028
	c-1.7399979,0-3.0719986,1.3440094-3.0719986,3.1560059S88.0960007,138.1799927,89.7279968,138.1799927z M91.1800003,134.5919952
	h-3.012001c0.1320038-0.7799988,0.7080002-1.3799896,1.5599976-1.3799896
	C90.5439987,133.2120056,91.1800003,133.8240051,91.1800003,134.5919952z M97.0960007,138v-1.1999969h-0.4319992
	c-0.552002,0-1.0200043-0.0599976-1.0200043-1.0680084v-2.2919922h1.4640045v-1.1880035h-1.4640045v-1.5119934h-1.5v1.5119934
	h-0.9119949v1.1880035h0.9119949v2.2559967c0,1.9559937,0.4560013,2.3040009,2.2560043,2.3040009H97.0960007z"/>
<path fill-rule="evenodd" clip-rule="evenodd" fill="#42A5F5" d="M28.2129002,29.5930004
	c-0.0450001,0.1359997-0.1730003,0.1709995-0.3169994,0.1709995h-0.6650009c-0.0719986,0-0.1860008,0.0109997-0.2849998-0.0629997
	l-0.9500008-0.6700001c-0.1149979-0.0860004-0.1609993-0.2360001-0.1159992-0.3719997
	c0.0459995-0.1350002,0.1730003-0.2270012,0.316-0.2270012h0.6660004c0.0719986,0,0.1419983,0.0240002,0.2010002,0.0670013
	l1.0340004,0.7789993C28.2108994,29.3640003,28.2579002,29.4570007,28.2129002,29.5930004 M30,34.0003014v1H17v-1H30z
	 M22.3638992,24.3999996l1.4940014,1.1790009c0.0809994,0.059,0.1420002,0.1499996,0.1420002,0.2749996
	c0,0.1229992-0.0480003,0.1800003-0.1490002,0.2560005l0,0L22.5569,27h3.5389996
	c0.2399998,0,0.6400013,0.0960007,0.9990005,0.3320007c1.0970001,0.7229996,3.1210003,2.2139988,3.4359989,2.5279999
	c0.0360012,0.0369987,0.0660019,0.0669994,0.0930023,0.0949993c0.0119972,0.0109997,0.0239983,0.0240002,0.0349998,0.0360012
	c0.0389977,0.039999,0.0699997,0.0739975,0.0909996,0.1089993c0.1549988,0.2059994,0.25,0.4569988,0.25,0.7339993
	c0,0.493-0.4090004,1.1469994-0.9000015,1.9020004c-0.1079979,0.1650009-0.2910004,0.2649994-0.4889984,0.2649994l0,0H16.9999008V27
	h4.4019985l1.7000008-1.1669998l-1.7019997-1.4330006H22.3638992z"/>
<path fill-rule="evenodd" clip-rule="evenodd" fill="#42A5F5" d="M28.2129002,81.5930023
	c-0.0450001,0.1360016-0.1730003,0.1709976-0.3169994,0.1709976h-0.6650009c-0.0719986,0-0.1860008,0.0110016-0.2849998-0.0629959
	l-0.9500008-0.6700058c-0.1149979-0.0859985-0.1609993-0.2360001-0.1159992-0.3720016
	c0.0459995-0.1349945,0.1730003-0.2269974,0.316-0.2269974h0.6660004c0.0719986,0,0.1419983,0.0240021,0.2010002,0.0670013
	l1.0340004,0.7789993C28.2108994,81.3639984,28.2579002,81.4570007,28.2129002,81.5930023 M30,86.0002975v1H17v-1H30z
	 M22.3638992,76.4000015l1.4940014,1.1790009c0.0809994,0.0589981,0.1420002,0.1500015,0.1420002,0.2750015
	c0,0.1229935-0.0480003,0.1799927-0.1490002,0.2559967l0,0L22.5569,79h3.5389996
	c0.2399998,0,0.6400013,0.0960007,0.9990005,0.3320007c1.0970001,0.7229996,3.1210003,2.2139969,3.4359989,2.5279999
	c0.0360012,0.0370026,0.0660019,0.0670013,0.0930023,0.0950012c0.0119972,0.0110016,0.0239983,0.0240021,0.0349998,0.0359955
	c0.0389977,0.0400009,0.0699997,0.0740051,0.0909996,0.1090012c0.1549988,0.2060013,0.25,0.4570007,0.25,0.7340012
	c0,0.4929962-0.4090004,1.1470032-0.9000015,1.9020004c-0.1079979,0.1650009-0.2910004,0.2649994-0.4889984,0.2649994l0,0
	H16.9999008V79h4.4019985l1.7000008-1.1669998l-1.7019997-1.4329987H22.3638992z"/>
<path fill-rule="evenodd" clip-rule="evenodd" fill="#42A5F5" d="M28.2129002,133.5930023
	c-0.0450001,0.1360016-0.1730003,0.1710052-0.3169994,0.1710052h-0.6650009c-0.0719986,0-0.1860008,0.0109863-0.2849998-0.0630035
	l-0.9500008-0.6699982c-0.1149979-0.0859985-0.1609993-0.2360077-0.1159992-0.3720093
	c0.0459995-0.1349945,0.1730003-0.2269897,0.316-0.2269897h0.6660004c0.0719986,0,0.1419983,0.0239868,0.2010002,0.0669861
	l1.0340004,0.779007C28.2108994,133.3639984,28.2579002,133.4570007,28.2129002,133.5930023 M30,138.0003052v1H17v-1H30z
	 M22.3638992,128.3999939l1.4940014,1.1790009c0.0809994,0.0590057,0.1420002,0.1500092,0.1420002,0.2750092
	c0,0.1230011-0.0480003,0.1799927-0.1490002,0.2559967l0,0L22.5569,131h3.5389996
	c0.2399998,0,0.6400013,0.095993,0.9990005,0.3320007c1.0970001,0.7229919,3.1210003,2.2140045,3.4359989,2.5279999
	c0.0360012,0.0370026,0.0660019,0.0670013,0.0930023,0.0950012c0.0119972,0.0110016,0.0239983,0.0240021,0.0349998,0.0359955
	c0.0389977,0.0400085,0.0699997,0.0740051,0.0909996,0.1090088c0.1549988,0.2059937,0.25,0.4570007,0.25,0.7339935
	c0,0.4929962-0.4090004,1.1470032-0.9000015,1.9019928c-0.1079979,0.1650085-0.2910004,0.2650146-0.4889984,0.2650146l0,0
	H16.9999008V131h4.4019985l1.7000008-1.1670074l-1.7019997-1.4329987H22.3638992z"/>
<path fill-rule="evenodd" clip-rule="evenodd" fill="#54568C" d="M241,44h16c0.5522766,0,1,0.4477158,1,1v6
	c0,0.5522842-0.4477234,1-1,1h-16c-0.5522919,0-1-0.4477158-1-1v-6C240,44.4477158,240.4477081,44,241,44z"/>
<path fill-rule="evenodd" clip-rule="evenodd" fill="#54568C" d="M241,96h16c0.5522766,0,1,0.4477158,1,1v6
	c0,0.5522842-0.4477234,1-1,1h-16c-0.5522919,0-1-0.4477158-1-1v-6C240,96.4477158,240.4477081,96,241,96z"/>
<path fill-rule="evenodd" clip-rule="evenodd" fill="#54568C" d="M241,148h16c0.5522766,0,1,0.4477081,1,1v6
	c0,0.5522919-0.4477234,1-1,1h-16c-0.5522919,0-1-0.4477081-1-1v-6C240,148.4477081,240.4477081,148,241,148z"/>
<path fill-rule="evenodd" clip-rule="evenodd" fill="#54568C" d="M264,44h16c0.5522766,0,1,0.4477158,1,1v6
	c0,0.5522842-0.4477234,1-1,1h-16c-0.5522766,0-1-0.4477158-1-1v-6C263,44.4477158,263.4477234,44,264,44z"/>
<path fill-rule="evenodd" clip-rule="evenodd" fill="#54568C" d="M264,96h16c0.5522766,0,1,0.4477158,1,1v6
	c0,0.5522842-0.4477234,1-1,1h-16c-0.5522766,0-1-0.4477158-1-1v-6C263,96.4477158,263.4477234,96,264,96z"/>
<path fill-rule="evenodd" clip-rule="evenodd" fill="#54568C" d="M264,148h16c0.5522766,0,1,0.4477081,1,1v6
	c0,0.5522919-0.4477234,1-1,1h-16c-0.5522766,0-1-0.4477081-1-1v-6C263,148.4477081,263.4477234,148,264,148z"/>
<path fill-rule="evenodd" clip-rule="evenodd" fill="#54568C" d="M287,44h16c0.5522766,0,1,0.4477158,1,1v6
	c0,0.5522842-0.4477234,1-1,1h-16c-0.5522766,0-1-0.4477158-1-1v-6C286,44.4477158,286.4477234,44,287,44z"/>
<path fill-rule="evenodd" clip-rule="evenodd" fill="#54568C" d="M287,96h16c0.5522766,0,1,0.4477158,1,1v6
	c0,0.5522842-0.4477234,1-1,1h-16c-0.5522766,0-1-0.4477158-1-1v-6C286,96.4477158,286.4477234,96,287,96z"/>
<path fill-rule="evenodd" clip-rule="evenodd" fill="#54568C" d="M287,148h16c0.5522766,0,1,0.4477081,1,1v6
	c0,0.5522919-0.4477234,1-1,1h-16c-0.5522766,0-1-0.4477081-1-1v-6C286,148.4477081,286.4477234,148,287,148z"/>
<path fill-rule="evenodd" clip-rule="evenodd" fill="#54568C" d="M310,44h16c0.5522766,0,1,0.4477158,1,1v6
	c0,0.5522842-0.4477234,1-1,1h-16c-0.5522766,0-1-0.4477158-1-1v-6C309,44.4477158,309.4477234,44,310,44z"/>
<path fill-rule="evenodd" clip-rule="evenodd" fill="#54568C" d="M310,96h16c0.5522766,0,1,0.4477158,1,1v6
	c0,0.5522842-0.4477234,1-1,1h-16c-0.5522766,0-1-0.4477158-1-1v-6C309,96.4477158,309.4477234,96,310,96z"/>
<path fill-rule="evenodd" clip-rule="evenodd" fill="#54568C" d="M310,148h16c0.5522766,0,1,0.4477081,1,1v6
	c0,0.5522919-0.4477234,1-1,1h-16c-0.5522766,0-1-0.4477081-1-1v-6C309,148.4477081,309.4477234,148,310,148z"/>
<path fill="#FFFFFF" d="M270.6119995,34v-1.3800011h-3.8519897l2.3880005-2.2319984
	c0.7559814-0.6960011,1.4400024-1.4400005,1.4400024-2.6040001c0-1.6800003-1.3919983-2.4960003-2.8800049-2.4960003
	c-1.5360107,0-2.8680115,0.9360008-3.0360107,2.7119999h1.571991c0.1080017-0.8040009,0.6360168-1.368,1.4040222-1.368
	c0.7319946,0,1.2839966,0.4920006,1.2839966,1.2479992c0,0.6120014-0.3600159,1.1040001-0.8160095,1.5360012l-3.3840027,3.1920013
	V34H270.6119995z M275.1839905,34.2280006c2.2920227,0,3.1199951-2.1479988,3.1199951-4.4880009
	c0-2.3279991-0.8279724-4.4519997-3.1199951-4.4519997c-2.3039856,0-3.1319885,2.1240005-3.1319885,4.4519997
	C272.052002,32.0800018,272.8800049,34.2280006,275.1839905,34.2280006z M275.1839905,32.8600006
	c-1.2359924,0-1.5-1.8000011-1.5-3.1200008c0-1.2959995,0.2640076-3.1079998,1.5-3.1079998
	c1.2120056,0,1.4880066,1.8120003,1.4880066,3.1079998C276.6719971,31.0599995,276.3959961,32.8600006,275.1839905,32.8600006z
	 M285.9840088,34c1.8119812,0,3.4679871-0.6119995,3.4679871-2.4239998c0-1.1639996-0.7919922-1.8840008-1.8119812-2.0400009
	v-0.0240002c0.8519897-0.2519989,1.4279785-0.8999996,1.4279785-1.8359985c0-1.7040005-1.5119934-2.1720009-2.8200073-2.1720009
	h-3.3719788V34H285.9840088z M286.0799866,29.0319996h-1.6439819v-2.2199993h1.4880066
	c0.9599915,0,1.5839844,0.3120003,1.5839844,1.0799999C287.5079956,28.684,286.8720093,29.0319996,286.0799866,29.0319996z
	 M286.0559998,32.6800003h-1.6199951v-2.4720001h1.6799927c1.0559998,0,1.7160034,0.3600006,1.7160034,1.223999
	C287.8320007,32.3919983,286.9320068,32.6800003,286.0559998,32.6800003z M293.2919922,34.132
	c0.8160095,0,1.5-0.5279999,1.776001-0.9720001h0.0360107V34h1.5v-5.7479992h-1.5480042v2.9039993
	c0,0.9240017-0.4440002,1.7279987-1.3439941,1.7279987c-0.9240112,0-1.2480164-0.6959991-1.2480164-1.5599995v-3.0719986h-1.5359802
	v3.2039986C290.928009,33.1119995,291.6119995,34.132,293.2919922,34.132z M300.6600037,34.1800003
	c1.3200073,0,2.5799866-0.5880013,2.5799866-1.8959999c0-1.1879997-1.1040039-1.5480003-2.3759766-1.7520008
	c-0.8280029-0.132-1.4160156-0.2519989-1.4160156-0.671999s0.5639954-0.5880013,1.0800171-0.5880013
	c0.5879822,0,1.3559875,0.3120003,1.7279968,0.6720009l0.8759766-0.8999996c-0.6239929-0.6120014-1.6919861-0.948-2.6759949-0.948
	c-1.3079834,0-2.4960022,0.6239986-2.4960022,1.8599987c0,2.0879993,3.8040161,1.2840004,3.8040161,2.4240017
	c0,0.4559975-0.5639954,0.6479988-1.1159973,0.6479988c-0.6360168,0-1.3680115-0.2999992-1.9440002-0.8400002l-0.9360046,0.9239998
	C298.2000122,33.4840012,299.2319946,34.1800003,300.6600037,34.1800003z M306.8399963,34.1800003
	c1.3200073,0,2.5800171-0.5880013,2.5800171-1.8959999c0-1.1879997-1.1040039-1.5480003-2.3760071-1.7520008
	c-0.8280029-0.132-1.4160156-0.2519989-1.4160156-0.671999s0.5639954-0.5880013,1.0800171-0.5880013
	c0.5879822,0,1.3559875,0.3120003,1.7279968,0.6720009l0.8760071-0.8999996c-0.6240234-0.6120014-1.6920166-0.948-2.6760254-0.948
	c-1.3079834,0-2.4959717,0.6239986-2.4959717,1.8599987c0,2.0879993,3.8039856,1.2840004,3.8039856,2.4240017
	c0,0.4559975-0.5639954,0.6479988-1.1159973,0.6479988c-0.6360168,0-1.3680115-0.2999992-1.9440002-0.8400002l-0.9360046,0.9239998
	C304.3800049,33.4840012,305.4119873,34.1800003,306.8399963,34.1800003z M313.428009,34.1800003
	c1.1999817,0,2.243988-0.5999985,2.723999-1.2960014l-1.0320129-0.6719971
	c-0.2640076,0.3119965-0.7919922,0.7799988-1.5839844,0.7799988c-0.8880005,0-1.5599976-0.5279999-1.6679993-1.4759998h4.3559875
	c0.0119934-0.1800003,0.0239868-0.3600006,0.0239868-0.5640011c0-1.4519997-1.019989-2.855999-2.7719727-2.855999
	c-1.7400208,0-3.0720215,1.3439999-3.0720215,3.1560001C310.4039917,33.0639992,311.79599,34.1800003,313.428009,34.1800003z
	 M314.8800049,30.5919991h-3.0119934c0.1319885-0.7799988,0.7079773-1.3799992,1.5599976-1.3799992
	C314.243988,29.2119999,314.8800049,29.8239994,314.8800049,30.5919991z M319.2000122,34v-2.9039993
	c0-1.0200005,0.5999756-1.7520008,1.4759827-1.7520008s1.2120056,0.7199993,1.2120056,1.5599995V34h1.5360107v-3.2280006
	c0-1.4159985-0.6000061-2.6759987-2.2680054-2.6759987c-0.9360046,0-1.6679993,0.5159988-1.9440002,1.0319996h-0.0480042v-0.8759995
	h-1.5V34H319.2000122z M268.9920044,86v-8.4960022h-1.4400024l-2.5679932,1.9440002l0.8399963,1.0800018l1.571991-1.1999969V86
	H268.9920044z M274.70401,86l3.3119812-7.1999969v-1.2960052h-5.7479858v1.3680038h4.0679932L272.8800049,86H274.70401z
	 M286.1640015,86v-7.1039963h2.5679932v-1.3920059H282v1.3920059h2.5559998V86H286.1640015z M291.2520142,86v-2.9039993
	c0-0.8639984,0.5039978-1.6439972,1.5-1.6439972c0.1799927,0,0.4440002,0.0239944,0.5999756,0.0719986v-1.3800049
	c-0.1319885-0.0359955-0.276001-0.0479965-0.4440002-0.0479965c-0.7559814,0-1.3919983,0.4440002-1.6919861,1.0559998h-0.0360107
	v-0.9000015h-1.4639893V86H291.2520142z M295.0920105,79.0159988c0.5159912,0,0.9239807-0.3839951,0.9239807-0.9000015
	c0-0.5039978-0.4079895-0.923996-0.9239807-0.923996c-0.5039978,0-0.9120178,0.4199982-0.9120178,0.923996
	C294.1799927,78.6320038,294.5880127,79.0159988,295.0920105,79.0159988z M295.8599854,86v-5.7480011h-1.5359802V86H295.8599854z
	 M299.2080078,86v-1.7519989l0.8880005-0.9120026l1.5,2.6640015h1.8840027l-2.2440186-3.6600037l2.0760193-2.0879974h-1.9320068
	l-2.1360168,2.340004h-0.0359802v-5.6640015h-1.5480042V86H299.2080078z M305.9639893,86v-1.7519989l0.8880005-0.9120026
	l1.5,2.6640015h1.8840027l-2.243988-3.6600037l2.0759888-2.0879974h-1.9320068L306,82.5920029h-0.0360107v-5.6640015h-1.5480042V86
	H305.9639893z M313.8479919,86.1800003c1.2000122,0,2.2440186-0.5999985,2.723999-1.2959976l-1.0319824-0.6720047
	c-0.2640076,0.3120041-0.7920227,0.7799988-1.5840149,0.7799988c-0.8880005,0-1.5599976-0.5279999-1.6679993-1.4759979h4.3560181
	c0.0119934-0.1800003,0.0239868-0.3600006,0.0239868-0.5639954c0-1.4520035-1.019989-2.8560028-2.7720032-2.8560028
	c-1.7399902,0-3.071991,1.3440018-3.071991,3.1559982C310.8240051,85.064003,312.2160034,86.1800003,313.8479919,86.1800003z
	 M315.2999878,82.5920029h-3.0119934c0.132019-0.7800064,0.7080078-1.3800049,1.5599976-1.3800049
	C314.6640015,81.211998,315.2999878,81.8239975,315.2999878,82.5920029z M319.6199951,86v-2.9039993
	c0-1.0200043,0.6000061-1.7519989,1.4760132-1.7519989c0.8759766,0,1.2120056,0.7200012,1.2120056,1.5599976V86h1.5359802
	v-3.2279968c0-1.4160004-0.6000061-2.6760025-2.2680054-2.6760025c-0.9359741,0-1.6679993,0.5159988-1.9440002,1.0319977h-0.0479736
	v-0.8759995h-1.5V86H319.6199951z M268.9920044,138v-8.4960022h-1.4400024l-2.5679932,1.9440002l0.8399963,1.0800018
	l1.571991-1.1999969V138H268.9920044z M275.1839905,138.2279968c1.5840149,0,3.0120239-0.8999939,3.0120239-2.5800018
	c0-1.0559998-0.6720276-1.8600006-1.5600281-2.1119995v-0.0240021c0.7680054-0.2519989,1.2960205-0.9720001,1.2960205-1.8839874
	c0-1.5-1.2839966-2.3400116-2.7480164-2.3400116c-1.4759827,0-2.7599792,0.8639984-2.7599792,2.3639984
	c0,0.9120026,0.552002,1.5960083,1.29599,1.8600006v0.0360107c-0.8640137,0.2639923-1.5599976,1.0319977-1.5599976,2.1119995
	C272.1600037,137.3399963,273.5759888,138.2279968,275.1839905,138.2279968z M275.1839905,132.9360046
	c-0.7079773,0-1.223999-0.5400085-1.223999-1.2000122c0-0.6839905,0.5160217-1.1999969,1.223999-1.1999969
	c0.6719971,0,1.2120056,0.5160065,1.2120056,1.1999969C276.3959961,132.3959961,275.8680115,132.9360046,275.1839905,132.9360046z
	 M275.1839905,136.9559937c-0.8639832,0-1.4400024-0.5759888-1.4400024-1.3919983
	c0-0.7919922,0.5880127-1.3799896,1.4400024-1.3799896c0.8399963,0,1.428009,0.5999908,1.428009,1.3799896
	C276.6119995,136.3800049,276.0239868,136.9559937,275.1839905,136.9559937z M286.1640015,138v-7.1040039h2.5679932v-1.3919983H282
	v1.3919983h2.5559998V138H286.1640015z M291.2520142,138v-2.904007c0-0.8639984,0.5039978-1.6439972,1.5-1.6439972
	c0.1799927,0,0.4440002,0.0240021,0.5999756,0.0720062v-1.3800049c-0.1319885-0.0359955-0.276001-0.0480042-0.4440002-0.0480042
	c-0.7559814,0-1.3919983,0.4440002-1.6919861,1.0559998h-0.0360107v-0.8999939h-1.4639893V138H291.2520142z
	 M295.0920105,131.0160065c0.5159912,0,0.9239807-0.3840027,0.9239807-0.9000092c0-0.5039978-0.4079895-0.923996-0.9239807-0.923996
	c-0.5039978,0-0.9120178,0.4199982-0.9120178,0.923996C294.1799927,130.6320038,294.5880127,131.0160065,295.0920105,131.0160065z
	 M295.8599854,138v-5.7480011h-1.5359802V138H295.8599854z M299.2080078,138v-1.7519989l0.8880005-0.9120026l1.5,2.6640015
	h1.8840027l-2.2440186-3.6600037l2.0760193-2.0879974h-1.9320068l-2.1360168,2.3399963h-0.0359802v-5.6640015h-1.5480042V138
	H299.2080078z M305.9639893,138v-1.7519989l0.8880005-0.9120026l1.5,2.6640015h1.8840027l-2.243988-3.6600037l2.0759888-2.0879974
	h-1.9320068L306,134.5919952h-0.0360107v-5.6640015h-1.5480042V138H305.9639893z M313.8479919,138.1799927
	c1.2000122,0,2.2440186-0.5999908,2.723999-1.29599l-1.0319824-0.6719971
	c-0.2640076,0.3119965-0.7920227,0.7799988-1.5840149,0.7799988c-0.8880005,0-1.5599976-0.5279999-1.6679993-1.4759979h4.3560181
	c0.0119934-0.1800079,0.0239868-0.3600006,0.0239868-0.5640106c0-1.4519958-1.019989-2.8560028-2.7720032-2.8560028
	c-1.7399902,0-3.071991,1.3440094-3.071991,3.1560059S312.2160034,138.1799927,313.8479919,138.1799927z M315.2999878,134.5919952
	h-3.0119934c0.132019-0.7799988,0.7080078-1.3799896,1.5599976-1.3799896
	C314.6640015,133.2120056,315.2999878,133.8240051,315.2999878,134.5919952z M319.6199951,138v-2.904007
	c0-1.019989,0.6000061-1.7519989,1.4760132-1.7519989c0.8759766,0,1.2120056,0.7200012,1.2120056,1.5600128V138h1.5359802
	v-3.2279968c0-1.4160004-0.6000061-2.6760101-2.2680054-2.6760101c-0.9359741,0-1.6679993,0.5160065-1.9440002,1.0320129h-0.0479736
	v-0.8760071h-1.5V138H319.6199951z"/>
<path fill-rule="evenodd" clip-rule="evenodd" fill="#EB1053" d="M241.6562042,28.7894897
	c0-0.198,0.1579895-0.3579998,0.3499908-0.3579998h0.701004c0.1930084,0,0.3480072,0.1599998,0.3480072,0.3579998v1.4319992
	c0,0.1970024-0.1549988,0.3580017-0.3480072,0.3580017h-0.701004c-0.1920013,0-0.3499908-0.1609993-0.3499908-0.3580017V28.7894897z
	 M243.7561951,28.7894897c0-0.198,0.1569977-0.3579998,0.3500061-0.3579998h2.8000031
	c0.1929932,0,0.3509979,0.1599998,0.3509979,0.3579998v1.4319992c0,0.1970024-0.1580048,0.3580017-0.3509979,0.3580017h-2.8000031
	c-0.1930084,0-0.3500061-0.1609993-0.3500061-0.3580017V28.7894897z M247.9562073,28.7894897
	c0-0.198,0.1569977-0.3579998,0.3499908-0.3579998h2.8000031c0.1929932,0,0.3500061,0.1599998,0.3500061,0.3579998v1.4319992
	c0,0.1970024-0.1570129,0.3580017-0.3500061,0.3580017h-2.8000031c-0.1929932,0-0.3499908-0.1609993-0.3499908-0.3580017V28.7894897
	z M252.1562042,28.7894897c0-0.198,0.1579895-0.3579998,0.3499908-0.3579998h1.0870056
	c0.177002,0,0.3249969,0.1329994,0.345993,0.3120003l0.1860046,1.4309998
	c0.0130005,0.1029987-0.0180054,0.2049999-0.0849915,0.282999c-0.0660095,0.078001-0.1620026,0.1220016-0.2620087,0.1220016
	h-1.2720032c-0.1920013,0-0.3499908-0.1609993-0.3499908-0.3580017V28.7894897z M244.550293,32.7997894c0.552002,0,1,0.4490013,1,1
	c0,0.552002-0.447998,1-1,1c-0.5519867,0-1-0.447998-1-1C243.550293,33.2487907,243.9983063,32.7997894,244.550293,32.7997894z
	 M251.5,32.7997894c0.552002,0,1,0.4490013,1,1c0,0.552002-0.447998,1-1,1s-1-0.447998-1-1
	C250.5,33.2487907,250.947998,32.7997894,251.5,32.7997894z M253.9501953,26.9994888
	c0.1719971,0,0.3160095,0.1270008,0.3460083,0.2990017l0,0l0.6989899,4.2959995
	c0.003006,0.0200005,0.0050049,0.0389996,0.0050049,0.059l0,0v0.9880009c0,0.1969986-0.1569977,0.3579979-0.3499908,0.3579979l0,0
	h-1.4470062c-0.2360077-0.7179985-0.9060059-1.1999989-1.7030029-1.1999989c-0.7980042,0-1.4680023,0.4820004-1.7030029,1.1999989
	l0,0h-3.5439911c-0.2360077-0.7179985-0.9049988-1.1999989-1.7030029-1.1999989
	c-0.7969971,0-1.4669952,0.4820004-1.7030029,1.1999989l0,0h-1.5469971c-0.1719971,0-0.3000031-0.1790009-0.3000031-0.3579979l0,0
	v-4.9250011c0-0.3589993,0.348999-0.717001,0.6999969-0.717001l0,0H253.9501953z"/>
<path fill-rule="evenodd" clip-rule="evenodd" fill="#A476E5" d="M253.8330078,82.4020004
	c-0.0670013,0.0830002-0.1670074,0.1309967-0.2720032,0.1309967h-1.4020081h-0.348999
	c-0.1940002,0-0.3509979-0.1559982-0.3509979-0.3499985v-1.401001c0-0.1930008,0.1569977-0.3499985,0.3509979-0.3499985h0.348999
	h0.9260101h0.1660004c0.1649933,0,0.3059998,0.1139984,0.3419952,0.2750015l0.3090057,1.4000015
	C253.9250031,82.2109985,253.8999939,82.3199997,253.8330078,82.4020004L253.8330078,82.4020004z M250.7599945,82.1819992
	c0,0.1940002-0.1569977,0.3499985-0.3499908,0.3499985h-2.1000061c-0.1940002,0-0.3509979-0.1559982-0.3509979-0.3499985v-1.4000015
	c0-0.1930008,0.1569977-0.3499985,0.3509979-0.3499985h2.1000061c0.1929932,0,0.3499908,0.1569977,0.3499908,0.3499985V82.1819992z
	 M247.25,82.1819992c0,0.1940002-0.1580048,0.3499985-0.3509979,0.3499985h-2.1000061
	c-0.1940002,0-0.3499908-0.1559982-0.3499908-0.3499985v-1.4000015c0-0.1930008,0.1559906-0.3499985,0.3499908-0.3499985h2.1000061
	c0.1929932,0,0.3509979,0.1569977,0.3509979,0.3499985V82.1819992z M243.75,82.1819992
	c0,0.1949997-0.1569977,0.3509979-0.3500061,0.3509979h-0.3649902h-0.0010071h-0.6839905
	c-0.1060028,0-0.2070007-0.0479965-0.2730103-0.1309967c-0.0670013-0.0820007-0.0919952-0.1910019-0.0690002-0.2949982
	l0.3090057-1.4000015c0.0350037-0.1610031,0.1779938-0.2750015,0.3419952-0.2750015h0.5279999h0.2129974
	c0.1930084,0,0.3500061,0.1569977,0.3500061,0.3499985V82.1819992z M254,86.0002975v1h-12v-1H254z M248.3679962,76.4000015
	l1.4940033,1.1790009c0.0809937,0.0599976,0.1419983,0.151001,0.1419983,0.276001
	c0,0.121994-0.048996,0.1800003-0.1499939,0.2549973l0,0L248.5659943,79h5.1549988
	c0.1630096,0,0.3050079,0.112999,0.3410034,0.2730026l0,0l0.9290009,4.1079941
	c0.0250092,0.1220016-0.0019989,0.2490005-0.0740051,0.3510056l0,0l-0.8119965,1.1229935
	C254.0390015,84.9449997,253.9340057,85,253.8209991,85l0,0h-11.6419983c-0.1130066,0-0.2180023-0.0550003-0.2839966-0.1450043l0,0
	l-0.8120117-1.1229935c-0.071991-0.102005-0.098999-0.2290039-0.0739899-0.3510056l0,0l0.9290009-4.1079941
	C241.973999,79.112999,242.1159973,79,242.279007,79l0,0h5.1269989l1.6989899-1.1660004l-1.7009888-1.4339981H248.3679962z"/>
<path fill-rule="evenodd" clip-rule="evenodd" fill="#A476E5" d="M253.8330078,134.4020081
	c-0.0670013,0.0829926-0.1670074,0.1309967-0.2720032,0.1309967h-1.4020081h-0.348999
	c-0.1940002,0-0.3509979-0.1560059-0.3509979-0.3500061v-1.401001c0-0.1929932,0.1569977-0.3499908,0.3509979-0.3499908h0.348999
	h0.9260101h0.1660004c0.1649933,0,0.3059998,0.1139984,0.3419952,0.2749939l0.3090057,1.3999939
	C253.9250031,134.2109985,253.8999939,134.3200073,253.8330078,134.4020081L253.8330078,134.4020081z M250.7599945,134.1820068
	c0,0.1940002-0.1569977,0.3499908-0.3499908,0.3499908h-2.1000061c-0.1940002,0-0.3509979-0.1559906-0.3509979-0.3499908v-1.4000092
	c0-0.1929932,0.1569977-0.3499908,0.3509979-0.3499908h2.1000061c0.1929932,0,0.3499908,0.1569977,0.3499908,0.3499908V134.1820068z
	 M247.25,134.1820068c0,0.1940002-0.1580048,0.3499908-0.3509979,0.3499908h-2.1000061
	c-0.1940002,0-0.3499908-0.1559906-0.3499908-0.3499908v-1.4000092c0-0.1929932,0.1559906-0.3499908,0.3499908-0.3499908h2.1000061
	c0.1929932,0,0.3509979,0.1569977,0.3509979,0.3499908V134.1820068z M243.75,134.1820068
	c0,0.1949921-0.1569977,0.3509979-0.3500061,0.3509979h-0.3649902h-0.0010071h-0.6839905
	c-0.1060028,0-0.2070007-0.0480042-0.2730103-0.1309967c-0.0670013-0.0820007-0.0919952-0.1910095-0.0690002-0.2950134
	l0.3090057-1.3999939c0.0350037-0.1609955,0.1779938-0.2749939,0.3419952-0.2749939h0.5279999h0.2129974
	c0.1930084,0,0.3500061,0.1569977,0.3500061,0.3499908V134.1820068z M254,138.0003052v1h-12v-1H254z M248.3679962,128.3999939
	l1.4940033,1.1790009c0.0809937,0.0600128,0.1419983,0.151001,0.1419983,0.276001
	c0,0.1220093-0.048996,0.1800079-0.1499939,0.2550049l0,0L248.5659943,131h5.1549988
	c0.1630096,0,0.3050079,0.1130066,0.3410034,0.272995l0,0l0.9290009,4.1080017
	c0.0250092,0.1220093-0.0019989,0.2490082-0.0740051,0.3509979l0,0l-0.8119965,1.1230011
	C254.0390015,136.9450073,253.9340057,137,253.8209991,137l0,0h-11.6419983c-0.1130066,0-0.2180023-0.0549927-0.2839966-0.1450043
	l0,0l-0.8120117-1.1230011c-0.071991-0.1019897-0.098999-0.2289886-0.0739899-0.3509979l0,0l0.9290009-4.1080017
	C241.973999,131.1130066,242.1159973,131,242.279007,131l0,0h5.1269989l1.6989899-1.1660004l-1.7009888-1.4340057H248.3679962z"/>
</svg>
