<?xml version="1.0" encoding="UTF-8"?>
<svg width="464px" height="286px" viewBox="0 0 464 286" version="1.1" xmlns="http://www.w3.org/2000/svg" xmlns:xlink="http://www.w3.org/1999/xlink">
    <title>Group 10</title>
    <g id="Busholdeplass-miniatyr" stroke="none" stroke-width="1" fill="none" fill-rule="evenodd">
        <g id="Group-10">
            <path d="M2,0 L462,0 C463.104584,0 464,0.8954304 464,2 L464,284 C464,285.104584 463.104584,286 462,286 L2,286 C0.8954304,286 0,285.104584 0,284 L0,2 C0,0.8954304 0.8954304,0 2,0 Z" id="Path" fill="#181C56"></path>
            <path d="M18.3309353,12 L445.669065,12 C449.165589,12 452,12.8954306 452,14 L452,272 C452,273.104584 449.165589,274 445.669065,274 L18.3309353,274 C14.8344113,274 12,273.104584 12,272 L12,14 C12,12.8954306 14.8344113,12 18.3309353,12 Z" id="Path" fill="#292B6A"></path>
            <path d="M120,33 L138,33 C138.552277,33 139,33.4477158 139,34 L139,43 C139,43.5522842 138.552277,44 138,44 L120,44 C119.447723,44 119,43.5522842 119,43 L119,34 C119,33.4477158 119.447723,33 120,33 Z" id="Path" fill="#54568C"></path>
            <path d="M120,67 L138,67 C138.552277,67 139,67.4477158 139,68 L139,77 C139,77.5522842 138.552277,78 138,78 L120,78 C119.447723,78 119,77.5522842 119,77 L119,68 C119,67.4477158 119.447723,67 120,67 Z" id="Path" fill="#54568C"></path>
            <path d="M120,101 L138,101 C138.552277,101 139,101.447716 139,102 L139,111 C139,111.552284 138.552277,112 138,112 L120,112 C119.447723,112 119,111.552284 119,111 L119,102 C119,101.447716 119.447723,101 120,101 Z" id="Path" fill="#54568C"></path>
            <path d="M120,135 L138,135 C138.552277,135 139,135.447708 139,136 L139,145 C139,145.552292 138.552277,146 138,146 L120,146 C119.447723,146 119,145.552292 119,145 L119,136 C119,135.447708 119.447723,135 120,135 Z" id="Path" fill="#54568C"></path>
            <rect id="Rectangle" fill="#54568C" x="151" y="101" width="289" height="11" rx="1"></rect>
            <rect id="Rectangle-Copy-90" fill="#54568C" x="151" y="67" width="289" height="11" rx="1"></rect>
            <rect id="Rectangle-Copy-92" fill="#54568C" x="151" y="169" width="289" height="11" rx="1"></rect>
            <rect id="Rectangle-Copy-94" fill="#54568C" x="151" y="237" width="289" height="11" rx="1"></rect>
            <rect id="Rectangle-Copy-91" fill="#54568C" x="151" y="33" width="289" height="11" rx="1"></rect>
            <rect id="Rectangle-Copy-93" fill="#54568C" x="151" y="135" width="289" height="11" rx="1"></rect>
            <rect id="Rectangle-Copy-95" fill="#54568C" x="151" y="203" width="289" height="11" rx="1"></rect>
            <path d="M120,169 L138,169 C138.552277,169 139,169.447708 139,170 L139,179 C139,179.552292 138.552277,180 138,180 L120,180 C119.447723,180 119,179.552292 119,179 L119,170 C119,169.447708 119.447723,169 120,169 Z" id="Path" fill="#54568C"></path>
            <path d="M120,203 L138,203 C138.552277,203 139,203.447708 139,204 L139,213 C139,213.552292 138.552277,214 138,214 L120,214 C119.447723,214 119,213.552292 119,213 L119,204 C119,203.447708 119.447723,203 120,203 Z" id="Path" fill="#54568C"></path>
            <path d="M120,237 L138,237 C138.552277,237 139,237.447708 139,238 L139,247 C139,247.552292 138.552277,248 138,248 L120,248 C119.447723,248 119,247.552292 119,247 L119,238 C119,237.447708 119.447723,237 120,237 Z" id="Path" fill="#54568C"></path>
            <g id="Group-11" transform="translate(25.000000, 29.000000)">
                <text id="Button-Text-Copy-5" font-family="Helvetica" font-size="12" font-weight="normal" line-spacing="20" fill="#FFFFFF">
                    <tspan x="24" y="11">20 Bussen</tspan>
                </text>
                <g id="Icon/Transport/Bus-Copy-30" transform="translate(0.000000, 1.000000)" fill="#EB1053">
                    <path d="M1.6562,6.78949 C1.6562,6.59149 1.8142,6.43149 2.0062,6.43149 L2.7072,6.43149 C2.9002,6.43149 3.0552,6.59149 3.0552,6.78949 L3.0552,8.22149 C3.0552,8.41849 2.9002,8.57949 2.7072,8.57949 L2.0062,8.57949 C1.8142,8.57949 1.6562,8.41849 1.6562,8.22149 L1.6562,6.78949 Z M3.7562,6.78949 C3.7562,6.59149 3.9132,6.43149 4.1062,6.43149 L6.9062,6.43149 C7.0992,6.43149 7.2572,6.59149 7.2572,6.78949 L7.2572,8.22149 C7.2572,8.41849 7.0992,8.57949 6.9062,8.57949 L4.1062,8.57949 C3.9132,8.57949 3.7562,8.41849 3.7562,8.22149 L3.7562,6.78949 Z M7.9562,6.78949 C7.9562,6.59149 8.1132,6.43149 8.3062,6.43149 L11.1062,6.43149 C11.2992,6.43149 11.4562,6.59149 11.4562,6.78949 L11.4562,8.22149 C11.4562,8.41849 11.2992,8.57949 11.1062,8.57949 L8.3062,8.57949 C8.1132,8.57949 7.9562,8.41849 7.9562,8.22149 L7.9562,6.78949 Z M12.1562,6.78949 C12.1562,6.59149 12.3142,6.43149 12.5062,6.43149 L13.5932,6.43149 C13.7702,6.43149 13.9182,6.56449 13.9392,6.74349 L14.1252,8.17449 C14.1382,8.27749 14.1072,8.37949 14.0402,8.45749 C13.9742,8.53549 13.8782,8.57949 13.7782,8.57949 L12.5062,8.57949 C12.3142,8.57949 12.1562,8.41849 12.1562,8.22149 L12.1562,6.78949 Z M4.5503,10.79979 C5.1023,10.79979 5.5503,11.24879 5.5503,11.79979 C5.5503,12.35179 5.1023,12.79979 4.5503,12.79979 C3.9983,12.79979 3.5503,12.35179 3.5503,11.79979 C3.5503,11.24879 3.9983,10.79979 4.5503,10.79979 Z M11.5,10.79979 C12.052,10.79979 12.5,11.24879 12.5,11.79979 C12.5,12.35179 12.052,12.79979 11.5,12.79979 C10.948,12.79979 10.5,12.35179 10.5,11.79979 C10.5,11.24879 10.948,10.79979 11.5,10.79979 Z M13.9502,4.99949 C14.1222,4.99949 14.2662,5.12649 14.2962,5.29849 L14.2962,5.29849 L14.9952,9.59449 C14.9982,9.61449 15.0002,9.63349 15.0002,9.65349 L15.0002,9.65349 L15.0002,10.64149 C15.0002,10.83849 14.8432,10.99949 14.6502,10.99949 L14.6502,10.99949 L13.2032,10.99949 C12.9672,10.28149 12.2972,9.79949 11.5002,9.79949 C10.7022,9.79949 10.0322,10.28149 9.7972,10.99949 L9.7972,10.99949 L6.2532,10.99949 C6.0172,10.28149 5.3482,9.79949 4.5502,9.79949 C3.7532,9.79949 3.0832,10.28149 2.8472,10.99949 L2.8472,10.99949 L1.3002,10.99949 C1.1282,10.99949 1.0002,10.82049 1.0002,10.64149 L1.0002,10.64149 L1.0002,5.71649 C1.0002,5.35749 1.3492,4.99949 1.7002,4.99949 L1.7002,4.99949 Z" id="Icon-Fill"></path>
                </g>
            </g>
            <g id="Group-11-Copy" transform="translate(25.000000, 97.000000)">
                <text id="Button-Text-Copy-5" font-family="Helvetica" font-size="12" font-weight="normal" line-spacing="20" fill="#FFFFFF">
                    <tspan x="24" y="11">20 Bussen</tspan>
                </text>
                <g id="Icon/Transport/Bus-Copy-30" transform="translate(0.000000, 1.000000)" fill="#EB1053">
                    <path d="M1.6562,6.78949 C1.6562,6.59149 1.8142,6.43149 2.0062,6.43149 L2.7072,6.43149 C2.9002,6.43149 3.0552,6.59149 3.0552,6.78949 L3.0552,8.22149 C3.0552,8.41849 2.9002,8.57949 2.7072,8.57949 L2.0062,8.57949 C1.8142,8.57949 1.6562,8.41849 1.6562,8.22149 L1.6562,6.78949 Z M3.7562,6.78949 C3.7562,6.59149 3.9132,6.43149 4.1062,6.43149 L6.9062,6.43149 C7.0992,6.43149 7.2572,6.59149 7.2572,6.78949 L7.2572,8.22149 C7.2572,8.41849 7.0992,8.57949 6.9062,8.57949 L4.1062,8.57949 C3.9132,8.57949 3.7562,8.41849 3.7562,8.22149 L3.7562,6.78949 Z M7.9562,6.78949 C7.9562,6.59149 8.1132,6.43149 8.3062,6.43149 L11.1062,6.43149 C11.2992,6.43149 11.4562,6.59149 11.4562,6.78949 L11.4562,8.22149 C11.4562,8.41849 11.2992,8.57949 11.1062,8.57949 L8.3062,8.57949 C8.1132,8.57949 7.9562,8.41849 7.9562,8.22149 L7.9562,6.78949 Z M12.1562,6.78949 C12.1562,6.59149 12.3142,6.43149 12.5062,6.43149 L13.5932,6.43149 C13.7702,6.43149 13.9182,6.56449 13.9392,6.74349 L14.1252,8.17449 C14.1382,8.27749 14.1072,8.37949 14.0402,8.45749 C13.9742,8.53549 13.8782,8.57949 13.7782,8.57949 L12.5062,8.57949 C12.3142,8.57949 12.1562,8.41849 12.1562,8.22149 L12.1562,6.78949 Z M4.5503,10.79979 C5.1023,10.79979 5.5503,11.24879 5.5503,11.79979 C5.5503,12.35179 5.1023,12.79979 4.5503,12.79979 C3.9983,12.79979 3.5503,12.35179 3.5503,11.79979 C3.5503,11.24879 3.9983,10.79979 4.5503,10.79979 Z M11.5,10.79979 C12.052,10.79979 12.5,11.24879 12.5,11.79979 C12.5,12.35179 12.052,12.79979 11.5,12.79979 C10.948,12.79979 10.5,12.35179 10.5,11.79979 C10.5,11.24879 10.948,10.79979 11.5,10.79979 Z M13.9502,4.99949 C14.1222,4.99949 14.2662,5.12649 14.2962,5.29849 L14.2962,5.29849 L14.9952,9.59449 C14.9982,9.61449 15.0002,9.63349 15.0002,9.65349 L15.0002,9.65349 L15.0002,10.64149 C15.0002,10.83849 14.8432,10.99949 14.6502,10.99949 L14.6502,10.99949 L13.2032,10.99949 C12.9672,10.28149 12.2972,9.79949 11.5002,9.79949 C10.7022,9.79949 10.0322,10.28149 9.7972,10.99949 L9.7972,10.99949 L6.2532,10.99949 C6.0172,10.28149 5.3482,9.79949 4.5502,9.79949 C3.7532,9.79949 3.0832,10.28149 2.8472,10.99949 L2.8472,10.99949 L1.3002,10.99949 C1.1282,10.99949 1.0002,10.82049 1.0002,10.64149 L1.0002,10.64149 L1.0002,5.71649 C1.0002,5.35749 1.3492,4.99949 1.7002,4.99949 L1.7002,4.99949 Z" id="Icon-Fill"></path>
                </g>
            </g>
            <g id="Group-11-Copy-2" transform="translate(25.000000, 165.000000)">
                <text id="Button-Text-Copy-5" font-family="Helvetica" font-size="12" font-weight="normal" line-spacing="20" fill="#FFFFFF">
                    <tspan x="24" y="11">20 Bussen</tspan>
                </text>
                <g id="Icon/Transport/Bus-Copy-30" transform="translate(0.000000, 1.000000)" fill="#EB1053">
                    <path d="M1.6562,6.78949 C1.6562,6.59149 1.8142,6.43149 2.0062,6.43149 L2.7072,6.43149 C2.9002,6.43149 3.0552,6.59149 3.0552,6.78949 L3.0552,8.22149 C3.0552,8.41849 2.9002,8.57949 2.7072,8.57949 L2.0062,8.57949 C1.8142,8.57949 1.6562,8.41849 1.6562,8.22149 L1.6562,6.78949 Z M3.7562,6.78949 C3.7562,6.59149 3.9132,6.43149 4.1062,6.43149 L6.9062,6.43149 C7.0992,6.43149 7.2572,6.59149 7.2572,6.78949 L7.2572,8.22149 C7.2572,8.41849 7.0992,8.57949 6.9062,8.57949 L4.1062,8.57949 C3.9132,8.57949 3.7562,8.41849 3.7562,8.22149 L3.7562,6.78949 Z M7.9562,6.78949 C7.9562,6.59149 8.1132,6.43149 8.3062,6.43149 L11.1062,6.43149 C11.2992,6.43149 11.4562,6.59149 11.4562,6.78949 L11.4562,8.22149 C11.4562,8.41849 11.2992,8.57949 11.1062,8.57949 L8.3062,8.57949 C8.1132,8.57949 7.9562,8.41849 7.9562,8.22149 L7.9562,6.78949 Z M12.1562,6.78949 C12.1562,6.59149 12.3142,6.43149 12.5062,6.43149 L13.5932,6.43149 C13.7702,6.43149 13.9182,6.56449 13.9392,6.74349 L14.1252,8.17449 C14.1382,8.27749 14.1072,8.37949 14.0402,8.45749 C13.9742,8.53549 13.8782,8.57949 13.7782,8.57949 L12.5062,8.57949 C12.3142,8.57949 12.1562,8.41849 12.1562,8.22149 L12.1562,6.78949 Z M4.5503,10.79979 C5.1023,10.79979 5.5503,11.24879 5.5503,11.79979 C5.5503,12.35179 5.1023,12.79979 4.5503,12.79979 C3.9983,12.79979 3.5503,12.35179 3.5503,11.79979 C3.5503,11.24879 3.9983,10.79979 4.5503,10.79979 Z M11.5,10.79979 C12.052,10.79979 12.5,11.24879 12.5,11.79979 C12.5,12.35179 12.052,12.79979 11.5,12.79979 C10.948,12.79979 10.5,12.35179 10.5,11.79979 C10.5,11.24879 10.948,10.79979 11.5,10.79979 Z M13.9502,4.99949 C14.1222,4.99949 14.2662,5.12649 14.2962,5.29849 L14.2962,5.29849 L14.9952,9.59449 C14.9982,9.61449 15.0002,9.63349 15.0002,9.65349 L15.0002,9.65349 L15.0002,10.64149 C15.0002,10.83849 14.8432,10.99949 14.6502,10.99949 L14.6502,10.99949 L13.2032,10.99949 C12.9672,10.28149 12.2972,9.79949 11.5002,9.79949 C10.7022,9.79949 10.0322,10.28149 9.7972,10.99949 L9.7972,10.99949 L6.2532,10.99949 C6.0172,10.28149 5.3482,9.79949 4.5502,9.79949 C3.7532,9.79949 3.0832,10.28149 2.8472,10.99949 L2.8472,10.99949 L1.3002,10.99949 C1.1282,10.99949 1.0002,10.82049 1.0002,10.64149 L1.0002,10.64149 L1.0002,5.71649 C1.0002,5.35749 1.3492,4.99949 1.7002,4.99949 L1.7002,4.99949 Z" id="Icon-Fill"></path>
                </g>
            </g>
            <g id="Group-11-Copy-3" transform="translate(25.000000, 233.000000)">
                <text id="Button-Text-Copy-5" font-family="Helvetica" font-size="12" font-weight="normal" line-spacing="20" fill="#FFFFFF">
                    <tspan x="24" y="11">20 Bussen</tspan>
                </text>
                <g id="Icon/Transport/Bus-Copy-30" transform="translate(0.000000, 1.000000)" fill="#EB1053">
                    <path d="M1.6562,6.78949 C1.6562,6.59149 1.8142,6.43149 2.0062,6.43149 L2.7072,6.43149 C2.9002,6.43149 3.0552,6.59149 3.0552,6.78949 L3.0552,8.22149 C3.0552,8.41849 2.9002,8.57949 2.7072,8.57949 L2.0062,8.57949 C1.8142,8.57949 1.6562,8.41849 1.6562,8.22149 L1.6562,6.78949 Z M3.7562,6.78949 C3.7562,6.59149 3.9132,6.43149 4.1062,6.43149 L6.9062,6.43149 C7.0992,6.43149 7.2572,6.59149 7.2572,6.78949 L7.2572,8.22149 C7.2572,8.41849 7.0992,8.57949 6.9062,8.57949 L4.1062,8.57949 C3.9132,8.57949 3.7562,8.41849 3.7562,8.22149 L3.7562,6.78949 Z M7.9562,6.78949 C7.9562,6.59149 8.1132,6.43149 8.3062,6.43149 L11.1062,6.43149 C11.2992,6.43149 11.4562,6.59149 11.4562,6.78949 L11.4562,8.22149 C11.4562,8.41849 11.2992,8.57949 11.1062,8.57949 L8.3062,8.57949 C8.1132,8.57949 7.9562,8.41849 7.9562,8.22149 L7.9562,6.78949 Z M12.1562,6.78949 C12.1562,6.59149 12.3142,6.43149 12.5062,6.43149 L13.5932,6.43149 C13.7702,6.43149 13.9182,6.56449 13.9392,6.74349 L14.1252,8.17449 C14.1382,8.27749 14.1072,8.37949 14.0402,8.45749 C13.9742,8.53549 13.8782,8.57949 13.7782,8.57949 L12.5062,8.57949 C12.3142,8.57949 12.1562,8.41849 12.1562,8.22149 L12.1562,6.78949 Z M4.5503,10.79979 C5.1023,10.79979 5.5503,11.24879 5.5503,11.79979 C5.5503,12.35179 5.1023,12.79979 4.5503,12.79979 C3.9983,12.79979 3.5503,12.35179 3.5503,11.79979 C3.5503,11.24879 3.9983,10.79979 4.5503,10.79979 Z M11.5,10.79979 C12.052,10.79979 12.5,11.24879 12.5,11.79979 C12.5,12.35179 12.052,12.79979 11.5,12.79979 C10.948,12.79979 10.5,12.35179 10.5,11.79979 C10.5,11.24879 10.948,10.79979 11.5,10.79979 Z M13.9502,4.99949 C14.1222,4.99949 14.2662,5.12649 14.2962,5.29849 L14.2962,5.29849 L14.9952,9.59449 C14.9982,9.61449 15.0002,9.63349 15.0002,9.65349 L15.0002,9.65349 L15.0002,10.64149 C15.0002,10.83849 14.8432,10.99949 14.6502,10.99949 L14.6502,10.99949 L13.2032,10.99949 C12.9672,10.28149 12.2972,9.79949 11.5002,9.79949 C10.7022,9.79949 10.0322,10.28149 9.7972,10.99949 L9.7972,10.99949 L6.2532,10.99949 C6.0172,10.28149 5.3482,9.79949 4.5502,9.79949 C3.7532,9.79949 3.0832,10.28149 2.8472,10.99949 L2.8472,10.99949 L1.3002,10.99949 C1.1282,10.99949 1.0002,10.82049 1.0002,10.64149 L1.0002,10.64149 L1.0002,5.71649 C1.0002,5.35749 1.3492,4.99949 1.7002,4.99949 L1.7002,4.99949 Z" id="Icon-Fill"></path>
                </g>
            </g>
            <g id="Group-12" transform="translate(24.000000, 63.000000)">
                <text id="Button-Text-Copy-6" font-family="Helvetica" font-size="12" font-weight="normal" line-spacing="20" fill="#FFFFFF">
                    <tspan x="24" y="11">60 Bussen</tspan>
                </text>
                <g id="Icon/Transport/Bus-Copy-5" transform="translate(0.000000, 1.000000)" fill="#EB1053">
                    <path d="M1.6562,6.78949 C1.6562,6.59149 1.8142,6.43149 2.0062,6.43149 L2.7072,6.43149 C2.9002,6.43149 3.0552,6.59149 3.0552,6.78949 L3.0552,8.22149 C3.0552,8.41849 2.9002,8.57949 2.7072,8.57949 L2.0062,8.57949 C1.8142,8.57949 1.6562,8.41849 1.6562,8.22149 L1.6562,6.78949 Z M3.7562,6.78949 C3.7562,6.59149 3.9132,6.43149 4.1062,6.43149 L6.9062,6.43149 C7.0992,6.43149 7.2572,6.59149 7.2572,6.78949 L7.2572,8.22149 C7.2572,8.41849 7.0992,8.57949 6.9062,8.57949 L4.1062,8.57949 C3.9132,8.57949 3.7562,8.41849 3.7562,8.22149 L3.7562,6.78949 Z M7.9562,6.78949 C7.9562,6.59149 8.1132,6.43149 8.3062,6.43149 L11.1062,6.43149 C11.2992,6.43149 11.4562,6.59149 11.4562,6.78949 L11.4562,8.22149 C11.4562,8.41849 11.2992,8.57949 11.1062,8.57949 L8.3062,8.57949 C8.1132,8.57949 7.9562,8.41849 7.9562,8.22149 L7.9562,6.78949 Z M12.1562,6.78949 C12.1562,6.59149 12.3142,6.43149 12.5062,6.43149 L13.5932,6.43149 C13.7702,6.43149 13.9182,6.56449 13.9392,6.74349 L14.1252,8.17449 C14.1382,8.27749 14.1072,8.37949 14.0402,8.45749 C13.9742,8.53549 13.8782,8.57949 13.7782,8.57949 L12.5062,8.57949 C12.3142,8.57949 12.1562,8.41849 12.1562,8.22149 L12.1562,6.78949 Z M4.5503,10.79979 C5.1023,10.79979 5.5503,11.24879 5.5503,11.79979 C5.5503,12.35179 5.1023,12.79979 4.5503,12.79979 C3.9983,12.79979 3.5503,12.35179 3.5503,11.79979 C3.5503,11.24879 3.9983,10.79979 4.5503,10.79979 Z M11.5,10.79979 C12.052,10.79979 12.5,11.24879 12.5,11.79979 C12.5,12.35179 12.052,12.79979 11.5,12.79979 C10.948,12.79979 10.5,12.35179 10.5,11.79979 C10.5,11.24879 10.948,10.79979 11.5,10.79979 Z M13.9502,4.99949 C14.1222,4.99949 14.2662,5.12649 14.2962,5.29849 L14.2962,5.29849 L14.9952,9.59449 C14.9982,9.61449 15.0002,9.63349 15.0002,9.65349 L15.0002,9.65349 L15.0002,10.64149 C15.0002,10.83849 14.8432,10.99949 14.6502,10.99949 L14.6502,10.99949 L13.2032,10.99949 C12.9672,10.28149 12.2972,9.79949 11.5002,9.79949 C10.7022,9.79949 10.0322,10.28149 9.7972,10.99949 L9.7972,10.99949 L6.2532,10.99949 C6.0172,10.28149 5.3482,9.79949 4.5502,9.79949 C3.7532,9.79949 3.0832,10.28149 2.8472,10.99949 L2.8472,10.99949 L1.3002,10.99949 C1.1282,10.99949 1.0002,10.82049 1.0002,10.64149 L1.0002,10.64149 L1.0002,5.71649 C1.0002,5.35749 1.3492,4.99949 1.7002,4.99949 L1.7002,4.99949 Z" id="Icon-Fill"></path>
                </g>
            </g>
            <g id="Group-12" transform="translate(24.000000, 131.000000)">
                <text id="Button-Text-Copy-6" font-family="Helvetica" font-size="12" font-weight="normal" line-spacing="20" fill="#FFFFFF">
                    <tspan x="24" y="11">60 Bussen</tspan>
                </text>
                <g id="Icon/Transport/Bus-Copy-5" transform="translate(0.000000, 1.000000)" fill="#EB1053">
                    <path d="M1.6562,6.78949 C1.6562,6.59149 1.8142,6.43149 2.0062,6.43149 L2.7072,6.43149 C2.9002,6.43149 3.0552,6.59149 3.0552,6.78949 L3.0552,8.22149 C3.0552,8.41849 2.9002,8.57949 2.7072,8.57949 L2.0062,8.57949 C1.8142,8.57949 1.6562,8.41849 1.6562,8.22149 L1.6562,6.78949 Z M3.7562,6.78949 C3.7562,6.59149 3.9132,6.43149 4.1062,6.43149 L6.9062,6.43149 C7.0992,6.43149 7.2572,6.59149 7.2572,6.78949 L7.2572,8.22149 C7.2572,8.41849 7.0992,8.57949 6.9062,8.57949 L4.1062,8.57949 C3.9132,8.57949 3.7562,8.41849 3.7562,8.22149 L3.7562,6.78949 Z M7.9562,6.78949 C7.9562,6.59149 8.1132,6.43149 8.3062,6.43149 L11.1062,6.43149 C11.2992,6.43149 11.4562,6.59149 11.4562,6.78949 L11.4562,8.22149 C11.4562,8.41849 11.2992,8.57949 11.1062,8.57949 L8.3062,8.57949 C8.1132,8.57949 7.9562,8.41849 7.9562,8.22149 L7.9562,6.78949 Z M12.1562,6.78949 C12.1562,6.59149 12.3142,6.43149 12.5062,6.43149 L13.5932,6.43149 C13.7702,6.43149 13.9182,6.56449 13.9392,6.74349 L14.1252,8.17449 C14.1382,8.27749 14.1072,8.37949 14.0402,8.45749 C13.9742,8.53549 13.8782,8.57949 13.7782,8.57949 L12.5062,8.57949 C12.3142,8.57949 12.1562,8.41849 12.1562,8.22149 L12.1562,6.78949 Z M4.5503,10.79979 C5.1023,10.79979 5.5503,11.24879 5.5503,11.79979 C5.5503,12.35179 5.1023,12.79979 4.5503,12.79979 C3.9983,12.79979 3.5503,12.35179 3.5503,11.79979 C3.5503,11.24879 3.9983,10.79979 4.5503,10.79979 Z M11.5,10.79979 C12.052,10.79979 12.5,11.24879 12.5,11.79979 C12.5,12.35179 12.052,12.79979 11.5,12.79979 C10.948,12.79979 10.5,12.35179 10.5,11.79979 C10.5,11.24879 10.948,10.79979 11.5,10.79979 Z M13.9502,4.99949 C14.1222,4.99949 14.2662,5.12649 14.2962,5.29849 L14.2962,5.29849 L14.9952,9.59449 C14.9982,9.61449 15.0002,9.63349 15.0002,9.65349 L15.0002,9.65349 L15.0002,10.64149 C15.0002,10.83849 14.8432,10.99949 14.6502,10.99949 L14.6502,10.99949 L13.2032,10.99949 C12.9672,10.28149 12.2972,9.79949 11.5002,9.79949 C10.7022,9.79949 10.0322,10.28149 9.7972,10.99949 L9.7972,10.99949 L6.2532,10.99949 C6.0172,10.28149 5.3482,9.79949 4.5502,9.79949 C3.7532,9.79949 3.0832,10.28149 2.8472,10.99949 L2.8472,10.99949 L1.3002,10.99949 C1.1282,10.99949 1.0002,10.82049 1.0002,10.64149 L1.0002,10.64149 L1.0002,5.71649 C1.0002,5.35749 1.3492,4.99949 1.7002,4.99949 L1.7002,4.99949 Z" id="Icon-Fill"></path>
                </g>
            </g>
            <g id="Group-12" transform="translate(24.000000, 199.000000)">
                <text id="Button-Text-Copy-6" font-family="Helvetica" font-size="12" font-weight="normal" line-spacing="20" fill="#FFFFFF">
                    <tspan x="24" y="11">60 Bussen</tspan>
                </text>
                <g id="Icon/Transport/Bus-Copy-5" transform="translate(0.000000, 1.000000)" fill="#EB1053">
                    <path d="M1.6562,6.78949 C1.6562,6.59149 1.8142,6.43149 2.0062,6.43149 L2.7072,6.43149 C2.9002,6.43149 3.0552,6.59149 3.0552,6.78949 L3.0552,8.22149 C3.0552,8.41849 2.9002,8.57949 2.7072,8.57949 L2.0062,8.57949 C1.8142,8.57949 1.6562,8.41849 1.6562,8.22149 L1.6562,6.78949 Z M3.7562,6.78949 C3.7562,6.59149 3.9132,6.43149 4.1062,6.43149 L6.9062,6.43149 C7.0992,6.43149 7.2572,6.59149 7.2572,6.78949 L7.2572,8.22149 C7.2572,8.41849 7.0992,8.57949 6.9062,8.57949 L4.1062,8.57949 C3.9132,8.57949 3.7562,8.41849 3.7562,8.22149 L3.7562,6.78949 Z M7.9562,6.78949 C7.9562,6.59149 8.1132,6.43149 8.3062,6.43149 L11.1062,6.43149 C11.2992,6.43149 11.4562,6.59149 11.4562,6.78949 L11.4562,8.22149 C11.4562,8.41849 11.2992,8.57949 11.1062,8.57949 L8.3062,8.57949 C8.1132,8.57949 7.9562,8.41849 7.9562,8.22149 L7.9562,6.78949 Z M12.1562,6.78949 C12.1562,6.59149 12.3142,6.43149 12.5062,6.43149 L13.5932,6.43149 C13.7702,6.43149 13.9182,6.56449 13.9392,6.74349 L14.1252,8.17449 C14.1382,8.27749 14.1072,8.37949 14.0402,8.45749 C13.9742,8.53549 13.8782,8.57949 13.7782,8.57949 L12.5062,8.57949 C12.3142,8.57949 12.1562,8.41849 12.1562,8.22149 L12.1562,6.78949 Z M4.5503,10.79979 C5.1023,10.79979 5.5503,11.24879 5.5503,11.79979 C5.5503,12.35179 5.1023,12.79979 4.5503,12.79979 C3.9983,12.79979 3.5503,12.35179 3.5503,11.79979 C3.5503,11.24879 3.9983,10.79979 4.5503,10.79979 Z M11.5,10.79979 C12.052,10.79979 12.5,11.24879 12.5,11.79979 C12.5,12.35179 12.052,12.79979 11.5,12.79979 C10.948,12.79979 10.5,12.35179 10.5,11.79979 C10.5,11.24879 10.948,10.79979 11.5,10.79979 Z M13.9502,4.99949 C14.1222,4.99949 14.2662,5.12649 14.2962,5.29849 L14.2962,5.29849 L14.9952,9.59449 C14.9982,9.61449 15.0002,9.63349 15.0002,9.65349 L15.0002,9.65349 L15.0002,10.64149 C15.0002,10.83849 14.8432,10.99949 14.6502,10.99949 L14.6502,10.99949 L13.2032,10.99949 C12.9672,10.28149 12.2972,9.79949 11.5002,9.79949 C10.7022,9.79949 10.0322,10.28149 9.7972,10.99949 L9.7972,10.99949 L6.2532,10.99949 C6.0172,10.28149 5.3482,9.79949 4.5502,9.79949 C3.7532,9.79949 3.0832,10.28149 2.8472,10.99949 L2.8472,10.99949 L1.3002,10.99949 C1.1282,10.99949 1.0002,10.82049 1.0002,10.64149 L1.0002,10.64149 L1.0002,5.71649 C1.0002,5.35749 1.3492,4.99949 1.7002,4.99949 L1.7002,4.99949 Z" id="Icon-Fill"></path>
                </g>
            </g>
        </g>
    </g>
</svg>