<?xml version="1.0" encoding="utf-8"?>
<!-- Generator: Adobe Illustrator 24.0.1, SVG Export Plug-In . SVG Version: 6.00 Build 0)  -->
<svg version="1.1" id="Layer_1" xmlns="http://www.w3.org/2000/svg" xmlns:xlink="http://www.w3.org/1999/xlink" x="0px" y="0px"
	 width="464px" height="286px" viewBox="0 0 464 286" enable-background="new 0 0 464 286" xml:space="preserve">
<path fill-rule="evenodd" clip-rule="evenodd" fill="#181C56" d="M2,0h460c1.1045837,0,2,0.8954304,2,2v282
	c0,1.1045837-0.8954163,2-2,2H2c-1.1045696,0-2-0.8954163-2-2V2C0,0.8954304,0.8954304,0,2,0z"/>
<path fill-rule="evenodd" clip-rule="evenodd" fill="#292B6A" d="M14,12h135c1.1045685,0,2,0.8954306,2,2v258
	c0,1.1045837-0.8954315,2-2,2H14c-1.1045694,0-2-0.8954163-2-2V14C12,12.8954306,12.8954306,12,14,12z"/>
<path fill-rule="evenodd" clip-rule="evenodd" fill="#54568C" d="M25,56h23c0.5522842,0,1,0.4477158,1,1v9
	c0,0.5522842-0.4477158,1-1,1H25c-0.5522842,0-1-0.4477158-1-1v-9C24,56.4477158,24.4477158,56,25,56z"/>
<path fill-rule="evenodd" clip-rule="evenodd" fill="#54568C" d="M25,115h23c0.5522842,0,1,0.4477158,1,1v9
	c0,0.5522842-0.4477158,1-1,1H25c-0.5522842,0-1-0.4477158-1-1v-9C24,115.4477158,24.4477158,115,25,115z"/>
<path fill-rule="evenodd" clip-rule="evenodd" fill="#54568C" d="M25,174h23c0.5522842,0,1,0.4477081,1,1v9
	c0,0.5522919-0.4477158,1-1,1H25c-0.5522842,0-1-0.4477081-1-1v-9C24,174.4477081,24.4477158,174,25,174z"/>
<path fill-rule="evenodd" clip-rule="evenodd" fill="#54568C" d="M25,233h23c0.5522842,0,1,0.4477081,1,1v9
	c0,0.5522919-0.4477158,1-1,1H25c-0.5522842,0-1-0.4477081-1-1v-9C24,233.4477081,24.4477158,233,25,233z"/>
<path fill-rule="evenodd" clip-rule="evenodd" fill="#54568C" d="M56,56h23c0.5522842,0,1,0.4477158,1,1v9
	c0,0.5522842-0.4477158,1-1,1H56c-0.5522842,0-1-0.4477158-1-1v-9C55,56.4477158,55.4477158,56,56,56z"/>
<path fill-rule="evenodd" clip-rule="evenodd" fill="#54568C" d="M56,115h23c0.5522842,0,1,0.4477158,1,1v9
	c0,0.5522842-0.4477158,1-1,1H56c-0.5522842,0-1-0.4477158-1-1v-9C55,115.4477158,55.4477158,115,56,115z"/>
<path fill-rule="evenodd" clip-rule="evenodd" fill="#54568C" d="M56,174h23c0.5522842,0,1,0.4477081,1,1v9
	c0,0.5522919-0.4477158,1-1,1H56c-0.5522842,0-1-0.4477081-1-1v-9C55,174.4477081,55.4477158,174,56,174z"/>
<path fill-rule="evenodd" clip-rule="evenodd" fill="#54568C" d="M56,233h23c0.5522842,0,1,0.4477081,1,1v9
	c0,0.5522919-0.4477158,1-1,1H56c-0.5522842,0-1-0.4477081-1-1v-9C55,233.4477081,55.4477158,233,56,233z"/>
<path fill-rule="evenodd" clip-rule="evenodd" fill="#54568C" d="M87,56h23c0.5522842,0,1,0.4477158,1,1v9
	c0,0.5522842-0.4477158,1-1,1H87c-0.5522842,0-1-0.4477158-1-1v-9C86,56.4477158,86.4477158,56,87,56z"/>
<path fill-rule="evenodd" clip-rule="evenodd" fill="#54568C" d="M87,115h23c0.5522842,0,1,0.4477158,1,1v9
	c0,0.5522842-0.4477158,1-1,1H87c-0.5522842,0-1-0.4477158-1-1v-9C86,115.4477158,86.4477158,115,87,115z"/>
<path fill-rule="evenodd" clip-rule="evenodd" fill="#54568C" d="M87,174h23c0.5522842,0,1,0.4477081,1,1v9
	c0,0.5522919-0.4477158,1-1,1H87c-0.5522842,0-1-0.4477081-1-1v-9C86,174.4477081,86.4477158,174,87,174z"/>
<path fill-rule="evenodd" clip-rule="evenodd" fill="#54568C" d="M87,233h23c0.5522842,0,1,0.4477081,1,1v9
	c0,0.5522919-0.4477158,1-1,1H87c-0.5522842,0-1-0.4477081-1-1v-9C86,233.4477081,86.4477158,233,87,233z"/>
<path fill-rule="evenodd" clip-rule="evenodd" fill="#54568C" d="M118,56h22c0.5522919,0,1,0.4477158,1,1v9
	c0,0.5522842-0.4477081,1-1,1h-22c-0.5522842,0-1-0.4477158-1-1v-9C117,56.4477158,117.4477158,56,118,56z"/>
<path fill-rule="evenodd" clip-rule="evenodd" fill="#54568C" d="M118,115h22c0.5522919,0,1,0.4477158,1,1v9
	c0,0.5522842-0.4477081,1-1,1h-22c-0.5522842,0-1-0.4477158-1-1v-9C117,115.4477158,117.4477158,115,118,115z"/>
<path fill-rule="evenodd" clip-rule="evenodd" fill="#54568C" d="M118,174h22c0.5522919,0,1,0.4477081,1,1v9
	c0,0.5522919-0.4477081,1-1,1h-22c-0.5522842,0-1-0.4477081-1-1v-9C117,174.4477081,117.4477158,174,118,174z"/>
<path fill-rule="evenodd" clip-rule="evenodd" fill="#54568C" d="M118,233h22c0.5522919,0,1,0.4477081,1,1v9
	c0,0.5522919-0.4477081,1-1,1h-22c-0.5522842,0-1-0.4477081-1-1v-9C117,233.4477081,117.4477158,233,118,233z"/>
<path fill="#FFFFFF" d="M50.5559998,42v-3.2519989h1.4640007L54.0719986,42h1.920002l-2.3279991-3.5040016
	c0.947998-0.2399979,1.8839989-1.0559998,1.8839989-2.4239998c0-1.5959969-1.1160011-2.567997-3.0839996-2.567997h-3.4920006V42
	H50.5559998z M52.2360001,37.512001h-1.6920013v-2.6640015h1.656002c1.0919991,0,1.7519989,0.3720016,1.7519989,1.2840004
	C53.9519997,36.9959984,53.3759995,37.512001,52.2360001,37.512001z M61.0680008,42v-8.4959984h-1.4400024l-2.567997,1.9440002
	l0.8400002,1.079998l1.5719986-1.2000008V42H61.0680008z M67.2600021,42.2280006
	c2.2919998,0,3.1199951-2.1479988,3.1199951-4.487999c0-2.3280029-0.8279953-4.4520035-3.1199951-4.4520035
	c-2.3040009,0-3.1320038,2.1240005-3.1320038,4.4520035C64.1279984,40.0800018,64.9560013,42.2280006,67.2600021,42.2280006z
	 M67.2600021,40.8600006c-1.2360001,0-1.5-1.7999992-1.5-3.1199989c0-1.2960014,0.2639999-3.1080017,1.5-3.1080017
	c1.211998,0,1.487999,1.8120003,1.487999,3.1080017C68.7480011,39.0600014,68.4720001,40.8600006,67.2600021,40.8600006z
	 M78.2399979,42v-7.1040001h2.5680008v-1.3919983h-6.7320023v1.3919983h2.5560074V42H78.2399979z M84.5759964,42.1800003
	c1.7520065,0,3.1560059-1.2360001,3.1560059-3.0600014c0-1.8120003-1.4039993-3.0239983-3.1560059-3.0239983
	c-1.7399979,0-3.1319962,1.211998-3.1319962,3.0239983C81.4440002,40.9440002,82.8359985,42.1800003,84.5759964,42.1800003z
	 M84.5759964,40.8720016c-1.0079956,0-1.6079941-0.8160019-1.6079941-1.7520027
	c0-0.9239998,0.5999985-1.7280006,1.6079941-1.7280006c1.0320053,0,1.6200027,0.8040009,1.6200027,1.7280006
	C86.1959991,40.0559998,85.6080017,40.8720016,84.5759964,40.8720016z M91.7519989,44.8800011
	c2.2679977,0,3.3479996-1.3199997,3.3479996-3.2520027v-5.3759995h-1.4759979v0.8520012h-0.0240021
	c-0.4319992-0.6720009-1.1640015-1.0079994-1.9440002-1.0079994c-1.7399979,0-2.8440018,1.368-2.8440018,2.9759979
	C88.8119965,40.8240013,90.012001,42,91.7519989,42c0.7080002,0,1.4280014-0.3359985,1.8000031-0.8639984h0.0239944v0.6119995
	c0,1.079998-0.5399933,1.8719978-1.871994,1.8719978c-0.7320023,0-1.5-0.3239975-2.0040054-0.8279991l-0.8159943,1.1160011
	C89.6399994,44.5439987,90.7200012,44.8800011,91.7519989,44.8800011z M92.0039978,40.7879982
	c-0.9959946,0-1.6199951-0.8159981-1.6199951-1.7039986c0-0.9360008,0.6240005-1.7039986,1.6199951-1.7039986
	c0.9720001,0,1.6560059,0.7679977,1.6560059,1.6919975C93.6600037,40.0439987,92.9759979,40.7879982,92.0039978,40.7879982z
	 M99.564003,42.1800003c1.1999969,0,2.2439957-0.5999985,2.723999-1.2960014l-1.0320053-0.6719971
	c-0.2639999,0.3119965-0.7919998,0.7799988-1.5839996,0.7799988c-0.8880005,0-1.5599976-0.5279999-1.6679993-1.4760017h4.3560028
	c0.012001-0.1800003,0.0240021-0.3600006,0.0240021-0.5639992c0-1.4519997-1.0200043-2.855999-2.7720032-2.855999
	c-1.7399979,0-3.0719986,1.343998-3.0719986,3.1559982S97.9319992,42.1800003,99.564003,42.1800003z M101.0159988,38.5919991
	h-3.012001c0.1320038-0.7799988,0.7080002-1.3799973,1.5600052-1.3799973
	C100.3799973,37.2120018,101.0159988,37.8240013,101.0159988,38.5919991z M106.9319992,42v-1.2000008H106.5
	c-0.552002,0-1.0199966-0.0599976-1.0199966-1.0680008v-2.2919998h1.4639969v-1.1879997h-1.4639969v-1.5119972h-1.5v1.5119972
	h-0.9120026v1.1879997h0.9120026v2.2560005c0,1.9560013,0.4559937,2.3040009,2.2559967,2.3040009H106.9319992z M54.132,101
	v-1.4039993h-3.5519981v-7.0920029h-1.6080017V101H54.132z M60.8520012,101v-1.3799973H57l2.3880005-2.2320023
	c0.7560005-0.6959991,1.4399986-1.4400024,1.4399986-2.6040039c0-1.6800003-1.3919983-2.4959946-2.8799973-2.4959946
	c-1.5360031,0-2.868,0.935997-3.0360031,2.711998h1.5720024c0.1079979-0.8040009,0.6359978-1.3679962,1.4039993-1.3679962
	c0.7319984,0,1.2840004,0.4919968,1.2840004,1.2479935c0,0.6119995-0.3600006,1.1040039-0.8160019,1.5360031l-3.3839989,3.1920013
	V101H60.8520012z M68.9520035,101v-7.1039963h2.5679932v-1.3920059H64.788002v1.3920059h2.5559998V101H68.9520035z
	 M75.288002,101.1800003c1.7519989,0,3.1559982-1.2360001,3.1559982-3.0599976c0-1.8120041-1.4039993-3.0240021-3.1559982-3.0240021
	c-1.7400055,0-3.1320038,1.211998-3.1320038,3.0240021C72.1559982,99.9440002,73.5479965,101.1800003,75.288002,101.1800003z
	 M75.288002,99.8720016c-1.0080032,0-1.6080017-0.8160019-1.6080017-1.7519989c0-0.9240036,0.5999985-1.7280045,1.6080017-1.7280045
	c1.0319977,0,1.6199951,0.8040009,1.6199951,1.7280045C76.9079971,99.0559998,76.3199997,99.8720016,75.288002,99.8720016z
	 M82.4639969,103.8799973c2.2680054,0,3.3479996-1.3199997,3.3479996-3.2519989v-5.3759995h-1.4759979v0.8519974h-0.0240021
	c-0.4319992-0.6719971-1.1639938-1.0079956-1.9440002-1.0079956c-1.7399979,0-2.8439941,1.3679962-2.8439941,2.9759979
	C79.5240021,99.8239975,80.723999,101,82.4639969,101c0.7080002,0,1.4280014-0.3359985,1.8000031-0.8639984h0.0240021v0.6119995
	c0,1.0800018-0.5400009,1.8720016-1.8720016,1.8720016c-0.7320023,0-1.5-0.3240051-2.0039978-0.8280029l-0.8160019,1.1159973
	C80.3519974,103.5439987,81.4319992,103.8799973,82.4639969,103.8799973z M82.7160034,99.788002
	c-0.9960022,0-1.6200027-0.8160019-1.6200027-1.7040024c0-0.935997,0.6240005-1.7040024,1.6200027-1.7040024
	c0.9720001,0,1.6559982,0.7680054,1.6559982,1.6920013C84.3720016,99.0439987,83.6880035,99.788002,82.7160034,99.788002z
	 M90.276001,101.1800003c1.1999969,0,2.2439957-0.5999985,2.723999-1.2959976l-1.0319977-0.6720047
	c-0.2639999,0.3120041-0.7919998,0.7799988-1.5839996,0.7799988c-0.8880005,0-1.5600052-0.5279999-1.6679993-1.4759979h4.3559952
	c0.012001-0.1800003,0.0240021-0.3600006,0.0240021-0.5639954c0-1.4520035-1.0200043-2.8560028-2.7720032-2.8560028
	c-1.7399979,0-3.0719986,1.3440018-3.0719986,3.1559982C87.2519989,100.064003,88.6439972,101.1800003,90.276001,101.1800003z
	 M91.7279968,97.5920029h-3.0119934c0.1319962-0.7800064,0.7080002-1.3800049,1.5599976-1.3800049
	C91.0920029,96.211998,91.7279968,96.8239975,91.7279968,97.5920029z M97.6439972,101v-1.1999969H97.211998
	c-0.5519943,0-1.0199966-0.0600052-1.0199966-1.0680008v-2.2919998h1.4639969v-1.1880035h-1.4639969v-1.512001h-1.5v1.512001
	h-0.9120026v1.1880035h0.9120026v2.2559967c0,1.9560013,0.4560013,2.3040009,2.2559967,2.3040009H97.6439972z M54.132,160v-1.404007
	h-3.5519981v-7.0919952h-1.6080017V160H54.132z M59.2319984,160v-8.4960022h-1.4399986l-2.5680008,1.9440002l0.8400002,1.0800018
	l1.5720024-1.1999969V160H59.2319984z M68.3040009,160v-1.3800049h-3.8519974l2.3879929-2.2319946
	c0.7560043-0.6959991,1.4400024-1.4400024,1.4400024-2.6040039c0-1.6799927-1.3919983-2.4960022-2.8799973-2.4960022
	c-1.5360031,0-2.868,0.9360046-3.0360031,2.7120056h1.5720024c0.1079979-0.8040009,0.6359978-1.3679962,1.4039955-1.3679962
	c0.7320023,0,1.2840042,0.4919891,1.2840042,1.2480011c0,0.6119995-0.3600006,1.1039886-0.8160019,1.5359955l-3.3839989,3.1920013
	V160H68.3040009z M76.4039993,160v-7.1040039h2.5680008v-1.3919983h-6.7320023v1.3919983h2.5559998V160H76.4039993z
	 M82.7399979,160.1799927c1.7519989,0,3.1560059-1.2359924,3.1560059-3.0599976c0-1.8119965-1.404007-3.0240021-3.1560059-3.0240021
	c-1.7399979,0-3.1319962,1.2120056-3.1319962,3.0240021C79.6080017,158.9440002,81,160.1799927,82.7399979,160.1799927z
	 M82.7399979,158.871994c-1.0079956,0-1.6079941-0.8159943-1.6079941-1.7519989c0-0.923996,0.5999985-1.7279968,1.6079941-1.7279968
	c1.0320053,0,1.6200027,0.8040009,1.6200027,1.7279968C84.3600006,158.0559998,83.7720032,158.871994,82.7399979,158.871994z
	 M89.9160004,162.8800049c2.2679977,0,3.3479996-1.3200073,3.3479996-3.2519989v-5.3760071H91.788002v0.852005h-0.0240021
	c-0.4319992-0.6719971-1.1640015-1.0080109-1.9440002-1.0080109c-1.7399979,0-2.8440018,1.3680115-2.8440018,2.9760132
	c0,1.7519989,1.2000046,2.9279938,2.9400024,2.9279938c0.7080002,0,1.4280014-0.3359985,1.8000031-0.8639984h0.0239944v0.6119995
	c0,1.0800018-0.5400009,1.871994-1.8720016,1.871994c-0.7319946,0-1.5-0.3239899-2.0039978-0.8279877l-0.8160019,1.1159973
	C87.8040009,162.5440063,88.8840027,162.8800049,89.9160004,162.8800049z M90.1679993,158.7879944
	c-0.9960022,0-1.6200027-0.8159943-1.6200027-1.7039948c0-0.9360046,0.6240005-1.7039948,1.6200027-1.7039948
	c0.9720001,0,1.6559982,0.7679901,1.6559982,1.6920013C91.8239975,158.0440063,91.1399994,158.7879944,90.1679993,158.7879944z
	 M97.7279968,160.1799927c1.2000046,0,2.2440033-0.5999908,2.7240067-1.29599l-1.0320053-0.6719971
	c-0.2639999,0.3119965-0.7919998,0.7799988-1.5839996,0.7799988c-0.8880005,0-1.5599976-0.5279999-1.6679993-1.4759979h4.3560028
	c0.012001-0.1800079,0.0239944-0.3600006,0.0239944-0.5640106c0-1.4519958-1.0199966-2.8560028-2.7719955-2.8560028
	c-1.7399979,0-3.0719986,1.3440094-3.0719986,3.1560059S96.0960007,160.1799927,97.7279968,160.1799927z M99.1800003,156.5919952
	h-3.012001c0.1320038-0.7799988,0.7080002-1.3799896,1.5599976-1.3799896
	C98.5439987,155.2120056,99.1800003,155.8240051,99.1800003,156.5919952z M105.0960007,160v-1.1999969h-0.4319992
	c-0.552002,0-1.0200043-0.0599976-1.0200043-1.0680084v-2.2919922h1.4640045v-1.1880035h-1.4640045v-1.5119934h-1.5v1.5119934
	h-0.9119949v1.1880035h0.9119949v2.2559967c0,1.9559937,0.4560013,2.3040009,2.2560043,2.3040009H105.0960007z M54.132,219
	v-1.404007h-3.5519981v-7.0919952h-1.6080017V219H54.132z M59.2319984,219v-8.4960022h-1.4399986l-2.5680008,1.9440002
	l0.8400002,1.0800018l1.5720024-1.1999969V219H59.2319984z M68.3040009,219v-1.3800049h-3.8519974l2.3879929-2.2319946
	c0.7560043-0.6959991,1.4400024-1.4400024,1.4400024-2.6040039c0-1.6799927-1.3919983-2.4960022-2.8799973-2.4960022
	c-1.5360031,0-2.868,0.9360046-3.0360031,2.7120056h1.5720024c0.1079979-0.8040009,0.6359978-1.3679962,1.4039955-1.3679962
	c0.7320023,0,1.2840042,0.4919891,1.2840042,1.2480011c0,0.6119995-0.3600006,1.1039886-0.8160019,1.5359955l-3.3839989,3.1920013
	V219H68.3040009z M76.4039993,219v-7.1040039h2.5680008v-1.3919983h-6.7320023v1.3919983h2.5559998V219H76.4039993z
	 M82.7399979,219.1799927c1.7519989,0,3.1560059-1.2359924,3.1560059-3.0599976c0-1.8119965-1.404007-3.0240021-3.1560059-3.0240021
	c-1.7399979,0-3.1319962,1.2120056-3.1319962,3.0240021C79.6080017,217.9440002,81,219.1799927,82.7399979,219.1799927z
	 M82.7399979,217.871994c-1.0079956,0-1.6079941-0.8159943-1.6079941-1.7519989c0-0.923996,0.5999985-1.7279968,1.6079941-1.7279968
	c1.0320053,0,1.6200027,0.8040009,1.6200027,1.7279968C84.3600006,217.0559998,83.7720032,217.871994,82.7399979,217.871994z
	 M89.9160004,221.8800049c2.2679977,0,3.3479996-1.3200073,3.3479996-3.2519989v-5.3760071H91.788002v0.852005h-0.0240021
	c-0.4319992-0.6719971-1.1640015-1.0080109-1.9440002-1.0080109c-1.7399979,0-2.8440018,1.3680115-2.8440018,2.9760132
	c0,1.7519989,1.2000046,2.9279938,2.9400024,2.9279938c0.7080002,0,1.4280014-0.3359985,1.8000031-0.8639984h0.0239944v0.6119995
	c0,1.0800018-0.5400009,1.871994-1.8720016,1.871994c-0.7319946,0-1.5-0.3239899-2.0039978-0.8279877l-0.8160019,1.1159973
	C87.8040009,221.5440063,88.8840027,221.8800049,89.9160004,221.8800049z M90.1679993,217.7879944
	c-0.9960022,0-1.6200027-0.8159943-1.6200027-1.7039948c0-0.9360046,0.6240005-1.7039948,1.6200027-1.7039948
	c0.9720001,0,1.6559982,0.7679901,1.6559982,1.6920013C91.8239975,217.0440063,91.1399994,217.7879944,90.1679993,217.7879944z
	 M97.7279968,219.1799927c1.2000046,0,2.2440033-0.5999908,2.7240067-1.29599l-1.0320053-0.6719971
	c-0.2639999,0.3119965-0.7919998,0.7799988-1.5839996,0.7799988c-0.8880005,0-1.5599976-0.5279999-1.6679993-1.4759979h4.3560028
	c0.012001-0.1800079,0.0239944-0.3600006,0.0239944-0.5640106c0-1.4519958-1.0199966-2.8560028-2.7719955-2.8560028
	c-1.7399979,0-3.0719986,1.3440094-3.0719986,3.1560059S96.0960007,219.1799927,97.7279968,219.1799927z M99.1800003,215.5919952
	h-3.012001c0.1320038-0.7799988,0.7080002-1.3799896,1.5599976-1.3799896
	C98.5439987,214.2120056,99.1800003,214.8240051,99.1800003,215.5919952z M105.0960007,219v-1.1999969h-0.4319992
	c-0.552002,0-1.0200043-0.0599976-1.0200043-1.0680084v-2.2919922h1.4640045v-1.1880035h-1.4640045v-1.5119934h-1.5v1.5119934
	h-0.9119949v1.1880035h0.9119949v2.2559967c0,1.9559937,0.4560013,2.3040009,2.2560043,2.3040009H105.0960007z"/>
<path fill-rule="evenodd" clip-rule="evenodd" fill="#42A5F5" d="M36.2128983,37.5929985
	c-0.0449982,0.1360016-0.1729965,0.1710014-0.3169975,0.1710014h-0.6650009c-0.0719986,0-0.1860008,0.0110016-0.2849998-0.0629997
	l-0.9500008-0.670002c-0.1149979-0.0859985-0.1609993-0.2360001-0.1160011-0.3719978
	c0.0460014-0.1349983,0.1730042-0.2270012,0.3160019-0.2270012h0.6660004c0.0719986,0,0.1419983,0.0240021,0.2010002,0.0670013
	l1.0340004,0.7789993C36.2108994,37.3639984,36.2579002,37.4570007,36.2128983,37.5929985 M38,42.0003014v1H25v-1H38z
	 M30.3638992,32.4000015l1.4940014,1.178997c0.0809994,0.0590019,0.1420002,0.1500015,0.1420002,0.2750015
	c0,0.1230011-0.0480003,0.1800003-0.1490002,0.2560005l0,0L30.5569,35h3.5390015
	c0.2399979,0,0.6399994,0.0960007,0.9990005,0.3320007c1.0970001,0.7229996,3.1209984,2.2140007,3.435997,2.5279999
	c0.0360031,0.0369987,0.0660019,0.0670013,0.0930023,0.0950012c0.0119972,0.0109978,0.0239983,0.0239983,0.0349998,0.0359993
	c0.0389977,0.0399971,0.0699997,0.0739975,0.0909996,0.1089973c0.1549988,0.2060013,0.25,0.4570007,0.25,0.7340012
	c0,0.493-0.4090004,1.1469994-0.9000015,1.9020004c-0.1079979,0.1650009-0.2910004,0.2649994-0.4889984,0.2649994l0,0H24.9999008V35
	h4.4019985l1.7000008-1.1669998l-1.7019997-1.4329987H30.3638992z"/>
<path fill-rule="evenodd" clip-rule="evenodd" fill="#42A5F5" d="M36.2128983,96.5930023
	c-0.0449982,0.1360016-0.1729965,0.1709976-0.3169975,0.1709976h-0.6650009c-0.0719986,0-0.1860008,0.0110016-0.2849998-0.0629959
	l-0.9500008-0.6700058c-0.1149979-0.0859985-0.1609993-0.2360001-0.1160011-0.3720016
	c0.0460014-0.1349945,0.1730042-0.2269974,0.3160019-0.2269974h0.6660004c0.0719986,0,0.1419983,0.0240021,0.2010002,0.0670013
	l1.0340004,0.7789993C36.2108994,96.3639984,36.2579002,96.4570007,36.2128983,96.5930023 M38,101.0002975v1H25v-1H38z
	 M30.3638992,91.4000015l1.4940014,1.1790009c0.0809994,0.0589981,0.1420002,0.1500015,0.1420002,0.2750015
	c0,0.1229935-0.0480003,0.1799927-0.1490002,0.2559967l0,0L30.5569,94h3.5390015
	c0.2399979,0,0.6399994,0.0960007,0.9990005,0.3320007c1.0970001,0.7229996,3.1209984,2.2139969,3.435997,2.5279999
	c0.0360031,0.0370026,0.0660019,0.0670013,0.0930023,0.0950012c0.0119972,0.0110016,0.0239983,0.0240021,0.0349998,0.0359955
	c0.0389977,0.0400009,0.0699997,0.0740051,0.0909996,0.1090012c0.1549988,0.2060013,0.25,0.4570007,0.25,0.7340012
	c0,0.4929962-0.4090004,1.1470032-0.9000015,1.9020004c-0.1079979,0.1650009-0.2910004,0.2649994-0.4889984,0.2649994l0,0
	H24.9999008V94h4.4019985l1.7000008-1.1669998l-1.7019997-1.4329987H30.3638992z"/>
<path fill-rule="evenodd" clip-rule="evenodd" fill="#42A5F5" d="M36.2128983,155.5930023
	c-0.0449982,0.1360016-0.1729965,0.1710052-0.3169975,0.1710052h-0.6650009c-0.0719986,0-0.1860008,0.0109863-0.2849998-0.0630035
	l-0.9500008-0.6699982c-0.1149979-0.0859985-0.1609993-0.2360077-0.1160011-0.3720093
	c0.0460014-0.1349945,0.1730042-0.2269897,0.3160019-0.2269897h0.6660004c0.0719986,0,0.1419983,0.0239868,0.2010002,0.0669861
	l1.0340004,0.779007C36.2108994,155.3639984,36.2579002,155.4570007,36.2128983,155.5930023 M38,160.0003052v1H25v-1H38z
	 M30.3638992,150.3999939l1.4940014,1.1790009c0.0809994,0.0590057,0.1420002,0.1500092,0.1420002,0.2750092
	c0,0.1230011-0.0480003,0.1799927-0.1490002,0.2559967l0,0L30.5569,153h3.5390015
	c0.2399979,0,0.6399994,0.095993,0.9990005,0.3320007c1.0970001,0.7229919,3.1209984,2.2140045,3.435997,2.5279999
	c0.0360031,0.0370026,0.0660019,0.0670013,0.0930023,0.0950012c0.0119972,0.0110016,0.0239983,0.0240021,0.0349998,0.0359955
	c0.0389977,0.0400085,0.0699997,0.0740051,0.0909996,0.1090088c0.1549988,0.2059937,0.25,0.4570007,0.25,0.7339935
	c0,0.4929962-0.4090004,1.1470032-0.9000015,1.9019928c-0.1079979,0.1650085-0.2910004,0.2650146-0.4889984,0.2650146l0,0
	H24.9999008V153h4.4019985l1.7000008-1.1670074l-1.7019997-1.4329987H30.3638992z"/>
<path fill-rule="evenodd" clip-rule="evenodd" fill="#42A5F5" d="M36.2128983,214.5930023
	c-0.0449982,0.1360016-0.1729965,0.1710052-0.3169975,0.1710052h-0.6650009c-0.0719986,0-0.1860008,0.0109863-0.2849998-0.0630035
	l-0.9500008-0.6699982c-0.1149979-0.0859985-0.1609993-0.2360077-0.1160011-0.3720093
	c0.0460014-0.1349945,0.1730042-0.2269897,0.3160019-0.2269897h0.6660004c0.0719986,0,0.1419983,0.0239868,0.2010002,0.0669861
	l1.0340004,0.779007C36.2108994,214.3639984,36.2579002,214.4570007,36.2128983,214.5930023 M38,219.0003052v1H25v-1H38z
	 M30.3638992,209.3999939l1.4940014,1.1790009c0.0809994,0.0590057,0.1420002,0.1500092,0.1420002,0.2750092
	c0,0.1230011-0.0480003,0.1799927-0.1490002,0.2559967l0,0L30.5569,212h3.5390015
	c0.2399979,0,0.6399994,0.095993,0.9990005,0.3320007c1.0970001,0.7229919,3.1209984,2.2140045,3.435997,2.5279999
	c0.0360031,0.0370026,0.0660019,0.0670013,0.0930023,0.0950012c0.0119972,0.0110016,0.0239983,0.0240021,0.0349998,0.0359955
	c0.0389977,0.0400085,0.0699997,0.0740051,0.0909996,0.1090088c0.1549988,0.2059937,0.25,0.4570007,0.25,0.7339935
	c0,0.4929962-0.4090004,1.1470032-0.9000015,1.9019928c-0.1079979,0.1650085-0.2910004,0.2650146-0.4889984,0.2650146l0,0
	H24.9999008V212h4.4019985l1.7000008-1.1670074l-1.7019997-1.4329987H30.3638992z"/>
<path fill-rule="evenodd" clip-rule="evenodd" fill="#292B6A" d="M164,169h136c1.1045837,0,2,0.8954315,2,2v101
	c0,1.1045837-0.8954163,2-2,2H164c-1.1045685,0-2-0.8954163-2-2V171C162,169.8954315,162.8954315,169,164,169z"/>
<path fill-rule="evenodd" clip-rule="evenodd" fill="#54568C" d="M175,213h23c0.5522919,0,1,0.4477081,1,1v9
	c0,0.5522919-0.4477081,1-1,1h-23c-0.5522919,0-1-0.4477081-1-1v-9C174,213.4477081,174.4477081,213,175,213z"/>
<path fill-rule="evenodd" clip-rule="evenodd" fill="#54568C" d="M206,213h23c0.5522919,0,1,0.4477081,1,1v9
	c0,0.5522919-0.4477081,1-1,1h-23c-0.5522919,0-1-0.4477081-1-1v-9C205,213.4477081,205.4477081,213,206,213z"/>
<path fill-rule="evenodd" clip-rule="evenodd" fill="#54568C" d="M237,213h23c0.5522766,0,1,0.4477081,1,1v9
	c0,0.5522919-0.4477234,1-1,1h-23c-0.5522919,0-1-0.4477081-1-1v-9C236,213.4477081,236.4477081,213,237,213z"/>
<path fill-rule="evenodd" clip-rule="evenodd" fill="#54568C" d="M268,213h22c0.5522766,0,1,0.4477081,1,1v9
	c0,0.5522919-0.4477234,1-1,1h-22c-0.5522766,0-1-0.4477081-1-1v-9C267,213.4477081,267.4477234,213,268,213z"/>
<path fill="#FFFFFF" d="M201.6000061,199.2279968c1.5239868,0,3.0239868-0.8880005,3.0239868-2.6519928
	c0-1.0200043-0.6959991-1.8000031-1.6559906-2.0279999v-0.0240021c0.8280029-0.2279968,1.4400024-0.9600067,1.4400024-1.9199982
	c0-1.5360107-1.3560028-2.3160095-2.7960052-2.3160095c-1.2839966,0-2.5919952,0.5880127-3.0359955,2.256012h1.6080017
	c0.2039948-0.6119995,0.7079926-0.9600067,1.3320007-0.9600067c0.6719971,0,1.2839966,0.4440002,1.2839966,1.1759949
	c0,0.947998-0.7920074,1.223999-1.6679993,1.223999h-0.5039978v1.2120056h0.4679871
	c0.9480133,0,1.9080048,0.3119965,1.9080048,1.3320007c0,0.9360046-0.7440033,1.3560028-1.4640045,1.3560028
	c-0.8040009,0-1.3919983-0.4799957-1.6079865-1.128006h-1.5960083
	C198.7559967,198.5800018,200.1119995,199.2279968,201.6000061,199.2279968z M212.5319977,199
	C214.3439941,199,216,198.3880005,216,196.576004c0-1.1640015-0.7920074-1.8840027-1.8119965-2.0400085v-0.0240021
	c0.8519897-0.2519989,1.4279938-0.8999939,1.4279938-1.8359985c0-1.7039948-1.5119934-2.1719971-2.8199921-2.1719971h-3.3720093V199
	H212.5319977z M212.628006,194.0319977h-1.6440125v-2.2200012h1.4880066c0.9600067,0,1.5839996,0.3119965,1.5839996,1.0800018
	C214.0559998,193.6840057,213.4199982,194.0319977,212.628006,194.0319977z M212.6040039,197.6799927h-1.6200104v-2.4720001
	h1.6800079c1.0559998,0,1.7160034,0.3600006,1.7160034,1.2240143
	C214.3800049,197.3919983,213.4799957,197.6799927,212.6040039,197.6799927z M219.2039948,199.1560059
	c0.7320099,0,1.4400024-0.2880096,1.7880096-0.852005h0.0359955V199h1.4279938v-3.4440002
	c0-1.7400055-0.8040009-2.4600067-2.6159973-2.4600067c-1.1279907,0-1.9079895,0.2880096-2.519989,0.8760071l0.8399963,0.8999939
	c0.371994-0.371994,0.8999939-0.6119995,1.571991-0.6119995c0.9240112,0,1.2960052,0.3840027,1.2960052,1.1160126v0.2519989
	c-0.5039978-0.1080017-0.9600067-0.1560059-1.4279938-0.1560059c-1.6679993,0-2.4960022,0.7559967-2.4960022,1.871994
	C217.1040039,198.628006,218.1360016,199.1560059,219.2039948,199.1560059z M219.576004,198.1119995
	c-0.6119995,0-1.0200043-0.2639923-1.0200043-0.8040009c0-0.5399933,0.3480072-0.923996,1.1759949-0.923996
	c0.4440002,0,0.9000092,0.0839996,1.2960052,0.1799927v0.3000031
	C221.0279999,197.6679993,220.3200073,198.1119995,219.576004,198.1119995z M225.7799988,199v-2.904007
	c0-1.019989,0.6000061-1.7519989,1.4759979-1.7519989c0.8760071,0,1.2120056,0.7200012,1.2120056,1.5600128V199h1.5359955
	v-3.2279968c0-1.4160004-0.5999908-2.6760101-2.2680054-2.6760101c-0.9359894,0-1.6679993,0.5160065-1.943985,1.0320129h-0.0480042
	v-0.8760071h-1.5V199H225.7799988z M234.4559937,199.1799927c1.2000122,0,2.2440033-0.5999908,2.723999-1.29599
	l-1.0319977-0.6719971c-0.2639923,0.3119965-0.7919922,0.7799988-1.5839996,0.7799988
	c-0.8880005,0-1.5599976-0.5279999-1.6679993-1.4759979h4.3560028c0.0120087-0.1800079,0.0240021-0.3600006,0.0240021-0.5640106
	c0-1.4519958-1.0200043-2.8560028-2.7720032-2.8560028c-1.7399902,0-3.071991,1.3440094-3.071991,3.1560059
	S232.8240051,199.1799927,234.4559937,199.1799927z M235.9080048,195.5919952h-3.0120087
	c0.1320038-0.7799988,0.7080078-1.3799896,1.5599976-1.3799896
	C235.2720032,194.2120056,235.9080048,194.8240051,235.9080048,195.5919952z M240.2279968,199v-2.904007
	c0-1.019989,0.6000061-1.7519989,1.4759979-1.7519989c0.8760071,0,1.2120056,0.7200012,1.2120056,1.5600128V199h1.5359955
	v-3.2279968c0-1.4160004-0.5999908-2.6760101-2.2679901-2.6760101c-0.9360046,0-1.6679993,0.5160065-1.9440002,1.0320129h-0.0480042
	v-0.8760071h-1.5V199H240.2279968z"/>
<path fill-rule="evenodd" clip-rule="evenodd" fill="#F08901" d="M181.9994965,188c3.8610077,0,7,3.1410065,7,7s-3.1389923,7-7,7
	c-3.8600006,0-7-3.1410065-7-7S178.1394958,188,181.9994965,188z M181.9994965,189c-3.3079987,0-6,2.6909943-6,6s2.6920013,6,6,6
	c3.3090057,0,6-2.6909943,6-6S185.3085022,189,181.9994965,189z M184.9989014,192v1.1669922h-2.4150085V199h-1.1669922v-5.8330078
	h-2.4129944V192H184.9989014z"/>
<path fill-rule="evenodd" clip-rule="evenodd" fill="#292B6A" d="M164,12h136c1.1045837,0,2,0.8954306,2,2v142
	c0,1.1045685-0.8954163,2-2,2H164c-1.1045685,0-2-0.8954315-2-2V14C162,12.8954306,162.8954315,12,164,12z"/>
<path fill-rule="evenodd" clip-rule="evenodd" fill="#54568C" d="M175,56h23c0.5522919,0,1,0.4477158,1,1v9
	c0,0.5522842-0.4477081,1-1,1h-23c-0.5522919,0-1-0.4477158-1-1v-9C174,56.4477158,174.4477081,56,175,56z"/>
<path fill-rule="evenodd" clip-rule="evenodd" fill="#54568C" d="M175,115h23c0.5522919,0,1,0.4477158,1,1v9
	c0,0.5522842-0.4477081,1-1,1h-23c-0.5522919,0-1-0.4477158-1-1v-9C174,115.4477158,174.4477081,115,175,115z"/>
<path fill-rule="evenodd" clip-rule="evenodd" fill="#54568C" d="M206,56h23c0.5522919,0,1,0.4477158,1,1v9
	c0,0.5522842-0.4477081,1-1,1h-23c-0.5522919,0-1-0.4477158-1-1v-9C205,56.4477158,205.4477081,56,206,56z"/>
<path fill-rule="evenodd" clip-rule="evenodd" fill="#54568C" d="M206,115h23c0.5522919,0,1,0.4477158,1,1v9
	c0,0.5522842-0.4477081,1-1,1h-23c-0.5522919,0-1-0.4477158-1-1v-9C205,115.4477158,205.4477081,115,206,115z"/>
<path fill-rule="evenodd" clip-rule="evenodd" fill="#54568C" d="M237,56h23c0.5522766,0,1,0.4477158,1,1v9
	c0,0.5522842-0.4477234,1-1,1h-23c-0.5522919,0-1-0.4477158-1-1v-9C236,56.4477158,236.4477081,56,237,56z"/>
<path fill-rule="evenodd" clip-rule="evenodd" fill="#54568C" d="M237,115h23c0.5522766,0,1,0.4477158,1,1v9
	c0,0.5522842-0.4477234,1-1,1h-23c-0.5522919,0-1-0.4477158-1-1v-9C236,115.4477158,236.4477081,115,237,115z"/>
<path fill-rule="evenodd" clip-rule="evenodd" fill="#54568C" d="M268,56h22c0.5522766,0,1,0.4477158,1,1v9
	c0,0.5522842-0.4477234,1-1,1h-22c-0.5522766,0-1-0.4477158-1-1v-9C267,56.4477158,267.4477234,56,268,56z"/>
<path fill-rule="evenodd" clip-rule="evenodd" fill="#54568C" d="M268,115h22c0.5522766,0,1,0.4477158,1,1v9
	c0,0.5522842-0.4477234,1-1,1h-22c-0.5522766,0-1-0.4477158-1-1v-9C267,115.4477158,267.4477234,115,268,115z"/>
<path fill="#FFFFFF" d="M202.0800018,42c1.8119965,0,3.4680023-0.6119995,3.4680023-2.4239998
	c0-1.1640015-0.7920074-1.8839989-1.8120117-2.0400009V37.512001c0.852005-0.2520027,1.428009-0.9000015,1.428009-1.8360023
	c0-1.7039986-1.5120087-2.1719971-2.8200073-2.1719971h-3.371994V42H202.0800018z M202.1759949,37.0320015h-1.6439972v-2.2200012
	h1.4880066c0.9599915,0,1.5839996,0.3120003,1.5839996,1.079998
	C203.6040039,36.6839981,202.9680023,37.0320015,202.1759949,37.0320015z M202.1519928,40.6800003h-1.6199951v-2.4720001h1.6800079
	c1.0559998,0,1.7159882,0.3600006,1.7159882,1.223999C203.9279938,40.3919983,203.0279999,40.6800003,202.1519928,40.6800003z
	 M211.1519928,42v-8.4959984h-1.4399872l-2.5680084,1.9440002l0.8399963,1.079998l1.5720062-1.2000008V42H211.1519928z
	 M220.6920013,42c1.8119965,0,3.4680023-0.6119995,3.4680023-2.4239998c0-1.1640015-0.7920074-1.8839989-1.8119965-2.0400009
	V37.512001c0.8519897-0.2520027,1.4279938-0.9000015,1.4279938-1.8360023c0-1.7039986-1.5119934-2.1719971-2.8200073-2.1719971
	h-3.371994V42H220.6920013z M220.7879944,37.0320015h-1.6439972v-2.2200012h1.4880066
	c0.9599915,0,1.5839996,0.3120003,1.5839996,1.079998C222.2160034,36.6839981,221.5800018,37.0320015,220.7879944,37.0320015z
	 M220.7640076,40.6800003h-1.6200104v-2.4720001h1.6800079c1.0559998,0,1.7159882,0.3600006,1.7159882,1.223999
	C222.5399933,40.3919983,221.6399994,40.6800003,220.7640076,40.6800003z M228.1320038,35.3279991
	c0.6839905,0,1.2480011-0.5279999,1.2480011-1.2360001c0-0.6959991-0.5640106-1.223999-1.2480011-1.223999
	c-0.6959991,0-1.2480011,0.5279999-1.2480011,1.2360001C226.8840027,34.7999992,227.447998,35.3279991,228.1320038,35.3279991z
	 M228.1320038,34.7039986c-0.3480072,0-0.6240082-0.2639999-0.6240082-0.6119995
	c0-0.3359985,0.276001-0.5999985,0.6240082-0.5999985c0.3479919,0,0.6239929,0.2639999,0.6239929,0.5999985
	C228.7559967,34.4399986,228.4799957,34.7039986,228.1320038,34.7039986z M227.3639984,42.1559982
	c0.7319946,0,1.4400024-0.2879982,1.7879944-0.8519974h0.0360107V42h1.4279938v-3.4440002
	c0-1.7399979-0.8040009-2.4599991-2.6159973-2.4599991c-1.128006,0-1.9080048,0.2879982-2.5200043,0.8759995l0.8400116,0.9000015
	c0.371994-0.3720016,0.8999939-0.6120033,1.571991-0.6120033c0.923996,0,1.2960052,0.3840027,1.2960052,1.1160011v0.2519989
	c-0.5039978-0.1079979-0.9600067-0.1559982-1.428009-0.1559982c-1.6679993,0-2.4959869,0.7560005-2.4959869,1.8720016
	C225.2640076,41.6279984,226.2960052,42.1559982,227.3639984,42.1559982z M227.7359924,41.1119995
	c-0.6119995,0-1.019989-0.2639999-1.019989-0.8040009c0-0.5399971,0.3479919-0.9239998,1.1759949-0.9239998
	c0.4440002,0,0.9000092,0.0839996,1.2960052,0.1800003v0.2999992
	C229.1880035,40.6679993,228.4799957,41.1119995,227.7359924,41.1119995z M235.5359955,42v-1.2000008h-0.4319916
	c-0.552002,0-1.0200043-0.0599976-1.0200043-1.0680008v-2.2919998h1.4640045v-1.1879997h-1.4640045v-1.5119972h-1.5v1.5119972
	h-0.9120026v1.1879997h0.9120026v2.2560005c0,1.9560013,0.4559937,2.3040009,2.2559967,2.3040009H235.5359955z
	 M239.3159943,42.1800003c1.2000122,0,2.2440033-0.5999985,2.723999-1.2960014l-1.0319977-0.6719971
	c-0.2639923,0.3119965-0.7919922,0.7799988-1.5839996,0.7799988c-0.8880005,0-1.5599976-0.5279999-1.6679993-1.4760017h4.3560028
	c0.0119934-0.1800003,0.0240021-0.3600006,0.0240021-0.5639992c0-1.4519997-1.0200043-2.855999-2.7720032-2.855999
	c-1.7400055,0-3.071991,1.343998-3.071991,3.1559982S237.6840057,42.1800003,239.3159943,42.1800003z M240.7680054,38.5919991
	h-3.0120087c0.1320038-0.7799988,0.7080078-1.3799973,1.5599976-1.3799973
	C240.1320038,37.2120018,240.7680054,37.8240013,240.7680054,38.5919991z M245.0879974,42v-2.9039993
	c0-1.0200005,0.6000061-1.7519989,1.4759979-1.7519989c0.8760071,0,1.2120056,0.7199974,1.2120056,1.5599976V42h1.5359955
	v-3.2280006c0-1.4160004-0.5999908-2.6759987-2.2679901-2.6759987c-0.9360046,0-1.6679993,0.5159988-1.9440002,1.0319977h-0.0480042
	v-0.8759995h-1.5V42H245.0879974z M202.0800018,101c1.8119965,0,3.4680023-0.6119995,3.4680023-2.4240036
	c0-1.1639938-0.7920074-1.8839951-1.8120117-2.0399933V96.512001c0.852005-0.2519989,1.428009-0.9000015,1.428009-1.8359985
	c0-1.7040024-1.5120087-2.1720047-2.8200073-2.1720047h-3.371994V101H202.0800018z M202.1759949,96.0319977h-1.6439972v-2.2200012
	h1.4880066c0.9599915,0,1.5839996,0.3120041,1.5839996,1.0800018
	C203.6040039,95.6839981,202.9680023,96.0319977,202.1759949,96.0319977z M202.1519928,99.6800003h-1.6199951v-2.4720001h1.6800079
	c1.0559998,0,1.7159882,0.3600006,1.7159882,1.223999C203.9279938,99.3919983,203.0279999,99.6800003,202.1519928,99.6800003z
	 M212.7720032,101v-1.3799973h-3.852005l2.3880005-2.2320023c0.7559967-0.6959991,1.4400024-1.4400024,1.4400024-2.6040039
	c0-1.6800003-1.3919983-2.4959946-2.8800049-2.4959946c-1.5359955,0-2.8679962,0.935997-3.0359955,2.711998h1.5720062
	c0.1079865-0.8040009,0.6359863-1.3679962,1.4039917-1.3679962c0.7319946,0,1.2839966,0.4919968,1.2839966,1.2479935
	c0,0.6119995-0.3600006,1.1040039-0.8159943,1.5360031l-3.3840027,3.1920013V101H212.7720032z M220.6920013,101
	c1.8119965,0,3.4680023-0.6119995,3.4680023-2.4240036c0-1.1639938-0.7920074-1.8839951-1.8119965-2.0399933V96.512001
	c0.8519897-0.2519989,1.4279938-0.9000015,1.4279938-1.8359985c0-1.7040024-1.5119934-2.1720047-2.8200073-2.1720047h-3.371994V101
	H220.6920013z M220.7879944,96.0319977h-1.6439972v-2.2200012h1.4880066c0.9599915,0,1.5839996,0.3120041,1.5839996,1.0800018
	C222.2160034,95.6839981,221.5800018,96.0319977,220.7879944,96.0319977z M220.7640076,99.6800003h-1.6200104v-2.4720001h1.6800079
	c1.0559998,0,1.7159882,0.3600006,1.7159882,1.223999C222.5399933,99.3919983,221.6399994,99.6800003,220.7640076,99.6800003z
	 M228.1320038,94.3280029c0.6839905,0,1.2480011-0.5279999,1.2480011-1.2360001
	c0-0.6959991-0.5640106-1.2240067-1.2480011-1.2240067c-0.6959991,0-1.2480011,0.5280075-1.2480011,1.2360001
	C226.8840027,93.8000031,227.447998,94.3280029,228.1320038,94.3280029z M228.1320038,93.7040024
	c-0.3480072,0-0.6240082-0.2639999-0.6240082-0.6119995c0-0.3360062,0.276001-0.6000061,0.6240082-0.6000061
	c0.3479919,0,0.6239929,0.2639999,0.6239929,0.6000061C228.7559967,93.4400024,228.4799957,93.7040024,228.1320038,93.7040024z
	 M227.3639984,101.1559982c0.7319946,0,1.4400024-0.288002,1.7879944-0.8519974h0.0360107V101h1.4279938v-3.4440002
	c0-1.7399979-0.8040009-2.4599991-2.6159973-2.4599991c-1.128006,0-1.9080048,0.288002-2.5200043,0.8759995l0.8400116,0.9000015
	c0.371994-0.3720016,0.8999939-0.6119995,1.571991-0.6119995c0.923996,0,1.2960052,0.3839951,1.2960052,1.1159973v0.2519989
	c-0.5039978-0.1080017-0.9600067-0.1559982-1.428009-0.1559982c-1.6679993,0-2.4959869,0.7559967-2.4959869,1.8720016
	C225.2640076,100.6279984,226.2960052,101.1559982,227.3639984,101.1559982z M227.7359924,100.1119995
	c-0.6119995,0-1.019989-0.2639999-1.019989-0.8040009s0.3479919-0.923996,1.1759949-0.923996
	c0.4440002,0,0.9000092,0.0839996,1.2960052,0.1800003v0.2999954
	C229.1880035,99.6679993,228.4799957,100.1119995,227.7359924,100.1119995z M235.5359955,101v-1.1999969h-0.4319916
	c-0.552002,0-1.0200043-0.0600052-1.0200043-1.0680008v-2.2919998h1.4640045v-1.1880035h-1.4640045v-1.512001h-1.5v1.512001
	h-0.9120026v1.1880035h0.9120026v2.2559967c0,1.9560013,0.4559937,2.3040009,2.2559967,2.3040009H235.5359955z
	 M239.3159943,101.1800003c1.2000122,0,2.2440033-0.5999985,2.723999-1.2959976l-1.0319977-0.6720047
	c-0.2639923,0.3120041-0.7919922,0.7799988-1.5839996,0.7799988c-0.8880005,0-1.5599976-0.5279999-1.6679993-1.4759979h4.3560028
	c0.0119934-0.1800003,0.0240021-0.3600006,0.0240021-0.5639954c0-1.4520035-1.0200043-2.8560028-2.7720032-2.8560028
	c-1.7400055,0-3.071991,1.3440018-3.071991,3.1559982C236.2920074,100.064003,237.6840057,101.1800003,239.3159943,101.1800003z
	 M240.7680054,97.5920029h-3.0120087c0.1320038-0.7800064,0.7080078-1.3800049,1.5599976-1.3800049
	C240.1320038,96.211998,240.7680054,96.8239975,240.7680054,97.5920029z M245.0879974,101v-2.9039993
	c0-1.0200043,0.6000061-1.7519989,1.4759979-1.7519989c0.8760071,0,1.2120056,0.7200012,1.2120056,1.5599976V101h1.5359955
	v-3.2279968c0-1.4160004-0.5999908-2.6760025-2.2679901-2.6760025c-0.9360046,0-1.6679993,0.5159988-1.9440002,1.0319977h-0.0480042
	v-0.8759995h-1.5V101H245.0879974z"/>
<path fill-rule="evenodd" clip-rule="evenodd" fill="#6FDFFF" d="M186.1354065,37.4584351l-1.9330139,0.0009995
	c-0.1109924,0-0.2019958-0.0900002-0.2019958-0.2010002v-0.7989998c0-0.1110001,0.0910034-0.2010002,0.2019958-0.2010002h1.654007
	c0.1150055,0,0.2169952,0.0790024,0.2440033,0.1910019l0.1929932,0.7799988
	C186.346405,37.3944359,186.2444,37.4584351,186.1354065,37.4584351L186.1354065,37.4584351z M183.6013947,37.2544365
	c0,0.112999-0.0919952,0.2039986-0.2039948,0.2039986h-1.3930054c-0.1119995,0-0.2039948-0.0909996-0.2039948-0.2039986v-0.7930031
	c0-0.1119995,0.0919952-0.2029991,0.2039948-0.2029991h1.3930054c0.1119995,0,0.2039948,0.0909996,0.2039948,0.2029991V37.2544365z
	 M181.3973999,37.2584343c0,0.1100006-0.0899963,0.2000008-0.1999969,0.2000008h-1.9260101
	c-0.1239929,0-0.2359924-0.0979996-0.1329956-0.2789993l0.3809967-0.7799988
	c0.0429993-0.0870018,0.1320038-0.1410027,0.2280121-0.1410027h1.4499969c0.1100006,0,0.1999969,0.0890007,0.1999969,0.2000008
	V37.2584343z M185.5359955,41.2683334c0.6419983,0,1.0460052,0.137001,1.3720093,0.2919998l-0.4790039,0.8800011
	c-0.2299957-0.1030006-0.4810028-0.1720009-0.8930054-0.1720009c-0.5769958,0-0.8379974,0.1360016-1.1679993,0.3090019
	c-0.3789978,0.1990013-0.8089905,0.4249992-1.6320038,0.4249992c-0.822998,0-1.2529907-0.2259979-1.6319885-0.4249992
	c-0.3300018-0.1730003-0.5910034-0.3090019-1.1679993-0.3090019c-0.5770111,0-0.8379974,0.1360016-1.1679993,0.3090019
	c-0.3800049,0.1990013-0.8090057,0.4249992-1.6330109,0.4249992c-1.0509949,0-1.9679871-0.5879974-2.0059967-0.612999L175,42.317337
	l0.4459991-0.8930016l0.1959991,0.1079979c0.0370026,0.0230026,0.7429962,0.4700012,1.4929962,0.4700012
	c0.5780029,0,0.8380127-0.137001,1.1679993-0.3099976c0.3800049-0.1990013,0.8100128-0.4240036,1.6330109-0.4240036
	s1.2539978,0.2250023,1.6329956,0.4240036c0.3300018,0.1729965,0.5910034,0.3099976,1.1669922,0.3099976
	c0.576004,0,0.8370056-0.137001,1.1670074-0.3099976C184.2819977,41.4933357,184.7129974,41.2683334,185.5359955,41.2683334z
	 M184.6723938,33.3774338c0.2030029-0.0999985,0.3440094,0.012001,0.4170074,0.1980019l0,0l0.3410034,0.8240013
	c0.0069885,0.0209999,0.0249939,0.0339966,0.04599,0.0349998l0,0h0.5550079c0.1490021,0,0.2819977,0.0970001,0.3300018,0.2420006
	l0,0l0.9069977,2.7449989c0.0070038,0.0219994,0.0269928,0.0369987,0.0500031,0.0369987l0,0h1.4309998
	c0.1899872,0,0.3099976,0.2029991,0.2189941,0.3689995l0,0l-1.6100006,2.9630013
	c-0.3959961-0.2159996-0.946991-0.5209999-1.8450012-0.5209999c-1.3999939,0-1.3999939,0.7329979-2.8009949,0.7329979
	c-1.3990021,0-1.3990021-0.7329979-2.8000031-0.7329979c-1.3990021,0-1.3990021,0.7329979-2.798996,0.7329979
	c-0.6179962,0-0.9620056-0.1429977-1.276001-0.3019981l0,0l1.4960022-3.0470009
	c0.0589905-0.1189995,0.1809998-0.1949997,0.3139954-0.1949997l0,0h0.6679993c0.0209961,0,0.0400085-0.0139999,0.0469971-0.0340004
	l0,0l1.0980072-2.2249985c0.0599976-0.1199989,0.1829987-0.1970024,0.3179932-0.1970024l0,0h3.3910065
	c0.0209961,0,0.04599-0.0139999,0.04599-0.053997l0,0v-0.4630013c0-0.1699982,0.0950012-0.3260002,0.2440033-0.4020004l0,0
	L184.6723938,33.3774338z"/>
<path fill-rule="evenodd" clip-rule="evenodd" fill="#6FDFFF" d="M186.1354065,96.4584351l-1.9330139,0.0009995
	c-0.1109924,0-0.2019958-0.0899963-0.2019958-0.2009964v-0.7990036c0-0.1110001,0.0910034-0.2009964,0.2019958-0.2009964h1.654007
	c0.1150055,0,0.2169952,0.0789948,0.2440033,0.1909943l0.1929932,0.7800064
	C186.346405,96.3944321,186.2444,96.4584351,186.1354065,96.4584351L186.1354065,96.4584351z M183.6013947,96.2544327
	c0,0.112999-0.0919952,0.2040024-0.2039948,0.2040024h-1.3930054c-0.1119995,0-0.2039948-0.0910034-0.2039948-0.2040024v-0.7929993
	c0-0.1119995,0.0919952-0.2029953,0.2039948-0.2029953h1.3930054c0.1119995,0,0.2039948,0.0909958,0.2039948,0.2029953V96.2544327z
	 M181.3973999,96.2584381c0,0.1100006-0.0899963,0.1999969-0.1999969,0.1999969h-1.9260101
	c-0.1239929,0-0.2359924-0.0979996-0.1329956-0.2789993l0.3809967-0.7799988
	c0.0429993-0.086998,0.1320038-0.1409988,0.2280121-0.1409988h1.4499969c0.1100006,0,0.1999969,0.0889969,0.1999969,0.1999969
	V96.2584381z M185.5359955,100.2683334c0.6419983,0,1.0460052,0.137001,1.3720093,0.2919998l-0.4790039,0.8800049
	c-0.2299957-0.1030045-0.4810028-0.1720047-0.8930054-0.1720047c-0.5769958,0-0.8379974,0.1360016-1.1679993,0.3089981
	c-0.3789978,0.1990051-0.8089905,0.4250031-1.6320038,0.4250031c-0.822998,0-1.2529907-0.2259979-1.6319885-0.4250031
	c-0.3300018-0.1729965-0.5910034-0.3089981-1.1679993-0.3089981c-0.5770111,0-0.8379974,0.1360016-1.1679993,0.3089981
	c-0.3800049,0.1990051-0.8090057,0.4250031-1.6330109,0.4250031c-1.0509949,0-1.9679871-0.5879974-2.0059967-0.612999
	L175,101.317337l0.4459991-0.8930054l0.1959991,0.1080017c0.0370026,0.0230026,0.7429962,0.4700012,1.4929962,0.4700012
	c0.5780029,0,0.8380127-0.137001,1.1679993-0.3099976c0.3800049-0.1990051,0.8100128-0.4240036,1.6330109-0.4240036
	s1.2539978,0.2249985,1.6329956,0.4240036c0.3300018,0.1729965,0.5910034,0.3099976,1.1669922,0.3099976
	c0.576004,0,0.8370056-0.137001,1.1670074-0.3099976C184.2819977,100.4933319,184.7129974,100.2683334,185.5359955,100.2683334z
	 M184.6723938,92.3774338c0.2030029-0.0999985,0.3440094,0.012001,0.4170074,0.197998l0,0l0.3410034,0.8240051
	c0.0069885,0.0209961,0.0249939,0.0339966,0.04599,0.034996l0,0h0.5550079c0.1490021,0,0.2819977,0.0970001,0.3300018,0.2420044l0,0
	l0.9069977,2.7449951c0.0070038,0.0220032,0.0269928,0.0370026,0.0500031,0.0370026l0,0h1.4309998
	c0.1899872,0,0.3099976,0.2030029,0.2189941,0.3690033l0,0l-1.6100006,2.9629974
	c-0.3959961-0.2160034-0.946991-0.5210037-1.8450012-0.5210037c-1.3999939,0-1.3999939,0.7330017-2.8009949,0.7330017
	c-1.3990021,0-1.3990021-0.7330017-2.8000031-0.7330017c-1.3990021,0-1.3990021,0.7330017-2.798996,0.7330017
	c-0.6179962,0-0.9620056-0.1429977-1.276001-0.3019943l0,0l1.4960022-3.0470047
	c0.0589905-0.1189957,0.1809998-0.1949997,0.3139954-0.1949997l0,0h0.6679993c0.0209961,0,0.0400085-0.0139999,0.0469971-0.0339966
	l0,0l1.0980072-2.2250061c0.0599976-0.1199951,0.1829987-0.1969986,0.3179932-0.1969986l0,0h3.3910065
	c0.0209961,0,0.04599-0.0139999,0.04599-0.0540009l0,0v-0.4629974c0-0.1699982,0.0950012-0.3259964,0.2440033-0.4020004l0,0
	L184.6723938,92.3774338z"/>
<path fill-rule="evenodd" clip-rule="evenodd" fill="#292B6A" d="M316,12h135c1.1045837,0,2,0.8954306,2,2v258
	c0,1.1045837-0.8954163,2-2,2H316c-1.1045837,0-2-0.8954163-2-2V14C314,12.8954306,314.8954163,12,316,12z"/>
<path fill-rule="evenodd" clip-rule="evenodd" fill="#54568C" d="M327,56h23c0.5522766,0,1,0.4477158,1,1v9
	c0,0.5522842-0.4477234,1-1,1h-23c-0.5522766,0-1-0.4477158-1-1v-9C326,56.4477158,326.4477234,56,327,56z"/>
<path fill-rule="evenodd" clip-rule="evenodd" fill="#54568C" d="M327,115h23c0.5522766,0,1,0.4477158,1,1v9
	c0,0.5522842-0.4477234,1-1,1h-23c-0.5522766,0-1-0.4477158-1-1v-9C326,115.4477158,326.4477234,115,327,115z"/>
<path fill-rule="evenodd" clip-rule="evenodd" fill="#54568C" d="M327,174h23c0.5522766,0,1,0.4477081,1,1v9
	c0,0.5522919-0.4477234,1-1,1h-23c-0.5522766,0-1-0.4477081-1-1v-9C326,174.4477081,326.4477234,174,327,174z"/>
<path fill-rule="evenodd" clip-rule="evenodd" fill="#54568C" d="M327,233h23c0.5522766,0,1,0.4477081,1,1v9
	c0,0.5522919-0.4477234,1-1,1h-23c-0.5522766,0-1-0.4477081-1-1v-9C326,233.4477081,326.4477234,233,327,233z"/>
<path fill-rule="evenodd" clip-rule="evenodd" fill="#54568C" d="M358,56h23c0.5522766,0,1,0.4477158,1,1v9
	c0,0.5522842-0.4477234,1-1,1h-23c-0.5522766,0-1-0.4477158-1-1v-9C357,56.4477158,357.4477234,56,358,56z"/>
<path fill-rule="evenodd" clip-rule="evenodd" fill="#54568C" d="M358,115h23c0.5522766,0,1,0.4477158,1,1v9
	c0,0.5522842-0.4477234,1-1,1h-23c-0.5522766,0-1-0.4477158-1-1v-9C357,115.4477158,357.4477234,115,358,115z"/>
<path fill-rule="evenodd" clip-rule="evenodd" fill="#54568C" d="M358,174h23c0.5522766,0,1,0.4477081,1,1v9
	c0,0.5522919-0.4477234,1-1,1h-23c-0.5522766,0-1-0.4477081-1-1v-9C357,174.4477081,357.4477234,174,358,174z"/>
<path fill-rule="evenodd" clip-rule="evenodd" fill="#54568C" d="M358,233h23c0.5522766,0,1,0.4477081,1,1v9
	c0,0.5522919-0.4477234,1-1,1h-23c-0.5522766,0-1-0.4477081-1-1v-9C357,233.4477081,357.4477234,233,358,233z"/>
<path fill-rule="evenodd" clip-rule="evenodd" fill="#54568C" d="M389,56h23c0.5522766,0,1,0.4477158,1,1v9
	c0,0.5522842-0.4477234,1-1,1h-23c-0.5522766,0-1-0.4477158-1-1v-9C388,56.4477158,388.4477234,56,389,56z"/>
<path fill-rule="evenodd" clip-rule="evenodd" fill="#54568C" d="M389,115h23c0.5522766,0,1,0.4477158,1,1v9
	c0,0.5522842-0.4477234,1-1,1h-23c-0.5522766,0-1-0.4477158-1-1v-9C388,115.4477158,388.4477234,115,389,115z"/>
<path fill-rule="evenodd" clip-rule="evenodd" fill="#54568C" d="M389,174h23c0.5522766,0,1,0.4477081,1,1v9
	c0,0.5522919-0.4477234,1-1,1h-23c-0.5522766,0-1-0.4477081-1-1v-9C388,174.4477081,388.4477234,174,389,174z"/>
<path fill-rule="evenodd" clip-rule="evenodd" fill="#54568C" d="M389,233h23c0.5522766,0,1,0.4477081,1,1v9
	c0,0.5522919-0.4477234,1-1,1h-23c-0.5522766,0-1-0.4477081-1-1v-9C388,233.4477081,388.4477234,233,389,233z"/>
<path fill-rule="evenodd" clip-rule="evenodd" fill="#54568C" d="M420,56h22c0.5522766,0,1,0.4477158,1,1v9
	c0,0.5522842-0.4477234,1-1,1h-22c-0.5522766,0-1-0.4477158-1-1v-9C419,56.4477158,419.4477234,56,420,56z"/>
<path fill-rule="evenodd" clip-rule="evenodd" fill="#54568C" d="M420,115h22c0.5522766,0,1,0.4477158,1,1v9
	c0,0.5522842-0.4477234,1-1,1h-22c-0.5522766,0-1-0.4477158-1-1v-9C419,115.4477158,419.4477234,115,420,115z"/>
<path fill-rule="evenodd" clip-rule="evenodd" fill="#54568C" d="M420,174h22c0.5522766,0,1,0.4477081,1,1v9
	c0,0.5522919-0.4477234,1-1,1h-22c-0.5522766,0-1-0.4477081-1-1v-9C419,174.4477081,419.4477234,174,420,174z"/>
<path fill-rule="evenodd" clip-rule="evenodd" fill="#54568C" d="M420,233h22c0.5522766,0,1,0.4477081,1,1v9
	c0,0.5522919-0.4477234,1-1,1h-22c-0.5522766,0-1-0.4477081-1-1v-9C419,233.4477081,419.4477234,233,420,233z"/>
<path fill="#FFFFFF" d="M356.6119995,42v-1.3800011h-3.8519897l2.3880005-2.2319984
	c0.7559814-0.6959991,1.4400024-1.4399986,1.4400024-2.6040001c0-1.6800003-1.3919983-2.4960022-2.8800049-2.4960022
	c-1.5360107,0-2.8680115,0.9360008-3.0360107,2.7120018h1.571991c0.1080017-0.8040009,0.6360168-1.368,1.4040222-1.368
	c0.7319946,0,1.2839966,0.4920006,1.2839966,1.2480011c0,0.6119995-0.3600159,1.1040001-0.8160095,1.5359993l-3.3840027,3.1920013
	V42H356.6119995z M361.1839905,42.2280006c2.2920227,0,3.1199951-2.1479988,3.1199951-4.487999
	c0-2.3280029-0.8279724-4.4520035-3.1199951-4.4520035c-2.3039856,0-3.1319885,2.1240005-3.1319885,4.4520035
	C358.052002,40.0800018,358.8800049,42.2280006,361.1839905,42.2280006z M361.1839905,40.8600006
	c-1.2359924,0-1.5-1.7999992-1.5-3.1199989c0-1.2960014,0.2640076-3.1080017,1.5-3.1080017
	c1.2120056,0,1.4880066,1.8120003,1.4880066,3.1080017C362.6719971,39.0600014,362.3959961,40.8600006,361.1839905,40.8600006z
	 M371.9840088,42c1.8119812,0,3.4679871-0.6119995,3.4679871-2.4239998c0-1.1640015-0.7919922-1.8839989-1.8119812-2.0400009
	V37.512001c0.8519897-0.2520027,1.4279785-0.9000015,1.4279785-1.8360023c0-1.7039986-1.5119934-2.1719971-2.8200073-2.1719971
	h-3.3719788V42H371.9840088z M372.0799866,37.0320015h-1.6439819v-2.2200012h1.4880066
	c0.9599915,0,1.5839844,0.3120003,1.5839844,1.079998C373.5079956,36.6839981,372.8720093,37.0320015,372.0799866,37.0320015z
	 M372.0559998,40.6800003h-1.6199951v-2.4720001h1.6799927c1.0559998,0,1.7160034,0.3600006,1.7160034,1.223999
	C373.8320007,40.3919983,372.9320068,40.6800003,372.0559998,40.6800003z M379.2919922,42.132
	c0.8160095,0,1.5-0.5279999,1.776001-0.9720001h0.0360107V42h1.5v-5.7480011h-1.5480042v2.9039993
	c0,0.9240036-0.4440002,1.7280006-1.3439941,1.7280006c-0.9240112,0-1.2480164-0.6959991-1.2480164-1.5599976v-3.0720024h-1.5359802
	v3.2040024C376.928009,41.1119995,377.6119995,42.132,379.2919922,42.132z M386.6600037,42.1800003
	c1.3200073,0,2.5799866-0.5880013,2.5799866-1.8959999c0-1.1879997-1.1040039-1.5480003-2.3759766-1.7519989
	c-0.8280029-0.132-1.4160156-0.2520027-1.4160156-0.6720009c0-0.420002,0.5639954-0.5880013,1.0800171-0.5880013
	c0.5879822,0,1.3559875,0.3120003,1.7279968,0.6720009l0.8759766-0.9000015
	c-0.6239929-0.6119995-1.6919861-0.947998-2.6759949-0.947998c-1.3079834,0-2.4960022,0.6240005-2.4960022,1.8600006
	c0,2.0879974,3.8040161,1.2840004,3.8040161,2.4239998c0,0.4559975-0.5639954,0.6479988-1.1159973,0.6479988
	c-0.6360168,0-1.3680115-0.2999992-1.9440002-0.8400002l-0.9360046,0.9239998
	C384.2000122,41.4840012,385.2319946,42.1800003,386.6600037,42.1800003z M392.8399963,42.1800003
	c1.3200073,0,2.5800171-0.5880013,2.5800171-1.8959999c0-1.1879997-1.1040039-1.5480003-2.3760071-1.7519989
	c-0.8280029-0.132-1.4160156-0.2520027-1.4160156-0.6720009c0-0.420002,0.5639954-0.5880013,1.0800171-0.5880013
	c0.5879822,0,1.3559875,0.3120003,1.7279968,0.6720009l0.8760071-0.9000015
	c-0.6240234-0.6119995-1.6920166-0.947998-2.6760254-0.947998c-1.3079834,0-2.4959717,0.6240005-2.4959717,1.8600006
	c0,2.0879974,3.8039856,1.2840004,3.8039856,2.4239998c0,0.4559975-0.5639954,0.6479988-1.1159973,0.6479988
	c-0.6360168,0-1.3680115-0.2999992-1.9440002-0.8400002l-0.9360046,0.9239998
	C390.3800049,41.4840012,391.4119873,42.1800003,392.8399963,42.1800003z M399.428009,42.1800003
	c1.1999817,0,2.243988-0.5999985,2.723999-1.2960014l-1.0320129-0.6719971
	c-0.2640076,0.3119965-0.7919922,0.7799988-1.5839844,0.7799988c-0.8880005,0-1.5599976-0.5279999-1.6679993-1.4760017h4.3559875
	c0.0119934-0.1800003,0.0239868-0.3600006,0.0239868-0.5639992c0-1.4519997-1.019989-2.855999-2.7719727-2.855999
	c-1.7400208,0-3.0720215,1.343998-3.0720215,3.1559982S397.79599,42.1800003,399.428009,42.1800003z M400.8800049,38.5919991
	h-3.0119934c0.1319885-0.7799988,0.7079773-1.3799973,1.5599976-1.3799973
	C400.243988,37.2120018,400.8800049,37.8240013,400.8800049,38.5919991z M405.2000122,42v-2.9039993
	c0-1.0200005,0.5999756-1.7519989,1.4759827-1.7519989s1.2120056,0.7199974,1.2120056,1.5599976V42h1.5360107v-3.2280006
	c0-1.4160004-0.6000061-2.6759987-2.2680054-2.6759987c-0.9360046,0-1.6679993,0.5159988-1.9440002,1.0319977h-0.0480042v-0.8759995
	h-1.5V42H405.2000122z M353.7200012,101.2279968c1.7519836,0,3.1319885-1.1399994,3.1319885-2.9399948
	c0-1.6080017-1.2359924-2.7000046-2.723999-2.7000046c-0.276001,0-0.6239929,0.0600052-0.815979,0.1679993l-0.0120239-0.0239944
	l2.2200012-3.2280045h-1.8959961l-2.1479797,3.3120041c-0.5160217,0.7799988-0.8880005,1.5479965-0.8880005,2.5079956
	C350.5880127,100.0759964,351.9559937,101.2279968,353.7200012,101.2279968z M353.7200012,99.8960037
	c-0.9240112,0-1.5360107-0.6960068-1.5360107-1.5720062c0-0.8999939,0.6119995-1.5479965,1.5480042-1.5479965
	c0.9240112,0,1.5240173,0.659996,1.5240173,1.5479965C355.256012,99.2360001,354.6440125,99.8960037,353.7200012,99.8960037z
	 M361.1839905,101.2279968c2.2920227,0,3.1199951-2.147995,3.1199951-4.487999c0-2.3279953-0.8279724-4.4519958-3.1199951-4.4519958
	c-2.3039856,0-3.1319885,2.1240005-3.1319885,4.4519958C358.052002,99.0800018,358.8800049,101.2279968,361.1839905,101.2279968z
	 M361.1839905,99.8600006c-1.2359924,0-1.5-1.8000031-1.5-3.1200027c0-1.2959976,0.2640076-3.1079941,1.5-3.1079941
	c1.2120056,0,1.4880066,1.8119965,1.4880066,3.1079941C362.6719971,98.0599976,362.3959961,99.8600006,361.1839905,99.8600006z
	 M371.9840088,101c1.8119812,0,3.4679871-0.6119995,3.4679871-2.4240036c0-1.1639938-0.7919922-1.8839951-1.8119812-2.0399933
	V96.512001c0.8519897-0.2519989,1.4279785-0.9000015,1.4279785-1.8359985c0-1.7040024-1.5119934-2.1720047-2.8200073-2.1720047
	h-3.3719788V101H371.9840088z M372.0799866,96.0319977h-1.6439819v-2.2200012h1.4880066
	c0.9599915,0,1.5839844,0.3120041,1.5839844,1.0800018C373.5079956,95.6839981,372.8720093,96.0319977,372.0799866,96.0319977z
	 M372.0559998,99.6800003h-1.6199951v-2.4720001h1.6799927c1.0559998,0,1.7160034,0.3600006,1.7160034,1.223999
	C373.8320007,99.3919983,372.9320068,99.6800003,372.0559998,99.6800003z M379.2919922,101.1320038
	c0.8160095,0,1.5-0.5280075,1.776001-0.9720001h0.0360107V101h1.5v-5.7480011h-1.5480042v2.9039993
	c0,0.9240036-0.4440002,1.7280045-1.3439941,1.7280045c-0.9240112,0-1.2480164-0.6959991-1.2480164-1.5600052v-3.0719986h-1.5359802
	v3.2040024C376.928009,100.1119995,377.6119995,101.1320038,379.2919922,101.1320038z M386.6600037,101.1800003
	c1.3200073,0,2.5799866-0.5879974,2.5799866-1.8960037c0-1.1879959-1.1040039-1.5479965-2.3759766-1.7519989
	c-0.8280029-0.1319962-1.4160156-0.2519989-1.4160156-0.6719971s0.5639954-0.5879974,1.0800171-0.5879974
	c0.5879822,0,1.3559875,0.3119965,1.7279968,0.6719971l0.8759766-0.9000015
	c-0.6239929-0.6119995-1.6919861-0.947998-2.6759949-0.947998c-1.3079834,0-2.4960022,0.6240005-2.4960022,1.8600006
	c0,2.0879974,3.8040161,1.2839966,3.8040161,2.423996c0,0.4560013-0.5639954,0.6480026-1.1159973,0.6480026
	c-0.6360168,0-1.3680115-0.3000031-1.9440002-0.8399963l-0.9360046,0.923996
	C384.2000122,100.4840012,385.2319946,101.1800003,386.6600037,101.1800003z M392.8399963,101.1800003
	c1.3200073,0,2.5800171-0.5879974,2.5800171-1.8960037c0-1.1879959-1.1040039-1.5479965-2.3760071-1.7519989
	c-0.8280029-0.1319962-1.4160156-0.2519989-1.4160156-0.6719971s0.5639954-0.5879974,1.0800171-0.5879974
	c0.5879822,0,1.3559875,0.3119965,1.7279968,0.6719971l0.8760071-0.9000015
	c-0.6240234-0.6119995-1.6920166-0.947998-2.6760254-0.947998c-1.3079834,0-2.4959717,0.6240005-2.4959717,1.8600006
	c0,2.0879974,3.8039856,1.2839966,3.8039856,2.423996c0,0.4560013-0.5639954,0.6480026-1.1159973,0.6480026
	c-0.6360168,0-1.3680115-0.3000031-1.9440002-0.8399963l-0.9360046,0.923996
	C390.3800049,100.4840012,391.4119873,101.1800003,392.8399963,101.1800003z M399.428009,101.1800003
	c1.1999817,0,2.243988-0.5999985,2.723999-1.2959976l-1.0320129-0.6720047
	c-0.2640076,0.3120041-0.7919922,0.7799988-1.5839844,0.7799988c-0.8880005,0-1.5599976-0.5279999-1.6679993-1.4759979h4.3559875
	c0.0119934-0.1800003,0.0239868-0.3600006,0.0239868-0.5639954c0-1.4520035-1.019989-2.8560028-2.7719727-2.8560028
	c-1.7400208,0-3.0720215,1.3440018-3.0720215,3.1559982C396.4039917,100.064003,397.79599,101.1800003,399.428009,101.1800003z
	 M400.8800049,97.5920029h-3.0119934C398,96.8119965,398.5759888,96.211998,399.428009,96.211998
	C400.243988,96.211998,400.8800049,96.8239975,400.8800049,97.5920029z M405.2000122,101v-2.9039993
	c0-1.0200043,0.5999756-1.7519989,1.4759827-1.7519989s1.2120056,0.7200012,1.2120056,1.5599976V101h1.5360107v-3.2279968
	c0-1.4160004-0.6000061-2.6760025-2.2680054-2.6760025c-0.9360046,0-1.6679993,0.5159988-1.9440002,1.0319977h-0.0480042v-0.8759995
	h-1.5V101H405.2000122z M354.9920044,160v-8.4960022h-1.4400024l-2.5679932,1.9440002l0.8399963,1.0800018l1.571991-1.1999969V160
	H354.9920044z M360.70401,160l3.3119812-7.1999969v-1.2960052h-5.7479858v1.3679962h4.0679932L358.8800049,160H360.70401z
	 M372.1640015,160v-7.1040039h2.5679932v-1.3919983H368v1.3919983h2.5559998V160H372.1640015z M377.2520142,160v-2.904007
	c0-0.8639984,0.5039978-1.6439972,1.5-1.6439972c0.1799927,0,0.4440002,0.0240021,0.5999756,0.0720062v-1.3800049
	c-0.1319885-0.0359955-0.276001-0.0480042-0.4440002-0.0480042c-0.7559814,0-1.3919983,0.4440002-1.6919861,1.0559998h-0.0360107
	v-0.8999939h-1.4639893V160H377.2520142z M381.0920105,153.0160065c0.5159912,0,0.9239807-0.3840027,0.9239807-0.9000092
	c0-0.5039978-0.4079895-0.923996-0.9239807-0.923996c-0.5039978,0-0.9120178,0.4199982-0.9120178,0.923996
	C380.1799927,152.6320038,380.5880127,153.0160065,381.0920105,153.0160065z M381.8599854,160v-5.7480011h-1.5359802V160
	H381.8599854z M385.2080078,160v-1.7519989l0.8880005-0.9120026l1.5,2.6640015h1.8840027l-2.2440186-3.6600037l2.0760193-2.0879974
	h-1.9320068l-2.1360168,2.3399963h-0.0359802v-5.6640015h-1.5480042V160H385.2080078z M391.9639893,160v-1.7519989
	l0.8880005-0.9120026l1.5,2.6640015h1.8840027l-2.243988-3.6600037l2.0759888-2.0879974h-1.9320068L392,156.5919952h-0.0360107
	v-5.6640015h-1.5480042V160H391.9639893z M399.8479919,160.1799927c1.2000122,0,2.2440186-0.5999908,2.723999-1.29599
	l-1.0319824-0.6719971c-0.2640076,0.3119965-0.7920227,0.7799988-1.5840149,0.7799988
	c-0.8880005,0-1.5599976-0.5279999-1.6679993-1.4759979h4.3560181c0.0119934-0.1800079,0.0239868-0.3600006,0.0239868-0.5640106
	c0-1.4519958-1.019989-2.8560028-2.7720032-2.8560028c-1.7399902,0-3.071991,1.3440094-3.071991,3.1560059
	S398.2160034,160.1799927,399.8479919,160.1799927z M401.2999878,156.5919952h-3.0119934
	c0.132019-0.7799988,0.7080078-1.3799896,1.5599976-1.3799896
	C400.6640015,155.2120056,401.2999878,155.8240051,401.2999878,156.5919952z M405.6199951,160v-2.904007
	c0-1.019989,0.6000061-1.7519989,1.4760132-1.7519989c0.8759766,0,1.2120056,0.7200012,1.2120056,1.5600128V160h1.5359802
	v-3.2279968c0-1.4160004-0.6000061-2.6760101-2.2680054-2.6760101c-0.9359741,0-1.6679993,0.5160065-1.9440002,1.0320129h-0.0479736
	v-0.8760071h-1.5V160H405.6199951z M354.9920044,219v-8.4960022h-1.4400024l-2.5679932,1.9440002l0.8399963,1.0800018
	l1.571991-1.1999969V219H354.9920044z M361.1839905,219.2279968c1.5840149,0,3.0120239-0.8999939,3.0120239-2.5800018
	c0-1.0559998-0.6720276-1.8600006-1.5600281-2.1119995v-0.0240021c0.7680054-0.2519989,1.2960205-0.9720001,1.2960205-1.8839874
	c0-1.5-1.2839966-2.3400116-2.7480164-2.3400116c-1.4759827,0-2.7599792,0.8639984-2.7599792,2.3639984
	c0,0.9120026,0.552002,1.5960083,1.29599,1.8600006v0.0360107c-0.8640137,0.2639923-1.5599976,1.0319977-1.5599976,2.1119995
	C358.1600037,218.3399963,359.5759888,219.2279968,361.1839905,219.2279968z M361.1839905,213.9360046
	c-0.7079773,0-1.223999-0.5400085-1.223999-1.2000122c0-0.6839905,0.5160217-1.1999969,1.223999-1.1999969
	c0.6719971,0,1.2120056,0.5160065,1.2120056,1.1999969C362.3959961,213.3959961,361.8680115,213.9360046,361.1839905,213.9360046z
	 M361.1839905,217.9559937c-0.8639832,0-1.4400024-0.5759888-1.4400024-1.3919983
	c0-0.7919922,0.5880127-1.3799896,1.4400024-1.3799896c0.8399963,0,1.428009,0.5999908,1.428009,1.3799896
	C362.6119995,217.3800049,362.0239868,217.9559937,361.1839905,217.9559937z M372.1640015,219v-7.1040039h2.5679932v-1.3919983H368
	v1.3919983h2.5559998V219H372.1640015z M377.2520142,219v-2.904007c0-0.8639984,0.5039978-1.6439972,1.5-1.6439972
	c0.1799927,0,0.4440002,0.0240021,0.5999756,0.0720062v-1.3800049c-0.1319885-0.0359955-0.276001-0.0480042-0.4440002-0.0480042
	c-0.7559814,0-1.3919983,0.4440002-1.6919861,1.0559998h-0.0360107v-0.8999939h-1.4639893V219H377.2520142z
	 M381.0920105,212.0160065c0.5159912,0,0.9239807-0.3840027,0.9239807-0.9000092c0-0.5039978-0.4079895-0.923996-0.9239807-0.923996
	c-0.5039978,0-0.9120178,0.4199982-0.9120178,0.923996C380.1799927,211.6320038,380.5880127,212.0160065,381.0920105,212.0160065z
	 M381.8599854,219v-5.7480011h-1.5359802V219H381.8599854z M385.2080078,219v-1.7519989l0.8880005-0.9120026l1.5,2.6640015
	h1.8840027l-2.2440186-3.6600037l2.0760193-2.0879974h-1.9320068l-2.1360168,2.3399963h-0.0359802v-5.6640015h-1.5480042V219
	H385.2080078z M391.9639893,219v-1.7519989l0.8880005-0.9120026l1.5,2.6640015h1.8840027l-2.243988-3.6600037l2.0759888-2.0879974
	h-1.9320068L392,215.5919952h-0.0360107v-5.6640015h-1.5480042V219H391.9639893z M399.8479919,219.1799927
	c1.2000122,0,2.2440186-0.5999908,2.723999-1.29599l-1.0319824-0.6719971
	c-0.2640076,0.3119965-0.7920227,0.7799988-1.5840149,0.7799988c-0.8880005,0-1.5599976-0.5279999-1.6679993-1.4759979h4.3560181
	c0.0119934-0.1800079,0.0239868-0.3600006,0.0239868-0.5640106c0-1.4519958-1.019989-2.8560028-2.7720032-2.8560028
	c-1.7399902,0-3.071991,1.3440094-3.071991,3.1560059S398.2160034,219.1799927,399.8479919,219.1799927z M401.2999878,215.5919952
	h-3.0119934c0.132019-0.7799988,0.7080078-1.3799896,1.5599976-1.3799896
	C400.6640015,214.2120056,401.2999878,214.8240051,401.2999878,215.5919952z M405.6199951,219v-2.904007
	c0-1.019989,0.6000061-1.7519989,1.4760132-1.7519989c0.8759766,0,1.2120056,0.7200012,1.2120056,1.5600128V219h1.5359802
	v-3.2279968c0-1.4160004-0.6000061-2.6760101-2.2680054-2.6760101c-0.9359741,0-1.6679993,0.5160065-1.9440002,1.0320129h-0.0479736
	v-0.8760071h-1.5V219H405.6199951z"/>
<path fill-rule="evenodd" clip-rule="evenodd" fill="#EB1053" d="M327.656189,36.7894897
	c0-0.197998,0.15802-0.3580017,0.3500061-0.3580017h0.7010193c0.1929932,0,0.3479919,0.1600037,0.3479919,0.3580017v1.4319992
	c0,0.1970024-0.1549988,0.3580017-0.3479919,0.3580017h-0.7010193c-0.1919861,0-0.3500061-0.1609993-0.3500061-0.3580017V36.7894897
	z M329.7561951,36.7894897c0-0.197998,0.1570129-0.3580017,0.3500061-0.3580017h2.7999878
	c0.1930237,0,0.3510132,0.1600037,0.3510132,0.3580017v1.4319992c0,0.1970024-0.1579895,0.3580017-0.3510132,0.3580017h-2.7999878
	c-0.1929932,0-0.3500061-0.1609993-0.3500061-0.3580017V36.7894897z M333.9562073,36.7894897
	c0-0.197998,0.1569824-0.3580017,0.3500061-0.3580017h2.7999878c0.1929932,0,0.3500061,0.1600037,0.3500061,0.3580017v1.4319992
	c0,0.1970024-0.1570129,0.3580017-0.3500061,0.3580017h-2.7999878c-0.1930237,0-0.3500061-0.1609993-0.3500061-0.3580017V36.7894897
	z M338.156189,36.7894897c0-0.197998,0.15802-0.3580017,0.3500061-0.3580017h1.0870056
	c0.177002,0,0.3250122,0.1330032,0.3460083,0.3120041l0.1860046,1.4309998
	c0.0130005,0.1029968-0.0180054,0.204998-0.085022,0.2829971c-0.065979,0.0780029-0.1619873,0.1220016-0.2619934,0.1220016
	h-1.2720032c-0.1919861,0-0.3500061-0.1609993-0.3500061-0.3580017V36.7894897z M330.550293,40.7997894c0.552002,0,1,0.4490013,1,1
	c0,0.552002-0.447998,1-1,1s-1-0.447998-1-1C329.550293,41.2487907,329.998291,40.7997894,330.550293,40.7997894z M337.5,40.7997894
	c0.552002,0,1,0.4490013,1,1c0,0.552002-0.447998,1-1,1s-1-0.447998-1-1C336.5,41.2487907,336.947998,40.7997894,337.5,40.7997894z
	 M339.9501953,34.9994888c0.1719971,0,0.3160095,0.1270027,0.3460083,0.2989998l0,0l0.6990051,4.2960014
	c0.0029907,0.0200005,0.0050049,0.0390015,0.0050049,0.0589981l0,0v0.9880028c0,0.1969986-0.1570129,0.3579979-0.3500061,0.3579979
	l0,0h-1.4470215c-0.2359924-0.7179985-0.9059753-1.1999969-1.7029724-1.1999969
	c-0.7980042,0-1.4680176,0.4819984-1.7030029,1.1999969l0,0h-3.5440063
	c-0.2359924-0.7179985-0.9049988-1.1999969-1.7030029-1.1999969c-0.7969971,0-1.4670105,0.4819984-1.7030029,1.1999969l0,0
	h-1.5469971c-0.1719971,0-0.2999878-0.1790009-0.2999878-0.3579979l0,0v-4.9249992
	c0-0.3590012,0.348999-0.7170029,0.6999817-0.7170029l0,0H339.9501953z"/>
<path fill-rule="evenodd" clip-rule="evenodd" fill="#EB1053" d="M327.656189,95.7894897
	c0-0.197998,0.15802-0.3580017,0.3500061-0.3580017h0.7010193c0.1929932,0,0.3479919,0.1600037,0.3479919,0.3580017v1.4319992
	c0,0.1969986-0.1549988,0.3580017-0.3479919,0.3580017h-0.7010193c-0.1919861,0-0.3500061-0.1610031-0.3500061-0.3580017V95.7894897
	z M329.7561951,95.7894897c0-0.197998,0.1570129-0.3580017,0.3500061-0.3580017h2.7999878
	c0.1930237,0,0.3510132,0.1600037,0.3510132,0.3580017v1.4319992c0,0.1969986-0.1579895,0.3580017-0.3510132,0.3580017h-2.7999878
	c-0.1929932,0-0.3500061-0.1610031-0.3500061-0.3580017V95.7894897z M333.9562073,95.7894897
	c0-0.197998,0.1569824-0.3580017,0.3500061-0.3580017h2.7999878c0.1929932,0,0.3500061,0.1600037,0.3500061,0.3580017v1.4319992
	c0,0.1969986-0.1570129,0.3580017-0.3500061,0.3580017h-2.7999878c-0.1930237,0-0.3500061-0.1610031-0.3500061-0.3580017V95.7894897
	z M338.156189,95.7894897c0-0.197998,0.15802-0.3580017,0.3500061-0.3580017h1.0870056
	c0.177002,0,0.3250122,0.1330032,0.3460083,0.3120041l0.1860046,1.4309998
	c0.0130005,0.1029968-0.0180054,0.2049942-0.085022,0.2829971c-0.065979,0.0780029-0.1619873,0.1220016-0.2619934,0.1220016
	h-1.2720032c-0.1919861,0-0.3500061-0.1610031-0.3500061-0.3580017V95.7894897z M330.550293,99.7997894c0.552002,0,1,0.4489975,1,1
	c0,0.552002-0.447998,1-1,1s-1-0.447998-1-1C329.550293,100.2487869,329.998291,99.7997894,330.550293,99.7997894z
	 M337.5,99.7997894c0.552002,0,1,0.4489975,1,1c0,0.552002-0.447998,1-1,1s-1-0.447998-1-1
	C336.5,100.2487869,336.947998,99.7997894,337.5,99.7997894z M339.9501953,93.9994888
	c0.1719971,0,0.3160095,0.1269989,0.3460083,0.2990036l0,0l0.6990051,4.2959976
	c0.0029907,0.0199966,0.0050049,0.0390015,0.0050049,0.0589981l0,0v0.987999c0,0.1969986-0.1570129,0.3580017-0.3500061,0.3580017
	l0,0h-1.4470215c-0.2359924-0.7179947-0.9059753-1.1999969-1.7029724-1.1999969
	c-0.7980042,0-1.4680176,0.4820023-1.7030029,1.1999969l0,0h-3.5440063
	c-0.2359924-0.7179947-0.9049988-1.1999969-1.7030029-1.1999969c-0.7969971,0-1.4670105,0.4820023-1.7030029,1.1999969l0,0
	h-1.5469971c-0.1719971,0-0.2999878-0.1790009-0.2999878-0.3580017l0,0v-4.9249954
	c0-0.3590012,0.348999-0.7170029,0.6999817-0.7170029l0,0H339.9501953z"/>
<path fill-rule="evenodd" clip-rule="evenodd" fill="#A476E5" d="M339.8330078,156.4020081
	c-0.0670166,0.0829926-0.1669922,0.1309967-0.2720032,0.1309967h-1.4020081h-0.348999
	c-0.1940002,0-0.3510132-0.1560059-0.3510132-0.3500061v-1.401001c0-0.1929932,0.1570129-0.3499908,0.3510132-0.3499908h0.348999
	h0.9259949h0.1660156c0.1650085,0,0.3059998,0.1139984,0.34198,0.2749939l0.309021,1.3999939
	C339.9249878,156.2109985,339.8999939,156.3200073,339.8330078,156.4020081L339.8330078,156.4020081z M336.7600098,156.1820068
	c0,0.1940002-0.1570129,0.3499908-0.3500061,0.3499908h-2.1000061c-0.1940002,0-0.3509827-0.1559906-0.3509827-0.3499908v-1.4000092
	c0-0.1929932,0.1569824-0.3499908,0.3509827-0.3499908h2.1000061c0.1929932,0,0.3500061,0.1569977,0.3500061,0.3499908V156.1820068z
	 M333.25,156.1820068c0,0.1940002-0.1579895,0.3499908-0.3510132,0.3499908h-2.0999756
	c-0.1940002,0-0.3500061-0.1559906-0.3500061-0.3499908v-1.4000092c0-0.1929932,0.1560059-0.3499908,0.3500061-0.3499908h2.0999756
	c0.1930237,0,0.3510132,0.1569977,0.3510132,0.3499908V156.1820068z M329.75,156.1820068
	c0,0.1949921-0.1570129,0.3509979-0.3500061,0.3509979h-0.3649902h-0.0010071h-0.6839905
	c-0.1060181,0-0.2070007-0.0480042-0.2730103-0.1309967c-0.0669861-0.0820007-0.0920105-0.1910095-0.0690002-0.2950134
	l0.3089905-1.3999939c0.0350037-0.1609955,0.178009-0.2749939,0.3420105-0.2749939h0.5280151h0.2129822
	c0.1929932,0,0.3500061,0.1569977,0.3500061,0.3499908V156.1820068z M340,160.0003052v1h-12v-1H340z M334.3680115,150.3999939
	l1.493988,1.1790009c0.0809937,0.0600128,0.1419983,0.151001,0.1419983,0.276001
	c0,0.1220093-0.0490112,0.1800079-0.1499939,0.2550049l0,0L334.5660095,153h5.1549988
	c0.1629944,0,0.3049927,0.1130066,0.3410034,0.272995l0,0l0.9289856,4.1080017
	c0.0249939,0.1220093-0.0019836,0.2490082-0.0740051,0.3509979l0,0l-0.8119812,1.1230011
	C340.0390015,158.9450073,339.9339905,159,339.8210144,159l0,0h-11.6420288c-0.1129761,0-0.2179871-0.0549927-0.2839966-0.1450043
	l0,0l-0.8119812-1.1230011c-0.0720215-0.1019897-0.098999-0.2289886-0.0740051-0.3509979l0,0l0.9289856-4.1080017
	C327.973999,153.1130066,328.1159973,153,328.2789917,153l0,0h5.1270142l1.6990051-1.1660004l-1.7010193-1.4340057H334.3680115z"/>
<path fill-rule="evenodd" clip-rule="evenodd" fill="#A476E5" d="M339.8330078,215.4020081
	c-0.0670166,0.0829926-0.1669922,0.1309967-0.2720032,0.1309967h-1.4020081h-0.348999
	c-0.1940002,0-0.3510132-0.1560059-0.3510132-0.3500061v-1.401001c0-0.1929932,0.1570129-0.3499908,0.3510132-0.3499908h0.348999
	h0.9259949h0.1660156c0.1650085,0,0.3059998,0.1139984,0.34198,0.2749939l0.309021,1.3999939
	C339.9249878,215.2109985,339.8999939,215.3200073,339.8330078,215.4020081L339.8330078,215.4020081z M336.7600098,215.1820068
	c0,0.1940002-0.1570129,0.3499908-0.3500061,0.3499908h-2.1000061c-0.1940002,0-0.3509827-0.1559906-0.3509827-0.3499908v-1.4000092
	c0-0.1929932,0.1569824-0.3499908,0.3509827-0.3499908h2.1000061c0.1929932,0,0.3500061,0.1569977,0.3500061,0.3499908V215.1820068z
	 M333.25,215.1820068c0,0.1940002-0.1579895,0.3499908-0.3510132,0.3499908h-2.0999756
	c-0.1940002,0-0.3500061-0.1559906-0.3500061-0.3499908v-1.4000092c0-0.1929932,0.1560059-0.3499908,0.3500061-0.3499908h2.0999756
	c0.1930237,0,0.3510132,0.1569977,0.3510132,0.3499908V215.1820068z M329.75,215.1820068
	c0,0.1949921-0.1570129,0.3509979-0.3500061,0.3509979h-0.3649902h-0.0010071h-0.6839905
	c-0.1060181,0-0.2070007-0.0480042-0.2730103-0.1309967c-0.0669861-0.0820007-0.0920105-0.1910095-0.0690002-0.2950134
	l0.3089905-1.3999939c0.0350037-0.1609955,0.178009-0.2749939,0.3420105-0.2749939h0.5280151h0.2129822
	c0.1929932,0,0.3500061,0.1569977,0.3500061,0.3499908V215.1820068z M340,219.0003052v1h-12v-1H340z M334.3680115,209.3999939
	l1.493988,1.1790009c0.0809937,0.0600128,0.1419983,0.151001,0.1419983,0.276001
	c0,0.1220093-0.0490112,0.1800079-0.1499939,0.2550049l0,0L334.5660095,212h5.1549988
	c0.1629944,0,0.3049927,0.1130066,0.3410034,0.272995l0,0l0.9289856,4.1080017
	c0.0249939,0.1220093-0.0019836,0.2490082-0.0740051,0.3509979l0,0l-0.8119812,1.1230011
	C340.0390015,217.9450073,339.9339905,218,339.8210144,218l0,0h-11.6420288c-0.1129761,0-0.2179871-0.0549927-0.2839966-0.1450043
	l0,0l-0.8119812-1.1230011c-0.0720215-0.1019897-0.098999-0.2289886-0.0740051-0.3509979l0,0l0.9289856-4.1080017
	C327.973999,212.1130066,328.1159973,212,328.2789917,212l0,0h5.1270142l1.6990051-1.1660004l-1.7010193-1.4340057H334.3680115z"/>
</svg>
