<?xml version="1.0" encoding="utf-8"?>
<!-- Generator: Adobe Illustrator 24.0.1, SVG Export Plug-In . SVG Version: 6.00 Build 0)  -->
<svg version="1.1" id="Layer_1" xmlns="http://www.w3.org/2000/svg" xmlns:xlink="http://www.w3.org/1999/xlink" x="0px" y="0px"
	 width="464px" height="286px" viewBox="0 0 464 286" enable-background="new 0 0 464 286" xml:space="preserve">
<path fill-rule="evenodd" clip-rule="evenodd" d="M2,0h460c1.1045837,0,2,0.8954304,2,2v282c0,1.1045837-0.8954163,2-2,2H2
	c-1.1045696,0-2-0.8954163-2-2V2C0,0.8954304,0.8954304,0,2,0z"/>
<path fill-rule="evenodd" clip-rule="evenodd" fill="#FFFFFF" fill-opacity="0.09" d="M14,12h135c1.1045685,0,2,0.8954306,2,2v258
	c0,1.1045837-0.8954315,2-2,2H14c-1.1045694,0-2-0.8954163-2-2V14C12,12.8954306,12.8954306,12,14,12z"/>
<path fill-rule="evenodd" clip-rule="evenodd" fill="#FFFFFF" fill-opacity="0.11" d="M25,56h23c0.5522842,0,1,0.4477158,1,1v9
	c0,0.5522842-0.4477158,1-1,1H25c-0.5522842,0-1-0.4477158-1-1v-9C24,56.4477158,24.4477158,56,25,56z"/>
<path fill-rule="evenodd" clip-rule="evenodd" fill="#FFFFFF" fill-opacity="0.11" d="M25,115h23c0.5522842,0,1,0.4477158,1,1v9
	c0,0.5522842-0.4477158,1-1,1H25c-0.5522842,0-1-0.4477158-1-1v-9C24,115.4477158,24.4477158,115,25,115z"/>
<path fill-rule="evenodd" clip-rule="evenodd" fill="#FFFFFF" fill-opacity="0.11" d="M25,174h23c0.5522842,0,1,0.4477081,1,1v9
	c0,0.5522919-0.4477158,1-1,1H25c-0.5522842,0-1-0.4477081-1-1v-9C24,174.4477081,24.4477158,174,25,174z"/>
<path fill-rule="evenodd" clip-rule="evenodd" fill="#FFFFFF" fill-opacity="0.11" d="M25,233h23c0.5522842,0,1,0.4477081,1,1v9
	c0,0.5522919-0.4477158,1-1,1H25c-0.5522842,0-1-0.4477081-1-1v-9C24,233.4477081,24.4477158,233,25,233z"/>
<path fill-rule="evenodd" clip-rule="evenodd" fill="#FFFFFF" fill-opacity="0.11" d="M56,56h23c0.5522842,0,1,0.4477158,1,1v9
	c0,0.5522842-0.4477158,1-1,1H56c-0.5522842,0-1-0.4477158-1-1v-9C55,56.4477158,55.4477158,56,56,56z"/>
<path fill-rule="evenodd" clip-rule="evenodd" fill="#FFFFFF" fill-opacity="0.11" d="M56,115h23c0.5522842,0,1,0.4477158,1,1v9
	c0,0.5522842-0.4477158,1-1,1H56c-0.5522842,0-1-0.4477158-1-1v-9C55,115.4477158,55.4477158,115,56,115z"/>
<path fill-rule="evenodd" clip-rule="evenodd" fill="#FFFFFF" fill-opacity="0.11" d="M56,174h23c0.5522842,0,1,0.4477081,1,1v9
	c0,0.5522919-0.4477158,1-1,1H56c-0.5522842,0-1-0.4477081-1-1v-9C55,174.4477081,55.4477158,174,56,174z"/>
<path fill-rule="evenodd" clip-rule="evenodd" fill="#FFFFFF" fill-opacity="0.11" d="M56,233h23c0.5522842,0,1,0.4477081,1,1v9
	c0,0.5522919-0.4477158,1-1,1H56c-0.5522842,0-1-0.4477081-1-1v-9C55,233.4477081,55.4477158,233,56,233z"/>
<path fill-rule="evenodd" clip-rule="evenodd" fill="#FFFFFF" fill-opacity="0.11" d="M87,56h23c0.5522842,0,1,0.4477158,1,1v9
	c0,0.5522842-0.4477158,1-1,1H87c-0.5522842,0-1-0.4477158-1-1v-9C86,56.4477158,86.4477158,56,87,56z"/>
<path fill-rule="evenodd" clip-rule="evenodd" fill="#FFFFFF" fill-opacity="0.11" d="M87,115h23c0.5522842,0,1,0.4477158,1,1v9
	c0,0.5522842-0.4477158,1-1,1H87c-0.5522842,0-1-0.4477158-1-1v-9C86,115.4477158,86.4477158,115,87,115z"/>
<path fill-rule="evenodd" clip-rule="evenodd" fill="#FFFFFF" fill-opacity="0.11" d="M87,174h23c0.5522842,0,1,0.4477081,1,1v9
	c0,0.5522919-0.4477158,1-1,1H87c-0.5522842,0-1-0.4477081-1-1v-9C86,174.4477081,86.4477158,174,87,174z"/>
<path fill-rule="evenodd" clip-rule="evenodd" fill="#FFFFFF" fill-opacity="0.11" d="M87,233h23c0.5522842,0,1,0.4477081,1,1v9
	c0,0.5522919-0.4477158,1-1,1H87c-0.5522842,0-1-0.4477081-1-1v-9C86,233.4477081,86.4477158,233,87,233z"/>
<path fill-rule="evenodd" clip-rule="evenodd" fill="#FFFFFF" fill-opacity="0.11" d="M118,56h22c0.5522919,0,1,0.4477158,1,1v9
	c0,0.5522842-0.4477081,1-1,1h-22c-0.5522842,0-1-0.4477158-1-1v-9C117,56.4477158,117.4477158,56,118,56z"/>
<path fill-rule="evenodd" clip-rule="evenodd" fill="#FFFFFF" fill-opacity="0.11" d="M118,115h22c0.5522919,0,1,0.4477158,1,1v9
	c0,0.5522842-0.4477081,1-1,1h-22c-0.5522842,0-1-0.4477158-1-1v-9C117,115.4477158,117.4477158,115,118,115z"/>
<path fill-rule="evenodd" clip-rule="evenodd" fill="#FFFFFF" fill-opacity="0.11" d="M118,174h22c0.5522919,0,1,0.4477081,1,1v9
	c0,0.5522919-0.4477081,1-1,1h-22c-0.5522842,0-1-0.4477081-1-1v-9C117,174.4477081,117.4477158,174,118,174z"/>
<path fill-rule="evenodd" clip-rule="evenodd" fill="#FFFFFF" fill-opacity="0.11" d="M118,233h22c0.5522919,0,1,0.4477081,1,1v9
	c0,0.5522919-0.4477081,1-1,1h-22c-0.5522842,0-1-0.4477081-1-1v-9C117,233.4477081,117.4477158,233,118,233z"/>
<g enable-background="new    ">
	<path fill="#FFFFFF" d="M48.9716797,33.5087891h3.4897461c1.9672852,0,3.0825195,0.9716797,3.0825195,2.5664062
		c0,1.3671875-0.9355469,2.1826172-1.8828125,2.4228516L55.987793,42h-1.9189453l-2.0512695-3.25h-1.4628906V42h-1.5830078
		V33.5087891z M52.1977539,34.8515625h-1.6552734v2.6630859h1.6914062c1.1391602,0,1.7148438-0.515625,1.7148438-1.3798828
		C53.9487305,35.2236328,53.2890625,34.8515625,52.1977539,34.8515625z"/>
	<path fill="#FFFFFF" d="M61.0644531,42h-1.5947266v-6.6679688L57.8984375,36.53125l-0.8393555-1.0800781l2.5668945-1.9423828
		h1.4384766V42z"/>
	<path fill="#FFFFFF" d="M70.3759766,37.7421875c0,2.3388672-0.828125,4.4853516-3.1191406,4.4853516
		c-2.3027344,0-3.1298828-2.1464844-3.1298828-4.4853516c0-2.3261719,0.8271484-4.4492188,3.1298828-4.4492188
		C69.5478516,33.2929688,70.3759766,35.4160156,70.3759766,37.7421875z M65.7578125,37.7421875
		c0,1.3193359,0.2636719,3.1181641,1.4990234,3.1181641c1.2119141,0,1.4873047-1.7988281,1.4873047-3.1181641
		c0-1.2949219-0.2753906-3.1064453-1.4873047-3.1064453C66.0214844,34.6357422,65.7578125,36.4472656,65.7578125,37.7421875z"/>
	<path fill="#FFFFFF" d="M78.2373047,42h-1.6074219v-7.0996094h-2.5546875v-1.3916016h6.7285156v1.3916016h-2.5664062V42z"/>
	<path fill="#FFFFFF" d="M83.421875,42.1796875c-1.7392578,0-3.1298828-1.2353516-3.1298828-3.0585938
		c0-1.8105469,1.390625-3.0214844,3.1298828-3.0214844c1.7509766,0,3.1542969,1.2109375,3.1542969,3.0214844
		C86.5761719,40.9443359,85.1728516,42.1796875,83.421875,42.1796875z M83.421875,37.3945312
		c-1.0078125,0-1.6074219,0.8037109-1.6074219,1.7265625c0,0.9355469,0.5996094,1.7519531,1.6074219,1.7519531
		c1.03125,0,1.6191406-0.8164062,1.6191406-1.7519531C85.0410156,38.1982422,84.453125,37.3945312,83.421875,37.3945312z"/>
	<path fill="#FFFFFF" d="M88.5458984,42.7919922c0.5039062,0.5029297,1.2714844,0.8271484,2.0029297,0.8271484
		c1.3320312,0,1.8710938-0.7919922,1.8710938-1.8710938v-0.6113281h-0.0234375C92.0244141,41.6640625,91.3046875,42,90.5976562,42
		c-1.7392578,0-2.9384766-1.1757812-2.9384766-2.9267578c0-1.6064453,1.1035156-2.9736328,2.8417969-2.9736328
		c0.7802734,0,1.5117188,0.3359375,1.9433594,1.0068359h0.0234375v-0.8515625h1.4755859v5.3730469
		c0,1.9316406-1.0791016,3.2509766-3.3457031,3.2509766c-1.0322266,0-2.1113281-0.3359375-2.8671875-0.9716797
		L88.5458984,42.7919922z M90.8486328,40.7890625c0.9716797,0,1.6552734-0.7441406,1.6552734-1.7158203
		c0-0.9228516-0.6835938-1.6904297-1.6552734-1.6904297c-0.9951172,0-1.6181641,0.7675781-1.6181641,1.703125
		C89.2304688,39.9726562,89.8535156,40.7890625,90.8486328,40.7890625z"/>
	<path fill="#FFFFFF" d="M96.8505859,39.5175781c0.1083984,0.9472656,0.7802734,1.4746094,1.6669922,1.4746094
		c0.7919922,0,1.3193359-0.4677734,1.5830078-0.7792969l1.0322266,0.671875
		c-0.4804688,0.6953125-1.5234375,1.2949219-2.7226562,1.2949219c-1.6308594,0-3.0224609-1.1152344-3.0224609-2.9257812
		c0-1.8115234,1.3310547-3.1542969,3.0703125-3.1542969c1.7509766,0,2.7705078,1.4033203,2.7705078,2.8544922
		c0,0.203125-0.0117188,0.3837891-0.0244141,0.5634766H96.8505859z M96.8505859,38.59375h3.0107422
		c0-0.7675781-0.6357422-1.3789062-1.4511719-1.3789062C97.5585938,37.2148438,96.9824219,37.8144531,96.8505859,38.59375z"/>
	<path fill="#FFFFFF" d="M105.7773438,42h-0.6953125c-1.7988281,0-2.2548828-0.3476562-2.2548828-2.3027344v-2.2548828h-0.9111328
		v-1.1875h0.9111328v-1.5107422h1.4990234v1.5107422h1.4628906v1.1875h-1.4628906v2.2910156
		c0,1.0068359,0.4677734,1.0673828,1.0195312,1.0673828h0.4316406V42z"/>
</g>
<g enable-background="new    ">
	<path fill="#FFFFFF" d="M50.5786133,99.5966797h3.5498047V101h-5.1567383v-8.4912109h1.6069336V99.5966797z"/>
	<path fill="#FFFFFF" d="M60.8476562,101h-5.8764648v-1.3916016l3.3823242-3.1894531
		c0.4555664-0.4326172,0.8154297-0.9238281,0.8154297-1.5351562c0-0.7558594-0.5517578-1.2480469-1.2832031-1.2480469
		c-0.7675781,0-1.2954102,0.5644531-1.4033203,1.3671875h-1.5712891c0.1679688-1.7744141,1.4995117-2.7099609,3.034668-2.7099609
		c1.4873047,0,2.878418,0.8154297,2.878418,2.4941406c0,1.1640625-0.6835938,1.9072266-1.4394531,2.6025391l-2.3867188,2.2314453
		h3.8496094V101z"/>
	<path fill="#FFFFFF" d="M68.9492188,101h-1.6074219v-7.0996094h-2.5546875v-1.3916016h6.7285156v1.3916016h-2.5664062V101z"/>
	<path fill="#FFFFFF" d="M74.1337891,101.1796875c-1.7392578,0-3.1298828-1.2353516-3.1298828-3.0585938
		c0-1.8105469,1.390625-3.0214844,3.1298828-3.0214844c1.7509766,0,3.1542969,1.2109375,3.1542969,3.0214844
		C77.2880859,99.9443359,75.8847656,101.1796875,74.1337891,101.1796875z M74.1337891,96.3945312
		c-1.0078125,0-1.6074219,0.8037109-1.6074219,1.7265625c0,0.9355469,0.5996094,1.7519531,1.6074219,1.7519531
		c1.03125,0,1.6191406-0.8164062,1.6191406-1.7519531C75.7529297,97.1982422,75.1650391,96.3945312,74.1337891,96.3945312z"/>
	<path fill="#FFFFFF" d="M79.2587891,101.7919922c0.5039062,0.5029297,1.2714844,0.8271484,2.0029297,0.8271484
		c1.3320312,0,1.8710938-0.7919922,1.8710938-1.8710938v-0.6113281H83.109375C82.7373047,100.6640625,82.0175781,101,81.3105469,101
		c-1.7392578,0-2.9384766-1.1757812-2.9384766-2.9267578c0-1.6064453,1.1035156-2.9736328,2.8417969-2.9736328
		c0.7802734,0,1.5117188,0.3359375,1.9433594,1.0068359h0.0234375v-0.8515625H84.65625v5.3730469
		c0,1.9316406-1.0791016,3.2509766-3.3457031,3.2509766c-1.0322266,0-2.1113281-0.3359375-2.8671875-0.9716797
		L79.2587891,101.7919922z M81.5615234,99.7890625c0.9716797,0,1.6552734-0.7441406,1.6552734-1.7158203
		c0-0.9228516-0.6835938-1.6904297-1.6552734-1.6904297c-0.9951172,0-1.6181641,0.7675781-1.6181641,1.703125
		C79.9433594,98.9726562,80.5664062,99.7890625,81.5615234,99.7890625z"/>
	<path fill="#FFFFFF" d="M87.5625,98.5175781c0.1083984,0.9472656,0.7802734,1.4746094,1.6669922,1.4746094
		c0.7919922,0,1.3193359-0.4677734,1.5830078-0.7792969l1.0322266,0.671875
		c-0.4804688,0.6953125-1.5234375,1.2949219-2.7226562,1.2949219c-1.6308594,0-3.0224609-1.1152344-3.0224609-2.9257812
		c0-1.8115234,1.3310547-3.1542969,3.0703125-3.1542969c1.7509766,0,2.7705078,1.4033203,2.7705078,2.8544922
		c0,0.203125-0.0117188,0.3837891-0.0244141,0.5634766H87.5625z M87.5625,97.59375h3.0107422
		c0-0.7675781-0.6357422-1.3789062-1.4511719-1.3789062C88.2705078,96.2148438,87.6943359,96.8144531,87.5625,97.59375z"/>
	<path fill="#FFFFFF" d="M96.4892578,101h-0.6953125c-1.7988281,0-2.2548828-0.3476562-2.2548828-2.3027344v-2.2548828h-0.9111328
		v-1.1875h0.9111328v-1.5107422h1.4990234v1.5107422h1.4638672v1.1875h-1.4638672v2.2910156
		c0,1.0068359,0.4677734,1.0673828,1.0195312,1.0673828h0.4316406V101z"/>
</g>
<g enable-background="new    ">
	<path fill="#FFFFFF" d="M50.5786133,158.5966797h3.5498047V160h-5.1567383v-8.4912109h1.6069336V158.5966797z"/>
	<path fill="#FFFFFF" d="M59.2290039,160h-1.5952148v-6.6679688L56.0625,154.53125l-0.8393555-1.0800781l2.5668945-1.9423828
		h1.4389648V160z"/>
	<path fill="#FFFFFF" d="M68.2998047,160h-5.8769531v-1.3916016l3.3818359-3.1894531
		c0.4560547-0.4326172,0.8164062-0.9238281,0.8164062-1.5351562c0-0.7558594-0.5517578-1.2480469-1.2832031-1.2480469
		c-0.7675781,0-1.2958984,0.5644531-1.4033203,1.3671875h-1.5712891c0.1679688-1.7744141,1.4990234-2.7099609,3.0341797-2.7099609
		c1.4873047,0,2.8779297,0.8154297,2.8779297,2.4941406c0,1.1640625-0.6835938,1.9072266-1.4384766,2.6025391l-2.3867188,2.2314453
		h3.8496094V160z"/>
	<path fill="#FFFFFF" d="M76.4013672,160h-1.6074219v-7.0996094h-2.5546875v-1.3916016h6.7285156v1.3916016h-2.5664062V160z"/>
	<path fill="#FFFFFF" d="M81.5859375,160.1796875c-1.7392578,0-3.1298828-1.2353516-3.1298828-3.0585938
		c0-1.8105469,1.390625-3.0214844,3.1298828-3.0214844c1.7509766,0,3.1542969,1.2109375,3.1542969,3.0214844
		C84.7402344,158.9443359,83.3369141,160.1796875,81.5859375,160.1796875z M81.5859375,155.3945312
		c-1.0078125,0-1.6074219,0.8037109-1.6074219,1.7265625c0,0.9355469,0.5996094,1.7519531,1.6074219,1.7519531
		c1.03125,0,1.6191406-0.8164062,1.6191406-1.7519531C83.2050781,156.1982422,82.6171875,155.3945312,81.5859375,155.3945312z"/>
	<path fill="#FFFFFF" d="M86.7099609,160.7919922c0.5039062,0.5029297,1.2714844,0.8271484,2.0029297,0.8271484
		c1.3320312,0,1.8710938-0.7919922,1.8710938-1.8710938v-0.6113281h-0.0234375C90.1884766,159.6640625,89.46875,160,88.7617188,160
		c-1.7392578,0-2.9384766-1.1757812-2.9384766-2.9267578c0-1.6064453,1.1035156-2.9736328,2.8417969-2.9736328
		c0.7802734,0,1.5117188,0.3359375,1.9433594,1.0068359h0.0234375v-0.8515625h1.4755859v5.3730469
		c0,1.9316406-1.0791016,3.2509766-3.3457031,3.2509766c-1.0322266,0-2.1113281-0.3359375-2.8671875-0.9716797
		L86.7099609,160.7919922z M89.0126953,158.7890625c0.9716797,0,1.6552734-0.7441406,1.6552734-1.7158203
		c0-0.9228516-0.6835938-1.6904297-1.6552734-1.6904297c-0.9951172,0-1.6181641,0.7675781-1.6181641,1.703125
		C87.3945312,157.9726562,88.0175781,158.7890625,89.0126953,158.7890625z"/>
	<path fill="#FFFFFF" d="M95.0136719,157.5175781c0.1083984,0.9472656,0.7802734,1.4746094,1.6669922,1.4746094
		c0.7919922,0,1.3193359-0.4677734,1.5830078-0.7792969l1.0322266,0.671875
		c-0.4804688,0.6953125-1.5234375,1.2949219-2.7226562,1.2949219c-1.6308594,0-3.0224609-1.1152344-3.0224609-2.9257812
		c0-1.8115234,1.3310547-3.1542969,3.0703125-3.1542969c1.7509766,0,2.7705078,1.4033203,2.7705078,2.8544922
		c0,0.203125-0.0117188,0.3837891-0.0244141,0.5634766H95.0136719z M95.0136719,156.59375h3.0107422
		c0-0.7675781-0.6357422-1.3789062-1.4511719-1.3789062C95.7216797,155.2148438,95.1455078,155.8144531,95.0136719,156.59375z"/>
	<path fill="#FFFFFF" d="M103.9414062,160h-0.6953125c-1.7988281,0-2.2548828-0.3476562-2.2548828-2.3027344v-2.2548828h-0.9111328
		v-1.1875h0.9111328v-1.5107422h1.4990234v1.5107422h1.4628906v1.1875h-1.4628906v2.2910156
		c0,1.0068359,0.4677734,1.0673828,1.0195312,1.0673828h0.4316406V160z"/>
</g>
<g enable-background="new    ">
	<path fill="#FFFFFF" d="M50.5786133,217.5966797h3.5498047V219h-5.1567383v-8.4912109h1.6069336V217.5966797z"/>
	<path fill="#FFFFFF" d="M59.2290039,219h-1.5952148v-6.6679688L56.0625,213.53125l-0.8393555-1.0800781l2.5668945-1.9423828
		h1.4389648V219z"/>
	<path fill="#FFFFFF" d="M68.2998047,219h-5.8769531v-1.3916016l3.3818359-3.1894531
		c0.4560547-0.4326172,0.8164062-0.9238281,0.8164062-1.5351562c0-0.7558594-0.5517578-1.2480469-1.2832031-1.2480469
		c-0.7675781,0-1.2958984,0.5644531-1.4033203,1.3671875h-1.5712891c0.1679688-1.7744141,1.4990234-2.7099609,3.0341797-2.7099609
		c1.4873047,0,2.8779297,0.8154297,2.8779297,2.4941406c0,1.1640625-0.6835938,1.9072266-1.4384766,2.6025391l-2.3867188,2.2314453
		h3.8496094V219z"/>
	<path fill="#FFFFFF" d="M76.4013672,219h-1.6074219v-7.0996094h-2.5546875v-1.3916016h6.7285156v1.3916016h-2.5664062V219z"/>
	<path fill="#FFFFFF" d="M81.5859375,219.1796875c-1.7392578,0-3.1298828-1.2353516-3.1298828-3.0585938
		c0-1.8105469,1.390625-3.0214844,3.1298828-3.0214844c1.7509766,0,3.1542969,1.2109375,3.1542969,3.0214844
		C84.7402344,217.9443359,83.3369141,219.1796875,81.5859375,219.1796875z M81.5859375,214.3945312
		c-1.0078125,0-1.6074219,0.8037109-1.6074219,1.7265625c0,0.9355469,0.5996094,1.7519531,1.6074219,1.7519531
		c1.03125,0,1.6191406-0.8164062,1.6191406-1.7519531C83.2050781,215.1982422,82.6171875,214.3945312,81.5859375,214.3945312z"/>
	<path fill="#FFFFFF" d="M86.7099609,219.7919922c0.5039062,0.5029297,1.2714844,0.8271484,2.0029297,0.8271484
		c1.3320312,0,1.8710938-0.7919922,1.8710938-1.8710938v-0.6113281h-0.0234375C90.1884766,218.6640625,89.46875,219,88.7617188,219
		c-1.7392578,0-2.9384766-1.1757812-2.9384766-2.9267578c0-1.6064453,1.1035156-2.9736328,2.8417969-2.9736328
		c0.7802734,0,1.5117188,0.3359375,1.9433594,1.0068359h0.0234375v-0.8515625h1.4755859v5.3730469
		c0,1.9316406-1.0791016,3.2509766-3.3457031,3.2509766c-1.0322266,0-2.1113281-0.3359375-2.8671875-0.9716797
		L86.7099609,219.7919922z M89.0126953,217.7890625c0.9716797,0,1.6552734-0.7441406,1.6552734-1.7158203
		c0-0.9228516-0.6835938-1.6904297-1.6552734-1.6904297c-0.9951172,0-1.6181641,0.7675781-1.6181641,1.703125
		C87.3945312,216.9726562,88.0175781,217.7890625,89.0126953,217.7890625z"/>
	<path fill="#FFFFFF" d="M95.0136719,216.5175781c0.1083984,0.9472656,0.7802734,1.4746094,1.6669922,1.4746094
		c0.7919922,0,1.3193359-0.4677734,1.5830078-0.7792969l1.0322266,0.671875
		c-0.4804688,0.6953125-1.5234375,1.2949219-2.7226562,1.2949219c-1.6308594,0-3.0224609-1.1152344-3.0224609-2.9257812
		c0-1.8115234,1.3310547-3.1542969,3.0703125-3.1542969c1.7509766,0,2.7705078,1.4033203,2.7705078,2.8544922
		c0,0.203125-0.0117188,0.3837891-0.0244141,0.5634766H95.0136719z M95.0136719,215.59375h3.0107422
		c0-0.7675781-0.6357422-1.3789062-1.4511719-1.3789062C95.7216797,214.2148438,95.1455078,214.8144531,95.0136719,215.59375z"/>
	<path fill="#FFFFFF" d="M103.9414062,219h-0.6953125c-1.7988281,0-2.2548828-0.3476562-2.2548828-2.3027344v-2.2548828h-0.9111328
		v-1.1875h0.9111328v-1.5107422h1.4990234v1.5107422h1.4628906v1.1875h-1.4628906v2.2910156
		c0,1.0068359,0.4677734,1.0673828,1.0195312,1.0673828h0.4316406V219z"/>
</g>
<path fill-rule="evenodd" clip-rule="evenodd" fill="#42A5F5" d="M36.2128983,37.5929985
	c-0.0449982,0.1360016-0.1729965,0.1710014-0.3169975,0.1710014h-0.6650009c-0.0719986,0-0.1860008,0.0110016-0.2849998-0.0629997
	l-0.9500008-0.670002c-0.1149979-0.0859985-0.1609993-0.2360001-0.1160011-0.3719978
	c0.0460014-0.1349983,0.1730042-0.2270012,0.3160019-0.2270012h0.6660004c0.0719986,0,0.1419983,0.0240021,0.2010002,0.0670013
	l1.0340004,0.7789993C36.2108994,37.3639984,36.2579002,37.4570007,36.2128983,37.5929985 M38,42.0003014v1H25v-1H38z
	 M30.3638992,32.4000015l1.4940014,1.178997c0.0809994,0.0590019,0.1420002,0.1500015,0.1420002,0.2750015
	c0,0.1230011-0.0480003,0.1800003-0.1490002,0.2560005l0,0L30.5569,35h3.5390015
	c0.2399979,0,0.6399994,0.0960007,0.9990005,0.3320007c1.0970001,0.7229996,3.1209984,2.2140007,3.435997,2.5279999
	c0.0360031,0.0369987,0.0660019,0.0670013,0.0930023,0.0950012c0.0119972,0.0109978,0.0239983,0.0239983,0.0349998,0.0359993
	c0.0389977,0.0399971,0.0699997,0.0739975,0.0909996,0.1089973c0.1549988,0.2060013,0.25,0.4570007,0.25,0.7340012
	c0,0.493-0.4090004,1.1469994-0.9000015,1.9020004c-0.1079979,0.1650009-0.2910004,0.2649994-0.4889984,0.2649994l0,0H24.9999008V35
	h4.4019985l1.7000008-1.1669998l-1.7019997-1.4329987H30.3638992z"/>
<path fill-rule="evenodd" clip-rule="evenodd" fill="#42A5F5" d="M36.2128983,96.5930023
	c-0.0449982,0.1360016-0.1729965,0.1709976-0.3169975,0.1709976h-0.6650009c-0.0719986,0-0.1860008,0.0110016-0.2849998-0.0629959
	l-0.9500008-0.6700058c-0.1149979-0.0859985-0.1609993-0.2360001-0.1160011-0.3720016
	c0.0460014-0.1349945,0.1730042-0.2269974,0.3160019-0.2269974h0.6660004c0.0719986,0,0.1419983,0.0240021,0.2010002,0.0670013
	l1.0340004,0.7789993C36.2108994,96.3639984,36.2579002,96.4570007,36.2128983,96.5930023 M38,101.0002975v1H25v-1H38z
	 M30.3638992,91.4000015l1.4940014,1.1790009c0.0809994,0.0589981,0.1420002,0.1500015,0.1420002,0.2750015
	c0,0.1229935-0.0480003,0.1799927-0.1490002,0.2559967l0,0L30.5569,94h3.5390015
	c0.2399979,0,0.6399994,0.0960007,0.9990005,0.3320007c1.0970001,0.7229996,3.1209984,2.2139969,3.435997,2.5279999
	c0.0360031,0.0370026,0.0660019,0.0670013,0.0930023,0.0950012c0.0119972,0.0110016,0.0239983,0.0240021,0.0349998,0.0359955
	c0.0389977,0.0400009,0.0699997,0.0740051,0.0909996,0.1090012c0.1549988,0.2060013,0.25,0.4570007,0.25,0.7340012
	c0,0.4929962-0.4090004,1.1470032-0.9000015,1.9020004c-0.1079979,0.1650009-0.2910004,0.2649994-0.4889984,0.2649994l0,0
	H24.9999008V94h4.4019985l1.7000008-1.1669998l-1.7019997-1.4329987H30.3638992z"/>
<path fill-rule="evenodd" clip-rule="evenodd" fill="#42A5F5" d="M36.2128983,155.5930023
	c-0.0449982,0.1360016-0.1729965,0.1710052-0.3169975,0.1710052h-0.6650009c-0.0719986,0-0.1860008,0.0109863-0.2849998-0.0630035
	l-0.9500008-0.6699982c-0.1149979-0.0859985-0.1609993-0.2360077-0.1160011-0.3720093
	c0.0460014-0.1349945,0.1730042-0.2269897,0.3160019-0.2269897h0.6660004c0.0719986,0,0.1419983,0.0239868,0.2010002,0.0669861
	l1.0340004,0.779007C36.2108994,155.3639984,36.2579002,155.4570007,36.2128983,155.5930023 M38,160.0003052v1H25v-1H38z
	 M30.3638992,150.3999939l1.4940014,1.1790009c0.0809994,0.0590057,0.1420002,0.1500092,0.1420002,0.2750092
	c0,0.1230011-0.0480003,0.1799927-0.1490002,0.2559967l0,0L30.5569,153h3.5390015
	c0.2399979,0,0.6399994,0.095993,0.9990005,0.3320007c1.0970001,0.7229919,3.1209984,2.2140045,3.435997,2.5279999
	c0.0360031,0.0370026,0.0660019,0.0670013,0.0930023,0.0950012c0.0119972,0.0110016,0.0239983,0.0240021,0.0349998,0.0359955
	c0.0389977,0.0400085,0.0699997,0.0740051,0.0909996,0.1090088c0.1549988,0.2059937,0.25,0.4570007,0.25,0.7339935
	c0,0.4929962-0.4090004,1.1470032-0.9000015,1.9019928c-0.1079979,0.1650085-0.2910004,0.2650146-0.4889984,0.2650146l0,0
	H24.9999008V153h4.4019985l1.7000008-1.1670074l-1.7019997-1.4329987H30.3638992z"/>
<path fill-rule="evenodd" clip-rule="evenodd" fill="#42A5F5" d="M36.2128983,214.5930023
	c-0.0449982,0.1360016-0.1729965,0.1710052-0.3169975,0.1710052h-0.6650009c-0.0719986,0-0.1860008,0.0109863-0.2849998-0.0630035
	l-0.9500008-0.6699982c-0.1149979-0.0859985-0.1609993-0.2360077-0.1160011-0.3720093
	c0.0460014-0.1349945,0.1730042-0.2269897,0.3160019-0.2269897h0.6660004c0.0719986,0,0.1419983,0.0239868,0.2010002,0.0669861
	l1.0340004,0.779007C36.2108994,214.3639984,36.2579002,214.4570007,36.2128983,214.5930023 M38,219.0003052v1H25v-1H38z
	 M30.3638992,209.3999939l1.4940014,1.1790009c0.0809994,0.0590057,0.1420002,0.1500092,0.1420002,0.2750092
	c0,0.1230011-0.0480003,0.1799927-0.1490002,0.2559967l0,0L30.5569,212h3.5390015
	c0.2399979,0,0.6399994,0.095993,0.9990005,0.3320007c1.0970001,0.7229919,3.1209984,2.2140045,3.435997,2.5279999
	c0.0360031,0.0370026,0.0660019,0.0670013,0.0930023,0.0950012c0.0119972,0.0110016,0.0239983,0.0240021,0.0349998,0.0359955
	c0.0389977,0.0400085,0.0699997,0.0740051,0.0909996,0.1090088c0.1549988,0.2059937,0.25,0.4570007,0.25,0.7339935
	c0,0.4929962-0.4090004,1.1470032-0.9000015,1.9019928c-0.1079979,0.1650085-0.2910004,0.2650146-0.4889984,0.2650146l0,0
	H24.9999008V212h4.4019985l1.7000008-1.1670074l-1.7019997-1.4329987H30.3638992z"/>
<path fill-rule="evenodd" clip-rule="evenodd" fill="#FFFFFF" fill-opacity="0.09" d="M164,169h136c1.1045837,0,2,0.8954315,2,2v101
	c0,1.1045837-0.8954163,2-2,2H164c-1.1045685,0-2-0.8954163-2-2V171C162,169.8954315,162.8954315,169,164,169z"/>
<path fill-rule="evenodd" clip-rule="evenodd" fill="#FFFFFF" fill-opacity="0.11" d="M175,213h23c0.5522919,0,1,0.4477081,1,1v9
	c0,0.5522919-0.4477081,1-1,1h-23c-0.5522919,0-1-0.4477081-1-1v-9C174,213.4477081,174.4477081,213,175,213z"/>
<path fill-rule="evenodd" clip-rule="evenodd" fill="#FFFFFF" fill-opacity="0.11" d="M206,213h23c0.5522919,0,1,0.4477081,1,1v9
	c0,0.5522919-0.4477081,1-1,1h-23c-0.5522919,0-1-0.4477081-1-1v-9C205,213.4477081,205.4477081,213,206,213z"/>
<path fill-rule="evenodd" clip-rule="evenodd" fill="#FFFFFF" fill-opacity="0.11" d="M237,213h23c0.5522766,0,1,0.4477081,1,1v9
	c0,0.5522919-0.4477234,1-1,1h-23c-0.5522919,0-1-0.4477081-1-1v-9C236,213.4477081,236.4477081,213,237,213z"/>
<path fill-rule="evenodd" clip-rule="evenodd" fill="#FFFFFF" fill-opacity="0.11" d="M268,213h22c0.5522766,0,1,0.4477081,1,1v9
	c0,0.5522919-0.4477234,1-1,1h-22c-0.5522766,0-1-0.4477081-1-1v-9C267,213.4477081,267.4477234,213,268,213z"/>
<g enable-background="new    ">
	<path fill="#FFFFFF" d="M200.6264648,193.9863281h0.5039062c0.8754883,0,1.6669922-0.2753906,1.6669922-1.2226562
		c0-0.7314453-0.6118164-1.1757812-1.2832031-1.1757812c-0.6235352,0-1.1274414,0.3476562-1.331543,0.9599609h-1.6069336
		c0.4438477-1.6669922,1.7509766-2.2548828,3.0341797-2.2548828c1.4394531,0,2.7944336,0.7792969,2.7944336,2.3144531
		c0,0.9599609-0.6113281,1.6914062-1.4389648,1.9189453v0.0244141c0.9594727,0.2275391,1.6547852,1.0068359,1.6547852,2.0263672
		c0,1.7636719-1.4990234,2.6503906-3.0219727,2.6503906c-1.4873047,0-2.8427734-0.6474609-3.262207-2.4707031h1.5952148
		c0.2158203,0.6484375,0.8032227,1.1279297,1.6069336,1.1279297c0.7197266,0,1.4633789-0.4199219,1.4633789-1.3554688
		c0-1.0195312-0.9594727-1.3310547-1.9072266-1.3310547h-0.4677734V193.9863281z"/>
	<path fill="#FFFFFF" d="M209.4233398,190.5087891h3.3696289c1.3076172,0,2.8183594,0.4677734,2.8183594,2.1708984
		c0,0.9355469-0.5751953,1.5830078-1.4267578,1.8349609v0.0234375c1.0195312,0.15625,1.8105469,0.8759766,1.8105469,2.0390625
		c0,1.8115234-1.6542969,2.4228516-3.4658203,2.4228516h-3.105957V190.5087891z M210.9824219,194.0351562H212.625
		c0.7919922,0,1.4277344-0.3486328,1.4277344-1.1396484c0-0.7675781-0.6240234-1.0791016-1.5830078-1.0791016h-1.4873047
		V194.0351562z M210.9824219,197.6806641h1.6191406c0.875,0,1.7744141-0.2880859,1.7744141-1.2470703
		c0-0.8632812-0.6591797-1.2236328-1.7148438-1.2236328h-1.6787109V197.6806641z"/>
	<path fill="#FFFFFF" d="M219.5976562,195.4736328c0.4677734,0,0.9238281,0.0478516,1.4277344,0.15625v-0.2519531
		c0-0.7314453-0.3720703-1.1152344-1.2958984-1.1152344c-0.671875,0-1.1992188,0.2402344-1.5712891,0.6113281l-0.8388672-0.8994141
		c0.6113281-0.5878906,1.390625-0.875,2.5185547-0.875c1.8105469,0,2.6142578,0.71875,2.6142578,2.4580078V199h-1.4267578
		v-0.6953125h-0.0361328c-0.3486328,0.5634766-1.0556641,0.8515625-1.7871094,0.8515625
		c-1.0673828,0-2.0986328-0.5283203-2.0986328-1.8115234C217.1035156,196.2294922,217.9306641,195.4736328,219.5976562,195.4736328z
		 M221.0253906,196.5654297c-0.3964844-0.0957031-0.8515625-0.1796875-1.2958984-0.1796875
		c-0.8271484,0-1.1748047,0.3837891-1.1748047,0.9228516c0,0.5400391,0.4072266,0.8037109,1.0185547,0.8037109
		c0.7441406,0,1.4521484-0.4433594,1.4521484-1.2470703V196.5654297z"/>
	<path fill="#FFFFFF" d="M230,199h-1.5351562v-3.0947266c0-0.8388672-0.3359375-1.5585938-1.2119141-1.5585938
		c-0.875,0-1.4746094,0.7314453-1.4746094,1.7509766V199h-1.5351562v-5.7451172h1.4990234v0.8759766h0.0478516
		c0.2763672-0.515625,1.0078125-1.03125,1.9433594-1.03125c1.6669922,0,2.2666016,1.2587891,2.2666016,2.6738281V199z"/>
	<path fill="#FFFFFF" d="M232.8945312,196.5175781c0.1083984,0.9472656,0.7802734,1.4746094,1.6669922,1.4746094
		c0.7919922,0,1.3193359-0.4677734,1.5830078-0.7792969l1.0322266,0.671875
		c-0.4804688,0.6953125-1.5234375,1.2949219-2.7226562,1.2949219c-1.6308594,0-3.0224609-1.1152344-3.0224609-2.9257812
		c0-1.8115234,1.3310547-3.1542969,3.0703125-3.1542969c1.7509766,0,2.7705078,1.4033203,2.7705078,2.8544922
		c0,0.203125-0.0117188,0.3837891-0.0244141,0.5634766H232.8945312z M232.8945312,195.59375h3.0107422
		c0-0.7675781-0.6357422-1.3789062-1.4511719-1.3789062C233.6025391,194.2148438,233.0263672,194.8144531,232.8945312,195.59375z"/>
	<path fill="#FFFFFF" d="M244.4482422,199h-1.5351562v-3.0947266c0-0.8388672-0.3359375-1.5585938-1.2119141-1.5585938
		c-0.875,0-1.4746094,0.7314453-1.4746094,1.7509766V199h-1.5351562v-5.7451172h1.4990234v0.8759766h0.0478516
		c0.2763672-0.515625,1.0078125-1.03125,1.9433594-1.03125c1.6669922,0,2.2666016,1.2587891,2.2666016,2.6738281V199z"/>
</g>
<path fill-rule="evenodd" clip-rule="evenodd" fill="#F08901" d="M181.9994965,188c3.8610077,0,7,3.1410065,7,7s-3.1389923,7-7,7
	c-3.8600006,0-7-3.1410065-7-7S178.1394958,188,181.9994965,188z M181.9994965,189c-3.3079987,0-6,2.6909943-6,6s2.6920013,6,6,6
	c3.3090057,0,6-2.6909943,6-6S185.3085022,189,181.9994965,189z M184.9989014,192v1.1669922h-2.4150085V199h-1.1669922v-5.8330078
	h-2.4129944V192H184.9989014z"/>
<path fill-rule="evenodd" clip-rule="evenodd" fill="#FFFFFF" fill-opacity="0.09" d="M164,12h136c1.1045837,0,2,0.8954306,2,2v142
	c0,1.1045685-0.8954163,2-2,2H164c-1.1045685,0-2-0.8954315-2-2V14C162,12.8954306,162.8954315,12,164,12z"/>
<path fill-rule="evenodd" clip-rule="evenodd" fill="#FFFFFF" fill-opacity="0.11" d="M175,56h23c0.5522919,0,1,0.4477158,1,1v9
	c0,0.5522842-0.4477081,1-1,1h-23c-0.5522919,0-1-0.4477158-1-1v-9C174,56.4477158,174.4477081,56,175,56z"/>
<path fill-rule="evenodd" clip-rule="evenodd" fill="#FFFFFF" fill-opacity="0.11" d="M175,115h23c0.5522919,0,1,0.4477158,1,1v9
	c0,0.5522842-0.4477081,1-1,1h-23c-0.5522919,0-1-0.4477158-1-1v-9C174,115.4477158,174.4477081,115,175,115z"/>
<path fill-rule="evenodd" clip-rule="evenodd" fill="#FFFFFF" fill-opacity="0.11" d="M206,56h23c0.5522919,0,1,0.4477158,1,1v9
	c0,0.5522842-0.4477081,1-1,1h-23c-0.5522919,0-1-0.4477158-1-1v-9C205,56.4477158,205.4477081,56,206,56z"/>
<path fill-rule="evenodd" clip-rule="evenodd" fill="#FFFFFF" fill-opacity="0.11" d="M206,115h23c0.5522919,0,1,0.4477158,1,1v9
	c0,0.5522842-0.4477081,1-1,1h-23c-0.5522919,0-1-0.4477158-1-1v-9C205,115.4477158,205.4477081,115,206,115z"/>
<path fill-rule="evenodd" clip-rule="evenodd" fill="#FFFFFF" fill-opacity="0.11" d="M237,56h23c0.5522766,0,1,0.4477158,1,1v9
	c0,0.5522842-0.4477234,1-1,1h-23c-0.5522919,0-1-0.4477158-1-1v-9C236,56.4477158,236.4477081,56,237,56z"/>
<path fill-rule="evenodd" clip-rule="evenodd" fill="#FFFFFF" fill-opacity="0.11" d="M237,115h23c0.5522766,0,1,0.4477158,1,1v9
	c0,0.5522842-0.4477234,1-1,1h-23c-0.5522919,0-1-0.4477158-1-1v-9C236,115.4477158,236.4477081,115,237,115z"/>
<path fill-rule="evenodd" clip-rule="evenodd" fill="#FFFFFF" fill-opacity="0.11" d="M268,56h22c0.5522766,0,1,0.4477158,1,1v9
	c0,0.5522842-0.4477234,1-1,1h-22c-0.5522766,0-1-0.4477158-1-1v-9C267,56.4477158,267.4477234,56,268,56z"/>
<path fill-rule="evenodd" clip-rule="evenodd" fill="#FFFFFF" fill-opacity="0.11" d="M268,115h22c0.5522766,0,1,0.4477158,1,1v9
	c0,0.5522842-0.4477234,1-1,1h-22c-0.5522766,0-1-0.4477158-1-1v-9C267,115.4477158,267.4477234,115,268,115z"/>
<g enable-background="new    ">
	<path fill="#FFFFFF" d="M198.9716797,33.5087891h3.3701172c1.3071289,0,2.8183594,0.4677734,2.8183594,2.1708984
		c0,0.9355469-0.5756836,1.5830078-1.4272461,1.8349609v0.0234375c1.0195312,0.15625,1.8110352,0.8759766,1.8110352,2.0390625
		c0,1.8115234-1.6552734,2.4228516-3.4663086,2.4228516h-3.105957V33.5087891z M200.5307617,37.0351562h1.6430664
		c0.7915039,0,1.4272461-0.3486328,1.4272461-1.1396484c0-0.7675781-0.6240234-1.0791016-1.5834961-1.0791016h-1.4868164V37.0351562
		z M200.5307617,40.6806641h1.6191406c0.8754883,0,1.7749023-0.2880859,1.7749023-1.2470703
		c0-0.8632812-0.659668-1.2236328-1.715332-1.2236328h-1.6787109V40.6806641z"/>
	<path fill="#FFFFFF" d="M211.1494141,42h-1.5952148v-6.6679688l-1.5708008,1.1992188l-0.8398438-1.0800781l2.5664062-1.9423828
		h1.4394531V42z"/>
	<path fill="#FFFFFF" d="M217.5830078,33.5087891h3.3701172c1.3066406,0,2.8183594,0.4677734,2.8183594,2.1708984
		c0,0.9355469-0.5761719,1.5830078-1.4277344,1.8349609v0.0234375c1.0195312,0.15625,1.8115234,0.8759766,1.8115234,2.0390625
		C224.1552734,41.3886719,222.5,42,220.6894531,42h-3.1064453V33.5087891z M219.1416016,37.0351562h1.6435547
		c0.7910156,0,1.4267578-0.3486328,1.4267578-1.1396484c0-0.7675781-0.6230469-1.0791016-1.5830078-1.0791016h-1.4873047V37.0351562
		z M219.1416016,40.6806641h1.6191406c0.8759766,0,1.7753906-0.2880859,1.7753906-1.2470703
		c0-0.8632812-0.6601562-1.2236328-1.7148438-1.2236328h-1.6796875V40.6806641z"/>
	<path fill="#FFFFFF" d="M227.7578125,38.4736328c0.4677734,0,0.9238281,0.0478516,1.4277344,0.15625v-0.2519531
		c0-0.7314453-0.3720703-1.1152344-1.2958984-1.1152344c-0.671875,0-1.1992188,0.2402344-1.5712891,0.6113281l-0.8388672-0.8994141
		c0.6113281-0.5878906,1.390625-0.875,2.5185547-0.875c1.8105469,0,2.6142578,0.71875,2.6142578,2.4580078V42h-1.4267578v-0.6953125
		h-0.0361328c-0.3486328,0.5634766-1.0556641,0.8515625-1.7871094,0.8515625c-1.0673828,0-2.0986328-0.5283203-2.0986328-1.8115234
		C225.2636719,39.2294922,226.0908203,38.4736328,227.7578125,38.4736328z M229.1855469,39.5654297
		c-0.3964844-0.0957031-0.8515625-0.1796875-1.2958984-0.1796875c-0.8271484,0-1.1748047,0.3837891-1.1748047,0.9228516
		c0,0.5400391,0.4072266,0.8037109,1.0185547,0.8037109c0.7441406,0,1.4521484-0.4433594,1.4521484-1.2470703V39.5654297z
		 M228.1298828,35.3320312c-0.6835938,0-1.2470703-0.5283203-1.2470703-1.2236328
		c0-0.7080078,0.5507812-1.2353516,1.2470703-1.2353516c0.6835938,0,1.2470703,0.5273438,1.2470703,1.2236328
		C229.3769531,34.8037109,228.8134766,35.3320312,228.1298828,35.3320312z M228.1298828,33.4970703
		c-0.3476562,0-0.6240234,0.2636719-0.6240234,0.5996094c0,0.3476562,0.2763672,0.6113281,0.6240234,0.6113281
		s0.6230469-0.2636719,0.6230469-0.6113281C228.7529297,33.7607422,228.4775391,33.4970703,228.1298828,33.4970703z"/>
	<path fill="#FFFFFF" d="M235.4130859,42h-0.6953125c-1.7988281,0-2.2548828-0.3476562-2.2548828-2.3027344v-2.2548828h-0.9111328
		v-1.1875h0.9111328v-1.5107422h1.4990234v1.5107422h1.4638672v1.1875h-1.4638672v2.2910156
		c0,1.0068359,0.4677734,1.0673828,1.0195312,1.0673828h0.4316406V42z"/>
	<path fill="#FFFFFF" d="M237.6337891,39.5175781c0.1083984,0.9472656,0.7802734,1.4746094,1.6669922,1.4746094
		c0.7919922,0,1.3193359-0.4677734,1.5830078-0.7792969l1.0322266,0.671875
		c-0.4804688,0.6953125-1.5234375,1.2949219-2.7226562,1.2949219c-1.6308594,0-3.0224609-1.1152344-3.0224609-2.9257812
		c0-1.8115234,1.3310547-3.1542969,3.0703125-3.1542969c1.7509766,0,2.7705078,1.4033203,2.7705078,2.8544922
		c0,0.203125-0.0117188,0.3837891-0.0244141,0.5634766H237.6337891z M237.6337891,38.59375h3.0107422
		c0-0.7675781-0.6357422-1.3789062-1.4511719-1.3789062C238.3417969,37.2148438,237.765625,37.8144531,237.6337891,38.59375z"/>
	<path fill="#FFFFFF" d="M249.1884766,42h-1.5351562v-3.0947266c0-0.8388672-0.3359375-1.5585938-1.2119141-1.5585938
		c-0.875,0-1.4746094,0.7314453-1.4746094,1.7509766V42h-1.5351562v-5.7451172h1.4990234v0.8759766h0.0478516
		c0.2763672-0.515625,1.0078125-1.03125,1.9433594-1.03125c1.6669922,0,2.2666016,1.2587891,2.2666016,2.6738281V42z"/>
</g>
<g enable-background="new    ">
	<path fill="#FFFFFF" d="M198.9716797,92.5087891h3.3701172c1.3071289,0,2.8183594,0.4677734,2.8183594,2.1708984
		c0,0.9355469-0.5756836,1.5830078-1.4272461,1.8349609v0.0234375c1.0195312,0.15625,1.8110352,0.8759766,1.8110352,2.0390625
		c0,1.8115234-1.6552734,2.4228516-3.4663086,2.4228516h-3.105957V92.5087891z M200.5307617,96.0351562h1.6430664
		c0.7915039,0,1.4272461-0.3486328,1.4272461-1.1396484c0-0.7675781-0.6240234-1.0791016-1.5834961-1.0791016h-1.4868164V96.0351562
		z M200.5307617,99.6806641h1.6191406c0.8754883,0,1.7749023-0.2880859,1.7749023-1.2470703
		c0-0.8632812-0.659668-1.2236328-1.715332-1.2236328h-1.6787109V99.6806641z"/>
	<path fill="#FFFFFF" d="M212.7685547,101h-5.8769531v-1.3916016l3.3818359-3.1894531
		c0.4560547-0.4326172,0.8164062-0.9238281,0.8164062-1.5351562c0-0.7558594-0.5517578-1.2480469-1.2836914-1.2480469
		c-0.7675781,0-1.2954102,0.5644531-1.4033203,1.3671875h-1.5708008c0.1674805-1.7744141,1.4990234-2.7099609,3.0341797-2.7099609
		c1.4873047,0,2.8779297,0.8154297,2.8779297,2.4941406c0,1.1640625-0.6835938,1.9072266-1.4384766,2.6025391l-2.387207,2.2314453
		h3.8500977V101z"/>
	<path fill="#FFFFFF" d="M217.5830078,92.5087891h3.3701172c1.3066406,0,2.8183594,0.4677734,2.8183594,2.1708984
		c0,0.9355469-0.5761719,1.5830078-1.4277344,1.8349609v0.0234375c1.0195312,0.15625,1.8115234,0.8759766,1.8115234,2.0390625
		C224.1552734,100.3886719,222.5,101,220.6894531,101h-3.1064453V92.5087891z M219.1416016,96.0351562h1.6435547
		c0.7910156,0,1.4267578-0.3486328,1.4267578-1.1396484c0-0.7675781-0.6230469-1.0791016-1.5830078-1.0791016h-1.4873047V96.0351562
		z M219.1416016,99.6806641h1.6191406c0.8759766,0,1.7753906-0.2880859,1.7753906-1.2470703
		c0-0.8632812-0.6601562-1.2236328-1.7148438-1.2236328h-1.6796875V99.6806641z"/>
	<path fill="#FFFFFF" d="M227.7578125,97.4736328c0.4677734,0,0.9238281,0.0478516,1.4277344,0.15625v-0.2519531
		c0-0.7314453-0.3720703-1.1152344-1.2958984-1.1152344c-0.671875,0-1.1992188,0.2402344-1.5712891,0.6113281l-0.8388672-0.8994141
		c0.6113281-0.5878906,1.390625-0.875,2.5185547-0.875c1.8105469,0,2.6142578,0.71875,2.6142578,2.4580078V101h-1.4267578
		v-0.6953125h-0.0361328c-0.3486328,0.5634766-1.0556641,0.8515625-1.7871094,0.8515625
		c-1.0673828,0-2.0986328-0.5283203-2.0986328-1.8115234C225.2636719,98.2294922,226.0908203,97.4736328,227.7578125,97.4736328z
		 M229.1855469,98.5654297c-0.3964844-0.0957031-0.8515625-0.1796875-1.2958984-0.1796875
		c-0.8271484,0-1.1748047,0.3837891-1.1748047,0.9228516c0,0.5400391,0.4072266,0.8037109,1.0185547,0.8037109
		c0.7441406,0,1.4521484-0.4433594,1.4521484-1.2470703V98.5654297z M228.1298828,94.3320312
		c-0.6835938,0-1.2470703-0.5283203-1.2470703-1.2236328c0-0.7080078,0.5507812-1.2353516,1.2470703-1.2353516
		c0.6835938,0,1.2470703,0.5273438,1.2470703,1.2236328C229.3769531,93.8037109,228.8134766,94.3320312,228.1298828,94.3320312z
		 M228.1298828,92.4970703c-0.3476562,0-0.6240234,0.2636719-0.6240234,0.5996094
		c0,0.3476562,0.2763672,0.6113281,0.6240234,0.6113281s0.6230469-0.2636719,0.6230469-0.6113281
		C228.7529297,92.7607422,228.4775391,92.4970703,228.1298828,92.4970703z"/>
	<path fill="#FFFFFF" d="M235.4130859,101h-0.6953125c-1.7988281,0-2.2548828-0.3476562-2.2548828-2.3027344v-2.2548828h-0.9111328
		v-1.1875h0.9111328v-1.5107422h1.4990234v1.5107422h1.4638672v1.1875h-1.4638672v2.2910156
		c0,1.0068359,0.4677734,1.0673828,1.0195312,1.0673828h0.4316406V101z"/>
	<path fill="#FFFFFF" d="M237.6337891,98.5175781c0.1083984,0.9472656,0.7802734,1.4746094,1.6669922,1.4746094
		c0.7919922,0,1.3193359-0.4677734,1.5830078-0.7792969l1.0322266,0.671875
		c-0.4804688,0.6953125-1.5234375,1.2949219-2.7226562,1.2949219c-1.6308594,0-3.0224609-1.1152344-3.0224609-2.9257812
		c0-1.8115234,1.3310547-3.1542969,3.0703125-3.1542969c1.7509766,0,2.7705078,1.4033203,2.7705078,2.8544922
		c0,0.203125-0.0117188,0.3837891-0.0244141,0.5634766H237.6337891z M237.6337891,97.59375h3.0107422
		c0-0.7675781-0.6357422-1.3789062-1.4511719-1.3789062C238.3417969,96.2148438,237.765625,96.8144531,237.6337891,97.59375z"/>
	<path fill="#FFFFFF" d="M249.1884766,101h-1.5351562v-3.0947266c0-0.8388672-0.3359375-1.5585938-1.2119141-1.5585938
		c-0.875,0-1.4746094,0.7314453-1.4746094,1.7509766V101h-1.5351562v-5.7451172h1.4990234v0.8759766h0.0478516
		c0.2763672-0.515625,1.0078125-1.03125,1.9433594-1.03125c1.6669922,0,2.2666016,1.2587891,2.2666016,2.6738281V101z"/>
</g>
<path fill-rule="evenodd" clip-rule="evenodd" fill="#6FDFFF" d="M186.1354065,37.4584351l-1.9330139,0.0009995
	c-0.1109924,0-0.2019958-0.0900002-0.2019958-0.2010002v-0.7989998c0-0.1110001,0.0910034-0.2010002,0.2019958-0.2010002h1.654007
	c0.1150055,0,0.2169952,0.0790024,0.2440033,0.1910019l0.1929932,0.7799988
	C186.346405,37.3944359,186.2444,37.4584351,186.1354065,37.4584351L186.1354065,37.4584351z M183.6013947,37.2544365
	c0,0.112999-0.0919952,0.2039986-0.2039948,0.2039986h-1.3930054c-0.1119995,0-0.2039948-0.0909996-0.2039948-0.2039986v-0.7930031
	c0-0.1119995,0.0919952-0.2029991,0.2039948-0.2029991h1.3930054c0.1119995,0,0.2039948,0.0909996,0.2039948,0.2029991V37.2544365z
	 M181.3973999,37.2584343c0,0.1100006-0.0899963,0.2000008-0.1999969,0.2000008h-1.9260101
	c-0.1239929,0-0.2359924-0.0979996-0.1329956-0.2789993l0.3809967-0.7799988
	c0.0429993-0.0870018,0.1320038-0.1410027,0.2280121-0.1410027h1.4499969c0.1100006,0,0.1999969,0.0890007,0.1999969,0.2000008
	V37.2584343z M185.5359955,41.2683334c0.6419983,0,1.0460052,0.137001,1.3720093,0.2919998l-0.4790039,0.8800011
	c-0.2299957-0.1030006-0.4810028-0.1720009-0.8930054-0.1720009c-0.5769958,0-0.8379974,0.1360016-1.1679993,0.3090019
	c-0.3789978,0.1990013-0.8089905,0.4249992-1.6320038,0.4249992c-0.822998,0-1.2529907-0.2259979-1.6319885-0.4249992
	c-0.3300018-0.1730003-0.5910034-0.3090019-1.1679993-0.3090019c-0.5770111,0-0.8379974,0.1360016-1.1679993,0.3090019
	c-0.3800049,0.1990013-0.8090057,0.4249992-1.6330109,0.4249992c-1.0509949,0-1.9679871-0.5879974-2.0059967-0.612999L175,42.317337
	l0.4459991-0.8930016l0.1959991,0.1079979c0.0370026,0.0230026,0.7429962,0.4700012,1.4929962,0.4700012
	c0.5780029,0,0.8380127-0.137001,1.1679993-0.3099976c0.3800049-0.1990013,0.8100128-0.4240036,1.6330109-0.4240036
	s1.2539978,0.2250023,1.6329956,0.4240036c0.3300018,0.1729965,0.5910034,0.3099976,1.1669922,0.3099976
	c0.576004,0,0.8370056-0.137001,1.1670074-0.3099976C184.2819977,41.4933357,184.7129974,41.2683334,185.5359955,41.2683334z
	 M184.6723938,33.3774338c0.2030029-0.0999985,0.3440094,0.012001,0.4170074,0.1980019l0,0l0.3410034,0.8240013
	c0.0069885,0.0209999,0.0249939,0.0339966,0.04599,0.0349998l0,0h0.5550079c0.1490021,0,0.2819977,0.0970001,0.3300018,0.2420006
	l0,0l0.9069977,2.7449989c0.0070038,0.0219994,0.0269928,0.0369987,0.0500031,0.0369987l0,0h1.4309998
	c0.1899872,0,0.3099976,0.2029991,0.2189941,0.3689995l0,0l-1.6100006,2.9630013
	c-0.3959961-0.2159996-0.946991-0.5209999-1.8450012-0.5209999c-1.3999939,0-1.3999939,0.7329979-2.8009949,0.7329979
	c-1.3990021,0-1.3990021-0.7329979-2.8000031-0.7329979c-1.3990021,0-1.3990021,0.7329979-2.798996,0.7329979
	c-0.6179962,0-0.9620056-0.1429977-1.276001-0.3019981l0,0l1.4960022-3.0470009
	c0.0589905-0.1189995,0.1809998-0.1949997,0.3139954-0.1949997l0,0h0.6679993c0.0209961,0,0.0400085-0.0139999,0.0469971-0.0340004
	l0,0l1.0980072-2.2249985c0.0599976-0.1199989,0.1829987-0.1970024,0.3179932-0.1970024l0,0h3.3910065
	c0.0209961,0,0.04599-0.0139999,0.04599-0.053997l0,0v-0.4630013c0-0.1699982,0.0950012-0.3260002,0.2440033-0.4020004l0,0
	L184.6723938,33.3774338z"/>
<path fill-rule="evenodd" clip-rule="evenodd" fill="#6FDFFF" d="M186.1354065,96.4584351l-1.9330139,0.0009995
	c-0.1109924,0-0.2019958-0.0899963-0.2019958-0.2009964v-0.7990036c0-0.1110001,0.0910034-0.2009964,0.2019958-0.2009964h1.654007
	c0.1150055,0,0.2169952,0.0789948,0.2440033,0.1909943l0.1929932,0.7800064
	C186.346405,96.3944321,186.2444,96.4584351,186.1354065,96.4584351L186.1354065,96.4584351z M183.6013947,96.2544327
	c0,0.112999-0.0919952,0.2040024-0.2039948,0.2040024h-1.3930054c-0.1119995,0-0.2039948-0.0910034-0.2039948-0.2040024v-0.7929993
	c0-0.1119995,0.0919952-0.2029953,0.2039948-0.2029953h1.3930054c0.1119995,0,0.2039948,0.0909958,0.2039948,0.2029953V96.2544327z
	 M181.3973999,96.2584381c0,0.1100006-0.0899963,0.1999969-0.1999969,0.1999969h-1.9260101
	c-0.1239929,0-0.2359924-0.0979996-0.1329956-0.2789993l0.3809967-0.7799988
	c0.0429993-0.086998,0.1320038-0.1409988,0.2280121-0.1409988h1.4499969c0.1100006,0,0.1999969,0.0889969,0.1999969,0.1999969
	V96.2584381z M185.5359955,100.2683334c0.6419983,0,1.0460052,0.137001,1.3720093,0.2919998l-0.4790039,0.8800049
	c-0.2299957-0.1030045-0.4810028-0.1720047-0.8930054-0.1720047c-0.5769958,0-0.8379974,0.1360016-1.1679993,0.3089981
	c-0.3789978,0.1990051-0.8089905,0.4250031-1.6320038,0.4250031c-0.822998,0-1.2529907-0.2259979-1.6319885-0.4250031
	c-0.3300018-0.1729965-0.5910034-0.3089981-1.1679993-0.3089981c-0.5770111,0-0.8379974,0.1360016-1.1679993,0.3089981
	c-0.3800049,0.1990051-0.8090057,0.4250031-1.6330109,0.4250031c-1.0509949,0-1.9679871-0.5879974-2.0059967-0.612999
	L175,101.317337l0.4459991-0.8930054l0.1959991,0.1080017c0.0370026,0.0230026,0.7429962,0.4700012,1.4929962,0.4700012
	c0.5780029,0,0.8380127-0.137001,1.1679993-0.3099976c0.3800049-0.1990051,0.8100128-0.4240036,1.6330109-0.4240036
	s1.2539978,0.2249985,1.6329956,0.4240036c0.3300018,0.1729965,0.5910034,0.3099976,1.1669922,0.3099976
	c0.576004,0,0.8370056-0.137001,1.1670074-0.3099976C184.2819977,100.4933319,184.7129974,100.2683334,185.5359955,100.2683334z
	 M184.6723938,92.3774338c0.2030029-0.0999985,0.3440094,0.012001,0.4170074,0.197998l0,0l0.3410034,0.8240051
	c0.0069885,0.0209961,0.0249939,0.0339966,0.04599,0.034996l0,0h0.5550079c0.1490021,0,0.2819977,0.0970001,0.3300018,0.2420044l0,0
	l0.9069977,2.7449951c0.0070038,0.0220032,0.0269928,0.0370026,0.0500031,0.0370026l0,0h1.4309998
	c0.1899872,0,0.3099976,0.2030029,0.2189941,0.3690033l0,0l-1.6100006,2.9629974
	c-0.3959961-0.2160034-0.946991-0.5210037-1.8450012-0.5210037c-1.3999939,0-1.3999939,0.7330017-2.8009949,0.7330017
	c-1.3990021,0-1.3990021-0.7330017-2.8000031-0.7330017c-1.3990021,0-1.3990021,0.7330017-2.798996,0.7330017
	c-0.6179962,0-0.9620056-0.1429977-1.276001-0.3019943l0,0l1.4960022-3.0470047
	c0.0589905-0.1189957,0.1809998-0.1949997,0.3139954-0.1949997l0,0h0.6679993c0.0209961,0,0.0400085-0.0139999,0.0469971-0.0339966
	l0,0l1.0980072-2.2250061c0.0599976-0.1199951,0.1829987-0.1969986,0.3179932-0.1969986l0,0h3.3910065
	c0.0209961,0,0.04599-0.0139999,0.04599-0.0540009l0,0v-0.4629974c0-0.1699982,0.0950012-0.3259964,0.2440033-0.4020004l0,0
	L184.6723938,92.3774338z"/>
<path fill-rule="evenodd" clip-rule="evenodd" fill="#FFFFFF" fill-opacity="0.09" d="M316,12h135c1.1045837,0,2,0.8954306,2,2v258
	c0,1.1045837-0.8954163,2-2,2H316c-1.1045837,0-2-0.8954163-2-2V14C314,12.8954306,314.8954163,12,316,12z"/>
<path fill-rule="evenodd" clip-rule="evenodd" fill="#FFFFFF" fill-opacity="0.11" d="M327,56h23c0.5522766,0,1,0.4477158,1,1v9
	c0,0.5522842-0.4477234,1-1,1h-23c-0.5522766,0-1-0.4477158-1-1v-9C326,56.4477158,326.4477234,56,327,56z"/>
<path fill-rule="evenodd" clip-rule="evenodd" fill="#FFFFFF" fill-opacity="0.11" d="M327,115h23c0.5522766,0,1,0.4477158,1,1v9
	c0,0.5522842-0.4477234,1-1,1h-23c-0.5522766,0-1-0.4477158-1-1v-9C326,115.4477158,326.4477234,115,327,115z"/>
<path fill-rule="evenodd" clip-rule="evenodd" fill="#FFFFFF" fill-opacity="0.11" d="M327,174h23c0.5522766,0,1,0.4477081,1,1v9
	c0,0.5522919-0.4477234,1-1,1h-23c-0.5522766,0-1-0.4477081-1-1v-9C326,174.4477081,326.4477234,174,327,174z"/>
<path fill-rule="evenodd" clip-rule="evenodd" fill="#FFFFFF" fill-opacity="0.11" d="M327,233h23c0.5522766,0,1,0.4477081,1,1v9
	c0,0.5522919-0.4477234,1-1,1h-23c-0.5522766,0-1-0.4477081-1-1v-9C326,233.4477081,326.4477234,233,327,233z"/>
<path fill-rule="evenodd" clip-rule="evenodd" fill="#FFFFFF" fill-opacity="0.11" d="M358,56h23c0.5522766,0,1,0.4477158,1,1v9
	c0,0.5522842-0.4477234,1-1,1h-23c-0.5522766,0-1-0.4477158-1-1v-9C357,56.4477158,357.4477234,56,358,56z"/>
<path fill-rule="evenodd" clip-rule="evenodd" fill="#FFFFFF" fill-opacity="0.11" d="M358,115h23c0.5522766,0,1,0.4477158,1,1v9
	c0,0.5522842-0.4477234,1-1,1h-23c-0.5522766,0-1-0.4477158-1-1v-9C357,115.4477158,357.4477234,115,358,115z"/>
<path fill-rule="evenodd" clip-rule="evenodd" fill="#FFFFFF" fill-opacity="0.11" d="M358,174h23c0.5522766,0,1,0.4477081,1,1v9
	c0,0.5522919-0.4477234,1-1,1h-23c-0.5522766,0-1-0.4477081-1-1v-9C357,174.4477081,357.4477234,174,358,174z"/>
<path fill-rule="evenodd" clip-rule="evenodd" fill="#FFFFFF" fill-opacity="0.11" d="M358,233h23c0.5522766,0,1,0.4477081,1,1v9
	c0,0.5522919-0.4477234,1-1,1h-23c-0.5522766,0-1-0.4477081-1-1v-9C357,233.4477081,357.4477234,233,358,233z"/>
<path fill-rule="evenodd" clip-rule="evenodd" fill="#FFFFFF" fill-opacity="0.11" d="M389,56h23c0.5522766,0,1,0.4477158,1,1v9
	c0,0.5522842-0.4477234,1-1,1h-23c-0.5522766,0-1-0.4477158-1-1v-9C388,56.4477158,388.4477234,56,389,56z"/>
<path fill-rule="evenodd" clip-rule="evenodd" fill="#FFFFFF" fill-opacity="0.11" d="M389,115h23c0.5522766,0,1,0.4477158,1,1v9
	c0,0.5522842-0.4477234,1-1,1h-23c-0.5522766,0-1-0.4477158-1-1v-9C388,115.4477158,388.4477234,115,389,115z"/>
<path fill-rule="evenodd" clip-rule="evenodd" fill="#FFFFFF" fill-opacity="0.11" d="M389,174h23c0.5522766,0,1,0.4477081,1,1v9
	c0,0.5522919-0.4477234,1-1,1h-23c-0.5522766,0-1-0.4477081-1-1v-9C388,174.4477081,388.4477234,174,389,174z"/>
<path fill-rule="evenodd" clip-rule="evenodd" fill="#FFFFFF" fill-opacity="0.11" d="M389,233h23c0.5522766,0,1,0.4477081,1,1v9
	c0,0.5522919-0.4477234,1-1,1h-23c-0.5522766,0-1-0.4477081-1-1v-9C388,233.4477081,388.4477234,233,389,233z"/>
<path fill-rule="evenodd" clip-rule="evenodd" fill="#FFFFFF" fill-opacity="0.11" d="M420,56h22c0.5522766,0,1,0.4477158,1,1v9
	c0,0.5522842-0.4477234,1-1,1h-22c-0.5522766,0-1-0.4477158-1-1v-9C419,56.4477158,419.4477234,56,420,56z"/>
<path fill-rule="evenodd" clip-rule="evenodd" fill="#FFFFFF" fill-opacity="0.11" d="M420,115h22c0.5522766,0,1,0.4477158,1,1v9
	c0,0.5522842-0.4477234,1-1,1h-22c-0.5522766,0-1-0.4477158-1-1v-9C419,115.4477158,419.4477234,115,420,115z"/>
<path fill-rule="evenodd" clip-rule="evenodd" fill="#FFFFFF" fill-opacity="0.11" d="M420,174h22c0.5522766,0,1,0.4477081,1,1v9
	c0,0.5522919-0.4477234,1-1,1h-22c-0.5522766,0-1-0.4477081-1-1v-9C419,174.4477081,419.4477234,174,420,174z"/>
<path fill-rule="evenodd" clip-rule="evenodd" fill="#FFFFFF" fill-opacity="0.11" d="M420,233h22c0.5522766,0,1,0.4477081,1,1v9
	c0,0.5522919-0.4477234,1-1,1h-22c-0.5522766,0-1-0.4477081-1-1v-9C419,233.4477081,419.4477234,233,420,233z"/>
<g enable-background="new    ">
	<path fill="#FFFFFF" d="M356.6083984,42h-5.8769531v-1.3916016l3.3818359-3.1894531
		c0.4560547-0.4326172,0.8164062-0.9238281,0.8164062-1.5351562c0-0.7558594-0.5527344-1.2480469-1.2832031-1.2480469
		c-0.7675781,0-1.2958984,0.5644531-1.4042969,1.3671875h-1.5703125c0.1679688-1.7744141,1.4990234-2.7099609,3.0341797-2.7099609
		c1.4873047,0,2.8779297,0.8154297,2.8779297,2.4941406c0,1.1640625-0.6835938,1.9072266-1.4394531,2.6025391l-2.3867188,2.2314453
		h3.8505859V42z"/>
	<path fill="#FFFFFF" d="M364.2998047,37.7421875c0,2.3388672-0.8271484,4.4853516-3.1181641,4.4853516
		c-2.3027344,0-3.1308594-2.1464844-3.1308594-4.4853516c0-2.3261719,0.828125-4.4492188,3.1308594-4.4492188
		C363.4726562,33.2929688,364.2998047,35.4160156,364.2998047,37.7421875z M359.6826172,37.7421875
		c0,1.3193359,0.2636719,3.1181641,1.4990234,3.1181641c1.2109375,0,1.4873047-1.7988281,1.4873047-3.1181641
		c0-1.2949219-0.2763672-3.1064453-1.4873047-3.1064453C359.9462891,34.6357422,359.6826172,36.4472656,359.6826172,37.7421875z"/>
	<path fill="#FFFFFF" d="M368.875,33.5087891h3.3701172c1.3066406,0,2.8183594,0.4677734,2.8183594,2.1708984
		c0,0.9355469-0.5761719,1.5830078-1.4277344,1.8349609v0.0234375c1.0195312,0.15625,1.8115234,0.8759766,1.8115234,2.0390625
		c0,1.8115234-1.6552734,2.4228516-3.4658203,2.4228516H368.875V33.5087891z M370.4335938,37.0351562h1.6435547
		c0.7910156,0,1.4267578-0.3486328,1.4267578-1.1396484c0-0.7675781-0.6230469-1.0791016-1.5830078-1.0791016h-1.4873047V37.0351562
		z M370.4335938,40.6806641h1.6191406c0.8759766,0,1.7753906-0.2880859,1.7753906-1.2470703
		c0-0.8632812-0.6601562-1.2236328-1.7148438-1.2236328h-1.6796875V40.6806641z"/>
	<path fill="#FFFFFF" d="M376.9267578,36.2548828h1.5351562v3.0703125c0,0.8642578,0.3242188,1.5595703,1.2470703,1.5595703
		c0.9003906,0,1.34375-0.8037109,1.34375-1.7275391v-2.9023438h1.546875V42h-1.4990234v-0.8398438h-0.0361328
		c-0.2753906,0.4443359-0.9589844,0.9716797-1.7744141,0.9716797c-1.6796875,0-2.3632812-1.0195312-2.3632812-2.6748047V36.2548828z
		"/>
	<path fill="#FFFFFF" d="M388.2529297,37.9462891c-0.3720703-0.3603516-1.1396484-0.671875-1.7275391-0.671875
		c-0.515625,0-1.0791016,0.1679688-1.0791016,0.5878906s0.5878906,0.5400391,1.4150391,0.671875
		c1.2714844,0.2041016,2.375,0.5634766,2.375,1.7509766c0,1.3066406-1.2597656,1.8945312-2.5791016,1.8945312
		c-1.4267578,0-2.4580078-0.6953125-2.890625-1.0673828l0.9355469-0.9228516
		c0.5761719,0.5390625,1.3076172,0.8388672,1.9433594,0.8388672c0.5517578,0,1.1152344-0.1914062,1.1152344-0.6474609
		c0-1.1396484-3.8017578-0.3359375-3.8017578-2.4228516c0-1.2353516,1.1875-1.8583984,2.4941406-1.8583984
		c0.984375,0,2.0517578,0.3359375,2.6748047,0.9472656L388.2529297,37.9462891z"/>
	<path fill="#FFFFFF" d="M394.4335938,37.9462891c-0.3720703-0.3603516-1.1396484-0.671875-1.7275391-0.671875
		c-0.515625,0-1.0791016,0.1679688-1.0791016,0.5878906s0.5878906,0.5400391,1.4150391,0.671875
		c1.2714844,0.2041016,2.375,0.5634766,2.375,1.7509766c0,1.3066406-1.2597656,1.8945312-2.5791016,1.8945312
		c-1.4267578,0-2.4580078-0.6953125-2.890625-1.0673828l0.9355469-0.9228516
		c0.5761719,0.5390625,1.3076172,0.8388672,1.9433594,0.8388672c0.5517578,0,1.1152344-0.1914062,1.1152344-0.6474609
		c0-1.1396484-3.8017578-0.3359375-3.8017578-2.4228516c0-1.2353516,1.1875-1.8583984,2.4941406-1.8583984
		c0.984375,0,2.0517578,0.3359375,2.6748047,0.9472656L394.4335938,37.9462891z"/>
	<path fill="#FFFFFF" d="M397.8662109,39.5175781c0.1083984,0.9472656,0.7802734,1.4746094,1.6669922,1.4746094
		c0.7919922,0,1.3193359-0.4677734,1.5830078-0.7792969l1.0322266,0.671875
		c-0.4804688,0.6953125-1.5234375,1.2949219-2.7226562,1.2949219c-1.6308594,0-3.0224609-1.1152344-3.0224609-2.9257812
		c0-1.8115234,1.3310547-3.1542969,3.0703125-3.1542969c1.7509766,0,2.7705078,1.4033203,2.7705078,2.8544922
		c0,0.203125-0.0117188,0.3837891-0.0244141,0.5634766H397.8662109z M397.8662109,38.59375h3.0107422
		c0-0.7675781-0.6357422-1.3789062-1.4511719-1.3789062C398.5742188,37.2148438,397.9980469,37.8144531,397.8662109,38.59375z"/>
	<path fill="#FFFFFF" d="M409.4199219,42h-1.5351562v-3.0947266c0-0.8388672-0.3359375-1.5585938-1.2119141-1.5585938
		c-0.875,0-1.4746094,0.7314453-1.4746094,1.7509766V42h-1.5351562v-5.7451172h1.4990234v0.8759766h0.0478516
		c0.2763672-0.515625,1.0078125-1.03125,1.9433594-1.03125c1.6669922,0,2.2666016,1.2587891,2.2666016,2.6738281V42z"/>
</g>
<g enable-background="new    ">
	<path fill="#FFFFFF" d="M353.2988281,95.7353516l0.0117188,0.0234375c0.1914062-0.1074219,0.5390625-0.1679688,0.8154297-0.1679688
		c1.4873047,0,2.7216797,1.0917969,2.7216797,2.6982422c0,1.7998047-1.3789062,2.9384766-3.1298828,2.9384766
		c-1.7626953,0-3.1298828-1.1513672-3.1298828-2.9023438c0-0.9589844,0.3710938-1.7265625,0.8867188-2.5068359l2.1474609-3.3095703
		h1.8955078L353.2988281,95.7353516z M353.7177734,99.8964844c0.9238281,0,1.5351562-0.6591797,1.5351562-1.5712891
		c0-0.8876953-0.5996094-1.546875-1.5224609-1.546875c-0.9355469,0-1.5478516,0.6474609-1.5478516,1.546875
		C352.1826172,99.2011719,352.7949219,99.8964844,353.7177734,99.8964844z"/>
	<path fill="#FFFFFF" d="M364.2998047,96.7421875c0,2.3388672-0.8271484,4.4853516-3.1181641,4.4853516
		c-2.3027344,0-3.1308594-2.1464844-3.1308594-4.4853516c0-2.3261719,0.828125-4.4492188,3.1308594-4.4492188
		C363.4726562,92.2929688,364.2998047,94.4160156,364.2998047,96.7421875z M359.6826172,96.7421875
		c0,1.3193359,0.2636719,3.1181641,1.4990234,3.1181641c1.2109375,0,1.4873047-1.7988281,1.4873047-3.1181641
		c0-1.2949219-0.2763672-3.1064453-1.4873047-3.1064453C359.9462891,93.6357422,359.6826172,95.4472656,359.6826172,96.7421875z"/>
	<path fill="#FFFFFF" d="M368.875,92.5087891h3.3701172c1.3066406,0,2.8183594,0.4677734,2.8183594,2.1708984
		c0,0.9355469-0.5761719,1.5830078-1.4277344,1.8349609v0.0234375c1.0195312,0.15625,1.8115234,0.8759766,1.8115234,2.0390625
		c0,1.8115234-1.6552734,2.4228516-3.4658203,2.4228516H368.875V92.5087891z M370.4335938,96.0351562h1.6435547
		c0.7910156,0,1.4267578-0.3486328,1.4267578-1.1396484c0-0.7675781-0.6230469-1.0791016-1.5830078-1.0791016h-1.4873047V96.0351562
		z M370.4335938,99.6806641h1.6191406c0.8759766,0,1.7753906-0.2880859,1.7753906-1.2470703
		c0-0.8632812-0.6601562-1.2236328-1.7148438-1.2236328h-1.6796875V99.6806641z"/>
	<path fill="#FFFFFF" d="M376.9267578,95.2548828h1.5351562v3.0703125c0,0.8642578,0.3242188,1.5595703,1.2470703,1.5595703
		c0.9003906,0,1.34375-0.8037109,1.34375-1.7275391v-2.9023438h1.546875V101h-1.4990234v-0.8398438h-0.0361328
		c-0.2753906,0.4443359-0.9589844,0.9716797-1.7744141,0.9716797c-1.6796875,0-2.3632812-1.0195312-2.3632812-2.6748047V95.2548828z
		"/>
	<path fill="#FFFFFF" d="M388.2529297,96.9462891c-0.3720703-0.3603516-1.1396484-0.671875-1.7275391-0.671875
		c-0.515625,0-1.0791016,0.1679688-1.0791016,0.5878906s0.5878906,0.5400391,1.4150391,0.671875
		c1.2714844,0.2041016,2.375,0.5634766,2.375,1.7509766c0,1.3066406-1.2597656,1.8945312-2.5791016,1.8945312
		c-1.4267578,0-2.4580078-0.6953125-2.890625-1.0673828l0.9355469-0.9228516
		c0.5761719,0.5390625,1.3076172,0.8388672,1.9433594,0.8388672c0.5517578,0,1.1152344-0.1914062,1.1152344-0.6474609
		c0-1.1396484-3.8017578-0.3359375-3.8017578-2.4228516c0-1.2353516,1.1875-1.8583984,2.4941406-1.8583984
		c0.984375,0,2.0517578,0.3359375,2.6748047,0.9472656L388.2529297,96.9462891z"/>
	<path fill="#FFFFFF" d="M394.4335938,96.9462891c-0.3720703-0.3603516-1.1396484-0.671875-1.7275391-0.671875
		c-0.515625,0-1.0791016,0.1679688-1.0791016,0.5878906s0.5878906,0.5400391,1.4150391,0.671875
		c1.2714844,0.2041016,2.375,0.5634766,2.375,1.7509766c0,1.3066406-1.2597656,1.8945312-2.5791016,1.8945312
		c-1.4267578,0-2.4580078-0.6953125-2.890625-1.0673828l0.9355469-0.9228516
		c0.5761719,0.5390625,1.3076172,0.8388672,1.9433594,0.8388672c0.5517578,0,1.1152344-0.1914062,1.1152344-0.6474609
		c0-1.1396484-3.8017578-0.3359375-3.8017578-2.4228516c0-1.2353516,1.1875-1.8583984,2.4941406-1.8583984
		c0.984375,0,2.0517578,0.3359375,2.6748047,0.9472656L394.4335938,96.9462891z"/>
	<path fill="#FFFFFF" d="M397.8662109,98.5175781c0.1083984,0.9472656,0.7802734,1.4746094,1.6669922,1.4746094
		c0.7919922,0,1.3193359-0.4677734,1.5830078-0.7792969l1.0322266,0.671875
		c-0.4804688,0.6953125-1.5234375,1.2949219-2.7226562,1.2949219c-1.6308594,0-3.0224609-1.1152344-3.0224609-2.9257812
		c0-1.8115234,1.3310547-3.1542969,3.0703125-3.1542969c1.7509766,0,2.7705078,1.4033203,2.7705078,2.8544922
		c0,0.203125-0.0117188,0.3837891-0.0244141,0.5634766H397.8662109z M397.8662109,97.59375h3.0107422
		c0-0.7675781-0.6357422-1.3789062-1.4511719-1.3789062C398.5742188,96.2148438,397.9980469,96.8144531,397.8662109,97.59375z"/>
	<path fill="#FFFFFF" d="M409.4199219,101h-1.5351562v-3.0947266c0-0.8388672-0.3359375-1.5585938-1.2119141-1.5585938
		c-0.875,0-1.4746094,0.7314453-1.4746094,1.7509766V101h-1.5351562v-5.7451172h1.4990234v0.8759766h0.0478516
		c0.2763672-0.515625,1.0078125-1.03125,1.9433594-1.03125c1.6669922,0,2.2666016,1.2587891,2.2666016,2.6738281V101z"/>
</g>
<g enable-background="new    ">
	<path fill="#FFFFFF" d="M354.9892578,160h-1.5947266v-6.6679688l-1.5712891,1.1992188l-0.8398438-1.0800781l2.5664062-1.9423828
		h1.4394531V160z"/>
	<path fill="#FFFFFF" d="M364.0117188,152.8037109L360.7011719,160h-1.8222656l3.4541016-7.1240234h-4.0654297v-1.3671875h5.7441406
		V152.8037109z"/>
	<path fill="#FFFFFF" d="M372.1611328,160h-1.6074219v-7.0996094h-2.5546875v-1.3916016h6.7285156v1.3916016h-2.5664062V160z"/>
	<path fill="#FFFFFF" d="M374.6357422,154.2548828h1.4628906v0.8994141h0.0361328
		c0.2998047-0.6113281,0.9355469-1.0546875,1.6914062-1.0546875c0.1679688,0,0.3115234,0.0117188,0.4433594,0.0478516v1.3789062
		c-0.15625-0.0478516-0.4199219-0.0722656-0.5996094-0.0722656c-0.9951172,0-1.4990234,0.7802734-1.4990234,1.6435547V160
		h-1.5351562V154.2548828z"/>
	<path fill="#FFFFFF" d="M380.0107422,151.1972656c0.515625,0,0.9238281,0.4189453,0.9238281,0.9228516
		c0,0.515625-0.4082031,0.8994141-0.9238281,0.8994141c-0.5039062,0-0.9111328-0.3837891-0.9111328-0.8994141
		C379.0996094,151.6162109,379.5068359,151.1972656,380.0107422,151.1972656z M379.2431641,154.2548828h1.5351562V160h-1.5351562
		V154.2548828z"/>
	<path fill="#FFFFFF" d="M385.0136719,157.3378906l-0.8876953,0.9111328V160h-1.546875v-9.0673828h1.546875v5.6611328h0.0361328
		l2.1347656-2.3388672h1.9316406l-2.0751953,2.0869141L388.3964844,160h-1.8837891L385.0136719,157.3378906z"/>
	<path fill="#FFFFFF" d="M391.7695312,157.3378906l-0.8876953,0.9111328V160h-1.546875v-9.0673828h1.546875v5.6611328h0.0361328
		l2.1347656-2.3388672h1.9316406l-2.0751953,2.0869141L395.1523438,160h-1.8837891L391.7695312,157.3378906z"/>
	<path fill="#FFFFFF" d="M396.9902344,157.5175781c0.1083984,0.9472656,0.7802734,1.4746094,1.6669922,1.4746094
		c0.7919922,0,1.3193359-0.4677734,1.5830078-0.7792969l1.0322266,0.671875
		c-0.4804688,0.6953125-1.5234375,1.2949219-2.7226562,1.2949219c-1.6308594,0-3.0224609-1.1152344-3.0224609-2.9257812
		c0-1.8115234,1.3310547-3.1542969,3.0703125-3.1542969c1.7509766,0,2.7705078,1.4033203,2.7705078,2.8544922
		c0,0.203125-0.0117188,0.3837891-0.0244141,0.5634766H396.9902344z M396.9902344,156.59375h3.0107422
		c0-0.7675781-0.6357422-1.3789062-1.4511719-1.3789062C397.6982422,155.2148438,397.1220703,155.8144531,396.9902344,156.59375z"/>
	<path fill="#FFFFFF" d="M408.5439453,160h-1.5351562v-3.0947266c0-0.8388672-0.3359375-1.5585938-1.2119141-1.5585938
		c-0.875,0-1.4746094,0.7314453-1.4746094,1.7509766V160h-1.5351562v-5.7451172h1.4990234v0.8759766h0.0478516
		c0.2763672-0.515625,1.0078125-1.03125,1.9433594-1.03125c1.6669922,0,2.2666016,1.2587891,2.2666016,2.6738281V160z"/>
</g>
<g enable-background="new    ">
	<path fill="#FFFFFF" d="M354.9892578,219h-1.5947266v-6.6679688l-1.5712891,1.1992188l-0.8398438-1.0800781l2.5664062-1.9423828
		h1.4394531V219z"/>
	<path fill="#FFFFFF" d="M364.1923828,216.6494141c0,1.6787109-1.4277344,2.578125-3.0107422,2.578125
		c-1.6074219,0-3.0224609-0.8867188-3.0224609-2.5664062c0-1.0791016,0.6962891-1.8466797,1.5595703-2.1103516v-0.0361328
		c-0.7441406-0.2636719-1.2949219-0.9472656-1.2949219-1.859375c0-1.4990234,1.2832031-2.3623047,2.7578125-2.3623047
		c1.4628906,0,2.7460938,0.8398438,2.7460938,2.3388672c0,0.9111328-0.5273438,1.6308594-1.2949219,1.8828125v0.0234375
		C363.5205078,214.7900391,364.1923828,215.59375,364.1923828,216.6494141z M361.1816406,217.9570312
		c0.8398438,0,1.4267578-0.5761719,1.4267578-1.3916016c0-0.7792969-0.5869141-1.3789062-1.4267578-1.3789062
		c-0.8515625,0-1.4394531,0.5869141-1.4394531,1.3789062C359.7421875,217.3808594,360.3183594,217.9570312,361.1816406,217.9570312z
		 M361.1816406,213.9384766c0.6835938,0,1.2109375-0.5390625,1.2109375-1.1992188
		c0-0.6835938-0.5390625-1.1992188-1.2109375-1.1992188c-0.7070312,0-1.2226562,0.515625-1.2226562,1.1992188
		C359.9589844,213.3994141,360.4746094,213.9384766,361.1816406,213.9384766z"/>
	<path fill="#FFFFFF" d="M372.1611328,219h-1.6074219v-7.0996094h-2.5546875v-1.3916016h6.7285156v1.3916016h-2.5664062V219z"/>
	<path fill="#FFFFFF" d="M374.6357422,213.2548828h1.4628906v0.8994141h0.0361328
		c0.2998047-0.6113281,0.9355469-1.0546875,1.6914062-1.0546875c0.1679688,0,0.3115234,0.0117188,0.4433594,0.0478516v1.3789062
		c-0.15625-0.0478516-0.4199219-0.0722656-0.5996094-0.0722656c-0.9951172,0-1.4990234,0.7802734-1.4990234,1.6435547V219
		h-1.5351562V213.2548828z"/>
	<path fill="#FFFFFF" d="M380.0107422,210.1972656c0.515625,0,0.9238281,0.4189453,0.9238281,0.9228516
		c0,0.515625-0.4082031,0.8994141-0.9238281,0.8994141c-0.5039062,0-0.9111328-0.3837891-0.9111328-0.8994141
		C379.0996094,210.6162109,379.5068359,210.1972656,380.0107422,210.1972656z M379.2431641,213.2548828h1.5351562V219h-1.5351562
		V213.2548828z"/>
	<path fill="#FFFFFF" d="M385.0136719,216.3378906l-0.8876953,0.9111328V219h-1.546875v-9.0673828h1.546875v5.6611328h0.0361328
		l2.1347656-2.3388672h1.9316406l-2.0751953,2.0869141L388.3964844,219h-1.8837891L385.0136719,216.3378906z"/>
	<path fill="#FFFFFF" d="M391.7695312,216.3378906l-0.8876953,0.9111328V219h-1.546875v-9.0673828h1.546875v5.6611328h0.0361328
		l2.1347656-2.3388672h1.9316406l-2.0751953,2.0869141L395.1523438,219h-1.8837891L391.7695312,216.3378906z"/>
	<path fill="#FFFFFF" d="M396.9902344,216.5175781c0.1083984,0.9472656,0.7802734,1.4746094,1.6669922,1.4746094
		c0.7919922,0,1.3193359-0.4677734,1.5830078-0.7792969l1.0322266,0.671875
		c-0.4804688,0.6953125-1.5234375,1.2949219-2.7226562,1.2949219c-1.6308594,0-3.0224609-1.1152344-3.0224609-2.9257812
		c0-1.8115234,1.3310547-3.1542969,3.0703125-3.1542969c1.7509766,0,2.7705078,1.4033203,2.7705078,2.8544922
		c0,0.203125-0.0117188,0.3837891-0.0244141,0.5634766H396.9902344z M396.9902344,215.59375h3.0107422
		c0-0.7675781-0.6357422-1.3789062-1.4511719-1.3789062C397.6982422,214.2148438,397.1220703,214.8144531,396.9902344,215.59375z"/>
	<path fill="#FFFFFF" d="M408.5439453,219h-1.5351562v-3.0947266c0-0.8388672-0.3359375-1.5585938-1.2119141-1.5585938
		c-0.875,0-1.4746094,0.7314453-1.4746094,1.7509766V219h-1.5351562v-5.7451172h1.4990234v0.8759766h0.0478516
		c0.2763672-0.515625,1.0078125-1.03125,1.9433594-1.03125c1.6669922,0,2.2666016,1.2587891,2.2666016,2.6738281V219z"/>
</g>
<path fill-rule="evenodd" clip-rule="evenodd" fill="#EB1053" d="M327.656189,36.7894897
	c0-0.197998,0.15802-0.3580017,0.3500061-0.3580017h0.7010193c0.1929932,0,0.3479919,0.1600037,0.3479919,0.3580017v1.4319992
	c0,0.1970024-0.1549988,0.3580017-0.3479919,0.3580017h-0.7010193c-0.1919861,0-0.3500061-0.1609993-0.3500061-0.3580017V36.7894897
	z M329.7561951,36.7894897c0-0.197998,0.1570129-0.3580017,0.3500061-0.3580017h2.7999878
	c0.1930237,0,0.3510132,0.1600037,0.3510132,0.3580017v1.4319992c0,0.1970024-0.1579895,0.3580017-0.3510132,0.3580017h-2.7999878
	c-0.1929932,0-0.3500061-0.1609993-0.3500061-0.3580017V36.7894897z M333.9562073,36.7894897
	c0-0.197998,0.1569824-0.3580017,0.3500061-0.3580017h2.7999878c0.1929932,0,0.3500061,0.1600037,0.3500061,0.3580017v1.4319992
	c0,0.1970024-0.1570129,0.3580017-0.3500061,0.3580017h-2.7999878c-0.1930237,0-0.3500061-0.1609993-0.3500061-0.3580017V36.7894897
	z M338.156189,36.7894897c0-0.197998,0.15802-0.3580017,0.3500061-0.3580017h1.0870056
	c0.177002,0,0.3250122,0.1330032,0.3460083,0.3120041l0.1860046,1.4309998
	c0.0130005,0.1029968-0.0180054,0.204998-0.085022,0.2829971c-0.065979,0.0780029-0.1619873,0.1220016-0.2619934,0.1220016
	h-1.2720032c-0.1919861,0-0.3500061-0.1609993-0.3500061-0.3580017V36.7894897z M330.550293,40.7997894c0.552002,0,1,0.4490013,1,1
	c0,0.552002-0.447998,1-1,1s-1-0.447998-1-1C329.550293,41.2487907,329.998291,40.7997894,330.550293,40.7997894z M337.5,40.7997894
	c0.552002,0,1,0.4490013,1,1c0,0.552002-0.447998,1-1,1s-1-0.447998-1-1C336.5,41.2487907,336.947998,40.7997894,337.5,40.7997894z
	 M339.9501953,34.9994888c0.1719971,0,0.3160095,0.1270027,0.3460083,0.2989998l0,0l0.6990051,4.2960014
	c0.0029907,0.0200005,0.0050049,0.0390015,0.0050049,0.0589981l0,0v0.9880028c0,0.1969986-0.1570129,0.3579979-0.3500061,0.3579979
	l0,0h-1.4470215c-0.2359924-0.7179985-0.9059753-1.1999969-1.7029724-1.1999969
	c-0.7980042,0-1.4680176,0.4819984-1.7030029,1.1999969l0,0h-3.5440063
	c-0.2359924-0.7179985-0.9049988-1.1999969-1.7030029-1.1999969c-0.7969971,0-1.4670105,0.4819984-1.7030029,1.1999969l0,0
	h-1.5469971c-0.1719971,0-0.2999878-0.1790009-0.2999878-0.3579979l0,0v-4.9249992
	c0-0.3590012,0.348999-0.7170029,0.6999817-0.7170029l0,0H339.9501953z"/>
<path fill-rule="evenodd" clip-rule="evenodd" fill="#EB1053" d="M327.656189,95.7894897
	c0-0.197998,0.15802-0.3580017,0.3500061-0.3580017h0.7010193c0.1929932,0,0.3479919,0.1600037,0.3479919,0.3580017v1.4319992
	c0,0.1969986-0.1549988,0.3580017-0.3479919,0.3580017h-0.7010193c-0.1919861,0-0.3500061-0.1610031-0.3500061-0.3580017V95.7894897
	z M329.7561951,95.7894897c0-0.197998,0.1570129-0.3580017,0.3500061-0.3580017h2.7999878
	c0.1930237,0,0.3510132,0.1600037,0.3510132,0.3580017v1.4319992c0,0.1969986-0.1579895,0.3580017-0.3510132,0.3580017h-2.7999878
	c-0.1929932,0-0.3500061-0.1610031-0.3500061-0.3580017V95.7894897z M333.9562073,95.7894897
	c0-0.197998,0.1569824-0.3580017,0.3500061-0.3580017h2.7999878c0.1929932,0,0.3500061,0.1600037,0.3500061,0.3580017v1.4319992
	c0,0.1969986-0.1570129,0.3580017-0.3500061,0.3580017h-2.7999878c-0.1930237,0-0.3500061-0.1610031-0.3500061-0.3580017V95.7894897
	z M338.156189,95.7894897c0-0.197998,0.15802-0.3580017,0.3500061-0.3580017h1.0870056
	c0.177002,0,0.3250122,0.1330032,0.3460083,0.3120041l0.1860046,1.4309998
	c0.0130005,0.1029968-0.0180054,0.2049942-0.085022,0.2829971c-0.065979,0.0780029-0.1619873,0.1220016-0.2619934,0.1220016
	h-1.2720032c-0.1919861,0-0.3500061-0.1610031-0.3500061-0.3580017V95.7894897z M330.550293,99.7997894c0.552002,0,1,0.4489975,1,1
	c0,0.552002-0.447998,1-1,1s-1-0.447998-1-1C329.550293,100.2487869,329.998291,99.7997894,330.550293,99.7997894z
	 M337.5,99.7997894c0.552002,0,1,0.4489975,1,1c0,0.552002-0.447998,1-1,1s-1-0.447998-1-1
	C336.5,100.2487869,336.947998,99.7997894,337.5,99.7997894z M339.9501953,93.9994888
	c0.1719971,0,0.3160095,0.1269989,0.3460083,0.2990036l0,0l0.6990051,4.2959976
	c0.0029907,0.0199966,0.0050049,0.0390015,0.0050049,0.0589981l0,0v0.987999c0,0.1969986-0.1570129,0.3580017-0.3500061,0.3580017
	l0,0h-1.4470215c-0.2359924-0.7179947-0.9059753-1.1999969-1.7029724-1.1999969
	c-0.7980042,0-1.4680176,0.4820023-1.7030029,1.1999969l0,0h-3.5440063
	c-0.2359924-0.7179947-0.9049988-1.1999969-1.7030029-1.1999969c-0.7969971,0-1.4670105,0.4820023-1.7030029,1.1999969l0,0
	h-1.5469971c-0.1719971,0-0.2999878-0.1790009-0.2999878-0.3580017l0,0v-4.9249954
	c0-0.3590012,0.348999-0.7170029,0.6999817-0.7170029l0,0H339.9501953z"/>
<path fill-rule="evenodd" clip-rule="evenodd" fill="#A476E5" d="M339.8330078,156.4020081
	c-0.0670166,0.0829926-0.1669922,0.1309967-0.2720032,0.1309967h-1.4020081h-0.348999
	c-0.1940002,0-0.3510132-0.1560059-0.3510132-0.3500061v-1.401001c0-0.1929932,0.1570129-0.3499908,0.3510132-0.3499908h0.348999
	h0.9259949h0.1660156c0.1650085,0,0.3059998,0.1139984,0.34198,0.2749939l0.309021,1.3999939
	C339.9249878,156.2109985,339.8999939,156.3200073,339.8330078,156.4020081L339.8330078,156.4020081z M336.7600098,156.1820068
	c0,0.1940002-0.1570129,0.3499908-0.3500061,0.3499908h-2.1000061c-0.1940002,0-0.3509827-0.1559906-0.3509827-0.3499908v-1.4000092
	c0-0.1929932,0.1569824-0.3499908,0.3509827-0.3499908h2.1000061c0.1929932,0,0.3500061,0.1569977,0.3500061,0.3499908V156.1820068z
	 M333.25,156.1820068c0,0.1940002-0.1579895,0.3499908-0.3510132,0.3499908h-2.0999756
	c-0.1940002,0-0.3500061-0.1559906-0.3500061-0.3499908v-1.4000092c0-0.1929932,0.1560059-0.3499908,0.3500061-0.3499908h2.0999756
	c0.1930237,0,0.3510132,0.1569977,0.3510132,0.3499908V156.1820068z M329.75,156.1820068
	c0,0.1949921-0.1570129,0.3509979-0.3500061,0.3509979h-0.3649902h-0.0010071h-0.6839905
	c-0.1060181,0-0.2070007-0.0480042-0.2730103-0.1309967c-0.0669861-0.0820007-0.0920105-0.1910095-0.0690002-0.2950134
	l0.3089905-1.3999939c0.0350037-0.1609955,0.178009-0.2749939,0.3420105-0.2749939h0.5280151h0.2129822
	c0.1929932,0,0.3500061,0.1569977,0.3500061,0.3499908V156.1820068z M340,160.0003052v1h-12v-1H340z M334.3680115,150.3999939
	l1.493988,1.1790009c0.0809937,0.0600128,0.1419983,0.151001,0.1419983,0.276001
	c0,0.1220093-0.0490112,0.1800079-0.1499939,0.2550049l0,0L334.5660095,153h5.1549988
	c0.1629944,0,0.3049927,0.1130066,0.3410034,0.272995l0,0l0.9289856,4.1080017
	c0.0249939,0.1220093-0.0019836,0.2490082-0.0740051,0.3509979l0,0l-0.8119812,1.1230011
	C340.0390015,158.9450073,339.9339905,159,339.8210144,159l0,0h-11.6420288c-0.1129761,0-0.2179871-0.0549927-0.2839966-0.1450043
	l0,0l-0.8119812-1.1230011c-0.0720215-0.1019897-0.098999-0.2289886-0.0740051-0.3509979l0,0l0.9289856-4.1080017
	C327.973999,153.1130066,328.1159973,153,328.2789917,153l0,0h5.1270142l1.6990051-1.1660004l-1.7010193-1.4340057H334.3680115z"/>
<path fill-rule="evenodd" clip-rule="evenodd" fill="#A476E5" d="M339.8330078,215.4020081
	c-0.0670166,0.0829926-0.1669922,0.1309967-0.2720032,0.1309967h-1.4020081h-0.348999
	c-0.1940002,0-0.3510132-0.1560059-0.3510132-0.3500061v-1.401001c0-0.1929932,0.1570129-0.3499908,0.3510132-0.3499908h0.348999
	h0.9259949h0.1660156c0.1650085,0,0.3059998,0.1139984,0.34198,0.2749939l0.309021,1.3999939
	C339.9249878,215.2109985,339.8999939,215.3200073,339.8330078,215.4020081L339.8330078,215.4020081z M336.7600098,215.1820068
	c0,0.1940002-0.1570129,0.3499908-0.3500061,0.3499908h-2.1000061c-0.1940002,0-0.3509827-0.1559906-0.3509827-0.3499908v-1.4000092
	c0-0.1929932,0.1569824-0.3499908,0.3509827-0.3499908h2.1000061c0.1929932,0,0.3500061,0.1569977,0.3500061,0.3499908V215.1820068z
	 M333.25,215.1820068c0,0.1940002-0.1579895,0.3499908-0.3510132,0.3499908h-2.0999756
	c-0.1940002,0-0.3500061-0.1559906-0.3500061-0.3499908v-1.4000092c0-0.1929932,0.1560059-0.3499908,0.3500061-0.3499908h2.0999756
	c0.1930237,0,0.3510132,0.1569977,0.3510132,0.3499908V215.1820068z M329.75,215.1820068
	c0,0.1949921-0.1570129,0.3509979-0.3500061,0.3509979h-0.3649902h-0.0010071h-0.6839905
	c-0.1060181,0-0.2070007-0.0480042-0.2730103-0.1309967c-0.0669861-0.0820007-0.0920105-0.1910095-0.0690002-0.2950134
	l0.3089905-1.3999939c0.0350037-0.1609955,0.178009-0.2749939,0.3420105-0.2749939h0.5280151h0.2129822
	c0.1929932,0,0.3500061,0.1569977,0.3500061,0.3499908V215.1820068z M340,219.0003052v1h-12v-1H340z M334.3680115,209.3999939
	l1.493988,1.1790009c0.0809937,0.0600128,0.1419983,0.151001,0.1419983,0.276001
	c0,0.1220093-0.0490112,0.1800079-0.1499939,0.2550049l0,0L334.5660095,212h5.1549988
	c0.1629944,0,0.3049927,0.1130066,0.3410034,0.272995l0,0l0.9289856,4.1080017
	c0.0249939,0.1220093-0.0019836,0.2490082-0.0740051,0.3509979l0,0l-0.8119812,1.1230011
	C340.0390015,217.9450073,339.9339905,218,339.8210144,218l0,0h-11.6420288c-0.1129761,0-0.2179871-0.0549927-0.2839966-0.1450043
	l0,0l-0.8119812-1.1230011c-0.0720215-0.1019897-0.098999-0.2289886-0.0740051-0.3509979l0,0l0.9289856-4.1080017
	C327.973999,212.1130066,328.1159973,212,328.2789917,212l0,0h5.1270142l1.6990051-1.1660004l-1.7010193-1.4340057H334.3680115z"/>
</svg>
